<svg width="16" height="16" viewBox="0 0 16 16" fill="none" xmlns="http://www.w3.org/2000/svg">
<g clip-path="url(#clip0_163_81)">
<path d="M0.237305 12.6701V13.6268C0.237305 13.8735 0.437274 14.0735 0.683931 14.0735C0.930588 14.0735 1.13056 13.8735 1.13056 13.6268V13.1167H14.5889V13.6268C14.5889 13.8735 14.7889 14.0735 15.0355 14.0735C15.2822 14.0735 15.4821 13.8735 15.4821 13.6268V12.6701V11.2031H0.237305V12.6701Z" fill="white"/>
<path d="M13.8396 7.43945H1.87988C0.974178 7.43945 0.237305 8.17633 0.237305 9.08206V10.3098H15.4821V9.08206C15.4821 8.17633 14.7453 7.43945 13.8396 7.43945Z" fill="white"/>
<path d="M6.18493 5.4624C5.77171 5.4624 5.43555 5.79853 5.43555 6.21172V6.54619H10.2829V6.21172C10.2829 5.79853 9.9468 5.4624 9.53361 5.4624H6.18493Z" fill="white"/>
<path d="M4.54326 6.21177C4.54326 5.30604 5.28013 4.56919 6.18589 4.56919H9.5346C10.4403 4.56919 11.1772 5.30604 11.1772 6.21177V6.54623H13.5691V4.29821C13.5691 3.39248 12.8323 2.65564 11.9265 2.65564H3.79394C2.88821 2.65564 2.15137 3.39248 2.15137 4.29821V6.54623H4.54326V6.21177Z" fill="white"/>
</g>
<defs>
<clipPath id="clip0_163_81">
<rect width="15.2448" height="15.2448" fill="white" transform="translate(0.237305 0.742065)"/>
</clipPath>
</defs>
</svg>
