<svg width="30" height="31" viewBox="0 0 30 31" fill="none" xmlns="http://www.w3.org/2000/svg">
<path d="M25.875 2.54297H4.125C2.62606 2.54297 1.40625 3.80484 1.40625 5.35547V20.3555C1.40625 21.9061 2.62606 23.168 4.125 23.168H6.84375V27.8555C6.84375 28.2164 7.04403 28.5436 7.35669 28.7002C7.48266 28.762 7.61678 28.793 7.75 28.793C7.95209 28.793 8.15238 28.7236 8.31641 28.5877L14.865 23.168H25.875C27.3739 23.168 28.5938 21.9061 28.5938 20.3555V5.35547C28.5938 3.80484 27.3739 2.54297 25.875 2.54297ZM15 15.668H7.75C7.24884 15.668 6.84375 15.248 6.84375 14.7305C6.84375 14.213 7.24884 13.793 7.75 13.793H15C15.5012 13.793 15.9062 14.213 15.9062 14.7305C15.9062 15.248 15.5012 15.668 15 15.668ZM22.25 11.918H7.75C7.24884 11.918 6.84375 11.498 6.84375 10.9805C6.84375 10.463 7.24884 10.043 7.75 10.043H22.25C22.7512 10.043 23.1562 10.463 23.1562 10.9805C23.1562 11.498 22.7512 11.918 22.25 11.918Z" fill="white"/>
</svg>
