<svg width="19" height="19" viewBox="0 0 19 19"
  xmlns="http://www.w3.org/2000/svg">
  <g clip-path="url(#clip0_129_2030)">
    <path d="M9.75008 9.87383L17.9259 5.20218C17.7374 4.71471 17.4061 4.29551 16.9754 3.99946C16.5447 3.70341 16.0347 3.5443 15.512 3.54297H3.98815C3.4655 3.5443 2.95544 3.70341 2.52472 3.99946C2.09401 4.29551 1.76272 4.71471 1.57422 5.20218L9.75008 9.87383Z" />
    <path d="M10.0716 11.1723C9.97453 11.2278 9.86462 11.257 9.75278 11.257C9.64094 11.257 9.53104 11.2278 9.43392 11.1723L1.39307 6.5791V13.8048C1.39392 14.4928 1.66761 15.1525 2.15413 15.639C2.64064 16.1255 3.30025 16.3992 3.98828 16.4H15.5121C16.2001 16.399 16.8596 16.1253 17.3461 15.6388C17.8326 15.1523 18.1063 14.4928 18.1074 13.8048V6.5791L10.0716 11.1723Z" />
  </g>
  <defs>
    <clipPath id="clip0_129_2030">
      <rect width="18" height="18" fill="white" transform="translate(0.75 0.97168)"/>
    </clipPath>
  </defs>
</svg>
