<svg width="16" height="16" viewBox="0 0 16 16" fill="none" xmlns="http://www.w3.org/2000/svg">
<g clip-path="url(#clip0_129_2060)">
<path d="M12.1001 0.291016H4.6001C2.5001 0.291016 0.850098 1.94102 0.850098 4.04102V11.541C0.850098 13.641 2.5001 15.291 4.6001 15.291H12.1001C14.2001 15.291 15.8501 13.641 15.8501 11.541V4.04102C15.8501 1.94102 14.2001 0.291016 12.1001 0.291016ZM14.3501 11.541C14.3501 12.816 13.3751 13.791 12.1001 13.791H4.6001C3.3251 13.791 2.3501 12.816 2.3501 11.541V4.04102C2.3501 2.76602 3.3251 1.79102 4.6001 1.79102H12.1001C13.3751 1.79102 14.3501 2.76602 14.3501 4.04102V11.541Z" fill="white"/>
<path d="M8.3501 4.04102C6.2501 4.04102 4.6001 5.69102 4.6001 7.79102C4.6001 9.89102 6.2501 11.541 8.3501 11.541C10.4501 11.541 12.1001 9.89102 12.1001 7.79102C12.1001 5.69102 10.4501 4.04102 8.3501 4.04102ZM8.3501 10.041C7.0751 10.041 6.1001 9.06602 6.1001 7.79102C6.1001 6.51602 7.0751 5.54102 8.3501 5.54102C9.6251 5.54102 10.6001 6.51602 10.6001 7.79102C10.6001 9.06602 9.6251 10.041 8.3501 10.041Z" fill="white"/>
<path d="M12.1001 4.79102C12.5143 4.79102 12.8501 4.45523 12.8501 4.04102C12.8501 3.6268 12.5143 3.29102 12.1001 3.29102C11.6859 3.29102 11.3501 3.6268 11.3501 4.04102C11.3501 4.45523 11.6859 4.79102 12.1001 4.79102Z" fill="white"/>
</g>
<defs>
<clipPath id="clip0_129_2060">
<rect width="15" height="15" fill="white" transform="translate(0.850098 0.291016)"/>
</clipPath>
</defs>
</svg>
