<svg width="35" height="36" viewBox="0 0 35 36" fill="none" xmlns="http://www.w3.org/2000/svg">
<circle cx="16.901" cy="16.901" r="15.901" transform="matrix(-1 0 0 1 34.5 1.19775)" stroke="white" stroke-opacity="0.1" stroke-width="2"/>
<path d="M1.43277 18.0988C1.43277 27.0271 8.67062 34.265 17.599 34.265C26.5273 34.265 33.7651 27.0271 33.7651 18.0988C33.7651 9.17046 26.5273 1.93262 17.599 1.93262" stroke="#FD0207" stroke-width="2"/>
<g clip-path="url(#clip0_129_2230)">
<path d="M11.552 18.9025H22.9115C23.0848 18.9025 23.2414 18.7961 23.3077 18.6333C23.374 18.4702 23.3374 18.2826 23.2148 18.1578L18.0712 12.9221C17.9037 12.7515 17.6327 12.7515 17.4652 12.9221C17.2976 13.0927 17.2976 13.3685 17.4652 13.5391L21.8766 18.0299H11.5524C11.315 18.0299 11.1235 18.2254 11.1235 18.4662C11.1235 18.7071 11.315 18.9025 11.552 18.9025Z" fill="white"/>
<path d="M17.7677 24.1383C17.8773 24.1383 17.9872 24.0955 18.071 24.0105L21.5003 20.52C21.6679 20.3494 21.6679 20.0737 21.5003 19.9031C21.3328 19.7325 21.0618 19.7325 20.8943 19.9031L17.465 23.3935C17.2974 23.5641 17.2974 23.8399 17.465 24.0105C17.5483 24.0955 17.6582 24.1383 17.7677 24.1383Z" fill="white"/>
</g>
<defs>
<clipPath id="clip0_129_2230">
<rect width="13.9617" height="13.9617" fill="white" transform="matrix(-1 0 0 1 24.2124 11.4854)"/>
</clipPath>
</defs>
</svg>
