<svg width="52" height="52" viewBox="0 0 52 52" fill="none" xmlns="http://www.w3.org/2000/svg">
<g clip-path="url(#clip0_296_3030)">
<path d="M46.7359 27.5737L41.8658 29.3462C41.6919 26.8765 41.3952 24.4603 40.9818 22.1464L49.8005 19.2301C50.5399 18.9855 51.0177 18.3244 51.0177 17.5458C51.0177 16.7671 50.5399 16.1059 49.8005 15.8615L26.397 8.12207C25.8299 7.93441 25.2051 7.93441 24.6381 8.12207L1.23471 15.8615C0.495307 16.106 0.0175781 16.7671 0.0175781 17.5459C0.0175781 18.3246 0.495307 18.9857 1.23471 19.2302L10.052 22.146C9.82954 23.3924 9.63809 24.6893 9.4822 26.0087C9.43389 26.4185 9.72674 26.7898 10.1364 26.8382C10.1662 26.8417 10.1958 26.8434 10.2251 26.8434C10.5985 26.8434 10.9212 26.5639 10.966 26.1839C11.1096 24.9681 11.2842 23.7727 11.4857 22.6202L13.8612 23.4058V25.264C12.666 25.5924 11.7852 26.6879 11.7852 27.986C11.7852 28.7686 12.1054 29.4776 12.6215 29.9894C12.2432 31.3727 11.9513 32.9938 11.7471 34.8413C11.2375 34.5499 10.8577 34.2988 10.6038 34.119C10.5289 34.066 10.4847 33.9785 10.4854 33.8847C10.4962 32.4093 10.5549 30.9108 10.6599 29.4307C10.6891 29.0191 10.3791 28.6618 9.9675 28.6326C9.55691 28.6039 9.19861 28.9134 9.16942 29.325C9.06234 30.8365 9.00238 32.3669 8.99122 33.8736C8.98684 34.4555 9.26704 35.0031 9.74039 35.3383C10.1147 35.6034 10.7318 36.0061 11.5948 36.4619C11.4681 38.0796 11.4005 39.8472 11.3925 41.7588C11.3901 42.329 11.7744 42.8267 12.3274 42.9693C12.8167 43.0955 13.6098 43.2458 14.6083 43.2458C15.6067 43.2458 16.3998 43.0954 16.8893 42.9692C17.4421 42.8266 17.8264 42.3289 17.824 41.7588C17.8197 40.7164 17.7973 39.7176 17.7576 38.7617C18.7675 39.016 19.8166 39.2308 20.8917 39.4026C20.9201 39.9896 21.0472 40.6095 21.2681 41.2165C21.6189 42.1799 22.171 43.0168 22.8232 43.5729C23.3694 44.0386 23.9657 44.2818 24.5298 44.2818C24.7261 44.2818 24.918 44.2507 25.103 44.191C25.1244 44.1853 25.1457 44.1786 25.167 44.1708L36.7139 39.9681C36.714 39.9681 36.714 39.9681 36.7141 39.968L36.7163 39.9672C37.1698 39.8027 37.5637 39.804 37.9204 39.9711C38.7344 40.3525 39.221 41.5017 39.3925 41.9783C39.5053 42.2913 39.7333 42.5413 40.0347 42.6825C40.2026 42.7612 40.3819 42.8007 40.562 42.8007C40.7058 42.8007 40.85 42.7755 40.9892 42.7248L44.4177 41.4769C44.7562 41.3537 45.025 41.0902 45.1548 40.7539C45.2838 40.4201 45.2626 40.0476 45.0967 39.7318C44.616 38.8175 43.865 38.1349 42.8951 37.7181L44.0885 37.2837C44.4762 37.1426 44.6761 36.7139 44.535 36.3262C44.3939 35.9384 43.9652 35.7384 43.5774 35.8796L41.5331 36.6237C41.6409 35.8332 41.5384 34.9051 41.1956 33.9632C40.865 33.055 40.355 32.2596 39.7513 31.7055L47.2465 28.9775C47.6911 28.8153 48.6843 29.5386 49.2304 31.0388C49.4903 31.7529 49.5828 32.4986 49.4843 33.0846C49.4119 33.5149 49.2442 33.8171 49.0356 33.893L46.6977 34.7439C46.31 34.885 46.1101 35.3137 46.2513 35.7014C46.3922 36.089 46.8204 36.289 47.2088 36.148L49.5467 35.2971C50.2782 35.0309 50.7925 34.3149 50.9577 33.3325C51.1 32.4872 50.9851 31.4911 50.6345 30.5277C49.8466 28.3626 48.1342 27.0649 46.7359 27.5737ZM14.6083 26.657C15.341 26.657 15.9372 27.2531 15.9372 27.9859C15.9372 28.7187 15.3411 29.3148 14.6083 29.3148C13.8755 29.3148 13.2793 28.7187 13.2793 27.9859C13.2793 27.2531 13.8755 26.657 14.6083 26.657ZM14.6083 41.7517C13.8645 41.7517 13.2593 41.6505 12.8878 41.5674C12.9226 36.1478 13.4613 32.7498 13.9707 30.7355C14.1758 30.783 14.3891 30.809 14.6083 30.809C14.8277 30.809 15.0408 30.783 15.2459 30.7355C15.7546 32.7473 16.2938 36.1458 16.3289 41.5674C15.9571 41.6506 15.3519 41.7517 14.6083 41.7517ZM16.5949 29.9894C17.111 29.4776 17.4313 28.7685 17.4313 27.986C17.4313 26.6879 16.5504 25.5924 15.3553 25.264V23.9L24.6379 26.9697C24.9216 27.0636 25.2194 27.1105 25.5175 27.1105C25.8153 27.1105 26.1133 27.0636 26.3968 26.9697L32.4485 24.9685C32.8403 24.839 33.0528 24.4164 32.9234 24.0246C32.7938 23.6329 32.3713 23.42 31.9795 23.5498L25.9277 25.5511C25.6631 25.6386 25.3717 25.6386 25.1071 25.5511L16.3038 22.6397L23.24 18.0497C23.271 18.0656 23.3016 18.0818 23.3337 18.0968C23.8885 18.3562 24.62 18.4878 25.5078 18.4878C26.3956 18.4878 27.1271 18.3563 27.6819 18.0968C28.4559 17.7349 28.882 17.1165 28.882 16.3555C28.882 14.9295 27.3999 13.8125 25.5078 13.8125C23.6157 13.8125 22.1336 14.9295 22.1336 16.3555C22.1336 16.5581 22.1648 16.7504 22.2238 16.9306L14.4984 22.0427L1.70377 17.8116C1.53673 17.7563 1.51172 17.6214 1.51172 17.5459C1.51172 17.4703 1.53673 17.3354 1.70377 17.2801L25.1073 9.54061C25.3718 9.45306 25.6633 9.45306 25.9279 9.54061L49.3314 17.2801C49.4984 17.3354 49.5234 17.4703 49.5234 17.5459C49.5234 17.6214 49.4984 17.7563 49.3314 17.8116L35.1269 22.5089C34.7352 22.6384 34.5227 23.061 34.6521 23.4528C34.7817 23.8445 35.2043 24.0572 35.596 23.9276L39.5497 22.6201C39.9529 24.9296 40.2466 27.4199 40.4053 29.8779C40.4053 29.8779 33.9036 32.2444 33.903 32.2446C33.9028 32.2447 33.9027 32.2448 33.9025 32.2448L22.3559 36.4473C22.3548 36.4477 22.3538 36.4482 22.3527 36.4486C21.752 36.6685 21.2987 37.1924 21.0649 37.9175C19.8948 37.7285 18.7583 37.4866 17.6742 37.1969C17.4872 34.3459 17.1266 31.9329 16.5949 29.9894ZM23.6278 16.3555C23.6278 15.8604 24.4317 15.3066 25.5078 15.3066C26.5839 15.3066 27.3878 15.8605 27.3878 16.3555C27.3878 16.7939 26.4133 16.9936 25.5078 16.9936C24.6024 16.9936 23.6278 16.7939 23.6278 16.3555ZM35.2773 33.9795C35.7296 34.3651 36.138 34.9958 36.3979 35.7099C36.6577 36.424 36.7504 37.1697 36.6518 37.7557C36.5793 38.1859 36.4117 38.4881 36.2032 38.564L26.5997 42.0594C26.7061 41.2469 26.5854 40.3098 26.2548 39.4016C25.9242 38.4935 25.4144 37.698 24.8107 37.1439L34.4142 33.6485C34.6222 33.5727 34.9452 33.6964 35.2773 33.9795ZM22.6722 40.7056C22.4123 39.9915 22.3197 39.2458 22.4183 38.6598C22.4906 38.2296 22.6583 37.9276 22.8667 37.8515C22.8668 37.8515 22.8669 37.8515 22.8669 37.8514L22.8674 37.8512C22.9077 37.8367 22.9522 37.8294 23.0002 37.8294C23.2009 37.8294 23.4625 37.954 23.7301 38.1822C24.1823 38.5678 24.5907 39.1985 24.8506 39.9126C25.1105 40.6267 25.2031 41.3724 25.1045 41.9584C25.0321 42.3887 24.8644 42.6909 24.6559 42.7668C24.4477 42.8427 24.1247 42.719 23.7926 42.4359C23.3405 42.0505 22.9321 41.4197 22.6722 40.7056ZM43.6256 40.1754L40.7093 41.2369C40.4494 40.5839 39.9804 39.6755 39.2295 39.0527L40.0263 38.7626C40.4329 38.7223 42.5817 38.5918 43.6256 40.1754ZM38.6712 32.7442C39.1235 33.1298 39.532 33.7605 39.7919 34.4746C40.3376 35.9744 40.0415 37.1663 39.5976 37.3286L38.1468 37.8567C38.2532 37.0442 38.1325 36.107 37.8019 35.1989C37.4713 34.2908 36.9616 33.4952 36.358 32.941L37.808 32.4132C38.0168 32.3375 38.3392 32.4611 38.6712 32.7442Z" fill="white"/>
</g>
<defs>
<clipPath id="clip0_296_3030">
<rect width="51" height="51" fill="white" transform="translate(0.0175781 0.631592)"/>
</clipPath>
</defs>
</svg>
