<svg width="52" height="51" viewBox="0 0 52 51" fill="none" xmlns="http://www.w3.org/2000/svg">
<g clip-path="url(#clip0_296_2970)">
<path d="M40.5051 23.6406C37.7543 23.1617 34.707 23.8656 31.6923 25.6764C31.1923 25.9767 30.7329 26.2833 30.3196 26.5791C29.4649 25.5657 28.5244 24.5421 27.5197 23.5373C26.4238 22.4414 25.3056 21.4221 24.2025 20.5071C24.5549 19.9359 24.9112 19.3071 25.2474 18.6326C27.3277 14.4576 27.6052 10.5306 26.05 7.27621C25.8573 6.87299 25.3744 6.70236 24.9711 6.89511C24.568 7.08765 24.3973 7.57076 24.59 7.97388C26.5321 12.0377 24.7135 16.5193 22.9195 19.4857C21.8594 18.677 20.8274 17.9783 19.8599 17.4215C17.1522 15.8635 15.2738 15.5787 14.2769 16.5753C14.2466 16.6056 14.2176 16.6368 14.1897 16.6688C14.0877 16.7519 14.0058 16.8598 13.9535 16.9849L13.8747 17.174C13.8655 17.1955 13.8562 17.2168 13.8477 17.2388L10.059 26.3308C10.0589 26.3311 10.0587 26.3313 10.0586 26.3317L10.0485 26.3559L5.47375 37.3338C5.47365 37.334 5.47355 37.3342 5.47345 37.3345L3.23493 42.706C3.23473 42.7065 3.23453 42.7072 3.23433 42.7077L0.335698 49.6632C0.209592 49.9659 0.278621 50.3146 0.510412 50.5465C0.665205 50.7013 0.872094 50.7834 1.08267 50.7834C1.18756 50.7834 1.29314 50.763 1.39365 50.7211L10.3403 46.993C10.3413 46.9926 10.3422 46.9923 10.3431 46.992L17.4429 44.0332C17.4431 44.0331 17.4432 44.0331 17.4433 44.033L24.9568 40.9019C24.9583 40.9014 24.9599 40.901 24.9614 40.9004L33.188 37.4721C33.1884 37.4719 33.1889 37.4716 33.1894 37.4713L34.072 37.1034C34.2008 37.0498 34.311 36.9642 34.3949 36.8579C34.4239 36.8322 34.4539 36.8077 34.4816 36.78C35.4784 35.7832 35.1937 33.9049 33.6354 31.197C33.0272 30.1399 32.2505 29.0064 31.3447 27.8428C33.4331 26.3654 36.7496 24.6287 40.2274 25.2346C40.6678 25.3115 41.0866 25.0165 41.1633 24.5764C41.24 24.1363 40.9453 23.7173 40.5051 23.6406ZM2.58528 48.4718L4.3644 44.2024C5.57834 44.9346 6.80333 45.6034 8.02733 46.2039L2.58528 48.4718ZM17.11 42.4191C15.132 41.7156 13.13 40.8166 11.1544 39.7403C10.762 39.5265 10.2706 39.6713 10.0569 40.0637C9.84311 40.4561 9.98785 40.9475 10.3803 41.1612C11.8896 41.9835 13.4154 42.708 14.9365 43.3248L10.0419 45.3645C8.36023 44.6092 6.66607 43.7123 4.99363 42.6924L6.58638 38.8702C6.90195 39.0796 7.21801 39.2846 7.53198 39.4835C7.9094 39.7226 8.40934 39.6104 8.6485 39.233C8.88756 38.8556 8.7755 38.3556 8.39798 38.1165C8.00711 37.8689 7.61316 37.6112 7.221 37.3477L8.84592 33.4483C13.2429 36.6295 17.7114 38.9303 22.1697 40.3108L17.11 42.4191ZM24.583 39.3047C19.557 38.0628 14.4851 35.5802 9.49438 31.92L11.1416 27.9438C14.1035 30.2628 17.1371 32.2 20.1725 33.71C20.5725 33.9091 21.0581 33.746 21.2572 33.346C21.4562 32.9458 21.2932 32.4603 20.8932 32.2612C17.8354 30.74 14.7743 28.7658 11.7865 26.3906L14.2619 20.4504C14.3234 20.5968 14.3902 20.7462 14.4619 20.8991C14.4636 20.9028 14.4653 20.9064 14.4669 20.9098C14.4982 20.9765 14.5307 21.0438 14.564 21.1118C14.5705 21.1251 14.5768 21.1382 14.5833 21.1516C14.6127 21.2111 14.6431 21.2712 14.674 21.3316C14.6848 21.3531 14.6953 21.3742 14.7064 21.3956C14.7348 21.4507 14.7644 21.5065 14.7939 21.5624C14.808 21.589 14.8216 21.6154 14.8359 21.6421C14.8668 21.6996 14.8988 21.758 14.9309 21.8164C14.9444 21.8411 14.9575 21.8655 14.9713 21.8903C15.0131 21.9656 15.0562 22.0418 15.1001 22.1185C15.1044 22.126 15.1084 22.1332 15.1127 22.1408C15.1161 22.1466 15.1192 22.1524 15.1227 22.1583C15.1306 22.172 15.1393 22.1859 15.1472 22.1996C15.1859 22.2662 15.2244 22.333 15.2646 22.4006C15.2822 22.4302 15.3012 22.4605 15.319 22.4901C15.368 22.5719 15.4181 22.654 15.4689 22.7367C15.507 22.7986 15.5456 22.8606 15.5847 22.923C15.6411 23.0127 15.6986 23.1027 15.7571 23.1934C15.7925 23.2482 15.8283 23.3031 15.8646 23.3582C15.9298 23.4577 15.9963 23.5576 16.064 23.6581C16.0951 23.704 16.1265 23.7502 16.158 23.7963C16.2333 23.9065 16.3097 24.0169 16.3876 24.1279C16.4132 24.1643 16.439 24.2006 16.4647 24.237C16.5509 24.358 16.638 24.4793 16.7271 24.6015C16.7464 24.6279 16.7661 24.6545 16.7855 24.681C16.8818 24.8121 16.9795 24.9437 17.0793 25.076C17.0929 25.094 17.1068 25.1122 17.1206 25.1303C17.2265 25.2699 17.334 25.4101 17.4439 25.5507C17.4529 25.5622 17.462 25.5738 17.471 25.5851C17.5856 25.7316 17.7021 25.8786 17.8207 26.0259C17.8259 26.0323 17.8312 26.0387 17.8363 26.0451C17.9583 26.1964 18.0821 26.3481 18.2083 26.5002C18.2121 26.5047 18.216 26.5093 18.2198 26.5138C18.3471 26.6671 18.4761 26.8206 18.6073 26.9744C18.6116 26.9794 18.6161 26.9845 18.6204 26.9896C18.7509 27.1424 18.883 27.2952 19.0171 27.4482C19.0251 27.4573 19.0332 27.4663 19.0412 27.4753C19.172 27.624 19.3039 27.7727 19.438 27.9215C19.454 27.9394 19.4706 27.9571 19.4866 27.975C19.6131 28.115 19.7404 28.2548 19.8698 28.3947C19.9005 28.4278 19.9319 28.4608 19.9626 28.4939C20.0791 28.619 20.1957 28.7442 20.3144 28.8689C20.3658 28.9231 20.4183 28.9769 20.4701 29.0311C20.57 29.1354 20.6696 29.2399 20.771 29.3439C20.8773 29.453 20.9853 29.5615 21.0931 29.6703C21.1419 29.7195 21.1897 29.7689 21.2388 29.818C21.2856 29.8647 21.3327 29.9104 21.3795 29.9569C21.4905 30.0671 21.6017 30.1776 21.7133 30.2863C21.8161 30.3864 21.9192 30.4848 22.0223 30.5835C22.0775 30.6365 22.1326 30.6902 22.1879 30.7428C22.3142 30.8627 22.4407 30.9808 22.5674 31.0986C22.5989 31.1279 22.6303 31.1578 22.6618 31.1868C22.8024 31.3169 22.943 31.445 23.0838 31.5721C23.1009 31.5877 23.1181 31.6035 23.1353 31.619C23.2845 31.7535 23.4336 31.8859 23.5828 32.0171C23.5914 32.0247 23.6 32.0323 23.6085 32.0398C23.7622 32.1748 23.9158 32.3075 24.0692 32.4385C24.0734 32.4422 24.0778 32.4459 24.082 32.4495C24.2373 32.5821 24.3924 32.7125 24.5473 32.841C24.5499 32.8433 24.5527 32.8456 24.5554 32.8478C24.7088 32.9751 24.8618 33.1 25.0144 33.2232C25.0196 33.2273 25.0248 33.2315 25.03 33.2358C25.1786 33.3554 25.3267 33.4728 25.4744 33.5884C25.4846 33.5964 25.4948 33.6045 25.5049 33.6125C25.6466 33.7232 25.7879 33.8315 25.9286 33.9384C25.9457 33.9513 25.9628 33.9645 25.9798 33.9773C26.1129 34.0778 26.2454 34.1762 26.3775 34.273C26.4032 34.292 26.4289 34.3109 26.4545 34.3295C26.5772 34.4191 26.6994 34.5066 26.8211 34.593C26.8568 34.6182 26.8925 34.6437 26.928 34.6686C26.9416 34.6782 26.9554 34.688 26.9691 34.6976C25.8523 34.3575 24.7269 33.9556 23.5963 33.49C23.1829 33.3198 22.7102 33.5168 22.5401 33.93C22.37 34.3432 22.567 34.8159 22.9801 34.986C25.3065 35.9442 27.6171 36.6503 29.8814 37.0968L24.583 39.3047ZM32.233 32.0042C33.6521 34.4705 33.5115 35.4621 33.3376 35.636C33.3287 35.6449 33.3171 35.6537 33.3039 35.6622C33.3038 35.6622 33.3037 35.6623 33.3036 35.6623C33.2958 35.6674 33.2871 35.6723 33.2778 35.6769C33.2762 35.6778 33.2747 35.6786 33.2729 35.6794C33.2651 35.6833 33.2563 35.687 33.2474 35.6907C33.2443 35.692 33.2414 35.6933 33.2382 35.6945C33.2282 35.6983 33.2176 35.7017 33.2067 35.7051C33.2045 35.7058 33.2025 35.7065 33.2002 35.7072C32.8066 35.8222 31.7124 35.6893 29.6841 34.5189C29.5889 34.4639 29.4923 34.4061 29.3956 34.3482C29.3155 34.3002 29.235 34.2512 29.154 34.2012C29.0995 34.1676 29.0448 34.1335 28.9899 34.099C28.899 34.0418 28.8075 33.9836 28.7156 33.924C28.6709 33.895 28.6259 33.8655 28.5807 33.8361C28.4779 33.7685 28.3745 33.6998 28.2705 33.6295C28.2366 33.6065 28.2024 33.583 28.1682 33.5597C28.0533 33.4811 27.9378 33.4013 27.8214 33.3193C27.7983 33.3029 27.7751 33.2865 27.752 33.2701C27.6254 33.1802 27.4981 33.0889 27.37 32.9953C27.3571 32.9859 27.3442 32.9762 27.3312 32.9668C27.1939 32.8661 27.0559 32.7634 26.9174 32.6584C26.9135 32.6555 26.9096 32.6524 26.9057 32.6495C26.0205 31.9784 25.1113 31.2232 24.2024 30.4032C24.1953 30.3968 24.1883 30.3903 24.1812 30.3838C24.0372 30.2537 23.8931 30.1222 23.7492 29.9888C23.7267 29.9679 23.704 29.9464 23.6814 29.9254C23.5526 29.8056 23.4237 29.685 23.295 29.5627C23.248 29.5181 23.2012 29.4725 23.1543 29.4274C23.0491 29.3267 22.9438 29.226 22.8389 29.1237C22.7387 29.0261 22.6389 28.9268 22.539 28.8278C22.487 28.7762 22.4348 28.7255 22.3829 28.6736C22.3301 28.6208 22.2787 28.5679 22.2265 28.515C22.1282 28.416 22.0298 28.3171 21.933 28.2177C21.8301 28.1121 21.7289 28.0062 21.6275 27.9003C21.5832 27.854 21.5381 27.8079 21.4941 27.7616C21.3723 27.6334 21.2523 27.505 21.1328 27.3765C21.1112 27.3533 21.0892 27.3302 21.0678 27.3071C20.9351 27.1637 20.804 27.0203 20.6745 26.8768C20.6677 26.8692 20.6604 26.8614 20.6535 26.8537C19.8338 25.945 19.0788 25.036 18.4078 24.1509C18.4047 24.1469 18.4016 24.1428 18.3986 24.1388C18.2937 24.0004 18.1913 23.8628 18.0907 23.7256C18.081 23.7125 18.0712 23.6992 18.0616 23.6861C17.9682 23.5584 17.877 23.4314 17.7874 23.305C17.7707 23.2815 17.754 23.258 17.7376 23.2347C17.6559 23.1189 17.5763 23.0036 17.4979 22.889C17.4744 22.8544 17.4507 22.82 17.4275 22.7855C17.3573 22.6818 17.2889 22.5789 17.2216 22.4764C17.1918 22.4311 17.1621 22.3858 17.133 22.3407C17.0737 22.249 17.0157 22.158 16.9587 22.0674C16.9239 22.0122 16.8897 21.957 16.8558 21.9023C16.806 21.8216 16.7572 21.7413 16.7093 21.6615C16.6512 21.5646 16.5933 21.4678 16.5381 21.3721C15.3672 19.3431 15.2349 18.2488 15.3502 17.8557C15.3504 17.8548 15.3507 17.8541 15.351 17.8532C15.3548 17.8407 15.3588 17.8289 15.363 17.8179C15.3639 17.8155 15.365 17.8134 15.3658 17.811C15.3696 17.8011 15.3737 17.7918 15.3779 17.7832C15.3784 17.7821 15.379 17.7811 15.3795 17.7801C15.3845 17.7706 15.3895 17.7615 15.3947 17.7532C15.3948 17.753 15.3949 17.7528 15.395 17.7525C15.4034 17.7395 15.4121 17.728 15.4209 17.7192C15.476 17.6641 15.613 17.6124 15.8526 17.6124C16.3703 17.6124 17.3672 17.8536 19.0527 18.8237C19.9916 19.364 20.9978 20.0481 22.0344 20.8444C21.1906 22.0518 20.5138 22.7945 20.4853 22.8253C20.1811 23.1527 20.1997 23.6644 20.527 23.9688C20.6828 24.1136 20.8805 24.1853 21.0778 24.1853C21.2947 24.1853 21.5111 24.0984 21.6705 23.927C21.7193 23.8746 22.4216 23.1132 23.3046 21.8645C24.3239 22.7176 25.3582 23.664 26.3756 24.6815C27.3325 25.6384 28.2274 26.6105 29.0404 27.5708C28.3751 28.129 27.9896 28.5251 27.959 28.5566C27.6487 28.8778 27.6577 29.3894 27.9786 29.6999C28.1357 29.8518 28.3384 29.9273 28.541 29.9273C28.7525 29.9273 28.9636 29.845 29.1223 29.6814C29.1355 29.6678 29.4741 29.3236 30.0636 28.8297C30.9239 29.9346 31.6594 31.0071 32.233 32.0042Z" fill="white"/>
<path d="M33.8123 11.6006C33.3726 11.534 32.959 11.8359 32.8902 12.2766C32.8833 12.3208 32.1466 16.7552 27.6422 21.2595C27.3263 21.5755 27.3263 22.0877 27.6422 22.4037C27.8001 22.5616 28.0072 22.6406 28.2143 22.6406C28.4213 22.6406 28.6285 22.5616 28.7864 22.4037C33.691 17.4989 34.4595 12.7209 34.4899 12.5198C34.5563 12.0789 34.2532 11.6682 33.8123 11.6006Z" fill="white"/>
<path d="M21.36 5.52029C21.36 4.62211 21.0102 3.77772 20.3751 3.14271C19.74 2.5075 18.8956 2.15778 17.9974 2.15778C17.0992 2.15778 16.2549 2.5075 15.6197 3.14251C14.9847 3.77752 14.6348 4.62201 14.6348 5.52019C14.6348 6.41837 14.9846 7.26276 15.6197 7.89777C16.2549 8.53288 17.0992 8.8826 17.9974 8.8826C18.8956 8.8826 19.7399 8.53288 20.3751 7.89777C21.0102 7.26276 21.36 6.41847 21.36 5.52029ZM19.231 6.75385C18.9016 7.08326 18.4636 7.26475 17.9975 7.26475C17.5316 7.26475 17.0935 7.08326 16.764 6.75385C16.4345 6.42444 16.2531 5.98646 16.2531 5.52039C16.253 5.05442 16.4346 4.61633 16.764 4.28683C17.0934 3.95742 17.5315 3.77603 17.9975 3.77603C18.4634 3.77603 18.9014 3.95752 19.231 4.28693C19.5604 4.61633 19.7419 5.05432 19.7419 5.52039C19.7419 5.98636 19.5604 6.42444 19.231 6.75385Z" fill="white"/>
<path d="M36.0673 3.1427C34.7563 1.83175 32.623 1.83175 31.3121 3.1427C30.6771 3.77771 30.3271 4.6222 30.3271 5.52038C30.3271 6.41856 30.677 7.26295 31.3121 7.89806C31.9675 8.55349 32.8286 8.8812 33.6898 8.8812C34.5508 8.8812 35.4118 8.55349 36.0674 7.89806C36.7024 7.26305 37.0524 6.41856 37.0524 5.52038C37.0524 4.6222 36.7023 3.77771 36.0673 3.1427ZM34.9231 6.75384C34.243 7.43418 33.1363 7.43398 32.4562 6.75384C32.1268 6.42443 31.9453 5.98645 31.9453 5.52038C31.9453 5.05431 32.1268 4.61633 32.4562 4.28692C32.7963 3.94675 33.2429 3.77682 33.6897 3.77682C34.1364 3.77682 34.5831 3.94695 34.9232 4.28692C35.2526 4.61633 35.4341 5.05431 35.4341 5.52038C35.434 5.98635 35.2525 6.42443 34.9231 6.75384Z" fill="white"/>
<path d="M45.5808 32.9059C44.2698 31.595 42.1365 31.595 40.8256 32.9059C39.5145 34.2169 39.5145 36.3502 40.8256 37.6612C41.4811 38.3167 42.3421 38.6444 43.2033 38.6444C44.0644 38.6444 44.9254 38.3167 45.5809 37.6612C46.8919 36.3502 46.8919 34.2169 45.5808 32.9059ZM44.4366 36.517C43.7565 37.1973 42.6498 37.1973 41.9697 36.517C41.2896 35.8369 41.2896 34.7303 41.9697 34.0502C42.3098 33.71 42.7565 33.5401 43.2033 33.5401C43.65 33.5401 44.0967 33.7101 44.4368 34.0502C45.1168 34.7302 45.1168 35.8369 44.4366 36.517Z" fill="white"/>
<path d="M45.4087 14.2391C45.3551 13.7956 44.9525 13.4793 44.5085 13.5331C44.3356 13.554 40.2146 14.1038 35.1237 19.1946C34.8077 19.5107 34.8077 20.0229 35.1237 20.3389C35.2816 20.4967 35.4888 20.5757 35.6957 20.5757C35.9027 20.5757 36.1098 20.4967 36.2678 20.3389C38.7042 17.9023 40.8708 16.6179 42.2593 15.9694C43.7528 15.2718 44.6896 15.1411 44.7065 15.1388C45.1481 15.0834 45.4621 14.6814 45.4087 14.2391Z" fill="white"/>
<path d="M47.1414 3.51016L45.7869 2.90314C45.4069 2.73281 45.1037 2.4295 44.9332 2.04929L44.3261 0.694899C44.1958 0.40394 43.9066 0.216675 43.5878 0.216675C43.269 0.216675 42.9799 0.403841 42.8495 0.694899L42.2425 2.04939C42.0722 2.4295 41.769 2.73271 41.3888 2.90314L40.0344 3.51016C39.7434 3.64045 39.5562 3.92971 39.5562 4.24846C39.5562 4.56721 39.7435 4.85648 40.0345 4.98677L41.389 5.59379C41.7691 5.76422 42.0724 6.06743 42.2427 6.44764L42.8497 7.80203C42.9801 8.09299 43.2693 8.28025 43.588 8.28025C43.9069 8.28025 44.196 8.09309 44.3263 7.80203L44.9333 6.44764C45.1037 6.06753 45.4068 5.76412 45.787 5.59379L47.1414 4.98677C47.4324 4.85648 47.6196 4.56721 47.6196 4.24846C47.6196 3.92971 47.4324 3.64045 47.1414 3.51016ZM43.588 5.52426C43.2889 4.98866 42.8478 4.54749 42.3123 4.24846C42.8478 3.94944 43.289 3.50817 43.588 2.97267C43.8872 3.50827 44.3283 3.94944 44.8637 4.24846C44.3282 4.54749 43.8872 4.98866 43.588 5.52426Z" fill="white"/>
<path d="M11.0979 14.5063L9.74346 13.8993C9.36345 13.729 9.06014 13.4257 8.88971 13.0454L8.28269 11.6911C8.1523 11.4001 7.86313 11.2128 7.54438 11.2128C7.22554 11.2128 6.93647 11.4 6.80608 11.6911L6.19906 13.0454C6.02863 13.4256 5.72552 13.729 5.34531 13.8993L3.99092 14.5063C3.69996 14.6366 3.5127 14.9259 3.5127 15.2446C3.5127 15.5635 3.69996 15.8526 3.99092 15.9829L5.34541 16.5899C5.72542 16.7603 6.02873 17.0635 6.19916 17.4437L6.80618 18.7982C6.93657 19.0891 7.22573 19.2764 7.54448 19.2764C7.86333 19.2764 8.1524 19.0892 8.28279 18.7982L8.88971 17.4437C9.06014 17.0636 9.36335 16.7603 9.74356 16.5899L11.0979 15.9829C11.3889 15.8526 11.5762 15.5634 11.5762 15.2446C11.5762 14.9258 11.3889 14.6366 11.0979 14.5063ZM7.54448 16.5204C7.24536 15.9849 6.80419 15.5437 6.26879 15.2447C6.80429 14.9456 7.24546 14.5044 7.54448 13.9689C7.84361 14.5045 8.28468 14.9457 8.82018 15.2447C8.28488 15.5436 7.84361 15.9848 7.54448 16.5204Z" fill="white"/>
<path d="M33.7513 44.2865L32.3968 43.6794C32.0168 43.5091 31.7135 43.2058 31.543 42.8256L30.936 41.4712C30.8056 41.1802 30.5165 40.993 30.1977 40.993C29.879 40.993 29.5898 41.1801 29.4594 41.4712L28.8524 42.8256C28.682 43.2057 28.3788 43.5091 27.9986 43.6794L26.6442 44.2865C26.3533 44.4168 26.166 44.706 26.166 45.0248C26.166 45.3435 26.3533 45.6328 26.6442 45.7631L27.9987 46.3701C28.3787 46.5404 28.682 46.8437 28.8525 47.2239L29.4595 48.5783C29.5899 48.8693 29.8791 49.0566 30.1978 49.0566C30.5166 49.0566 30.8057 48.8694 30.9361 48.5783L31.5431 47.2239C31.7136 46.8438 32.0167 46.5404 32.3969 46.3701L33.7513 45.7631C34.0422 45.6328 34.2295 45.3435 34.2295 45.0248C34.2294 44.706 34.0421 44.4168 33.7513 44.2865ZM30.1979 46.3006C29.8988 45.765 29.4577 45.3238 28.9222 45.0248C29.4577 44.7257 29.8989 44.2846 30.1979 43.749C30.497 44.2846 30.9381 44.7257 31.4736 45.0248C30.9381 45.3239 30.497 45.765 30.1979 46.3006Z" fill="white"/>
<path d="M50.7952 20.8794L49.4407 20.2723C49.0607 20.102 48.7574 19.7988 48.587 19.4186L47.98 18.0641C47.8496 17.7731 47.5604 17.5859 47.2417 17.5859C46.9229 17.5859 46.6337 17.773 46.5033 18.0641L45.8964 19.4186C45.726 19.7986 45.4228 20.1018 45.0426 20.2723L43.6882 20.8794C43.3972 21.0096 43.21 21.2989 43.21 21.6177C43.21 21.9364 43.3972 22.2257 43.6882 22.356L45.0425 22.963C45.4226 23.1334 45.7259 23.4367 45.8963 23.8168L46.5033 25.1712C46.6337 25.4622 46.9229 25.6495 47.2417 25.6495C47.5604 25.6495 47.8496 25.4623 47.98 25.1712L48.5869 23.8168C48.7573 23.4367 49.0605 23.1334 49.4407 22.963L50.7951 22.356C51.0861 22.2257 51.2733 21.9364 51.2733 21.6177C51.2734 21.2989 51.0862 21.0096 50.7952 20.8794ZM47.242 22.8935C46.9429 22.358 46.5018 21.9168 45.9662 21.6177C46.5017 21.3185 46.9428 20.8776 47.242 20.342C47.5411 20.8775 47.9822 21.3186 48.5177 21.6177C47.9821 21.9168 47.5411 22.358 47.242 22.8935Z" fill="white"/>
</g>
<defs>
<clipPath id="clip0_296_2970">
<rect width="51" height="51" fill="white" transform="translate(0.273438 0.00012207)"/>
</clipPath>
</defs>
</svg>
