<svg width="52" height="51" viewBox="0 0 52 51" fill="none" xmlns="http://www.w3.org/2000/svg">
<g clip-path="url(#clip0_296_2941)">
<path d="M50.559 24.4892C47.5076 24.5388 47.3967 25.6829 44.5702 25.6829C41.6839 25.6829 41.6304 24.4876 38.3815 24.4876C36.7203 24.4876 35.831 24.8216 35.0535 25.1217C34.9131 24.4457 35.2115 23.7255 35.8413 23.3619L36.5072 22.9775C37.7529 23.4719 39.1286 23.5886 40.3308 23.0079C41.0489 22.661 44.0967 21.1884 44.3281 21.0766C45.4244 20.5469 46.296 19.6962 46.8487 18.6163C47.0368 18.2491 46.8915 17.7989 46.5241 17.6109C46.157 17.4229 45.7068 17.5682 45.5187 17.9355C45.2134 18.532 44.7744 19.0328 44.2315 19.4089C44.2253 19.3981 42.2078 15.904 42.214 15.9145L42.2133 15.9133L40.1992 12.4248C42.0479 11.561 44.2984 12.1677 45.3971 14.0178C45.5827 14.3303 45.7254 14.6641 45.8213 15.0099C45.9315 15.4075 46.3433 15.6404 46.7406 15.5302C47.1383 15.42 47.3713 15.0084 47.2611 14.6107C47.1299 14.1374 46.935 13.6811 46.6819 13.2548C45.0367 10.4845 41.4446 9.70486 38.7578 11.5318C36.2131 13.2616 38.2023 11.9094 35.1294 13.9987C33.9952 14.7698 33.4304 16.0492 33.2433 17.3293L32.5794 17.7126C31.7926 18.167 30.7877 17.8979 30.3331 17.1107L24.7523 7.44443C24.1644 6.42572 22.9598 5.92698 21.824 6.23138L6.0802 10.4496C5.61741 10.5737 5.23053 10.8705 4.99087 11.2855C4.75131 11.7005 4.68766 12.1839 4.81177 12.6467C5.22884 14.2032 6.75117 15.1196 8.25467 14.8713C8.44951 15.66 9.07027 16.308 9.92263 16.4965C11.0792 16.7522 12.231 16.0362 12.5443 14.8662L12.8592 13.6912L17.8438 12.794C18.8326 12.6161 19.7784 12.2484 20.6259 11.7168C20.7375 12.4758 20.9919 13.2101 21.3792 13.8808C22.0426 15.0265 22.0493 15.0499 22.1748 15.2479C22.9509 16.4682 22.5689 18.0827 21.3167 18.8057L18.6834 20.326C18.3261 20.5323 18.2037 20.9892 18.4099 21.3465C18.6176 21.7064 19.0756 21.8249 19.4304 21.6199L22.0638 20.0996C24.0482 18.9539 24.6715 16.3895 23.4358 14.4464C23.3423 14.2994 23.338 14.2829 22.6731 13.1337C22.2474 12.3964 22.0341 11.5575 22.0566 10.7074C22.0663 10.3381 21.8579 9.99532 21.5258 9.83425C21.1942 9.67339 20.797 9.7218 20.5137 9.95737C19.6716 10.6572 18.6569 11.1298 17.5792 11.3236L12.128 12.3048C11.8432 12.3561 11.6136 12.5671 11.5387 12.8466L11.1011 14.4796C10.9967 14.8688 10.612 15.1189 10.2453 15.0377C9.84474 14.949 9.60139 14.5481 9.70737 14.1527C9.778 13.8876 9.7018 13.602 9.50487 13.4036C9.31043 13.2105 9.02525 13.1342 8.7584 13.2048L8.16632 13.3635C7.33338 13.5867 6.47814 13.0934 6.25491 12.2597C6.21168 12.0982 6.3087 11.9351 6.46688 11.8928L22.2105 7.67433C22.6941 7.54463 23.2076 7.7571 23.4582 8.1911L29.039 17.8574C29.893 19.3367 31.743 19.8371 33.2083 19.0709C33.2832 19.7802 33.464 20.4025 33.708 20.8251C33.9523 21.2482 34.402 21.7169 34.9801 22.1369C33.8148 22.8765 33.2933 24.2766 33.6225 25.5643C33.233 25.6374 32.7744 25.6827 32.1931 25.6827C29.2947 25.6827 29.2555 24.4874 26.0049 24.4874C22.7856 24.4874 22.6838 25.6827 19.817 25.6827C17.1376 25.6827 16.9924 24.7029 14.4163 24.5149L16.3089 23.4223C16.6662 23.216 16.7886 22.7591 16.5823 22.4018C16.3761 22.0445 15.919 21.922 15.5618 22.1283L10.5268 25.0353C10.4379 25.0688 10.3512 25.1024 10.2657 25.1353C9.53704 25.4168 8.84854 25.6828 7.44086 25.6828C4.60608 25.6828 4.52042 24.539 1.45295 24.4891C0.94932 24.4768 0.505859 24.8864 0.505859 25.4195V43.9273C0.505859 44.4402 0.923123 44.8576 1.43621 44.8576H50.5754C51.0884 44.8576 51.5059 44.4402 51.5059 43.9273V32.7272C51.5059 32.3146 51.1715 31.9801 50.7588 31.9801C50.3461 31.9801 50.0117 32.3146 50.0117 32.7272V43.3635H2V26.0094C4.13164 26.1791 4.49531 27.1769 7.44086 27.1769C10.6707 27.1769 10.7517 25.9816 13.629 25.9816C16.5272 25.9816 16.5667 27.1769 19.8171 27.1769C23.0364 27.1769 23.1382 25.9816 26.005 25.9816C28.891 25.9816 28.9445 27.1769 32.1932 27.1769C35.4563 27.1769 35.4684 25.9816 38.3815 25.9816C41.2678 25.9816 41.3213 27.1769 44.5702 27.1769C47.5214 27.1769 47.8714 26.1798 50.0117 26.0094V29.2408C50.0117 29.6534 50.3461 29.9879 50.7588 29.9879C51.1715 29.9879 51.5059 29.6534 51.5059 29.2408V25.4195C51.5059 24.8854 51.0629 24.4794 50.559 24.4892ZM41.2935 17.3083L42.9073 20.1035C42.6124 20.2459 42.1295 20.4792 42.1193 20.4842C41.7395 20.6674 41.2777 20.5246 41.067 20.1598L40.2935 18.8202C40.0704 18.4337 40.2033 17.9378 40.5898 17.7146L41.2935 17.3083ZM38.2046 13.7143C38.2251 13.7004 38.3234 13.6336 38.9327 13.2193L40.5464 16.0144L39.8427 16.4207C39.4555 16.6443 38.9608 16.5119 38.7371 16.1245L37.9637 14.7848C37.754 14.4215 37.86 13.9525 38.2046 13.7143ZM35.9693 15.2342L36.4268 14.9231C36.477 15.1325 36.5575 15.3375 36.6697 15.532L37.4432 16.8717C37.7343 17.3758 38.1946 17.7441 38.7467 17.9172C38.626 18.4604 38.7001 19.0485 38.9996 19.5674L39.7731 20.9069C39.8853 21.1015 40.0227 21.2737 40.1789 21.4219L39.6807 21.6626C37.9804 22.484 35.5197 20.9749 35.002 20.0782C34.4843 19.1815 34.4078 16.2958 35.9693 15.2342Z" fill="white"/>
<path d="M23.1804 32.5276C23.909 32.246 24.5974 31.9801 26.005 31.9801C26.4177 31.9801 26.7521 31.6456 26.7521 31.233C26.7521 30.8205 26.4177 30.486 26.005 30.486C24.3187 30.486 23.4279 30.8302 22.6418 31.1338C21.9132 31.4154 21.2248 31.6813 19.8172 31.6813C18.4096 31.6813 17.7211 31.4154 16.9925 31.1338C16.2063 30.8302 15.3154 30.486 13.6291 30.486C11.9428 30.486 11.0519 30.8301 10.2657 31.1338C9.5371 31.4153 8.8486 31.6813 7.44092 31.6813C7.02824 31.6813 6.69385 32.0158 6.69385 32.4283C6.69385 32.8409 7.02824 33.1754 7.44092 33.1754C9.1273 33.1754 10.0182 32.8312 10.8043 32.5276C11.533 32.246 12.2215 31.9801 13.6291 31.9801C15.0368 31.9801 15.7252 32.2461 16.4539 32.5276C17.24 32.8313 18.1309 33.1754 19.8172 33.1754C21.5035 33.1754 22.3943 32.8313 23.1804 32.5276Z" fill="white"/>
<path d="M19.8169 39.1739C21.5032 39.1739 22.394 38.8296 23.1801 38.526C23.9087 38.2444 24.5971 37.9786 26.0047 37.9786C27.4125 37.9786 28.1009 38.2444 28.8296 38.526C29.6157 38.8296 30.5066 39.1739 32.193 39.1739C33.8793 39.1739 34.7703 38.8297 35.5563 38.526C36.2851 38.2445 36.9735 37.9786 38.3813 37.9786C39.7891 37.9786 40.4776 38.2445 41.2064 38.526C41.9925 38.8297 42.8834 39.1739 44.5699 39.1739C44.9826 39.1739 45.317 38.8394 45.317 38.4268C45.317 38.0142 44.9826 37.6797 44.5699 37.6797C43.162 37.6797 42.4736 37.4138 41.7448 37.1323C40.9587 36.8286 40.0678 36.4844 38.3813 36.4844C36.6948 36.4844 35.8039 36.8287 35.0178 37.1323C34.289 37.4139 33.6006 37.6797 32.193 37.6797C30.7853 37.6797 30.0968 37.4139 29.3681 37.1323C28.582 36.8287 27.6911 36.4844 26.0047 36.4844C24.3184 36.4844 23.4276 36.8287 22.6415 37.1323C21.9129 37.4139 21.2245 37.6797 19.8169 37.6797C19.4042 37.6797 19.0698 38.0142 19.0698 38.4268C19.0698 38.8394 19.4043 39.1739 19.8169 39.1739Z" fill="white"/>
<path d="M29.193 24.1983C29.5928 24.0964 29.8343 23.6896 29.7323 23.2898L29.1807 21.1272C29.0787 20.7272 28.671 20.4859 28.2721 20.5879C27.8723 20.6898 27.6308 21.0966 27.7328 21.4964L28.2845 23.659C28.3865 24.0591 28.7935 24.3004 29.193 24.1983Z" fill="white"/>
</g>
<defs>
<clipPath id="clip0_296_2941">
<rect width="51" height="51" fill="white" transform="translate(0.505859 0.00012207)"/>
</clipPath>
</defs>
</svg>
