<svg width="52" height="51" viewBox="0 0 52 51" fill="none" xmlns="http://www.w3.org/2000/svg">
<g clip-path="url(#clip0_296_3073)">
<path d="M13.1083 40.45C14.0697 40.45 14.0713 38.9558 13.1083 38.9558C12.147 38.9558 12.1454 40.45 13.1083 40.45Z" fill="white"/>
<path d="M26.0297 40.45C26.9912 40.45 26.9928 38.9558 26.0297 38.9558C25.0684 38.9558 25.0667 40.45 26.0297 40.45Z" fill="white"/>
<path d="M38.9507 40.45C39.9121 40.45 39.9137 38.9558 38.9507 38.9558C37.9892 38.9558 37.9877 40.45 38.9507 40.45Z" fill="white"/>
<path d="M16.4204 26.3622C17.3818 26.3622 17.3834 24.868 16.4204 24.868C15.459 24.868 15.4574 26.3622 16.4204 26.3622Z" fill="white"/>
<path d="M26.0297 26.3622C26.9912 26.3622 26.9928 24.868 26.0297 24.868C25.0684 24.868 25.0667 26.3622 26.0297 26.3622Z" fill="white"/>
<path d="M35.6387 26.3622C36.6001 26.3622 36.6017 24.868 35.6387 24.868C34.6772 24.868 34.6756 26.3622 35.6387 26.3622Z" fill="white"/>
<path d="M35.7571 8.26228C36.1354 8.26228 36.506 7.88137 36.5043 7.51192L36.499 6.33125C36.4948 5.39323 35.0005 5.35329 35.0049 6.33783L35.0102 7.5185C35.0121 7.92998 35.3461 8.26228 35.7571 8.26228Z" fill="white"/>
<path d="M32.6264 9.16542C33.3123 9.84396 34.3644 8.78332 33.6774 8.10339L32.8375 7.27225C32.1509 6.59291 31.1 7.65485 31.7865 8.33428L32.6264 9.16542Z" fill="white"/>
<path d="M30.9203 12.017H30.9237L32.1061 12.0117C33.0496 12.0075 33.0225 10.5176 32.0996 10.5176L30.9171 10.5229C29.953 10.5271 29.9567 12.017 30.9203 12.017Z" fill="white"/>
<path d="M32.6932 13.3392L31.8607 14.1777C31.1804 14.8628 32.2399 15.9165 32.9211 15.2303L33.7535 14.3918C34.4341 13.7065 33.3736 12.6535 32.6932 13.3392Z" fill="white"/>
<path d="M37.9319 13.2687C37.6417 13.5619 37.6441 14.0349 37.9374 14.3251L38.7773 15.1563C39.4633 15.8348 40.5153 14.7742 39.8283 14.0942C39.4652 13.612 38.5546 12.6394 37.9319 13.2687Z" fill="white"/>
<path d="M38.7651 11.1671C38.7668 11.5375 39.1382 11.9109 39.5155 11.9109L40.698 11.9056C41.6415 11.9015 41.6143 10.4115 40.6914 10.4115L39.5089 10.4168C39.0963 10.4187 38.7634 10.7547 38.7651 11.1671Z" fill="white"/>
<path d="M38.3917 9.31007C38.5839 9.31007 38.7758 9.23646 38.9219 9.08934L39.7542 8.25083C40.4347 7.56532 39.3743 6.51254 38.6939 7.19816L37.8615 8.03667C37.4206 8.48102 37.7661 9.31007 38.3917 9.31007Z" fill="white"/>
<path d="M16.2005 2.99751C16.5787 2.99751 16.9494 2.6166 16.9477 2.24715L16.9424 1.06648C16.9382 0.128461 15.4439 0.0885174 15.4483 1.07306L15.4535 2.25373C15.4554 2.66521 15.7894 2.99751 16.2005 2.99751Z" fill="white"/>
<path d="M13.0703 3.90057C13.7562 4.57911 14.8083 3.51847 14.1212 2.83854L13.2813 2.0074C12.5948 1.32796 11.5439 2.39 12.2304 3.06943L13.0703 3.90057Z" fill="white"/>
<path d="M11.3637 6.75211H11.367L12.5495 6.74683C13.493 6.74264 13.4658 5.25269 12.5429 5.25269L11.3605 5.25796C10.3964 5.26235 10.4 6.75211 11.3637 6.75211Z" fill="white"/>
<path d="M13.1369 8.07438L12.3045 8.91289C11.6243 9.5981 12.6837 10.6517 13.3649 9.96556L14.1972 9.12705C14.8777 8.44154 13.8173 7.38877 13.1369 8.07438Z" fill="white"/>
<path d="M18.3753 8.00404C18.085 8.29729 18.0875 8.77034 18.3808 9.0605L19.2207 9.89154C19.9065 10.5704 20.9588 9.50934 20.2717 8.8295L19.4318 7.99846C19.1385 7.7081 18.6655 7.71069 18.3753 8.00404Z" fill="white"/>
<path d="M19.2085 5.90237C19.2104 6.31385 19.5444 6.64615 19.9555 6.64615H19.9589L21.1413 6.64087C22.0848 6.63669 22.0576 5.14673 21.1348 5.14673L19.9523 5.15201C19.5397 5.1538 19.2067 5.48978 19.2085 5.90237Z" fill="white"/>
<path d="M18.8352 4.04525C19.0272 4.04525 19.2193 3.97164 19.3653 3.82452L20.1977 2.986C20.8784 2.30059 19.8177 1.24752 19.1374 1.93333L18.305 2.77184C17.8638 3.2162 18.2096 4.04525 18.8352 4.04525Z" fill="white"/>
<path d="M50.7822 46.123H46.1411V37.9326C46.1411 35.2081 43.9338 32.99 41.2136 32.9711V24.6032C41.2136 21.969 39.1499 19.8084 36.5546 19.6511V10.7628C36.5546 10.3501 36.2202 10.0157 35.8075 10.0157C35.3949 10.0157 35.0605 10.3501 35.0605 10.7628V19.6409H29.505V11.2657C29.505 10.8531 29.1706 10.5187 28.7579 10.5187H26.7643V7.86169C29.7386 7.04559 28.6831 4.06428 27.7067 2.1999C27.1933 1.21934 26.6878 0.391985 26.6665 0.357222C26.2418 -0.118911 25.8169 -0.118911 25.3922 0.357222C25.3709 0.391985 24.8654 1.21934 24.352 2.1999C23.3777 4.0602 22.3081 7.01292 25.2703 7.85482V10.5187H23.3009C22.8882 10.5187 22.5538 10.8531 22.5538 11.2657V19.6409H16.9983V5.49796C16.9983 4.53205 15.5042 4.53205 15.5042 5.49796V19.6511C12.9087 19.8085 10.8452 21.969 10.8452 24.6032V32.9711C8.12501 32.99 5.91767 35.2081 5.91767 37.9326V46.123H1.27637C0.863686 46.123 0.529297 46.4574 0.529297 46.8701C0.529297 49.1474 2.38203 51.0001 4.6593 51.0001H47.3993C49.6766 51.0001 51.5293 49.1474 51.5293 46.8701C51.5293 46.4575 51.1949 46.123 50.7822 46.123ZM24.745 5.18599C24.745 4.22874 25.5913 3.02237 26.0305 2.23008C26.4542 2.99199 27.4779 4.46033 27.2639 5.4109C26.9455 6.82486 24.745 6.81679 24.745 5.18599ZM24.0478 15.0822H28.0107V16.5714H24.0478V15.0822ZM28.0108 12.0128V13.588H24.0479V12.0128H28.0108ZM24.0478 18.0656H28.0107V19.6408H24.0478V18.0656ZM15.8074 21.135H36.2512C37.9992 21.135 39.4484 22.435 39.6848 24.1187C38.5611 24.444 37.9294 25.4694 37.4047 26.3227C36.7956 27.313 36.3844 27.92 35.6386 27.92C34.8927 27.92 34.4816 27.313 33.8724 26.3226C33.2397 25.294 32.4524 24.0138 30.8336 24.0138C29.2148 24.0138 28.4275 25.294 27.7948 26.3227C27.1857 27.313 26.7746 27.92 26.0288 27.92C25.2831 27.92 24.8719 27.313 24.2628 26.3227C23.6302 25.294 22.8429 24.0138 21.2241 24.0138C20.5456 24.0138 19.9337 24.2502 19.4053 24.7165C18.681 25.3556 19.6694 26.476 20.3938 25.8369C20.6516 25.6095 20.9077 25.508 21.2241 25.508C21.9698 25.508 22.381 26.115 22.9901 27.1053C23.6227 28.134 24.41 29.4142 26.0288 29.4142C27.6476 29.4142 28.4349 28.134 29.0676 27.1053C29.6767 26.115 30.0878 25.508 30.8336 25.508C31.5793 25.508 31.9905 26.115 32.5996 27.1053C33.2323 28.134 34.0198 29.4142 35.6386 29.4142C37.2575 29.4142 38.0448 28.134 38.6775 27.1053C39.0588 26.4854 39.3626 26.0157 39.7195 25.751V32.9702H12.3392V25.7511C12.696 26.0158 12.9997 26.4855 13.381 27.1054C14.0136 28.1341 14.8009 29.4143 16.4197 29.4143C17.2123 29.4143 17.8869 29.107 18.4824 28.4747C19.1447 27.7715 18.0569 26.747 17.3947 27.4503C17.0846 27.7797 16.7929 27.9201 16.4197 27.9201C15.674 27.9201 15.2628 27.3131 14.6537 26.3228C14.1291 25.4696 13.4973 24.4442 12.3737 24.1188C12.6101 22.4349 14.0594 21.135 15.8074 21.135ZM10.8799 34.4644H11.592H40.4665H41.1786C42.8766 34.4644 44.2926 35.6913 44.5889 37.3049C43.0885 37.6606 42.2667 38.9946 41.5299 40.1925C40.6619 41.6038 40.0544 42.4607 38.9387 42.4607C38.1943 42.4607 37.6485 42.3081 36.3473 40.1925C35.4883 38.7959 34.5147 37.213 32.4833 37.213C30.452 37.213 29.4784 38.796 28.6194 40.1926C27.7514 41.6039 27.1439 42.4608 26.0283 42.4608C25.284 42.4608 24.7384 42.3082 23.4373 40.1926C22.5783 38.796 21.6048 37.213 19.5735 37.213C17.5422 37.213 16.5688 38.796 15.7099 40.1926C14.842 41.6039 14.2345 42.4608 13.119 42.4608C12.3747 42.4608 11.8291 42.3082 10.528 40.1926C9.79128 38.9947 8.9696 37.6607 7.46928 37.305C7.76592 35.6913 9.18187 34.4644 10.8799 34.4644ZM47.3993 49.506H4.6593C3.46528 49.506 2.45405 48.7079 2.13121 47.6172H37.0354C38.0014 47.6172 38.0014 46.123 37.0354 46.123H7.41161V38.84C7.88156 39.0528 8.4084 39.5978 9.25558 40.9752C10.1145 42.3719 11.088 43.9548 13.1193 43.9548C15.1506 43.9548 16.1239 42.3719 16.9829 40.9752C17.8508 39.564 18.4583 38.707 19.5738 38.707C20.3181 38.707 20.8638 38.8596 22.1649 40.9752C23.0238 42.3719 23.9973 43.9548 26.0286 43.9548C28.0599 43.9548 29.0335 42.3719 29.8924 40.9752C30.7604 39.564 31.368 38.707 32.4836 38.707C33.228 38.707 33.7737 38.8596 35.0749 40.9752C35.934 42.3719 36.9075 43.9548 38.939 43.9548C40.9704 43.9548 41.9439 42.3718 42.8029 40.9752C43.456 39.9135 43.9617 39.1658 44.6472 38.8604V46.123H40.8192C39.8533 46.123 39.8533 47.6172 40.8192 47.6172H49.9275C49.6045 48.7079 48.5933 49.506 47.3993 49.506Z" fill="white"/>
</g>
<defs>
<clipPath id="clip0_296_3073">
<rect width="51" height="51" fill="white" transform="translate(0.529297 0.00012207)"/>
</clipPath>
</defs>
</svg>
