<svg width="52" height="51" viewBox="0 0 52 51" fill="none" xmlns="http://www.w3.org/2000/svg">
<g clip-path="url(#clip0_296_2959)">
<path d="M30.4681 17.3271C24.5966 17.3271 19.8198 22.1039 19.8198 27.9754C19.8198 33.8469 24.5967 38.6236 30.4681 38.6236C36.3394 38.6236 41.1162 33.8469 41.1162 27.9754C41.1162 22.1039 36.3395 17.3271 30.4681 17.3271ZM30.4681 37.1295C25.4205 37.1295 21.314 33.023 21.314 27.9754C21.314 22.9278 25.4206 18.8213 30.4681 18.8213C35.5156 18.8213 39.6221 22.9278 39.6221 27.9754C39.6221 33.023 35.5157 37.1295 30.4681 37.1295Z" fill="white"/>
<path d="M30.4679 23.928C28.2362 23.928 26.4204 25.7437 26.4204 27.9754C26.4204 30.2072 28.2361 32.0228 30.4679 32.0228C32.6997 32.0228 34.5154 30.2072 34.5154 27.9754C34.5154 25.7437 32.6997 23.928 30.4679 23.928ZM30.4679 30.5287C29.06 30.5287 27.9146 29.3833 27.9146 27.9754C27.9146 26.5675 29.06 25.4221 30.4679 25.4221C31.8758 25.4221 33.0212 26.5675 33.0212 27.9754C33.0212 29.3833 31.8758 30.5287 30.4679 30.5287Z" fill="white"/>
<path d="M46.9701 14.0268H44.2539C43.2038 14.0268 42.2733 13.3968 41.8833 12.4217L40.2425 8.3201C39.6244 6.77446 38.1492 5.77588 36.4845 5.77588H22.8014C21.1368 5.77588 19.6617 6.77456 19.0435 8.3201L17.4028 12.4217C17.0127 13.3968 16.0822 14.0268 15.0321 14.0268H11.4129V12.2703C11.4129 11.4189 10.7203 10.7264 9.86895 10.7264H6.51211C5.66075 10.7264 4.96816 11.4189 4.96816 12.2703V14.0268H4.06501C1.83326 14.0268 0.0175781 15.8425 0.0175781 18.0742V41.1769C0.0175781 43.4087 1.83326 45.2244 4.06501 45.2244H10.6658H17.2666H19.3936C19.8062 45.2244 20.1407 44.8899 20.1407 44.4773C20.1407 44.0647 19.8062 43.7302 19.3936 43.7302H18.0137V41.9738C18.0137 41.1225 17.3211 40.4299 16.4698 40.4299H14.7133V22.1217H17.8092C16.9823 23.9028 16.5197 25.8859 16.5197 27.9754C16.5197 35.6667 22.777 41.924 30.4684 41.924C37.3424 41.924 43.0703 36.9256 44.2102 30.3726H45.3199C46.6418 30.3726 47.7171 29.2972 47.7171 27.9754C47.7171 26.6535 46.6417 25.5781 45.3199 25.5781H44.21C43.999 24.3654 43.6307 23.2061 43.1272 22.1217H49.5234V26.8548C49.5234 27.2674 49.8578 27.6019 50.2705 27.6019C50.6832 27.6019 51.0176 27.2674 51.0176 26.8548V18.0742C51.0176 15.8425 49.2019 14.0268 46.9701 14.0268ZM6.4623 12.2703C6.4623 12.2428 6.48462 12.2205 6.51211 12.2205H9.86895C9.89644 12.2205 9.91875 12.2428 9.91875 12.2703V14.0268H6.4623V12.2703ZM4.06501 15.521H5.71523H10.6658H13.2191V20.6276H1.51172V18.0742C1.51172 16.6664 2.65713 15.521 4.06501 15.521ZM16.5195 41.9738V43.7302H11.4129V41.9738C11.4129 41.9463 11.4352 41.924 11.4627 41.924H16.4698C16.4972 41.924 16.5195 41.9463 16.5195 41.9738ZM13.2191 40.4299H11.4627C10.6113 40.4299 9.91875 41.1225 9.91875 41.9738V43.7302H4.06501C2.65713 43.7303 1.51172 42.5849 1.51172 41.1769V33.6731H4.06501C4.47759 33.6731 4.81208 33.3386 4.81208 32.926C4.81208 32.5134 4.47759 32.1789 4.06501 32.1789H1.51172V30.3727H4.06501C4.47759 30.3727 4.81208 30.0382 4.81208 29.6256C4.81208 29.2131 4.47759 28.8786 4.06501 28.8786H1.51172V27.0724H4.06501C4.47759 27.0724 4.81208 26.7379 4.81208 26.3253C4.81208 25.9127 4.47759 25.5782 4.06501 25.5782H1.51172V22.1218H13.2191V40.4299ZM30.4682 40.4299C23.6007 40.4299 18.0136 34.8428 18.0136 27.9754C18.0136 21.1081 23.6007 15.521 30.4682 15.521C37.3355 15.521 42.9226 21.1081 42.9226 27.9754C42.9226 34.8428 37.3356 40.4299 30.4682 40.4299ZM45.3199 27.0723C45.8179 27.0723 46.223 27.4774 46.223 27.9754C46.223 28.4734 45.8179 28.8785 45.3199 28.8785H44.3868C44.406 28.5798 44.4169 28.2788 44.4169 27.9754C44.4169 27.6719 44.406 27.371 44.3868 27.0723H45.3199ZM42.3193 20.6275C39.8555 16.6683 35.4649 14.0267 30.4682 14.0267C25.4715 14.0267 21.0808 16.6682 18.617 20.6275H14.7132V15.5209H15.0321C16.6967 15.5209 18.1719 14.5222 18.7901 12.9765L20.4307 8.87493C20.8208 7.89985 21.7513 7.26992 22.8014 7.26992H36.4846C37.5348 7.26992 38.4653 7.89995 38.8553 8.87493L40.496 12.9765C41.1142 14.5222 42.5893 15.5209 44.254 15.5209H46.9701C48.3781 15.5209 49.5235 16.6663 49.5235 18.0742V20.6274H42.3193V20.6275Z" fill="white"/>
<path d="M50.2706 29.096C49.8579 29.096 49.5235 29.4305 49.5235 29.8431V41.177C49.5235 42.5849 48.3781 43.7303 46.9701 43.7303H22.3818C21.9693 43.7303 21.6348 44.0648 21.6348 44.4774C21.6348 44.89 21.9693 45.2245 22.3818 45.2245H46.9702C49.202 45.2245 51.0177 43.4088 51.0177 41.177V29.8431C51.0176 29.4304 50.6833 29.096 50.2706 29.096Z" fill="white"/>
<path d="M35.4186 10.7264H23.8672C23.4546 10.7264 23.1201 11.0609 23.1201 11.4734C23.1201 11.886 23.4546 12.2205 23.8672 12.2205H35.4186C35.8313 12.2205 36.1657 11.886 36.1657 11.4734C36.1657 11.0609 35.8313 10.7264 35.4186 10.7264Z" fill="white"/>
<path d="M46.9703 41.924C47.383 41.924 47.7173 41.5895 47.7173 41.1769V37.8766C47.7173 37.464 47.383 37.1295 46.9703 37.1295H43.6699C43.2572 37.1295 42.9229 37.464 42.9229 37.8766V41.1769C42.9229 41.5895 43.2572 41.924 43.6699 41.924H46.9703ZM44.417 38.6237H46.2232V40.4299H44.417V38.6237Z" fill="white"/>
</g>
<defs>
<clipPath id="clip0_296_2959">
<rect width="51" height="51" fill="white" transform="translate(0.0175781 0.00012207)"/>
</clipPath>
</defs>
</svg>
