<svg width="52" height="51" viewBox="0 0 52 51" fill="none" xmlns="http://www.w3.org/2000/svg">
<g clip-path="url(#clip0_296_3004)">
<path d="M48.1745 32.5754H43.6922C44.19 31.6744 44.4948 30.5328 44.5609 29.2572C44.6818 26.9251 43.957 24.6765 42.6691 23.3886C42.1719 22.8913 41.549 22.6787 40.8672 22.7738C40.0431 22.8888 39.1467 23.4516 38.153 24.4827L37.1407 11.6041C37.0846 10.8922 36.4814 10.3346 35.7674 10.3346H33.615C33.2024 10.3346 32.868 10.6691 32.868 11.0817C32.868 11.4942 33.2024 11.8287 33.615 11.8287H35.6596L36.7828 26.1177C36.7642 26.1426 36.7456 26.1668 36.727 26.192C36.3619 26.6831 36.031 27.167 35.7502 27.597C35.2603 26.8518 34.4173 26.3586 33.4607 26.3586H32.6251C31.6686 26.3586 30.8256 26.8518 30.3357 27.597C30.0548 27.167 29.7239 26.6832 29.3588 26.192C27.7734 24.0595 26.4192 22.9414 25.2186 22.7739C24.5372 22.6788 23.9139 22.8915 23.4166 23.3887C22.1289 24.6765 21.4039 26.9251 21.5248 29.2573C21.591 30.5328 21.8957 31.6744 22.3935 32.5755H17.9112C17.1803 32.5755 16.5856 33.1701 16.5856 33.9011V37.7624C16.5856 38.3844 17.0167 38.9062 17.5954 39.0485V48.8877C17.5954 49.1029 17.6282 49.3104 17.6883 49.5061H4.06172L4.54941 43.3017H14.5504C14.963 43.3017 15.2975 42.9672 15.2975 42.5546C15.2975 42.1421 14.963 41.8076 14.5504 41.8076H4.66684L7.0233 11.8287H14.526V16.4343H14.3443C13.9317 16.4343 13.5972 16.7688 13.5972 17.1813C13.5972 17.5939 13.9317 17.9284 14.3443 17.9284H16.2508C16.6634 17.9284 16.9979 17.5939 16.9979 17.1813C16.9979 16.7688 16.6634 16.4343 16.2508 16.4343H16.0201V11.8287H26.6383V16.4343H26.4321C26.0195 16.4343 25.685 16.7688 25.685 17.1813C25.685 17.5939 26.0195 17.9284 26.4321 17.9284H28.3386C28.7512 17.9284 29.0857 17.5939 29.0857 17.1813C29.0857 16.7688 28.7512 16.4343 28.3386 16.4343H28.1324V11.8287H30.1287C30.5413 11.8287 30.8758 11.4942 30.8758 11.0817C30.8758 10.6691 30.5413 10.3346 30.1287 10.3346H28.1324V6.80334C28.1324 3.05205 25.0805 0.00012207 21.3292 0.00012207C17.5779 0.00012207 14.526 3.05205 14.526 6.80334V10.3346H6.91553C6.20143 10.3346 5.59819 10.8923 5.54221 11.6042L2.5623 49.5146C2.53232 49.8964 2.6642 50.2766 2.92408 50.5577C3.18406 50.8389 3.55271 51 3.93561 51H46.3778C47.5426 51 48.4903 50.0523 48.4903 48.8875V39.0483C49.0689 38.9061 49.5 38.3842 49.5 37.7623V33.901C49.5 33.17 48.9055 32.5754 48.1745 32.5754ZM16.0201 6.80334C16.0201 3.87592 18.4018 1.49426 21.3292 1.49426C24.2566 1.49426 26.6383 3.87592 26.6383 6.80334V10.3346H16.0201V6.80334ZM29.8865 49.506H19.7079C19.3669 49.506 19.0895 49.2286 19.0895 48.8876V39.088H29.8865V49.506ZM29.8865 37.5938H18.3424H18.0796V34.0695H29.8865V37.5938ZM29.8865 32.5754H24.2309C23.5414 31.8843 23.0926 30.64 23.0169 29.1799C22.9172 27.2573 23.4752 25.443 24.473 24.4453C24.6391 24.2791 24.795 24.2236 25.0119 24.2537C25.3611 24.3023 26.3661 24.6743 28.1506 27.0713C28.9848 28.1919 29.6488 29.3036 29.8865 29.7135V32.5754ZM31.3807 29.5148V29.097C31.3807 28.4109 31.9389 27.8527 32.625 27.8527H33.4606C34.1467 27.8527 34.7049 28.4109 34.7049 29.097V29.5141V29.5149V32.5755H31.3807V29.5148ZM34.905 49.506H31.3807V39.0879H34.905V49.506ZM34.905 37.5938H31.3807V34.0695H34.905V37.5938ZM36.1991 29.7133C36.437 29.3034 37.1009 28.1918 37.9351 27.0712C39.7195 24.6742 40.7245 24.3022 41.0738 24.2536C41.2905 24.2233 41.4465 24.279 41.6127 24.4452C42.6105 25.443 43.1685 27.2572 43.0687 29.1798C42.993 30.64 42.5442 31.8842 41.8547 32.5753H36.1991V29.7133ZM46.9962 48.8876C46.9962 49.2286 46.7187 49.506 46.3778 49.506H36.3991V39.0879H46.9962V48.8876ZM48.0059 37.5938H47.7432H36.3991V34.0695H48.0059V37.5938Z" fill="white"/>
</g>
<defs>
<clipPath id="clip0_296_3004">
<rect width="51" height="51" fill="white" transform="translate(0.529297 0.00012207)"/>
</clipPath>
</defs>
</svg>
