<svg width="17" height="18" viewBox="0 0 17 18" fill="none" xmlns="http://www.w3.org/2000/svg">
<g opacity="0.7" clip-path="url(#clip0_530_27)">
<path d="M13.4352 11.0574C13.0872 10.6769 12.6674 10.4735 12.2225 10.4735C11.7811 10.4735 11.3578 10.6732 10.9954 11.0537L9.86159 12.2404C9.7683 12.1876 9.67501 12.1387 9.58531 12.0897C9.45615 12.0219 9.33416 11.9578 9.2301 11.89C8.16807 11.1818 7.2029 10.2587 6.27721 9.06449C5.82871 8.46925 5.52732 7.96819 5.30846 7.45959C5.60267 7.17704 5.87536 6.88319 6.14087 6.60064C6.24133 6.49515 6.34179 6.3859 6.44225 6.28041C7.19573 5.48926 7.19573 4.46454 6.44225 3.67339L5.46274 2.6449C5.35151 2.52811 5.2367 2.40756 5.12906 2.287C4.91378 2.05343 4.68774 1.81232 4.45452 1.58627C4.10649 1.22461 3.69028 1.03247 3.25255 1.03247C2.81482 1.03247 2.39144 1.22461 2.03264 1.58627C2.02906 1.59004 2.02906 1.59004 2.02547 1.59381L0.80556 2.88601C0.3463 3.36824 0.0843784 3.95595 0.026971 4.63784C-0.0591402 5.73791 0.249425 6.76263 0.486231 7.43322C1.06748 9.07956 1.93577 10.6053 3.23102 12.2404C4.80255 14.2107 6.69341 15.7666 8.85337 16.8629C9.6786 17.2736 10.7801 17.7596 12.0108 17.8425C12.0861 17.8462 12.1651 17.85 12.2368 17.85C13.0656 17.85 13.7617 17.5373 14.3071 16.9157C14.3107 16.9081 14.3178 16.9044 14.3214 16.8968C14.508 16.6595 14.7233 16.4448 14.9493 16.215C15.1036 16.0605 15.2615 15.8985 15.4158 15.729C15.771 15.3409 15.9575 14.8888 15.9575 14.4255C15.9575 13.9583 15.7674 13.51 15.405 13.1332L13.4352 11.0574ZM14.7197 15.0245C14.7161 15.0245 14.7161 15.0282 14.7197 15.0245C14.5798 15.1827 14.4362 15.3259 14.282 15.4841C14.0487 15.7177 13.8119 15.9625 13.5895 16.2376C13.2271 16.6444 12.8001 16.8366 12.2404 16.8366C12.1866 16.8366 12.1292 16.8366 12.0754 16.8328C11.0097 16.7612 10.0195 16.3242 9.27675 15.9512C7.24596 14.919 5.46274 13.4535 3.98091 11.5962C2.75741 10.0478 1.93936 8.61618 1.39757 7.07909C1.06389 6.14102 0.941902 5.41015 0.995722 4.72072C1.0316 4.27994 1.19306 3.91451 1.49086 3.60181L2.71436 2.31714C2.89017 2.14384 3.07674 2.04966 3.25973 2.04966C3.48577 2.04966 3.66876 2.19282 3.78357 2.31337C3.78716 2.31714 3.79075 2.32091 3.79434 2.32468C4.0132 2.53942 4.2213 2.76169 4.44017 2.99904C4.5514 3.11959 4.66621 3.24015 4.78103 3.36447L5.76054 4.39296C6.14087 4.7923 6.14087 5.1615 5.76054 5.56084C5.65649 5.6701 5.55603 5.77935 5.45198 5.88484C5.15059 6.20883 4.86355 6.51022 4.5514 6.80407C4.54422 6.81161 4.53704 6.81538 4.53346 6.82291C4.22489 7.1469 4.2823 7.46336 4.34688 7.6781C4.35047 7.6894 4.35406 7.70071 4.35765 7.71201C4.61239 8.35999 4.97119 8.97031 5.51656 9.69741L5.52015 9.70118C6.51043 10.9821 7.55452 11.9804 8.70626 12.7452C8.85337 12.8432 9.00406 12.9223 9.14758 12.9976C9.27675 13.0654 9.39874 13.1295 9.50279 13.1973C9.51714 13.2048 9.53149 13.2161 9.54585 13.2237C9.66784 13.2877 9.78265 13.3178 9.90105 13.3178C10.1989 13.3178 10.3854 13.1219 10.4464 13.0579L11.6735 11.7695C11.7955 11.6414 11.9892 11.4869 12.2153 11.4869C12.4377 11.4869 12.6207 11.6338 12.732 11.7619C12.7355 11.7657 12.7355 11.7657 12.7391 11.7695L14.7161 13.8453C15.0857 14.2296 15.0857 14.6251 14.7197 15.0245Z" fill="white"/>
<path d="M9.18728 4.24605C10.1273 4.41181 10.9813 4.87897 11.663 5.59477C12.3447 6.31057 12.786 7.2072 12.9475 8.19425C12.9869 8.44289 13.1914 8.61619 13.4247 8.61619C13.4534 8.61619 13.4785 8.61243 13.5072 8.60866C13.7727 8.56345 13.9485 8.29973 13.9055 8.02095C13.7117 6.82669 13.1735 5.73793 12.3519 4.8752C11.5302 4.01247 10.4933 3.44737 9.35591 3.24393C9.0904 3.19872 8.84283 3.38332 8.79619 3.65834C8.74955 3.93336 8.92177 4.20084 9.18728 4.24605Z" fill="white"/>
<path d="M16.9801 7.87401C16.6607 5.90745 15.7781 4.11795 14.4219 2.69389C13.0656 1.26982 11.3613 0.343049 9.4884 0.0077538C9.22648 -0.041222 8.97891 0.147146 8.93226 0.422164C8.88921 0.700949 9.06502 0.960897 9.33053 1.00987C11.0025 1.30749 12.5274 2.14008 13.7401 3.40968C14.9529 4.68305 15.7422 6.28418 16.0257 8.03978C16.0651 8.28842 16.2697 8.46172 16.5029 8.46172C16.5316 8.46172 16.5567 8.45795 16.5854 8.45419C16.8473 8.41275 17.0267 8.14903 16.9801 7.87401Z" fill="white"/>
</g>
<defs>
<clipPath id="clip0_530_27">
<rect width="17" height="17.85" fill="white"/>
</clipPath>
</defs>
</svg>
