<svg width="19" height="19" viewBox="0 0 19 19"
  xmlns="http://www.w3.org/2000/svg">
  <g clip-path="url(#clip0_129_2036)">
    <path d="M14.0383 3.25842C13.2602 2.62134 12.3505 2.16488 11.3746 1.92196C10.3988 1.67904 9.38123 1.65572 8.39529 1.85367C7.12759 2.11357 5.96131 2.73241 5.03539 3.63645C4.10947 4.5405 3.46294 5.69165 3.17281 6.95278C2.88268 8.21391 2.96118 9.53186 3.39896 10.7496C3.83675 11.9674 4.61535 13.0337 5.64204 13.8214C6.81424 14.6794 7.81228 15.7527 8.58279 16.9842L9.10779 17.8572C9.17447 17.9681 9.2687 18.0598 9.38133 18.1235C9.49396 18.1872 9.62115 18.2207 9.75054 18.2207C9.87993 18.2207 10.0071 18.1872 10.1198 18.1235C10.2324 18.0598 10.3266 17.9681 10.3933 17.8572L10.8965 17.0187C11.5675 15.8392 12.4824 14.8164 13.58 14.0187C14.4407 13.4265 15.1521 12.6424 15.6579 11.7283C16.1637 10.8141 16.4501 9.79496 16.4946 8.75117C16.5391 7.70738 16.3405 6.66752 15.9143 5.71364C15.4882 4.75977 14.8462 3.91797 14.039 3.25467L14.0383 3.25842ZM9.74979 11.4717C9.15645 11.4717 8.57643 11.2957 8.08308 10.9661C7.58973 10.6364 7.20522 10.1679 6.97815 9.61972C6.75109 9.07154 6.69168 8.46834 6.80744 7.8864C6.92319 7.30446 7.20891 6.76991 7.62847 6.35035C8.04803 5.93079 8.58258 5.64507 9.16452 5.52931C9.74646 5.41356 10.3497 5.47297 10.8978 5.70003C11.446 5.92709 11.9146 6.31161 12.2442 6.80496C12.5738 7.29831 12.7498 7.87833 12.7498 8.47167C12.7498 9.26732 12.4337 10.0304 11.8711 10.593C11.3085 11.1556 10.5454 11.4717 9.74979 11.4717Z" />
  </g>
  <defs>
    <clipPath id="clip0_129_2036">
      <rect width="18" height="18" fill="white" transform="translate(0.75 0.97168)"/>
    </clipPath>
  </defs>
</svg>
