<svg width="21" height="22" viewBox="0 0 21 22" fill="none" xmlns="http://www.w3.org/2000/svg">
<g clip-path="url(#clip0_502_410)">
<path d="M5.28822 7.64914C5.14652 7.16927 5.01045 6.6886 4.90819 6.22806C4.2359 5.83032 3.77858 5.1065 3.77858 4.26995C3.77858 3.01151 4.80192 1.98898 6.05955 1.98898C7.31719 1.98898 8.34052 3.01232 8.34052 4.26995C8.34052 4.44306 8.31717 4.60972 8.28094 4.77155C8.49914 5.25223 8.67546 5.79328 8.83005 6.3432C9.26483 5.76349 9.53214 5.05094 9.53214 4.26995C9.53214 2.35129 7.97821 0.797363 6.05955 0.797363C4.14089 0.797363 2.58777 2.35129 2.58777 4.26995C2.58777 5.92211 3.74315 7.2981 5.28822 7.64914Z" fill="white"/>
<path d="M2.8897 15.8705C3.74556 14.9453 4.7061 15.3077 5.99192 15.5033C7.09657 15.6732 8.18432 15.3632 8.11186 14.7666C7.99753 13.8012 7.8365 13.3697 7.47016 12.1193C7.17789 11.1249 6.62315 9.33268 6.11832 7.61934C5.442 5.32709 5.24635 4.26269 6.1465 3.99699C7.1167 3.71439 7.67306 5.09279 8.17708 7.00421C8.75114 9.17971 9.05307 10.1402 9.22215 10.0895C9.52006 10.0042 9.11265 9.07343 9.89203 8.84396C10.8663 8.56055 11.0547 9.32222 11.3276 9.24573C11.6005 9.1636 11.508 8.39228 12.2849 8.16523C13.0659 7.93978 13.458 8.90113 13.7801 8.80531C14.0989 8.71111 14.0917 8.3641 14.5731 8.22642C15.0554 8.0831 16.8702 8.89549 17.9089 12.4438C19.2124 16.9051 17.7438 17.7344 18.189 19.2448L12.3703 21.4573C11.8993 20.3245 10.4403 20.2408 9.14969 19.5186C7.84938 18.7867 6.96614 17.3608 3.57729 17.43C2.30275 17.4558 2.36313 16.4397 2.8897 15.8705Z" fill="white"/>
</g>
<defs>
<clipPath id="clip0_502_410">
<rect width="20.66" height="20.66" fill="white" transform="translate(0.169922 0.797363)"/>
</clipPath>
</defs>
</svg>
