<svg width="35" height="34" viewBox="0 0 35 34" fill="none" xmlns="http://www.w3.org/2000/svg">
<circle cx="17.5094" cy="17.0988" r="15.901" stroke="white" stroke-opacity="0.1" stroke-width="2"/>
<g clip-path="url(#clip0_129_2243)">
<path d="M23.5564 17.9025H12.1969C12.0236 17.9025 11.867 17.7961 11.8007 17.6333C11.7344 17.4702 11.771 17.2826 11.8936 17.1578L17.0372 11.9221C17.2047 11.7515 17.4757 11.7515 17.6432 11.9221C17.8108 12.0927 17.8108 12.3685 17.6432 12.5391L13.2318 17.0299H23.556C23.7934 17.0299 23.9849 17.2254 23.9849 17.4662C23.9849 17.7071 23.7934 17.9025 23.5564 17.9025Z" fill="white"/>
<path d="M17.3407 23.1383C17.2311 23.1383 17.1212 23.0955 17.0374 23.0105L13.6081 19.52C13.4405 19.3494 13.4405 19.0737 13.6081 18.9031C13.7756 18.7325 14.0466 18.7325 14.2141 18.9031L17.6434 22.3935C17.811 22.5641 17.811 22.8399 17.6434 23.0105C17.5601 23.0955 17.4502 23.1383 17.3407 23.1383Z" fill="white"/>
</g>
<defs>
<clipPath id="clip0_129_2243">
<rect width="13.9617" height="13.9617" fill="white" transform="translate(10.896 10.4854)"/>
</clipPath>
</defs>
</svg>
