<svg width="45" height="46" viewBox="0 0 45 46"
  xmlns="http://www.w3.org/2000/svg">
  <rect y="0.422119" width="45" height="45" rx="5" />
  <path d="M22.1626 30.8931H14.6229C13.7748 30.8931 13.0848 30.2031 13.0848 29.355V19.8509H31.9088V22.5915C31.9088 22.9488 32.1985 23.2384 32.5557 23.2384C32.9129 23.2384 33.2026 22.9488 33.2026 22.5915V16.4822C33.2026 14.9246 31.9347 13.6575 30.3772 13.6575H14.6157C13.0582 13.6575 11.791 14.9246 11.791 16.4822V29.355C11.791 30.9161 13.0618 32.1868 14.6229 32.1868H22.1626C22.5198 32.1868 22.8095 31.8972 22.8095 31.54C22.8095 31.1828 22.5198 30.8931 22.1626 30.8931ZM14.6157 14.9512H30.3779C31.2224 14.9512 31.9088 15.6383 31.9088 16.4822V18.5572H13.0848V16.4822C13.0848 15.6376 13.7712 14.9512 14.6157 14.9512Z" fill="white"/>
  <path d="M15.5253 17.3698C15.8681 17.3698 16.1463 17.0916 16.1463 16.7488C16.1463 16.406 15.8681 16.1271 15.5253 16.1271C15.1825 16.1271 14.9043 16.4052 14.9043 16.7481C14.9043 17.0909 15.1817 17.3698 15.5253 17.3698Z" fill="white"/>
  <path d="M17.7138 17.3698C18.0566 17.3698 18.3348 17.0916 18.3348 16.7488C18.3348 16.406 18.0566 16.1271 17.7138 16.1271C17.3709 16.1271 17.0928 16.4052 17.0928 16.7481C17.0928 17.0909 17.3702 17.3698 17.7138 17.3698Z" fill="white"/>
  <path d="M19.9032 17.3698C20.2461 17.3698 20.5242 17.0917 20.5242 16.7488C20.5242 16.406 20.2461 16.1278 19.9032 16.1278C19.5604 16.1278 19.2822 16.406 19.2822 16.7488C19.2822 17.0917 19.5597 17.3698 19.9032 17.3698Z" fill="white"/>
  <path d="M32.7616 25.2891L28.4491 22.7835C27.9848 22.5132 27.407 22.5132 26.9419 22.7835L22.6294 25.2891C22.3527 25.4493 22.1816 25.7476 22.1816 26.0667C22.1816 26.3859 22.3527 26.6842 22.6294 26.8452L23.7737 27.51V29.4995C23.7737 30.0256 24.0576 30.5165 24.514 30.7796L26.3137 31.8167C26.74 32.0626 27.2179 32.1855 27.6959 32.1855C28.1731 32.1855 28.6511 32.0626 29.0773 31.8167L30.8785 30.7789C31.3342 30.5158 31.6174 30.0256 31.6174 29.4995V27.51L32.7616 26.8452C33.0384 26.6849 33.2094 26.3866 33.2094 26.0675C33.2094 25.7483 33.0384 25.4501 32.7616 25.2891ZM27.5924 23.9026C27.6571 23.8652 27.7354 23.8652 27.7987 23.9026L31.5261 26.0675L27.7987 28.2323C27.7354 28.2697 27.6571 28.269 27.5924 28.2323L23.8657 26.0675L27.5924 23.9026ZM30.3236 29.4995C30.3236 29.5649 30.2884 29.626 30.2324 29.6583L28.4319 30.6955C27.9755 30.9571 27.4134 30.9564 26.9599 30.6955L25.1601 29.6583C25.1034 29.6253 25.0681 29.5649 25.0681 29.4995V28.2625L26.9419 29.3514C27.1748 29.4866 27.4357 29.5541 27.6959 29.5541C27.9561 29.5541 28.217 29.4866 28.4491 29.3514L30.3229 28.2625L30.3236 29.4995Z" fill="white"/>
</svg>
