<svg width="45" height="46" viewBox="0 0 45 46"
  xmlns="http://www.w3.org/2000/svg">
  <rect y="0.422119" width="45" height="45" rx="5" />
  <g clip-path="url(#clip0_162_1352)">
    <path d="M35.5089 24.5436V16.0894C35.5089 13.8513 33.6881 12.0305 31.45 12.0305H29.5709C29.4269 11.2494 28.741 10.6553 27.9186 10.6553C27.0963 10.6553 26.4106 11.2492 26.2664 12.0305H25.6123C25.3211 12.0305 25.085 12.2666 25.085 12.5579C25.085 12.8492 25.3211 13.0852 25.6123 13.0852H26.4151C26.6137 13.4822 26.9649 13.7897 27.3913 13.931V14.6104C25.5347 14.8483 24.0604 16.3224 23.8227 18.179H22.5014C22.2635 16.3224 20.7892 14.8483 18.9326 14.6104V13.9312C19.359 13.7899 19.7102 13.4822 19.9088 13.0852H20.7116C21.0028 13.0852 21.2389 12.8492 21.2389 12.5579C21.2389 12.2666 21.0028 12.0305 20.7116 12.0305H20.0575C19.9135 11.2494 19.2278 10.6553 18.4055 10.6553C17.5832 10.6553 16.8972 11.2492 16.7532 12.0305H14.8739C12.636 12.0305 10.8153 13.8513 10.8153 16.0892V24.5434C10.1462 24.7652 9.66211 25.3964 9.66211 26.1388C9.66211 27.0653 10.416 27.8193 11.3426 27.8193C12.2692 27.8193 13.0231 27.0653 13.0231 26.1388C13.0231 25.3964 12.539 24.7652 11.8699 24.5436V16.0894C11.8699 14.433 13.2175 13.0852 14.8739 13.0852H16.9019C17.1005 13.4822 17.4515 13.7899 17.8781 13.9312V14.61C17.5607 14.6508 17.2496 14.728 16.9485 14.8423C16.6762 14.9455 16.5394 15.2502 16.6426 15.5223C16.746 15.7946 17.0502 15.9316 17.3228 15.8284C17.6688 15.697 18.0332 15.6303 18.4053 15.6303C20.1016 15.6303 21.4816 17.0102 21.4816 18.7064V24.4583H15.3292V18.7064C15.3292 18.4985 15.3504 18.2905 15.392 18.0884C15.4509 17.8031 15.2674 17.5242 14.9821 17.4655C14.6972 17.4065 14.4181 17.5901 14.3592 17.8754C14.3031 18.1475 14.2747 18.427 14.2747 18.7064V33.4447C14.2747 34.2543 14.9333 34.9131 15.743 34.9131H21.0679C21.8777 34.9131 22.5363 34.2543 22.5363 33.4447V32.733H23.7879V33.4447C23.7879 34.2543 24.4466 34.9131 25.2562 34.9131H30.5811C31.3909 34.9131 32.0496 34.2543 32.0496 33.4447V18.7064C32.0496 16.6075 30.4756 14.8704 28.4462 14.6104V13.9312C28.8726 13.7899 29.2236 13.4822 29.4224 13.0852H31.4502C33.1066 13.0852 34.4542 14.433 34.4542 16.0894V24.5436C33.7853 24.7652 33.301 25.3964 33.301 26.1388C33.301 27.0653 34.055 27.8193 34.9815 27.8193C35.9083 27.8193 36.6622 27.0653 36.6622 26.1388C36.662 25.3964 36.1779 24.7652 35.5089 24.5436ZM11.3426 26.7646C10.9976 26.7646 10.7168 26.4838 10.7168 26.1388C10.7168 25.7937 10.9971 25.5132 11.3422 25.513H11.3426H11.343C11.6878 25.5132 11.9684 25.794 11.9684 26.1388C11.9684 26.4838 11.6876 26.7646 11.3426 26.7646ZM18.4055 11.71C18.7505 11.71 19.0313 11.9908 19.0313 12.3358C19.0313 12.6809 18.7507 12.9614 18.4059 12.9616C18.4057 12.9616 18.4055 12.9616 18.4053 12.9616C18.4051 12.9616 18.4051 12.9616 18.4049 12.9616C18.06 12.9614 17.7795 12.6809 17.7795 12.3358C17.7797 11.9908 18.0602 11.71 18.4055 11.71ZM27.9186 11.71C28.2639 11.71 28.5444 11.9908 28.5444 12.3358C28.5444 12.6809 28.2641 12.9614 27.9193 12.9616C27.919 12.9616 27.9188 12.9616 27.9186 12.9616C27.9184 12.9616 27.9182 12.9616 27.9182 12.9616C27.5734 12.9614 27.2928 12.6809 27.2928 12.3358C27.2928 11.9908 27.5736 11.71 27.9186 11.71ZM30.9949 26.7646H24.8425V25.513H30.9949V26.7646ZM22.5363 21.54H23.7879V29.3723H22.5363V21.54ZM23.7879 20.4853H22.5363V19.2337H23.7879V20.4853ZM21.4816 25.513V26.7646H15.3292V25.513H21.4816ZM21.4816 33.4447C21.4816 33.6728 21.296 33.8584 21.0679 33.8584H15.743C15.515 33.8584 15.3292 33.6728 15.3292 33.4447V27.8193H21.4816V33.4447ZM22.5363 31.6783V30.4269H23.7879V31.6783H22.5363ZM30.5811 33.8584H25.2562C25.0281 33.8584 24.8425 33.6728 24.8425 33.4447V27.8193H30.9949V33.4447C30.9949 33.6728 30.8093 33.8584 30.5811 33.8584ZM30.9949 18.7064V24.4583H24.8425V18.7064C24.8425 18.7062 24.8425 18.7059 24.8425 18.7057C24.843 17.0098 26.2227 15.6303 27.9186 15.6303C29.6148 15.6303 30.9949 17.0102 30.9949 18.7064ZM34.9815 26.7646C34.6365 26.7646 34.3557 26.4838 34.3557 26.1388C34.3557 25.7937 34.6361 25.5132 34.9809 25.513H34.9815H34.9819C35.3268 25.5132 35.6073 25.7937 35.6073 26.1388C35.6073 26.4838 35.3266 26.7646 34.9815 26.7646Z" fill="white"/>
    <path d="M15.1273 17.1243C15.2182 17.1861 15.3212 17.2158 15.4233 17.2158C15.5921 17.2158 15.7579 17.135 15.8598 16.985L15.873 16.9657C16.0389 16.7261 15.9789 16.3978 15.7393 16.2319C15.4998 16.0663 15.1714 16.1263 15.0056 16.3656L14.9879 16.3918C14.8241 16.6326 14.8863 16.9605 15.1273 17.1243Z" fill="white"/>
    <path d="M29.9403 32.2763H27.7764C27.4853 32.2763 27.249 32.5124 27.249 32.8036C27.249 33.0947 27.4853 33.331 27.7764 33.331H29.9403C30.2316 33.331 30.4677 33.0947 30.4677 32.8036C30.4677 32.5124 30.2316 32.2763 29.9403 32.2763Z" fill="white"/>
    <path d="M26.2614 32.2763H26.249C25.9577 32.2763 25.7217 32.5124 25.7217 32.8036C25.7217 33.0949 25.9577 33.331 26.249 33.331H26.2614C26.5527 33.331 26.7887 33.0949 26.7887 32.8036C26.7887 32.5124 26.5527 32.2763 26.2614 32.2763Z" fill="white"/>
  </g>
  <defs>
    <clipPath id="clip0_162_1352">
      <rect width="27" height="27" fill="white" transform="translate(9.66211 9.28418)"/>
    </clipPath>
  </defs>
</svg>
