<svg width="45" height="46" viewBox="0 0 45 46"
  xmlns="http://www.w3.org/2000/svg">
  <rect y="0.422119" width="45" height="45" rx="5" />
  <g clip-path="url(#clip0_162_1349)">
    <path d="M34.7683 8.28418H31.5868C31.2956 8.28418 31.0595 8.52028 31.0595 8.81151V13.2412C30.1863 12.8673 29.2461 12.6753 28.2962 12.677H17.5099C13.6439 12.6769 10.5099 15.8108 10.5098 19.6767C10.5098 19.7098 10.51 19.743 10.5105 19.7761C10.5632 23.5877 13.7009 26.6742 17.5099 26.6742H17.5484C19.5533 26.6622 21.4569 25.7918 22.7775 24.2833C22.8387 24.2141 22.9443 24.2076 23.0135 24.2688C23.0186 24.2733 23.0235 24.2781 23.028 24.2833C24.3484 25.7919 26.2519 26.6623 28.2566 26.6742H28.2952C29.246 26.6748 30.1867 26.4799 31.059 26.1016V27.9795C31.0566 29.1509 30.1063 30.0994 28.9348 30.0993H26.4036C26.0462 29.3856 25.3165 28.9348 24.5183 28.9344H21.3211C20.5229 28.9347 19.7932 29.3856 19.4358 30.0993H16.5064C16.2152 30.0993 15.9791 30.3355 15.9791 30.6267V33.8039C15.9791 34.0951 16.2152 34.3312 16.5064 34.3312H19.5565C19.9465 34.926 20.6098 35.2843 21.321 35.2841H24.5199C25.2305 35.2837 25.8932 34.9255 26.2828 34.3312H29.4675C32.6843 34.3312 35.2972 31.7193 35.2972 28.5088V8.81151C35.2972 8.52028 35.0611 8.28418 34.7699 8.28418C34.7693 8.28418 34.7688 8.28418 34.7683 8.28418ZM32.1142 9.33889H34.2409V15.975C33.6966 15.1071 32.9711 14.367 32.1142 13.8055V9.33889ZM28.2646 25.6195C26.5619 25.6092 24.9453 24.8699 23.8238 23.5888C23.3787 23.0811 22.6065 23.0304 22.0988 23.4754C22.0586 23.5107 22.0207 23.5485 21.9855 23.5888C20.8641 24.8701 19.2474 25.6094 17.5447 25.6195H17.512C14.2757 25.6195 11.6116 22.9971 11.5652 19.7613C11.5174 16.4784 14.14 13.7785 17.4228 13.7307C17.4519 13.7303 17.4809 13.7301 17.5099 13.7301H28.2962C31.5794 13.7297 34.2413 16.391 34.2416 19.6742C34.2416 19.7033 34.2414 19.7323 34.241 19.7613C34.1951 22.9982 31.5315 25.6196 28.2962 25.6196L28.2646 25.6195ZM34.2409 23.3594V27.4521H32.1142V25.5326C32.9721 24.9707 33.6977 24.2292 34.2409 23.3594ZM29.69 31.0654C30.0617 30.9748 30.4139 30.8173 30.7293 30.6008L32.401 32.2699C31.6231 32.8769 30.6757 33.2271 29.69 33.2718V31.0654ZM17.0337 33.2803V31.154H19.2116V33.1748V33.2766L17.0337 33.2803ZM25.573 33.1748C25.573 33.7573 25.1008 34.2295 24.5183 34.2295H21.321C20.7385 34.2295 20.2663 33.7573 20.2663 33.1748V31.0438C20.2663 30.4613 20.7385 29.9891 21.321 29.9891H24.5199C25.1024 29.9891 25.5746 30.4613 25.5746 31.0438L25.573 33.1748ZM26.6277 33.1748V31.154H28.6353V33.2766H26.625C26.6266 33.2428 26.6277 33.2091 26.6277 33.1748ZM33.1562 31.5311L31.4898 29.8668C31.788 29.4657 31.9868 28.9996 32.0698 28.5067H34.2409C34.2424 29.6104 33.8588 30.6799 33.1562 31.5311Z" fill="white"/>
    <path d="M23.9794 31.5822H21.8584C21.5672 31.5822 21.3311 31.8183 21.3311 32.1095C21.3311 32.4008 21.5672 32.6369 21.8584 32.6369H23.9794C24.2706 32.6369 24.5067 32.4008 24.5067 32.1095C24.5067 31.8183 24.2706 31.5822 23.9794 31.5822Z" fill="white"/>
    <path d="M28.3996 15.2214H17.4065C14.947 15.2214 12.9531 17.2153 12.9531 19.6749C12.9531 22.1344 14.947 24.1283 17.4065 24.1283C18.6659 24.1283 20.0037 23.1327 20.9809 22.4055C21.1131 22.307 21.2378 22.2149 21.3553 22.1291C22.275 21.4446 23.5343 21.4426 24.4561 22.1244C24.6 22.2267 24.7545 22.3411 24.9207 22.4645C25.9195 23.206 27.163 24.1283 28.4011 24.1283C30.8607 24.1283 32.8546 22.1344 32.8546 19.6749C32.8546 17.2153 30.8607 15.2214 28.4011 15.2214H28.3996ZM28.3996 23.0736C27.5115 23.0736 26.3772 22.2298 25.5493 21.6176C25.3827 21.4942 25.2255 21.3776 25.0773 21.2716C23.7844 20.3177 22.0198 20.3209 20.7304 21.2795C20.6123 21.3655 20.4852 21.4599 20.3513 21.5595C19.4928 22.1982 18.3163 23.0735 17.4066 23.0735C15.5295 23.0732 14.0081 21.5512 14.0085 19.6742C14.0089 17.7976 15.53 16.2764 17.4066 16.2761H28.3996C30.2766 16.2765 31.798 17.7984 31.7977 19.6754C31.7973 21.552 30.2761 23.0732 28.3996 23.0736Z" fill="white"/>
  </g>
  <defs>
    <clipPath id="clip0_162_1349">
      <rect width="27" height="27" fill="white" transform="translate(9.40332 8.28418)"/>
    </clipPath>
  </defs>
</svg>
