<svg width="45" height="46" viewBox="0 0 45 46"
  xmlns="http://www.w3.org/2000/svg">
  <rect y="0.422119" width="45" height="45" rx="5" />
  <g clip-path="url(#clip0_162_1436)">
    <path d="M15.6003 11.4221C13.6979 11.4225 12.1504 12.97 12.1504 14.8724C12.1504 16.7749 13.6979 18.322 15.6003 18.322C17.5027 18.322 19.0502 16.7745 19.0502 14.8721C19.0502 12.9696 17.5027 11.4221 15.6003 11.4221ZM15.6003 17.1724C14.33 17.1724 13.3004 16.1427 13.3004 14.8724C13.3004 13.6021 14.33 12.5725 15.6003 12.5725C16.8706 12.5725 17.9002 13.6021 17.9002 14.8724C17.9002 16.1427 16.8706 17.1724 15.6003 17.1724Z" fill="white"/>
    <path d="M32.8498 17.1719H21.3502C20.715 17.1719 20.2002 17.6867 20.2002 18.3218V19.2L21.3502 19.775V18.3218H32.8498V27.5212H21.3502V26.1542L20.2002 25.8671V27.5212C20.2002 28.1563 20.715 28.6711 21.3502 28.6711H26.085L23.1571 33.5504C22.9931 33.8222 23.082 34.176 23.3549 34.3389C23.6244 34.5042 23.9794 34.4152 24.1434 34.1412L26.525 30.1715V33.8456C26.525 34.1634 26.7822 34.4206 27.1 34.4206C27.4178 34.4206 27.675 34.1634 27.675 33.8456V30.1715L30.0569 34.1408C30.1647 34.3206 30.3555 34.4202 30.5499 34.4202C30.6511 34.4202 30.7531 34.3946 30.8454 34.3382C31.1184 34.1753 31.2069 33.8215 31.0432 33.5497L28.1154 28.6704H32.8498C33.485 28.6704 33.9997 28.1556 33.9997 27.5204V18.3218C33.9998 17.6867 33.485 17.1719 32.8498 17.1719Z" fill="white"/>
    <path d="M31.102 20.4635C31.0153 20.158 30.6975 19.9783 30.3913 20.0695L23.2956 22.0969C23.2128 22.0168 23.12 21.9466 23.0142 21.8934L18.4144 19.5934C18.2545 19.5137 18.0786 19.4719 17.8999 19.4719H13.3001C12.7443 19.4719 12.2682 19.8694 12.1685 20.4161L11.0186 26.7405C10.9576 27.0759 11.0485 27.4212 11.267 27.683C11.4855 27.9448 11.809 28.0963 12.1501 28.0963H12.885L13.3039 33.3619C13.3515 33.9599 13.8502 34.4207 14.4501 34.4207H16.75C17.3361 34.4207 17.8283 33.9802 17.8931 33.398L18.8978 24.3565L22.2212 25.1872C22.3132 25.2102 22.4067 25.2213 22.4998 25.2213C22.7536 25.2213 23.0031 25.1373 23.2075 24.9779C23.4865 24.7602 23.6498 24.4255 23.6498 24.0713V23.1909L30.7079 21.1742C31.0134 21.0876 31.1897 20.7686 31.102 20.4635ZM22.4998 24.0717L17.8999 22.9218L16.75 33.2711H14.45L13.9471 26.9463H12.1501L13.3001 20.6219H15.025V24.1201C15.025 24.4378 15.2822 24.6951 15.6 24.6951C15.9178 24.6951 16.175 24.4378 16.175 24.1201V20.6218H17.8999L22.4998 22.9218V24.0717Z" fill="white"/>
  </g>
  <defs>
    <clipPath id="clip0_162_1436">
      <rect width="23" height="23" fill="white" transform="translate(11 11.4221)"/>
    </clipPath>
  </defs>
</svg>
