<svg width="45" height="46" viewBox="0 0 45 46"
  xmlns="http://www.w3.org/2000/svg">
  <rect y="0.422119" width="45" height="45" rx="5" />
  <g clip-path="url(#clip0_162_1358)">
    <path d="M33.5 22.9109C33.5035 19.9736 32.3624 17.2133 30.2868 15.1386C28.2144 13.067 25.4586 11.9268 22.5249 11.9268H22.5115C19.5736 11.9302 16.8103 13.077 14.7305 15.1559C14.7203 15.1662 14.7104 15.1767 14.7002 15.187C14.6977 15.1895 14.6949 15.1915 14.6925 15.194C14.6884 15.1981 14.6849 15.2025 14.681 15.2067C12.6329 17.2797 11.5034 20.0207 11.5 22.9338C11.4965 25.8601 12.6294 28.6104 14.6902 30.6824C14.6921 30.6844 14.6936 30.6864 14.6955 30.6884C14.6967 30.6895 14.698 30.6905 14.6991 30.6916C14.7038 30.6964 14.7084 30.7013 14.7132 30.706C16.7856 32.7776 19.5414 33.9179 22.4751 33.9179C22.4794 33.9179 22.4842 33.9179 22.4885 33.9178C25.4028 33.9144 28.1449 32.7854 30.2188 30.7381C30.2229 30.7342 30.2274 30.7307 30.2314 30.7267C30.2339 30.7242 30.236 30.7215 30.2384 30.719C30.2487 30.7088 30.2592 30.6989 30.2695 30.6887C32.3493 28.6098 33.4965 25.8476 33.5 22.9109ZM29.7633 29.3486L27.1381 26.7245C28.9085 24.5322 28.9136 21.3786 27.1537 19.1807L29.8163 16.5192C31.3684 18.2874 32.2151 20.5325 32.2123 22.9093C32.2094 25.3055 31.3437 27.5697 29.7633 29.3486ZM19.092 26.2937C17.2436 24.446 17.2436 21.4395 19.092 19.5918C20.0163 18.668 21.2303 18.206 22.4443 18.206C23.6583 18.206 24.8724 18.668 25.7966 19.5918C27.6451 21.4395 27.6451 24.4459 25.7966 26.2937C23.9482 28.1414 20.9405 28.1414 19.092 26.2937ZM22.513 13.214H22.5249C24.8983 13.214 27.1398 14.06 28.9058 15.609L26.2474 18.2663C25.1755 17.392 23.8466 16.9165 22.4444 16.9165C21.0507 16.9165 19.7294 17.3864 18.6609 18.2506L16.0712 15.6619C17.8507 14.0822 20.1159 13.2168 22.513 13.214ZM15.1652 16.5768L17.7505 19.161C15.9749 21.3597 15.9749 24.5257 17.7505 26.7244L15.1671 29.3068C13.6255 27.5414 12.7849 25.3038 12.7877 22.9354C12.7905 20.5754 13.6301 18.3432 15.1652 16.5768ZM22.4869 32.6306C22.483 32.6307 22.4791 32.6307 22.4751 32.6307C20.0932 32.6307 17.8443 31.7785 16.0755 30.2191L18.6609 27.6348C19.7293 28.4991 21.0506 28.9689 22.4443 28.9689C23.838 28.9689 25.1593 28.4991 26.2278 27.6348L28.8481 30.2541C27.081 31.7887 24.8479 32.6279 22.4869 32.6306Z" fill="white"/>
  </g>
  <defs>
    <clipPath id="clip0_162_1358">
      <rect width="22" height="22" fill="white" transform="translate(11.5 11.9221)"/>
    </clipPath>
  </defs>
</svg>
