<svg width="45" height="46" viewBox="0 0 45 46"
  xmlns="http://www.w3.org/2000/svg">
  <rect y="0.422119" width="45" height="45" rx="5" />
  <g clip-path="url(#clip0_162_1364)">
    <path d="M25.674 31.999L23.879 23.0319C23.7175 21.1096 23.6357 19.1907 23.6357 17.33V14.8185C23.64 11.9163 21.3465 9.53109 18.4461 9.42212C18.4399 9.42212 18.4346 9.4248 18.4282 9.4248C18.422 9.4248 18.4175 9.42212 18.4119 9.42212C15.5088 9.5245 13.2114 11.9134 13.2225 14.8185V17.33C13.2225 19.1916 13.1403 21.11 12.9786 23.0319L11.1836 31.9994C11.1803 32.0163 11.178 32.0332 11.1764 32.0503C11.0816 33.1738 11.4617 34.2857 12.2241 35.1163C12.9865 35.9469 14.0617 36.4204 15.1891 36.4221C15.1976 36.4221 15.2048 36.4176 15.2134 36.4172C15.2575 36.4151 15.301 36.4062 15.3426 36.391C15.3521 36.3875 15.362 36.386 15.3708 36.3821C15.419 36.3609 15.4629 36.3313 15.5006 36.2948C15.5086 36.2872 15.514 36.2777 15.5216 36.269C15.5416 36.2486 15.5597 36.2266 15.5756 36.2029L16.3106 34.9713C16.5689 34.5317 17.431 34.2256 18.4327 34.2392C19.4285 34.2244 20.2893 34.5317 20.5476 34.974L21.2812 36.2029C21.2991 36.232 21.3201 36.2585 21.3442 36.2826C21.3469 36.2853 21.3488 36.2888 21.3514 36.2915C21.3881 36.3269 21.4307 36.3558 21.4773 36.3766C21.4886 36.3821 21.5 36.386 21.5121 36.3906C21.5615 36.4104 21.6141 36.4211 21.6672 36.4221C22.2922 36.4242 22.9087 36.2791 23.4674 35.9992C23.6602 35.9007 23.8458 35.7883 24.0226 35.663C24.0384 35.6513 24.0535 35.6385 24.0677 35.6247C24.504 35.3003 24.87 34.8909 25.144 34.4215C25.1565 34.4048 25.1681 34.3873 25.1782 34.3692C25.5739 33.6638 25.7486 32.8557 25.6796 32.0499C25.6785 32.0328 25.6769 32.0159 25.674 31.999ZM18.4327 33.3392C17.3838 33.327 16.0518 33.6344 15.536 34.5127L15.4011 34.7377C15.3609 34.4007 15.3412 34.0616 15.3422 33.7221C15.4217 32.0913 16.0483 30.5348 17.1209 29.3036C17.4534 28.9313 17.9297 28.72 18.4286 28.7227C18.9277 28.7198 19.4042 28.9313 19.7369 29.3036C20.8093 30.5348 21.4359 32.0913 21.5156 33.7221C21.5156 34.061 21.4954 34.3994 21.4548 34.736L21.3234 34.5158C20.8056 33.6344 19.4983 33.3316 18.4327 33.3392ZM22.2496 35.464C22.361 34.8901 22.4166 34.3067 22.4156 33.7221C22.3383 31.8711 21.6312 30.1018 20.4113 28.7072C19.9085 28.1426 19.1875 27.8204 18.4313 27.8227C17.6751 27.8206 16.9543 28.1426 16.4513 28.7072C15.2297 30.1012 14.5209 31.8705 14.4422 33.7221C14.4412 34.3076 14.497 34.892 14.6086 35.4667C13.0419 35.1686 11.9495 33.7409 12.0714 32.1506L13.866 23.1839C13.8693 23.1674 13.8716 23.1508 13.8733 23.1337C14.0385 21.1784 14.1225 19.2258 14.1225 17.3286V14.8185C14.112 12.4045 16.016 10.4162 18.4282 10.3221C20.8383 10.4204 22.7402 12.4051 22.7355 14.8171V17.3286C22.7355 19.2231 22.8193 21.1757 22.9843 23.1337C22.986 23.1506 22.9885 23.1674 22.9916 23.1839L24.7862 32.1506C24.8331 32.7513 24.7058 33.3528 24.4199 33.8832C24.4092 33.8976 24.3993 33.9127 24.3903 33.9281C24.1686 34.3216 23.8643 34.6623 23.4983 34.9268C23.4845 34.9365 23.4715 34.9472 23.4592 34.9587C23.3314 35.0459 23.1984 35.1248 23.0606 35.195C22.8041 35.3221 22.5312 35.4127 22.2496 35.464Z" fill="white"/>
    <path d="M21.5782 16.1686C21.5782 13.6872 20.1653 11.6685 18.4282 11.6685C16.6912 11.6685 15.2783 13.6876 15.2783 16.1686C15.2783 18.6494 16.6916 20.6685 18.4282 20.6685C20.1647 20.6685 21.5782 18.6502 21.5782 16.1686ZM18.4282 19.7685C17.2087 19.7685 16.1783 18.1198 16.1783 16.1686C16.1783 14.2172 17.2087 12.5684 18.4282 12.5684C19.6476 12.5684 20.6782 14.2172 20.6782 16.1686C20.6782 18.1198 19.6483 19.7694 18.4282 19.7694V19.7685Z" fill="white"/>
    <path d="M33.8419 31.9994L32.0454 23.0319C31.8843 21.1122 31.8019 19.1934 31.8019 17.33V14.8185C31.8133 11.9134 29.5156 9.52409 26.6121 9.42212C26.6064 9.42212 26.6014 9.42521 26.5955 9.42521C26.5897 9.42521 26.5847 9.42212 26.5794 9.42212C25.4468 9.46229 24.3563 9.8615 23.4654 10.5619C23.2697 10.7153 23.2355 10.9984 23.389 11.1941C23.5424 11.3896 23.8255 11.4238 24.0212 11.2703C24.758 10.6902 25.6596 10.3584 26.5969 10.3221C29.0091 10.4154 30.9139 12.4031 30.9042 14.8171V17.3286C30.9042 19.2258 30.9885 21.178 31.1537 23.1337C31.1549 23.1506 31.1572 23.1674 31.1607 23.1839L32.9553 32.1506C33.0773 33.7407 31.9851 35.1682 30.4187 35.4667C30.5295 34.8918 30.5845 34.3076 30.5831 33.7221C30.5108 31.8696 29.8024 30.0985 28.5769 28.7072C27.9923 28.0483 27.1166 27.7255 26.244 27.8478C26.0836 27.8678 25.946 27.9725 25.8842 28.122C25.8222 28.2716 25.8452 28.4427 25.9445 28.5704C26.0438 28.6984 26.2041 28.7628 26.3643 28.7398C26.9388 28.658 27.5162 28.8698 27.9019 29.3036C28.9763 30.5338 29.604 32.0907 29.6835 33.7221C29.6835 34.061 29.6631 34.3994 29.6223 34.736L29.4909 34.5158C29.0898 33.8342 28.1124 33.3958 26.8758 33.346C26.7561 33.339 26.6385 33.3808 26.5503 33.4622C26.462 33.5433 26.4105 33.657 26.4074 33.7769C26.3973 34.0254 26.5903 34.2349 26.8385 34.245C27.7268 34.2818 28.4805 34.5747 28.7164 34.9758L29.4499 36.2048C29.4666 36.2316 29.4862 36.2563 29.5084 36.2785C29.5129 36.2835 29.516 36.2899 29.5206 36.2944C29.5568 36.3288 29.5986 36.357 29.6444 36.3776C29.6565 36.3834 29.6687 36.3879 29.6812 36.3928C29.7309 36.4116 29.7836 36.4215 29.837 36.4221C30.964 36.4196 32.0384 35.9458 32.8002 35.1153C33.562 34.2847 33.9416 33.1734 33.8468 32.0503C33.8462 32.0334 33.8446 32.0163 33.8419 31.9994Z" fill="white"/>
    <path d="M26.5969 11.6681C25.7113 11.7037 24.8981 12.1666 24.4152 12.9096C24.2683 13.11 24.3116 13.3916 24.512 13.5387C24.7125 13.6858 24.9941 13.6423 25.1411 13.4419C25.4578 12.9337 25.9993 12.6087 26.5969 12.5681C27.8168 12.5681 28.847 14.2168 28.847 16.168C28.847 18.1192 27.8168 19.7682 26.5969 19.7682C26.1159 19.7441 25.6668 19.5208 25.3572 19.152C25.1877 18.973 24.9059 18.9636 24.725 19.1308C24.544 19.2981 24.5312 19.5797 24.696 19.7626C25.1743 20.3186 25.864 20.6476 26.5969 20.6694C28.3338 20.6694 29.7469 18.6502 29.7469 16.1695C29.7469 13.6887 28.333 11.6681 26.5969 11.6681Z" fill="white"/>
    <path d="M16.6632 21.5811C16.4212 21.5269 16.1806 21.6773 16.1233 21.9185L14.7732 27.7685C14.7464 27.8849 14.7668 28.0073 14.8301 28.1086C14.8933 28.2098 14.9945 28.2819 15.1108 28.3087C15.144 28.3169 15.1778 28.3214 15.212 28.322C15.4217 28.322 15.6034 28.1772 15.6503 27.9729L17.0004 22.1229C17.0278 22.0063 17.0076 21.8837 16.9444 21.782C16.8812 21.6802 16.78 21.6081 16.6632 21.5811Z" fill="white"/>
    <path d="M20.6009 21.9185C20.5649 21.762 20.4479 21.6363 20.294 21.5891C20.1403 21.542 19.973 21.5805 19.8552 21.6903C19.7376 21.7999 19.6873 21.9638 19.7234 22.1206L21.0735 27.9706C21.1196 28.176 21.3017 28.322 21.5122 28.322C21.5464 28.322 21.5804 28.3181 21.6138 28.3105C21.7302 28.2837 21.8313 28.2116 21.8946 28.1105C21.9578 28.0091 21.9784 27.8868 21.9514 27.7704L20.6009 21.9185Z" fill="white"/>
    <path d="M28.6108 21.5811C28.4945 21.6079 28.3933 21.6797 28.3301 21.7811C28.2668 21.8824 28.2464 22.0048 28.2732 22.1212L29.6233 27.971C29.6697 28.1762 29.8517 28.322 30.0621 28.322C30.0963 28.322 30.1305 28.3181 30.1638 28.3105C30.2802 28.2837 30.3812 28.2116 30.4444 28.1105C30.5076 28.0091 30.5282 27.8867 30.5012 27.7704L29.1512 21.9204C29.0949 21.6779 28.8535 21.5265 28.6108 21.5811Z" fill="white"/>
  </g>
  <defs>
    <clipPath id="clip0_162_1364">
      <rect width="27" height="27" fill="white" transform="translate(9 9.42212)"/>
    </clipPath>
  </defs>
</svg>
