<svg width="45" height="46" viewBox="0 0 45 46"
  xmlns="http://www.w3.org/2000/svg">
  <rect y="0.422119" width="45" height="45" rx="5" />
  <g clip-path="url(#clip0_162_1418)">
    <path d="M33.4865 30.916L31.304 20.322C31.2615 20.1156 31.1222 19.9423 30.9298 19.8563L28.8611 18.9318L27.7406 14.5249C27.6896 14.3241 27.5464 14.1592 27.3547 14.0806L22.7486 12.1904C22.5894 12.125 22.4107 12.125 22.2515 12.1904L17.6454 14.0806C17.4536 14.1592 17.3105 14.3241 17.2594 14.5249L16.139 18.9318L14.0703 19.8563C13.8779 19.9423 13.7386 20.1156 13.6961 20.322L11.5135 30.916C11.4737 31.1088 11.5229 31.3092 11.6472 31.4618C11.7716 31.6144 11.958 31.7029 12.1548 31.7029H32.8452C33.042 31.7029 33.2284 31.6144 33.3528 31.4618C33.4771 31.3092 33.5262 31.1088 33.4865 30.916ZM19.0145 30.3934L19.7442 25.2009L22.5 23.1852L25.2558 25.2009L25.9855 30.3934H19.0145ZM27.3079 30.3934L26.5141 24.7446C26.4894 24.5694 26.395 24.4117 26.2522 24.3072L22.8866 21.8456C22.6564 21.6772 22.3437 21.6772 22.1135 21.8456L18.7478 24.3072C18.6051 24.4117 18.5106 24.5694 18.486 24.7446L17.6921 30.3934H12.9582L14.9109 20.9149L15.696 20.5641L15.452 21.4508C15.3561 21.7995 15.561 22.1599 15.9096 22.2558C15.9678 22.2718 16.0262 22.2795 16.0837 22.2795C16.3711 22.2795 16.6347 22.0888 16.7147 21.7983L18.4473 15.167L22.5 13.5039L26.5527 15.167L27.3482 18.2961L25.6748 17.6038C25.3406 17.4656 24.9577 17.6244 24.8195 17.9586C24.6813 18.2927 24.8401 18.6756 25.1742 18.8139L30.0891 20.9149L32.0418 30.3934H27.3079V30.3934Z" fill="white"/>
  </g>
  <defs>
    <clipPath id="clip0_162_1418">
      <rect width="22" height="22" fill="white" transform="translate(11.5 10.9221)"/>
    </clipPath>
  </defs>
</svg>
