<svg width="18" height="19" viewBox="0 0 18 19" fill="none" xmlns="http://www.w3.org/2000/svg">
<g clip-path="url(#clip0_159_824)">
<path d="M4.5569 4.56498H4.80011C5.16973 4.56498 5.46935 4.24763 5.46935 3.85638V1.90093V1.1695C5.46935 0.778252 5.16973 0.460938 4.80011 0.460938H4.5569C4.18731 0.460938 3.8877 0.778252 3.8877 1.1695V1.90097V3.85638C3.8877 4.24763 4.18731 4.56498 4.5569 4.56498Z" fill="#CACACA"/>
<path d="M13.14 4.5474H13.3832C13.7528 4.5474 14.0524 4.23009 14.0524 3.8388V1.71533V1.15189C14.0524 0.760674 13.7528 0.443359 13.3832 0.443359H13.14C12.7703 0.443359 12.4707 0.760674 12.4707 1.15189V1.71533V3.83876C12.4708 4.23009 12.7704 4.5474 13.14 4.5474Z" fill="#CACACA"/>
<path d="M16.3144 1.90088H14.5969V4.02431C14.5969 4.73266 14.0526 5.12335 13.3837 5.12335H13.1405C12.4715 5.12335 11.9273 4.54707 11.9273 3.83873V1.90088H6.01302V3.85628C6.01302 4.56463 5.46879 5.14091 4.79979 5.14091H4.55658C3.88763 5.14091 3.3434 4.56463 3.3434 3.85628V1.90088H1.49031C0.890416 1.90088 0.402344 2.41766 0.402344 3.05288V16.9729C0.402344 17.6082 0.890416 18.1249 1.49031 18.1249H16.3144C16.9143 18.1249 17.4023 17.6082 17.4023 16.9729V3.05288C17.4024 2.4177 16.9143 1.90088 16.3144 1.90088ZM16.3144 16.9729H1.49035L1.49031 6.46087H16.3146L16.3152 16.9729C16.3151 16.9729 16.3149 16.9729 16.3144 16.9729Z" fill="#CACACA"/>
<path d="M9.46444 9.98695H11.418C11.4954 9.98695 11.5582 9.92047 11.5582 9.83848V8.04739C11.5582 7.9654 11.4954 7.89893 11.418 7.89893H9.46444C9.387 7.89893 9.32422 7.9654 9.32422 8.04739V9.83848C9.32422 9.92047 9.387 9.98695 9.46444 9.98695Z" fill="#CACACA"/>
<path d="M12.6519 9.98695H14.6055C14.6829 9.98695 14.7457 9.92047 14.7457 9.83848V8.04739C14.7457 7.9654 14.6829 7.89893 14.6055 7.89893H12.6519C12.5745 7.89893 12.5117 7.9654 12.5117 8.04739V9.83848C12.5117 9.92047 12.5745 9.98695 12.6519 9.98695Z" fill="#CACACA"/>
<path d="M3.08749 12.9192H5.04097C5.1184 12.9192 5.18119 12.8528 5.18119 12.7708V10.9796C5.18119 10.8977 5.1184 10.8312 5.04097 10.8312H3.08749C3.01005 10.8312 2.94727 10.8977 2.94727 10.9796V12.7708C2.94727 12.8528 3.01005 12.9192 3.08749 12.9192Z" fill="#CACACA"/>
<path d="M6.27596 12.9192H8.22944C8.30688 12.9192 8.36966 12.8528 8.36966 12.7708V10.9796C8.36966 10.8977 8.30688 10.8312 8.22944 10.8312H6.27596C6.19853 10.8312 6.13574 10.8977 6.13574 10.9796V12.7708C6.13574 12.8528 6.19853 12.9192 6.27596 12.9192Z" fill="#CACACA"/>
<path d="M9.46444 12.9192H11.4179C11.4954 12.9192 11.5581 12.8528 11.5581 12.7708V10.9796C11.5581 10.8977 11.4954 10.8312 11.4179 10.8312H9.46444C9.387 10.8312 9.32422 10.8977 9.32422 10.9796V12.7708C9.32422 12.8528 9.387 12.9192 9.46444 12.9192Z" fill="#CACACA"/>
<path d="M12.6519 12.9192H14.6055C14.6829 12.9192 14.7457 12.8528 14.7457 12.7708V10.9796C14.7457 10.8977 14.6829 10.8312 14.6055 10.8312H12.6519C12.5745 10.8312 12.5117 10.8977 12.5117 10.9796V12.7708C12.5117 12.8528 12.5745 12.9192 12.6519 12.9192Z" fill="#CACACA"/>
<path d="M5.04191 13.7634H3.08846C3.01103 13.7634 2.94824 13.8299 2.94824 13.9119V15.703C2.94824 15.785 3.01103 15.8515 3.08846 15.8515H5.04194C5.11938 15.8515 5.18216 15.785 5.18216 15.703V13.9119C5.18213 13.8299 5.11934 13.7634 5.04191 13.7634Z" fill="#CACACA"/>
<path d="M8.22944 13.7634H6.27596C6.19853 13.7634 6.13574 13.8299 6.13574 13.9119V15.703C6.13574 15.785 6.19853 15.8515 6.27596 15.8515H8.22944C8.30688 15.8515 8.36966 15.785 8.36966 15.703V13.9119C8.36966 13.8299 8.30688 13.7634 8.22944 13.7634Z" fill="#CACACA"/>
<path d="M11.418 13.7634H9.46444C9.387 13.7634 9.32422 13.8299 9.32422 13.9119V15.703C9.32422 15.785 9.387 15.8515 9.46444 15.8515H11.418C11.4954 15.8515 11.5582 15.785 11.5582 15.703V13.9119C11.5582 13.8299 11.4954 13.7634 11.418 13.7634Z" fill="#CACACA"/>
<path d="M14.6055 13.7634H12.6519C12.5745 13.7634 12.5117 13.8299 12.5117 13.9119V15.703C12.5117 15.785 12.5745 15.8515 12.6519 15.8515H14.6055C14.6829 15.8515 14.7457 15.785 14.7457 15.703V13.9119C14.7457 13.8299 14.6829 13.7634 14.6055 13.7634Z" fill="#CACACA"/>
</g>
<defs>
<clipPath id="clip0_159_824">
<rect width="17" height="18" fill="white" transform="translate(0.402344 0.28418)"/>
</clipPath>
</defs>
</svg>
