<svg width="22" height="22" viewBox="0 0 22 22" fill="none" xmlns="http://www.w3.org/2000/svg">
<g clip-path="url(#clip0_129_2084)">
<path d="M2.17417 5.53271C2.86323 5.53271 3.91323 5.53271 4.50386 5.53271C4.79917 5.53271 5.02886 5.72959 5.12729 5.99209C5.42261 6.84521 6.07886 8.71553 6.83354 9.99521C7.85073 11.6687 8.50698 12.2921 8.93354 12.2265C9.36011 12.128 9.22886 11.0124 9.22886 10.1265C9.22886 9.24053 9.32729 7.73115 8.90073 7.04209L8.24448 6.09053C8.08042 5.86084 8.24448 5.56553 8.50698 5.56553H12.2476C12.6085 5.56553 12.9039 5.86084 12.9039 6.22178V10.9796C12.9039 10.9796 13.0679 11.8327 13.9867 10.9468C14.9054 10.0608 15.8898 8.42022 16.7101 6.74678L17.0382 5.95928C17.1367 5.72959 17.3664 5.56553 17.6289 5.56553H20.057C20.5164 5.56553 20.8445 6.0249 20.6804 6.45147L20.4179 7.14053C20.4179 7.14053 19.532 8.9124 18.6132 10.1593C17.6945 11.439 17.4976 11.7343 17.6289 12.0624C17.7601 12.3905 20.1226 14.589 20.7132 15.639C20.8773 15.9343 21.0085 16.1968 21.1398 16.4265C21.3695 16.853 21.0414 17.4108 20.5492 17.4108H17.7929C17.5632 17.4108 17.3335 17.2796 17.2351 17.0827L16.9726 16.6562C16.9726 16.6562 15.2992 14.6874 14.282 14.064C13.232 13.4733 13.2648 14.3265 13.2648 14.3265V16.0655C13.2648 16.7874 12.6742 17.378 11.9523 17.378H11.296C11.296 17.378 7.68667 17.378 4.79917 13.0796C2.53511 9.73272 1.78042 7.56709 1.51792 6.32021C1.45229 5.92646 1.74761 5.53271 2.17417 5.53271Z" fill="#5181B8"/>
</g>
<defs>
<clipPath id="clip0_129_2084">
<rect width="21" height="21" fill="white" transform="translate(0.861816 0.97168)"/>
</clipPath>
</defs>
</svg>
