<svg width="17" height="17" viewBox="0 0 17 17"
  xmlns="http://www.w3.org/2000/svg">
  <path d="M15.2067 4.24068C14.7397 4.24068 14.366 4.10991 14.0484 3.84837C13.8803 3.7176 13.7309 3.56815 13.5814 3.4187C13.488 3.32529 13.3759 3.23189 13.2638 3.15716C13.0583 3.00771 12.8342 2.98903 12.61 3.13848C12.4605 3.23189 12.3298 3.34397 12.2177 3.45606C12.0869 3.58683 11.9375 3.7176 11.788 3.82969C11.0968 4.37145 10.2375 4.37145 9.54625 3.82969C9.3968 3.69892 9.24735 3.56815 9.11658 3.43738C9.00449 3.32529 8.8924 3.2132 8.74295 3.13848C8.55614 3.02639 8.36933 3.00771 8.18251 3.1198C8.01438 3.2132 7.86493 3.34397 7.73416 3.47474C7.58471 3.60551 7.45394 3.73628 7.30449 3.84837C6.61328 4.37145 5.75394 4.37145 5.08142 3.81101C4.93196 3.68024 4.78251 3.54947 4.65174 3.4187C4.55834 3.32529 4.44625 3.23189 4.33416 3.13848C4.10999 2.98903 3.90449 2.98903 3.699 3.1198C3.51218 3.23189 3.36273 3.38134 3.1946 3.53079C2.98911 3.7176 2.78361 3.90441 2.54076 4.03518C1.88691 4.35276 1.25174 4.29672 0.672624 3.86705C0.485811 3.73628 0.33636 3.58683 0.18691 3.43738C9.64329e-05 3.25057 -0.0185849 2.95167 0.168228 2.76485C0.355041 2.57804 0.635261 2.57804 0.840756 2.76485C0.952844 2.87694 1.06493 2.97035 1.17702 3.08243C1.47592 3.36265 1.92427 3.38134 2.26054 3.10112C2.44735 2.95167 2.61548 2.78353 2.78361 2.63408C2.98911 2.44727 3.1946 2.29782 3.45614 2.20441C3.90449 2.03628 4.31548 2.07364 4.72647 2.3165C4.93196 2.42859 5.11878 2.57804 5.28691 2.74617C5.399 2.85826 5.51109 2.97035 5.64185 3.06375C5.97812 3.38134 6.44515 3.38134 6.8001 3.04507C6.98691 2.87694 7.15504 2.70881 7.34185 2.55936C7.60339 2.33518 7.88361 2.16705 8.23856 2.11101C8.63087 2.03628 8.98581 2.14837 9.32207 2.37254C9.49021 2.48463 9.63966 2.59672 9.77043 2.74617C9.91988 2.87694 10.0506 3.02639 10.2188 3.15716C10.4616 3.34397 10.8539 3.36265 11.0968 3.19452C11.321 3.04507 11.5078 2.85826 11.6946 2.67145C11.9001 2.50331 12.1056 2.33518 12.3484 2.22309C12.8155 2.0176 13.2638 2.05496 13.6935 2.3165C13.8803 2.42859 14.0671 2.57804 14.2166 2.72749C14.3473 2.83958 14.4594 2.95167 14.5902 3.08243C14.8891 3.36265 15.3561 3.38134 15.6924 3.08243C15.8605 2.95167 16.01 2.80221 16.1594 2.65276C16.3649 2.48463 16.6265 2.48463 16.8133 2.67145C16.9627 2.8209 17.0188 3.10112 16.8693 3.26925C16.5331 3.64287 16.1781 3.97914 15.6737 4.16595C15.5056 4.20331 15.3375 4.222 15.2067 4.24068Z" />
  <path d="M15.0201 11.0407C14.7399 11.0407 14.3849 10.9286 14.0673 10.6671C13.8992 10.5363 13.7311 10.3869 13.5816 10.2187C13.4695 10.1066 13.3574 10.0132 13.2267 9.91982C13.0399 9.78906 12.853 9.77037 12.6476 9.88246C12.4607 9.99455 12.2926 10.144 12.1432 10.2935C11.919 10.4989 11.7135 10.7044 11.4519 10.8165C10.8355 11.1154 10.219 11.0594 9.65854 10.6671C9.45305 10.5363 9.28491 10.3682 9.11678 10.2C9.00469 10.088 8.89261 9.99455 8.76184 9.90114C8.57502 9.77037 8.38821 9.75169 8.18272 9.86378C7.9959 9.97587 7.82777 10.1253 7.67832 10.2748C7.41678 10.5176 7.15524 10.7605 6.8003 10.8913C6.22118 11.0967 5.66074 11.022 5.15634 10.6484C4.96953 10.5176 4.8014 10.3495 4.63327 10.1814C4.52118 10.0693 4.40909 9.97587 4.27832 9.88246C4.09151 9.77037 3.90469 9.75169 3.71788 9.86378C3.51239 9.97587 3.36294 10.1253 3.1948 10.2748C3.00799 10.4616 2.8025 10.6297 2.57832 10.7605C1.96184 11.1154 1.21458 11.0594 0.654144 10.611C0.486013 10.4803 0.317881 10.3308 0.16843 10.1627C-0.018383 9.97587 -0.018383 9.69565 0.16843 9.50884C0.336562 9.32202 0.635463 9.32202 0.822276 9.49015C0.953046 9.60224 1.06513 9.73301 1.1959 9.82642C1.4948 10.088 1.84975 10.1066 2.18601 9.88246C2.39151 9.75169 2.55964 9.56488 2.72777 9.41543C2.95195 9.20994 3.1948 9.0418 3.47502 8.92971C3.92338 8.76158 4.33436 8.79895 4.72667 9.0418C4.91349 9.15389 5.1003 9.30334 5.26843 9.45279C5.3992 9.56488 5.51129 9.69565 5.64206 9.80774C5.997 10.1066 6.38931 10.1066 6.74425 9.80774C6.8937 9.67697 7.04316 9.52752 7.21129 9.39675C7.49151 9.15389 7.80909 8.9484 8.18272 8.85499C8.53766 8.78026 8.87393 8.85499 9.19151 9.0418C9.41568 9.17257 9.62118 9.35938 9.80799 9.5462C9.9014 9.6396 9.9948 9.73301 10.0882 9.80774C10.4618 10.1253 10.8728 10.1253 11.2465 9.78906C11.4333 9.62092 11.6201 9.45279 11.8069 9.28466C12.0871 9.06048 12.386 8.87367 12.7596 8.83631C13.0772 8.79895 13.3761 8.87367 13.6377 9.02312C13.8432 9.13521 14.03 9.30334 14.1981 9.45279C14.3289 9.58356 14.4596 9.69565 14.5904 9.82642C14.8519 10.0693 15.2816 10.088 15.5805 9.86378C15.786 9.71433 15.9541 9.52752 16.141 9.37807C16.3838 9.17257 16.7388 9.22862 16.8695 9.50884C16.9629 9.69565 16.9256 9.91983 16.7574 10.0693C16.6267 10.3308 16.4585 10.4989 16.253 10.6484C15.9355 10.8913 15.5618 11.0407 15.0201 11.0407Z" />
  <path d="M15.1507 7.64069C14.7397 7.64069 14.3661 7.50992 14.0485 7.24839C13.8991 7.11762 13.7496 6.98685 13.6002 6.8374C13.4881 6.72531 13.3573 6.61322 13.2265 6.5385C13.0584 6.42641 12.8716 6.42641 12.6848 6.51981C12.498 6.6319 12.3298 6.78135 12.1617 6.9308C11.9562 7.1363 11.732 7.32311 11.4705 7.45388C10.8353 7.77146 10.2189 7.71542 9.62105 7.30443C9.43424 7.17366 9.26611 7.00553 9.09797 6.8374C8.98589 6.72531 8.8738 6.6319 8.74303 6.5385C8.55622 6.42641 8.38808 6.40773 8.20127 6.51981C8.0705 6.59454 7.93973 6.68795 7.82764 6.78135C7.65951 6.9308 7.49138 7.09893 7.30457 7.2297C6.61336 7.77146 5.73534 7.77146 5.06281 7.2297C4.91336 7.09893 4.76391 6.96817 4.61446 6.81871C4.50237 6.70663 4.39028 6.61322 4.25951 6.51981C4.09138 6.40773 3.90457 6.40773 3.73644 6.50113C3.58698 6.57586 3.45622 6.68795 3.32545 6.80003C3.15731 6.94948 3.00786 7.09893 2.83973 7.2297C2.1672 7.77146 1.21446 7.7341 0.597974 7.21102C0.467205 7.09893 0.317754 6.96817 0.186985 6.81871C0.000171706 6.6319 0.000171706 6.333 0.186985 6.16487C0.373798 5.97806 0.654018 5.97806 0.840831 6.14619C0.9716 6.27696 1.10237 6.40773 1.25182 6.51981C1.51336 6.72531 1.8683 6.74399 2.14852 6.57586C2.35402 6.44509 2.52215 6.25828 2.70896 6.10882C2.93314 5.90333 3.176 5.71652 3.45622 5.60443C3.90457 5.41762 4.35292 5.45498 4.76391 5.71652C4.98808 5.84729 5.1749 6.01542 5.36171 6.20223C5.4738 6.31432 5.5672 6.40773 5.69797 6.50113C5.99687 6.76267 6.35182 6.78135 6.68808 6.55718C6.89358 6.42641 7.06171 6.23959 7.22984 6.09014C7.43534 5.90333 7.67819 5.7352 7.93973 5.62311C8.38808 5.4363 8.83644 5.47366 9.24742 5.7352C9.54632 5.92201 9.78918 6.18355 10.0507 6.42641C10.1815 6.55718 10.3309 6.66926 10.5178 6.70663C10.8167 6.76267 11.0595 6.66926 11.265 6.46377C11.4145 6.333 11.5639 6.20223 11.6947 6.07146C11.9189 5.88465 12.143 5.71652 12.4232 5.60443C12.8529 5.4363 13.2826 5.49234 13.6749 5.71652C13.8804 5.84729 14.0672 5.99674 14.2353 6.16487C14.3474 6.27696 14.4595 6.37036 14.5716 6.48245C14.9452 6.80003 15.3562 6.80003 15.7298 6.48245C15.8793 6.35168 16.0101 6.22091 16.1595 6.09014C16.365 5.90333 16.6452 5.90333 16.832 6.10882C17.0189 6.29564 17.0002 6.57586 16.8134 6.76267C16.5518 7.00553 16.309 7.26707 15.9914 7.4352C15.7298 7.56597 15.4496 7.64069 15.1507 7.64069Z" />
  <path d="M15.0572 14.4407C14.6275 14.4594 14.2165 14.2165 13.8616 13.8803C13.6748 13.7121 13.5066 13.5066 13.3011 13.3759C13.0583 13.2077 12.8715 13.189 12.6286 13.3572C12.4418 13.4693 12.2924 13.6187 12.1429 13.7682C11.9374 13.9737 11.7132 14.1605 11.4517 14.2912C10.8352 14.5715 10.2374 14.5341 9.67697 14.1418C9.49015 14.011 9.32202 13.8429 9.15389 13.6748C9.0418 13.5627 8.92972 13.4693 8.79895 13.3759C8.59345 13.2451 8.40664 13.2264 8.20114 13.3572C8.01433 13.4693 7.86488 13.6187 7.69675 13.7682C7.49125 13.955 7.30444 14.1418 7.06158 14.2726C6.4451 14.6088 5.71653 14.5528 5.17477 14.1231C4.98796 13.9737 4.81982 13.8055 4.63301 13.6374C4.52092 13.544 4.40884 13.4506 4.29675 13.3759C4.12862 13.2825 3.96048 13.2638 3.77367 13.3572C3.6429 13.4319 3.51213 13.5253 3.40004 13.6374C3.11983 13.8803 2.87697 14.1605 2.52202 14.3286C1.90554 14.6088 1.30774 14.5715 0.747298 14.1792C0.541803 14.0484 0.373671 13.8616 0.20554 13.6934C0.0187264 13.5066 0.0187264 13.2264 0.20554 13.0396C0.392353 12.8528 0.672572 12.8341 0.859386 13.0209C0.990155 13.1517 1.12092 13.2825 1.27037 13.3945C1.56928 13.6187 1.88686 13.6374 2.20444 13.4319C2.39125 13.3198 2.5407 13.1517 2.70884 13.0022C2.95169 12.7781 3.23191 12.5726 3.5495 12.4605C3.99785 12.2923 4.40884 12.3484 4.80114 12.5912C4.98796 12.7033 5.17477 12.8528 5.3429 13.0209C5.47367 13.133 5.58576 13.2638 5.71653 13.3759C6.01543 13.6374 6.37038 13.6561 6.70664 13.4319C6.91213 13.3011 7.06158 13.1143 7.2484 12.9649C7.47257 12.7594 7.73411 12.5726 8.01433 12.4792C8.444 12.311 8.85499 12.3671 9.26598 12.5912C9.47147 12.7033 9.63961 12.8528 9.80774 13.0209C9.93851 13.1517 10.0693 13.2825 10.2187 13.3945C10.5176 13.6374 10.8726 13.6561 11.1902 13.4319C11.3956 13.3011 11.5451 13.1143 11.7319 12.9649C11.9561 12.7781 12.1803 12.6099 12.4418 12.4978C12.8902 12.311 13.3385 12.3484 13.7495 12.6099C13.9737 12.7407 14.1605 12.9088 14.3286 13.077C14.422 13.1704 14.5154 13.2638 14.6275 13.3385C15.0011 13.6561 15.3935 13.6561 15.7671 13.3385C15.9165 13.2077 16.066 13.077 16.1967 12.9462C16.477 12.7033 16.9066 12.8154 16.9814 13.1704C17.0187 13.3198 17 13.4693 16.888 13.5627C16.6077 13.8429 16.3275 14.1231 15.9726 14.3099C15.6924 14.3846 15.4308 14.4407 15.0572 14.4407Z" />
</svg>
