<svg width="16" height="16" viewBox="0 0 16 16" fill="none" xmlns="http://www.w3.org/2000/svg">
<g clip-path="url(#clip0_129_2048)">
<path d="M8.35197 0.291016H8.34822C4.21291 0.291016 0.850098 3.65477 0.850098 7.79102C0.850098 9.43164 1.37885 10.9523 2.27791 12.187L1.34322 14.9732L4.22604 14.0516C5.41197 14.8373 6.82666 15.291 8.35197 15.291C12.4873 15.291 15.8501 11.9263 15.8501 7.79102C15.8501 3.6557 12.4873 0.291016 8.35197 0.291016ZM12.716 10.882C12.5351 11.3929 11.817 11.8166 11.2442 11.9404C10.8523 12.0238 10.3404 12.0904 8.61728 11.376C6.41322 10.4629 4.99385 8.2232 4.88322 8.07789C4.77729 7.93258 3.9926 6.89195 3.9926 5.8157C3.9926 4.73945 4.53916 4.21539 4.75947 3.99039C4.94041 3.8057 5.23947 3.72133 5.52635 3.72133C5.61916 3.72133 5.7026 3.72602 5.7776 3.72977C5.99791 3.73914 6.10854 3.75227 6.25385 4.10008C6.43478 4.53602 6.87541 5.61227 6.92791 5.72289C6.98135 5.83352 7.03479 5.98352 6.95979 6.12883C6.88947 6.27883 6.8276 6.34539 6.71697 6.47289C6.60635 6.60039 6.50135 6.69789 6.39072 6.83477C6.28947 6.95383 6.1751 7.08133 6.3026 7.30164C6.4301 7.51727 6.87072 8.23633 7.51947 8.81383C8.35666 9.55914 9.03541 9.79727 9.27822 9.89852C9.45916 9.97352 9.67478 9.9557 9.80697 9.81508C9.97478 9.63414 10.182 9.33414 10.3929 9.03883C10.5429 8.82695 10.7323 8.8007 10.931 8.8757C11.1335 8.94602 12.2051 9.4757 12.4254 9.58539C12.6457 9.69602 12.791 9.74852 12.8445 9.84133C12.897 9.93414 12.897 10.3701 12.716 10.882Z" fill="white"/>
</g>
<defs>
<clipPath id="clip0_129_2048">
<rect width="15" height="15" fill="white" transform="translate(0.850098 0.291016)"/>
</clipPath>
</defs>
</svg>
