<svg width="16" height="15" viewBox="0 0 16 15"
  xmlns="http://www.w3.org/2000/svg">
  <g clip-path="url(#clip0_163_75)">
    <path d="M13.5091 1.29956H12.164V2.5326C12.164 2.77921 11.9398 2.94361 11.7156 2.94361C11.4914 2.94361 11.2673 2.77921 11.2673 2.5326V1.29956H4.09322V2.5326C4.09322 2.77921 3.86903 2.94361 3.64484 2.94361C3.42065 2.94361 3.19646 2.77921 3.19646 2.5326V1.29956H1.85133C1.17876 1.29956 0.685547 1.83388 0.685547 2.5326V4.01225H15.0336V2.5326C15.0336 1.83388 14.2266 1.29956 13.5091 1.29956ZM0.685547 4.87537V12.3969C0.685547 13.1367 1.17876 13.6299 1.89617 13.6299H13.554C14.2714 13.6299 15.0785 13.0956 15.0785 12.3969V4.87537H0.685547ZM4.67611 11.7804H3.6C3.42065 11.7804 3.2413 11.6571 3.2413 11.4516V10.424C3.2413 10.2596 3.37581 10.0952 3.6 10.0952H4.72095C4.9003 10.0952 5.07965 10.2185 5.07965 10.424V11.4516C5.03481 11.6571 4.9003 11.7804 4.67611 11.7804ZM4.67611 8.08127H3.6C3.42065 8.08127 3.2413 7.95797 3.2413 7.75246V6.72493C3.2413 6.56052 3.37581 6.39612 3.6 6.39612H4.72095C4.9003 6.39612 5.07965 6.51942 5.07965 6.72493V7.75246C5.03481 7.95797 4.9003 8.08127 4.67611 8.08127ZM8.26313 11.7804H7.14219C6.96283 11.7804 6.78348 11.6571 6.78348 11.4516V10.424C6.78348 10.2596 6.918 10.0952 7.14219 10.0952H8.26313C8.44248 10.0952 8.62183 10.2185 8.62183 10.424V11.4516C8.62183 11.6571 8.48732 11.7804 8.26313 11.7804ZM8.26313 8.08127H7.14219C6.96283 8.08127 6.78348 7.95797 6.78348 7.75246V6.72493C6.78348 6.56052 6.918 6.39612 7.14219 6.39612H8.26313C8.44248 6.39612 8.62183 6.51942 8.62183 6.72493V7.75246C8.62183 7.95797 8.48732 8.08127 8.26313 8.08127ZM11.8502 11.7804H10.7292C10.5499 11.7804 10.3705 11.6571 10.3705 11.4516V10.424C10.3705 10.2596 10.505 10.0952 10.7292 10.0952H11.8502C12.0295 10.0952 12.2089 10.2185 12.2089 10.424V11.4516C12.2089 11.6571 12.0743 11.7804 11.8502 11.7804ZM11.8502 8.08127H10.7292C10.5499 8.08127 10.3705 7.95797 10.3705 7.75246V6.72493C10.3705 6.56052 10.505 6.39612 10.7292 6.39612H11.8502C12.0295 6.39612 12.2089 6.51942 12.2089 6.72493V7.75246C12.2089 7.95797 12.0743 8.08127 11.8502 8.08127Z" />
  </g>
  <defs>
    <clipPath id="clip0_163_75">
      <rect width="15.2448" height="13.9744" fill="white" transform="translate(0.237305 0.477539)"/>
    </clipPath>
  </defs>
</svg>
