<svg width="8" height="9" viewBox="0 0 8 9"
  xmlns="http://www.w3.org/2000/svg">
  <path d="M7.87213 2.28635L7.61008 1.98949C7.52761 1.89678 7.41788 1.84571 7.30061 1.84571C7.18341 1.84571 7.07355 1.89678 6.99108 1.98949L4.00179 5.35259L1.00905 1.98576C0.926707 1.89305 0.816852 1.84205 0.699648 1.84205C0.582444 1.84205 0.472524 1.89305 0.390117 1.98576L0.128001 2.28079C-0.042667 2.47264 -0.042667 2.78516 0.128001 2.97701L3.69122 7.00005C3.77356 7.09268 3.88328 7.15795 4.00153 7.15795H4.00289C4.12016 7.15795 4.22989 7.09261 4.31223 7.00005L7.87213 2.98792C7.9546 2.89528 7.99987 2.76811 8 2.63625C8 2.50433 7.9546 2.37891 7.87213 2.28635Z" />
</svg>
