<svg width="16" height="16" viewBox="0 0 16 16" fill="none" xmlns="http://www.w3.org/2000/svg">
<g clip-path="url(#clip0_129_2162)">
<path d="M14.2006 1.80219H12.1924V0.875471C12.1924 0.619232 11.9853 0.412109 11.7291 0.412109C11.4728 0.412109 11.2657 0.619232 11.2657 0.875471V1.80219H8.48554V0.875471C8.48554 0.619232 8.27795 0.412109 8.02218 0.412109C7.7664 0.412109 7.55882 0.619232 7.55882 0.875471V1.80219H4.77865V0.875471C4.77865 0.619232 4.57106 0.412109 4.31529 0.412109C4.05951 0.412109 3.85193 0.619232 3.85193 0.875471V1.80219H1.84418C1.16165 1.80219 0.608398 2.35498 0.608398 3.03751V14.0039C0.608398 14.6864 1.16165 15.2397 1.84418 15.2397H14.2006C14.8832 15.2397 15.436 14.6864 15.436 14.0039V3.03751C15.436 2.35498 14.8832 1.80219 14.2006 1.80219ZM14.5092 14.0039C14.5092 14.1744 14.3707 14.3129 14.2006 14.3129H1.84418C1.67367 14.3129 1.53512 14.1744 1.53512 14.0039V3.03751C1.53512 2.86746 1.67367 2.72892 1.84418 2.72892H3.85193V3.65564C3.85193 3.91188 4.05951 4.119 4.31529 4.119C4.57106 4.119 4.77865 3.91188 4.77865 3.65564V2.72892H7.55882V3.65564C7.55882 3.91188 7.7664 4.119 8.02218 4.119C8.27795 4.119 8.48554 3.91188 8.48554 3.65564V2.72892H11.2657V3.65564C11.2657 3.91188 11.4728 4.119 11.7291 4.119C11.9853 4.119 12.1924 3.91188 12.1924 3.65564V2.72892H14.2006C14.3707 2.72892 14.5092 2.86746 14.5092 3.03751V14.0039Z" fill="white" fill-opacity="0.5"/>
<path d="M5.7055 5.97266H3.85205V7.36274H5.7055V5.97266Z" fill="white" fill-opacity="0.5"/>
<path d="M5.7055 8.28906H3.85205V9.67915H5.7055V8.28906Z" fill="white" fill-opacity="0.5"/>
<path d="M5.7055 10.606H3.85205V11.996H5.7055V10.606Z" fill="white" fill-opacity="0.5"/>
<path d="M8.94866 10.606H7.09521V11.996H8.94866V10.606Z" fill="white" fill-opacity="0.5"/>
<path d="M8.94866 8.28906H7.09521V9.67915H8.94866V8.28906Z" fill="white" fill-opacity="0.5"/>
<path d="M8.94866 5.97266H7.09521V7.36274H8.94866V5.97266Z" fill="white" fill-opacity="0.5"/>
<path d="M12.1923 10.606H10.3389V11.996H12.1923V10.606Z" fill="white" fill-opacity="0.5"/>
<path d="M12.1923 8.28906H10.3389V9.67915H12.1923V8.28906Z" fill="white" fill-opacity="0.5"/>
<path d="M12.1923 5.97266H10.3389V7.36274H12.1923V5.97266Z" fill="white" fill-opacity="0.5"/>
</g>
<defs>
<clipPath id="clip0_129_2162">
<rect width="14.8276" height="14.8276" fill="white" transform="translate(0.608398 0.412109)"/>
</clipPath>
</defs>
</svg>
