<svg width="16" height="16" viewBox="0 0 16 16" fill="none" xmlns="http://www.w3.org/2000/svg">
<g clip-path="url(#clip0_502_425)">
<path d="M13.812 10.7179C12.8937 10.7179 11.992 10.5742 11.1375 10.2918C10.7188 10.149 10.204 10.28 9.94848 10.5425L8.26188 11.8157C6.3059 10.7716 5.10106 9.56715 4.07121 7.62586L5.30695 5.9832C5.62801 5.66258 5.74317 5.19422 5.6052 4.75477C5.3216 3.89578 5.17754 2.99449 5.17754 2.07574C5.17758 1.41203 4.63762 0.87207 3.97395 0.87207H1.21926C0.555586 0.87207 0.015625 1.41203 0.015625 2.0757C0.015625 9.68312 6.20461 15.8721 13.812 15.8721C14.4757 15.8721 15.0157 15.3321 15.0157 14.6684V11.9214C15.0156 11.2578 14.4757 10.7179 13.812 10.7179Z" fill="white"/>
</g>
<defs>
<clipPath id="clip0_502_425">
<rect width="15" height="15" fill="white" transform="translate(0.015625 0.87207)"/>
</clipPath>
</defs>
</svg>
