<svg width="15" height="16" viewBox="0 0 15 16"
  xmlns="http://www.w3.org/2000/svg">
  <g clip-path="url(#clip0_531_929)">
    <path d="M0.732071 15.9999C0.587191 15.9999 0.445558 15.9541 0.325087 15.8683C0.204616 15.7825 0.110719 15.6604 0.055272 15.5177C-0.000174536 15.3749 -0.0146792 15.2178 0.0135928 15.0662C0.0418648 14.9146 0.111643 14.7754 0.214102 14.6662L13.7493 0.22867C13.8866 0.0821378 14.073 -0.000183105 14.2672 -0.000183105C14.4615 -0.000183105 14.6478 0.0821378 14.7852 0.22867C14.9226 0.375202 14.9997 0.573942 14.9997 0.78117C14.9997 0.988398 14.9226 1.18714 14.7852 1.33367L1.25004 15.7712C1.18208 15.8438 1.10134 15.9014 1.01245 15.9407C0.923561 15.9799 0.828277 16.0001 0.732071 15.9999Z" />
    <path d="M14.2672 15.9999C14.171 16.0001 14.0757 15.9799 13.9868 15.9407C13.8979 15.9014 13.8172 15.8438 13.7492 15.7712L0.214061 1.33367C0.0766876 1.18714 -0.000488281 0.988398 -0.000488281 0.78117C-0.000488281 0.573942 0.0766876 0.375202 0.214061 0.22867C0.351435 0.0821378 0.537754 -0.000183105 0.73203 -0.000183105C0.926306 -0.000183105 1.11263 0.0821378 1.25 0.22867L14.7852 14.6662C14.8876 14.7754 14.9574 14.9146 14.9857 15.0662C15.0139 15.2178 14.9994 15.3749 14.944 15.5177C14.8885 15.6604 14.7946 15.7825 14.6742 15.8683C14.5537 15.9541 14.4121 15.9999 14.2672 15.9999Z" />
  </g>
  <defs>
    <clipPath id="clip0_531_929">
      <rect width="15" height="16" fill="white"/>
    </clipPath>
  </defs>
</svg>
