<svg width="18" height="18" viewBox="0 0 18 18"
  xmlns="http://www.w3.org/2000/svg">
  <g clip-path="url(#clip0_159_661)">
    <path d="M7.29846 8.21539C9.54469 8.06684 11.2452 6.12549 11.0967 3.87926C10.9481 1.63303 9.00675 -0.0674824 6.76052 0.081066C4.51429 0.229614 2.81378 2.17097 2.96233 4.4172C3.11088 6.66343 5.05223 8.36394 7.29846 8.21539Z" />
    <path d="M8.46316 12.4931C8.46316 11.0841 9.04254 9.81282 9.97629 8.89595C9.6866 8.75532 9.38566 8.6372 9.07348 8.53876C8.45191 8.83126 7.76004 8.9972 7.02879 8.9972C6.29473 8.9972 5.60285 8.82845 4.97848 8.53595C2.21941 9.40782 0.219727 11.9869 0.219727 15.0356V17.9297H13.8519V17.5247C13.7394 17.5331 13.6269 17.5416 13.5144 17.5416C10.7272 17.5416 8.46316 15.2775 8.46316 12.4931Z" />
    <path d="M13.5116 8.22375C11.1519 8.22375 9.24219 10.1363 9.24219 12.4931C9.24219 14.8528 11.1547 16.7625 13.5116 16.7625C15.8712 16.7625 17.7809 14.85 17.7809 12.4931C17.7809 10.1363 15.8684 8.22375 13.5116 8.22375ZM15.9978 12.1472L14.8475 12.9825L15.2862 14.3325C15.4072 14.7094 14.9769 15.0216 14.6591 14.7881L13.5087 13.9528L12.3584 14.7881C12.0378 15.0216 11.6075 14.7066 11.7312 14.3325L12.17 12.9825L11.0197 12.1472C10.6991 11.9138 10.865 11.4075 11.2587 11.4075H12.6791L13.1178 10.0575C13.2387 9.68063 13.7731 9.68063 13.8941 10.0575L14.3328 11.4075H15.7531C16.1553 11.4103 16.3184 11.9166 15.9978 12.1472Z" />
  </g>
  <defs>
    <clipPath id="clip0_159_661">
      <rect width="18" height="18" fill="white"/>
    </clipPath>
  </defs>
</svg>
