<svg width="21" height="19" viewBox="0 0 21 19" fill="none" xmlns="http://www.w3.org/2000/svg">
<g clip-path="url(#clip0_163_92)">
<path d="M10.4967 7.75573C12.5702 7.75573 14.2571 6.18131 14.2571 4.24603C14.2571 2.31075 12.5702 0.736328 10.4967 0.736328C8.42321 0.736328 6.73633 2.31075 6.73633 4.24603C6.73633 6.18131 8.42321 7.75573 10.4967 7.75573Z" fill="white"/>
<path d="M15.5425 9.45662C15.5409 9.45614 15.5378 9.45506 15.5362 9.4547C15.0466 9.34308 13.5473 9.14732 13.5473 9.14732C13.378 9.09869 13.1971 9.18235 13.1362 9.33823L10.8794 15.1176C10.7492 15.451 10.244 15.451 10.1138 15.1176L7.857 9.33823C7.80786 9.21235 7.68056 9.13342 7.54415 9.13342C7.51181 9.13342 5.9702 9.33517 5.45697 9.45428C4.05452 9.77975 3.16992 11.0669 3.16992 12.4083V17.2171C3.16992 17.9378 3.79588 18.522 4.56801 18.522H16.4239C17.1961 18.522 17.822 17.9378 17.822 17.2171V12.3923C17.822 11.0567 16.9027 9.87144 15.5425 9.45662Z" fill="white"/>
<path d="M11.3473 9.03709C11.2572 8.94547 11.1255 8.89941 10.9923 8.89941H9.99876C9.86556 8.89941 9.73384 8.94553 9.64382 9.03709C9.5044 9.17889 9.48412 9.38376 9.58312 9.54383L10.1143 10.2911L9.86563 12.2487L10.3552 13.4644C10.403 13.5867 10.5882 13.5867 10.636 13.4644L11.1256 12.2487L10.8769 10.2911L11.4081 9.54383C11.507 9.38376 11.4867 9.17889 11.3473 9.03709Z" fill="white"/>
</g>
<defs>
<clipPath id="clip0_163_92">
<rect width="19.0561" height="17.7856" fill="white" transform="translate(0.967773 0.736328)"/>
</clipPath>
</defs>
</svg>
