<svg width="35" height="34" viewBox="0 0 35 34" fill="none" xmlns="http://www.w3.org/2000/svg">
<circle cx="16.901" cy="16.901" r="15.901" transform="matrix(-1 0 0 1 34.5 0.197754)" stroke="white" stroke-opacity="0.1" stroke-width="2"/>
<g clip-path="url(#clip0_129_2230)">
<path d="M11.552 17.9025H22.9115C23.0848 17.9025 23.2414 17.7961 23.3077 17.6333C23.374 17.4702 23.3374 17.2826 23.2148 17.1578L18.0712 11.9221C17.9037 11.7515 17.6327 11.7515 17.4652 11.9221C17.2976 12.0927 17.2976 12.3685 17.4652 12.5391L21.8766 17.0299H11.5524C11.315 17.0299 11.1235 17.2254 11.1235 17.4662C11.1235 17.7071 11.315 17.9025 11.552 17.9025Z" fill="white"/>
<path d="M17.7677 23.1383C17.8773 23.1383 17.9872 23.0955 18.071 23.0105L21.5003 19.52C21.6679 19.3494 21.6679 19.0737 21.5003 18.9031C21.3328 18.7325 21.0618 18.7325 20.8943 18.9031L17.465 22.3935C17.2974 22.5641 17.2974 22.8399 17.465 23.0105C17.5483 23.0955 17.6582 23.1383 17.7677 23.1383Z" fill="white"/>
</g>
<defs>
<clipPath id="clip0_129_2230">
<rect width="13.9617" height="13.9617" fill="white" transform="matrix(-1 0 0 1 24.2124 10.4854)"/>
</clipPath>
</defs>
</svg>
