<svg width="53" height="52" viewBox="0 0 53 52" fill="none" xmlns="http://www.w3.org/2000/svg">
<g clip-path="url(#clip0_296_3023)">
<path d="M35.897 14.8666C32.3897 14.8666 29.0713 15.9286 26.2617 17.9428C24.5108 16.6877 22.5624 15.8026 20.4937 15.3137L24.8904 10.3719C24.8919 10.3702 24.893 10.3682 24.8944 10.3665C24.9205 10.3368 24.9437 10.3049 24.9648 10.2714C24.9681 10.266 24.9715 10.2608 24.9747 10.2554C24.9942 10.2224 25.0113 10.188 25.0256 10.1521C25.0278 10.1465 25.0298 10.1409 25.0319 10.1353C25.0453 10.0991 25.0565 10.0618 25.0641 10.0234C25.0648 10.0199 25.0651 10.0164 25.0657 10.013C25.0723 9.97707 25.0761 9.94032 25.0773 9.90286C25.0775 9.89788 25.078 9.893 25.078 9.88802C25.078 9.88533 25.0784 9.88264 25.0784 9.87995C25.0784 9.84419 25.075 9.80923 25.0701 9.77497C25.0691 9.76819 25.0682 9.76162 25.0669 9.75485C25.0604 9.71689 25.0513 9.67984 25.0391 9.64418C25.0375 9.6395 25.0356 9.63491 25.0339 9.63023C25.0201 9.59208 25.0039 9.55503 24.9843 9.52007C24.9835 9.51857 24.9824 9.51718 24.9816 9.51568C24.9605 9.47853 24.9362 9.44337 24.9091 9.4105C24.9083 9.4095 24.9078 9.4084 24.907 9.40741L24.9041 9.40402L21.5035 5.30988C21.3586 5.13536 21.1411 5.03406 20.9117 5.03406H18.3221H14.9304H12.341C12.1114 5.03406 11.8941 5.13536 11.7491 5.30988L8.34863 9.40342L8.34579 9.40681C8.34498 9.40781 8.34447 9.4089 8.34366 9.4099C8.31654 9.44277 8.29237 9.47793 8.27114 9.51508C8.27033 9.51658 8.26931 9.51797 8.2685 9.51947C8.2489 9.55453 8.23265 9.59159 8.21884 9.62964C8.21711 9.63432 8.21518 9.6389 8.21366 9.64358C8.20157 9.67934 8.19243 9.7164 8.18583 9.75425C8.18471 9.76092 8.18369 9.7676 8.18268 9.77437C8.1777 9.80883 8.17435 9.8436 8.17435 9.87936C8.17435 9.88215 8.17476 9.88474 8.17476 9.88742C8.17486 9.89241 8.17537 9.89729 8.17547 9.90227C8.17659 9.93982 8.18045 9.97658 8.18705 10.0124C8.18766 10.0159 8.18796 10.0194 8.18867 10.0228C8.19629 10.0613 8.20746 10.0986 8.22087 10.1347C8.223 10.1403 8.22493 10.1459 8.22716 10.1515C8.24148 10.1874 8.25855 10.2218 8.27805 10.2548C8.2812 10.2602 8.28465 10.2654 8.288 10.2708C8.30902 10.3044 8.33248 10.3362 8.35838 10.3659C8.35991 10.3676 8.36082 10.3696 8.36234 10.3713L12.764 15.3189C5.59852 17.0264 0.261719 23.3712 0.261719 30.9167C0.261719 39.7668 7.60296 46.9667 16.6264 46.9667C20.1336 46.9667 23.452 45.9047 26.2617 43.8905C29.0713 45.9046 32.3896 46.9667 35.8971 46.9667C44.9206 46.9667 52.2617 39.7667 52.2617 30.9167C52.2617 22.0667 44.9205 14.8666 35.897 14.8666ZM20.5491 6.53079L22.7089 9.13099H20.225L19.3703 6.53079H20.5491ZM20.2131 10.6282H22.6361L18.7478 14.9988C18.7243 14.9959 18.701 14.9926 18.6776 14.9897L20.2131 10.6282ZM15.4865 6.53069H17.7663L18.6211 9.13089H14.6318L15.4865 6.53069ZM18.598 10.6283L17.1033 14.8741C16.9448 14.8697 16.7859 14.8667 16.6266 14.8667C16.5287 14.8667 16.4282 14.8682 16.3262 14.8704C16.2674 14.8714 16.2085 14.8723 16.1496 14.874L14.655 10.6283H18.598ZM12.7038 6.53069H13.8825L13.0278 9.13089H10.5441L12.7038 6.53069ZM10.6168 10.6283H13.0398L14.5762 14.9923C14.5532 14.9952 14.5301 14.9981 14.5072 15.001L10.6168 10.6283ZM16.6264 45.4693C8.44471 45.4693 1.78841 38.941 1.78841 30.9167C1.78841 23.6575 7.23581 17.6231 14.3318 16.5381C14.5089 16.5111 14.6867 16.4876 14.8652 16.4669C14.8874 16.4643 14.9099 16.4618 14.9322 16.4594C15.1719 16.4326 15.4124 16.4131 15.653 16.3977C15.6568 16.3975 15.6604 16.3982 15.6642 16.3979C15.8417 16.3867 16.0044 16.3786 16.1578 16.3729C16.3141 16.368 16.4704 16.3639 16.6263 16.3639C16.9386 16.3639 17.2487 16.3834 17.5859 16.4047C17.6024 16.4057 17.6189 16.4062 17.6351 16.4062C17.6474 16.4062 17.6594 16.404 17.6716 16.4034C18.0793 16.4335 18.4946 16.4805 18.9249 16.5461C18.9641 16.5521 19.0035 16.555 19.0424 16.555C19.044 16.555 19.0457 16.5548 19.0473 16.5547C21.5011 16.9457 23.7979 17.9339 25.7898 19.4698C25.9949 19.628 26.196 19.7919 26.3928 19.9608C26.5845 20.1254 26.7718 20.2951 26.9548 20.4693C27.0536 20.5635 27.1514 20.6587 27.2476 20.7554C27.522 21.0313 27.7854 21.3179 28.0366 21.6141C28.0366 21.6141 28.0366 21.6141 28.0367 21.6142C30.247 24.2191 31.4644 27.5228 31.4644 30.9166C31.4644 34.0679 30.4147 37.1415 28.4953 39.6501C28.4912 39.6467 28.487 39.6435 28.4828 39.6402C28.3772 39.5537 28.273 39.4655 28.1704 39.3754C28.1507 39.3581 28.1315 39.3398 28.1119 39.3223C28.0297 39.2491 27.9484 39.1752 27.8683 39.0997C27.8333 39.0666 27.7993 39.0327 27.7646 38.9992C27.7011 38.9377 27.6377 38.8758 27.5756 38.8129C27.5381 38.7747 27.5011 38.736 27.4641 38.6974C27.4062 38.6372 27.3487 38.5763 27.2922 38.5148C27.2749 38.496 27.2579 38.4768 27.2408 38.458C28.4727 36.7919 29.2815 34.8562 29.5899 32.823C29.6519 32.414 29.3643 32.0331 28.9473 31.9723C28.5298 31.9113 28.1419 32.1937 28.08 32.6025C27.8296 34.2527 27.2046 35.8297 26.2602 37.2168C24.9856 35.3527 24.3165 33.1939 24.3165 30.9165C24.3165 28.639 24.9857 26.4803 26.2602 24.6163C27.3046 26.1485 27.9529 27.9019 28.1456 29.7429C28.186 30.1283 28.5175 30.4151 28.9041 30.4151C28.9302 30.4151 28.9565 30.4138 28.983 30.4111C29.4024 30.3689 29.7074 30.0011 29.6644 29.5899C29.4073 27.1335 28.4365 24.8138 26.8572 22.8816C26.2216 22.104 25.4963 21.4012 24.697 20.7878C24.5829 20.7001 24.4671 20.6143 24.35 20.5305C22.0956 18.9153 19.4248 18.0615 16.6264 18.0615C13.4725 18.0615 10.4246 19.1761 8.04435 21.1999C7.72585 21.4707 7.69152 21.9435 7.96757 22.2559C8.24372 22.5683 8.72584 22.602 9.04434 22.3312C11.147 20.5433 13.8396 19.5588 16.6263 19.5588C18.8325 19.5588 20.9479 20.1608 22.7927 21.3038C20.6849 24.0673 19.532 27.449 19.532 30.9164C19.532 34.3837 20.6849 37.7654 22.7927 40.529C20.9479 41.6719 18.8325 42.2739 16.6263 42.2739C10.2408 42.2739 5.04602 37.1789 5.04602 30.9164C5.04602 28.5873 5.7594 26.3493 7.10896 24.4441C7.34956 24.1047 7.26384 23.6381 6.91762 23.4021C6.57139 23.1661 6.09577 23.2502 5.85527 23.5898C4.32706 25.7469 3.51934 28.2804 3.51934 30.9164C3.51934 38.0046 9.39909 43.7712 16.6263 43.7712C19.1891 43.7712 21.6446 43.0554 23.7714 41.6942C23.7901 41.7144 23.8096 41.734 23.8284 41.7541C23.8787 41.8078 23.9295 41.8611 23.9806 41.9143C24.0295 41.9653 24.0784 42.0161 24.1281 42.0665C24.18 42.1192 24.2326 42.1713 24.2852 42.2233C24.3354 42.2729 24.3856 42.3224 24.4363 42.3713C24.4897 42.4226 24.5436 42.4732 24.5975 42.5238C24.649 42.5721 24.7004 42.6204 24.7525 42.668C24.807 42.7178 24.8623 42.7669 24.9175 42.8159C24.9543 42.8486 24.9903 42.8819 25.0271 42.9142C22.5532 44.5891 19.6682 45.4693 16.6264 45.4693ZM35.897 45.4693C32.5371 45.4693 29.3683 44.3953 26.7335 42.3635C25.9129 41.7304 25.1567 41.0091 24.4864 40.2191C22.2761 37.614 21.0588 34.3104 21.0588 30.9167C21.0588 27.7654 22.1083 24.6918 24.0279 22.1831C24.0318 22.1863 24.0359 22.1894 24.0398 22.1926C24.1457 22.2791 24.25 22.3675 24.3526 22.4577C24.3731 22.4757 24.3929 22.4945 24.4132 22.5126C24.4946 22.5852 24.5754 22.6585 24.6547 22.7334C24.6901 22.7669 24.7247 22.8013 24.7597 22.8352C24.8227 22.8962 24.8855 22.9576 24.9471 23.0199C24.9853 23.0586 25.0227 23.0979 25.0601 23.1371C25.1173 23.1967 25.1742 23.2568 25.2301 23.3177C25.2477 23.3368 25.2651 23.3563 25.2825 23.3756C23.671 25.5579 22.7898 28.2119 22.7898 30.9168C22.7898 33.829 23.8112 36.6825 25.6661 38.9514C26.3923 39.84 27.2359 40.6311 28.1731 41.3026C30.4275 42.9178 33.0984 43.7716 35.8969 43.7716C39.3246 43.7716 42.5666 42.4823 45.0255 40.1413C45.3279 39.8533 45.3352 39.3794 45.0414 39.0826C44.7478 38.7859 44.2646 38.779 43.962 39.067C41.7896 41.1353 38.9253 42.2743 35.8968 42.2743C33.6905 42.2743 31.5752 41.6722 29.7302 40.5293C31.838 37.7658 32.9909 34.3841 32.9909 30.9167C32.9909 27.4493 31.838 24.0675 29.7302 21.3041C31.5752 20.1611 33.6905 19.5591 35.8968 19.5591C42.2822 19.5591 47.477 24.6541 47.477 30.9167C47.477 33.0248 46.8841 35.0826 45.7622 36.8675C45.5409 37.2195 45.6526 37.6807 46.0115 37.8977C46.3704 38.1147 46.8406 38.0052 47.0618 37.6532C48.3323 35.632 49.0038 33.3025 49.0038 30.9167C49.0038 23.8285 43.124 18.0618 35.8969 18.0618C33.3341 18.0618 30.8785 18.7777 28.7517 20.1388C28.7335 20.1192 28.7147 20.1001 28.6964 20.0806C28.6447 20.0253 28.5925 19.9705 28.54 19.9158C28.4924 19.8663 28.4449 19.8169 28.3968 19.768C28.3433 19.7138 28.2893 19.6602 28.2351 19.6067C28.1864 19.5587 28.1379 19.5107 28.0886 19.4633C28.0337 19.4104 27.9781 19.3582 27.9224 19.306C27.8725 19.2593 27.8227 19.2126 27.7724 19.1665C27.7159 19.1149 27.6586 19.064 27.6012 19.0132C27.5659 18.9819 27.5315 18.9498 27.4959 18.9188C29.9701 17.2444 32.855 16.3642 35.8969 16.3642C44.0785 16.3642 50.7348 22.8925 50.7348 30.9169C50.735 38.941 44.0787 45.4693 35.897 45.4693Z" fill="white"/>
</g>
<defs>
<clipPath id="clip0_296_3023">
<rect width="52" height="51" fill="white" transform="translate(0.261719 0.500122)"/>
</clipPath>
</defs>
</svg>
