<svg width="52" height="51" viewBox="0 0 52 51" fill="none" xmlns="http://www.w3.org/2000/svg">
<g clip-path="url(#clip0_296_3010)">
<path d="M50.9758 44.0137C49.9774 43.3617 49.0261 43.0224 47.9819 42.9461C46.8753 42.8651 45.9167 42.1443 45.5401 41.1095L44.835 39.1721C44.6938 38.7843 44.2652 38.5844 43.8774 38.7256C43.4897 38.8667 43.2898 39.2954 43.431 39.6831L44.1361 41.6205C44.7136 43.2073 46.1804 44.3126 47.8731 44.4364C48.4672 44.4798 49.0124 44.6344 49.5805 44.9263L41.0427 48.0337C41.2904 47.4449 41.6086 46.9761 42.0358 46.5608C43.2529 45.378 43.666 43.5885 43.0884 42.0018L40.0845 33.7486C40.2622 33.6958 40.4393 33.6394 40.6148 33.5756C40.79 33.5118 40.9625 33.4422 41.1326 33.3681L42.1715 36.2226C42.2819 36.5259 42.5684 36.7144 42.8737 36.7144C42.9585 36.7144 43.0448 36.6998 43.1291 36.6691C43.5168 36.528 43.7167 36.0993 43.5755 35.7116L42.462 32.6524C43.9988 31.652 45.217 30.1999 45.9243 28.4786C46.8961 26.1138 46.8263 23.432 45.7327 21.1211L40.0327 9.07306C39.693 8.35567 38.8746 8.01939 38.1287 8.29072L26.2665 12.6083C26.175 12.6416 26.0889 12.6827 26.008 12.7304C25.9271 12.6827 25.8409 12.6415 25.7494 12.6082L22.1733 11.3066C21.7852 11.1655 21.3568 11.3655 21.2158 11.7531C21.0746 12.1408 21.2747 12.5695 21.6622 12.7107L25.2383 14.0123C25.255 14.0184 25.2641 14.0358 25.2596 14.0528L23.8696 19.3592C23.275 18.7883 22.5642 18.3412 21.7806 18.0577C20.1717 17.4752 18.3861 17.6291 16.9052 18.4359C16.2869 16.8669 15.0159 15.6032 13.4078 15.0179C12.6299 14.7348 11.8029 14.6215 10.9854 14.6757L13.3338 9.71215C13.3414 9.69621 13.3594 9.68884 13.3761 9.69482L18.2043 11.4521C18.5924 11.5932 19.0208 11.3933 19.1618 11.0056C19.303 10.6179 19.103 10.1892 18.7154 10.048L13.8872 8.29072C13.1416 8.01939 12.3229 8.35557 11.9833 9.07315L6.28295 21.1211C5.18954 23.432 5.11981 26.1138 6.0916 28.4786C6.79893 30.1998 8.01705 31.6519 9.55383 32.6523L6.4756 41.1094C6.09907 42.1442 5.14063 42.865 4.03387 42.946C2.98967 43.0224 2.0383 43.3617 1.03991 44.0136C0.665383 44.2582 0.464571 44.6859 0.51567 45.1299C0.56677 45.5726 0.858725 45.9424 1.27758 46.0949L11.1085 49.673C11.2405 49.7211 11.3765 49.7445 11.5112 49.7445C11.8043 49.7445 12.0907 49.6336 12.3124 49.4237C12.637 49.1166 12.7582 48.6598 12.6285 48.2317C12.2827 47.0905 11.772 46.2191 11.0213 45.4894C10.2256 44.7161 9.95465 43.5477 10.3313 42.5129L13.4096 34.0551C13.7763 34.0997 14.1447 34.1233 14.513 34.1233C15.9728 34.1233 17.4283 33.7739 18.7444 33.084C21.0088 31.8971 22.6793 29.798 23.3271 27.3248L26.0079 17.0925L28.6884 27.3247C29.1578 29.1168 30.1434 30.7006 31.5384 31.905C31.8508 32.1746 32.3224 32.1401 32.5921 31.8277C32.8617 31.5154 32.8271 31.0437 32.5149 30.7741C31.3497 29.7681 30.5263 28.4444 30.1337 26.9461L29.5026 24.537C29.8088 24.5859 30.1176 24.6119 30.4269 24.6119C31.1161 24.6119 31.8063 24.4913 32.4671 24.2493C34.3837 23.5481 35.8192 21.8832 36.2391 19.8877C36.2641 19.8201 36.2789 19.75 36.2836 19.6794C36.6027 18.1667 37.65 16.9518 39.1048 16.4195C39.9842 16.0976 40.9107 16.0605 41.8022 16.3068L44.3822 21.76C45.2964 23.6919 45.3547 25.9337 44.5423 27.9106C43.7299 29.8874 42.1121 31.4405 40.1036 32.1715C38.6072 32.7163 37.0088 32.7811 35.4813 32.359C35.0831 32.2492 34.6721 32.4825 34.5622 32.8801C34.4523 33.2778 34.6856 33.6893 35.0832 33.7992C35.8786 34.019 36.6898 34.1285 37.5001 34.1285C37.87 34.1285 38.2394 34.1044 38.6073 34.0588L41.6842 42.5128C42.0608 43.5475 41.7901 44.7159 40.9942 45.4892C40.2436 46.2189 39.7329 47.0903 39.387 48.2316C39.2573 48.6597 39.3785 49.1164 39.7031 49.4236C39.9249 49.6335 40.2113 49.7445 40.5044 49.7445C40.639 49.7445 40.7751 49.7211 40.907 49.673L50.738 46.0949C51.157 45.9424 51.4489 45.5725 51.4998 45.1298C51.5512 44.6858 51.3502 44.2582 50.9758 44.0137ZM12.8967 16.4221C14.2121 16.9009 15.2245 17.9868 15.629 19.3147C14.4568 20.0938 13.0061 20.2755 11.6631 19.7892C10.7298 19.4515 9.94519 18.8165 9.42025 17.9839L10.212 16.3105C11.0994 16.0666 12.0213 16.1035 12.8967 16.4221ZM8.92738 42.0018C8.34995 43.5885 8.76313 45.378 9.98005 46.5608C10.4073 46.9761 10.7255 47.4449 10.9732 48.0337L2.43534 44.9262C3.00341 44.6343 3.54858 44.4797 4.14285 44.4363C5.83541 44.3125 7.30216 43.2073 7.87969 41.6205L10.8834 33.3682C11.0534 33.4422 11.2259 33.5118 11.4011 33.5757C11.5764 33.6395 11.7536 33.6956 11.9315 33.7482L8.92738 42.0018ZM21.8821 26.9461C21.3404 29.0136 19.9441 30.7685 18.051 31.7606C16.158 32.7528 13.9205 32.9025 11.9121 32.1715C9.90365 31.4405 8.2859 29.8874 7.47348 27.9107C6.66117 25.9338 6.71944 23.6919 7.63346 21.76L8.69838 19.5092C9.35501 20.265 10.1957 20.8471 11.1543 21.194C13.0732 21.8887 15.2431 21.5362 16.8474 20.2774C16.9101 20.2417 16.9666 20.1974 17.0156 20.1463C18.2323 19.1927 19.8157 18.9353 21.272 19.4626C22.1527 19.7813 22.8862 20.3482 23.4108 21.11L21.8821 26.9461ZM31.9536 22.8462C31.0215 23.1874 30.0124 23.2053 29.0751 22.9049L28.6059 21.1141C29.129 20.357 29.859 19.7925 30.7345 19.4739C32.0496 18.995 33.5233 19.1762 34.6867 19.9335C34.2897 21.2837 33.2951 22.3554 31.9536 22.8462ZM38.5913 15.0164C36.9842 15.6044 35.7152 16.8701 35.0995 18.44C33.6174 17.6355 31.8315 17.4844 30.2235 18.0698C29.4458 18.3529 28.7389 18.7965 28.1473 19.3631L26.7563 14.053C26.7518 14.0359 26.7609 14.0184 26.7776 14.0124L38.6398 9.69492C38.6564 9.68894 38.6746 9.69641 38.6822 9.71225L41.028 14.6703C40.2055 14.6151 39.3737 14.73 38.5913 15.0164Z" fill="white"/>
<path d="M48.8909 24.3898C48.8901 24.3898 48.8894 24.3898 48.8886 24.3898C48.4771 24.3898 48.1429 24.7228 48.1416 25.1346C48.1403 25.5472 48.4738 25.8827 48.8865 25.8839L49.9393 25.8871H49.9414C50.353 25.8871 50.6872 25.5541 50.6885 25.1422C50.6898 24.7296 50.3563 24.3942 49.9436 24.393L48.8909 24.3898Z" fill="white"/>
<path d="M48.4407 23.2527C48.5714 23.2527 48.7038 23.2185 48.8239 23.1464L49.7371 22.5995C50.0911 22.3875 50.2062 21.9287 49.9942 21.5747C49.7821 21.2207 49.3233 21.1057 48.9694 21.3177L48.0562 21.8647C47.7022 22.0766 47.5872 22.5354 47.7991 22.8894C47.9392 23.1232 48.1867 23.2527 48.4407 23.2527Z" fill="white"/>
<path d="M48.0383 28.4041L48.9485 28.9566C49.0698 29.0301 49.2034 29.0651 49.3355 29.0651C49.5879 29.0651 49.8343 28.9371 49.9748 28.7057C50.1889 28.3529 50.0765 27.8934 49.7238 27.6794L48.8136 27.1268C48.4607 26.9128 48.0014 27.0251 47.7873 27.3779C47.5731 27.7306 47.6856 28.1901 48.0383 28.4041Z" fill="white"/>
<path d="M2.07413 25.8885H2.07771L3.13048 25.8836C3.54307 25.8816 3.87596 25.5456 3.87407 25.133C3.87198 24.7204 3.54068 24.3858 3.12351 24.3894L2.07074 24.3943C1.65816 24.3963 1.32526 24.7323 1.32716 25.1449C1.32905 25.5563 1.66314 25.8885 2.07413 25.8885Z" fill="white"/>
<path d="M2.27404 22.6005L3.18826 23.1459C3.30819 23.2175 3.44007 23.2515 3.57036 23.2515C3.82476 23.2515 4.07279 23.1214 4.21254 22.8871C4.42401 22.5328 4.30806 22.0742 3.95375 21.8628L3.03954 21.3173C2.68523 21.1059 2.22653 21.2217 2.01526 21.5761C1.80388 21.9304 1.91983 22.389 2.27404 22.6005Z" fill="white"/>
<path d="M3.20577 27.1263L2.29643 27.6803C1.94412 27.8949 1.83255 28.3546 2.04711 28.707C2.18786 28.938 2.4338 29.0655 2.68581 29.0655C2.81829 29.0655 2.95246 29.0302 3.07389 28.9563L3.98322 28.4023C4.33554 28.1876 4.4471 27.7279 4.23254 27.3756C4.01778 27.0233 3.55819 26.9116 3.20577 27.1263Z" fill="white"/>
<path d="M25.04 10.4858C25.3095 10.7544 25.6629 10.8886 26.0162 10.8886C26.3711 10.8886 26.726 10.7532 26.9958 10.4826L30.6015 6.86474C31.8816 5.58028 31.8781 3.49376 30.5938 2.21358C29.3297 0.953823 27.2886 0.937288 26.004 2.16139C24.7152 0.941372 22.6743 0.964979 21.4144 2.22902C20.1342 3.51348 20.1378 5.6 21.4222 6.88008L25.04 10.4858ZM22.4728 3.28369C22.8112 2.94412 23.2615 2.75665 23.7408 2.75586H23.7439C24.2221 2.75586 24.6719 2.94173 25.0108 3.2794L25.4782 3.74538C25.7705 4.03663 26.2434 4.03594 26.5348 3.74358L27.0006 3.27612C27.6995 2.57516 28.8379 2.57337 29.5389 3.27193C30.2398 3.97059 30.2417 5.10913 29.5431 5.81008L26.0159 9.3491L22.4769 5.82183C22.1373 5.48346 21.9499 5.03303 21.9491 4.55371C21.9483 4.07439 22.1342 3.62325 22.4728 3.28369Z" fill="white"/>
</g>
<defs>
<clipPath id="clip0_296_3010">
<rect width="51" height="51" fill="white" transform="translate(0.507812 0.00012207)"/>
</clipPath>
</defs>
</svg>
