<svg width="52" height="51" viewBox="0 0 52 51" fill="none" xmlns="http://www.w3.org/2000/svg">
<g clip-path="url(#clip0_296_2950)">
<path d="M20.5743 21.3546C20.2565 21.9038 19.6655 22.2449 19.0321 22.2449C18.3983 22.2449 17.8074 21.9038 17.4903 21.3548C17.2839 20.9976 16.8268 20.8754 16.4696 21.0817C16.1124 21.2882 15.9901 21.7451 16.1965 22.1024C16.7798 23.1119 17.8665 23.739 19.0322 23.739C20.1971 23.739 21.2837 23.1121 21.8676 22.1027C22.0743 21.7456 21.9524 21.2886 21.5952 21.082C21.2381 20.8755 20.781 20.9973 20.5743 21.3546Z" fill="white"/>
<path d="M24.7148 15.4862V16.6277C24.7148 17.0404 25.0492 17.3748 25.4619 17.3748C25.8746 17.3748 26.209 17.0404 26.209 16.6277V15.4862C26.209 15.0735 25.8746 14.7391 25.4619 14.7391C25.0492 14.7391 24.7148 15.0735 24.7148 15.4862Z" fill="white"/>
<path d="M11.8555 15.4862V16.6277C11.8555 17.0404 12.1899 17.3748 12.6025 17.3748C13.0152 17.3748 13.3496 17.0404 13.3496 16.6277V15.4862C13.3496 15.0735 13.0152 14.7391 12.6025 14.7391C12.1899 14.7391 11.8555 15.0735 11.8555 15.4862Z" fill="white"/>
<path d="M49.6665 41.8374H49.2896V37.5251C49.3072 37.2346 49.0192 36.7995 48.5423 36.7777H44.9454V34.153C44.9454 32.6646 43.7345 31.4536 42.2459 31.4536C40.7576 31.4536 39.5465 32.6645 39.5465 34.153V36.7777H36.6967V29.2174H47.7952V33.995C47.7952 34.4077 48.1296 34.7421 48.5422 34.7421C48.9549 34.7421 49.2893 34.4077 49.2893 33.995V29.189C50.4277 29.0255 51.0821 27.4618 50.2376 26.4952L43.4974 18.637C43.3553 18.4713 43.1829 18.3396 42.9931 18.243V15.1597C42.9931 14.747 42.6587 14.4126 42.246 14.4126C41.8334 14.4126 41.499 14.747 41.499 15.1597V18.2429C41.3092 18.3395 41.1368 18.4712 40.9947 18.6369L34.2544 26.4951C33.4704 27.3479 33.9405 28.9668 35.2028 29.1889L35.2027 41.8374H33.5289L31.6417 32.5707C31.0356 29.5937 28.7179 27.3026 25.8485 26.6429C28.6359 25.2047 30.777 22.6833 31.7121 19.639H31.9895C33.098 19.639 34.1408 19.2073 34.9266 18.4227C35.7105 17.6375 36.1422 16.5947 36.1422 15.4863C36.1422 13.1966 34.2793 11.3337 31.9895 11.3337H31.2939C30.5093 9.51599 29.2562 7.90491 27.6344 6.69963C27.3034 6.4535 26.8354 6.52233 26.5892 6.85363C26.3431 7.18473 26.412 7.6527 26.7432 7.89883C28.2774 9.03916 29.4149 10.548 30.0748 12.2608C30.5141 13.3564 30.7756 14.8824 30.7334 16.1956C30.7334 21.8496 26.1335 26.4494 20.4797 26.4494H17.5847C11.9308 26.4494 7.33106 21.8495 7.33106 16.1956C7.14738 12.25 9.62217 8.25703 13.3506 6.73599C14.0969 7.1425 15.9631 7.98629 18.5919 7.98629C19.6713 7.98629 20.8794 7.84395 22.1912 7.47071C23.3899 7.12965 25.401 6.23615 25.401 4.08499C25.401 2.20237 23.8694 0.670776 21.9868 0.670776H20.0315C18.0542 0.670776 16.1815 1.5311 14.8933 3.03122L12.9599 5.28249C10.2457 6.37072 7.94804 8.56064 6.76169 11.3336H6.07488C3.78516 11.3336 1.92227 13.1965 1.92227 15.4862C1.92227 16.5946 2.35387 17.6375 3.1386 18.4235C3.92362 19.2072 4.96643 19.6389 6.07498 19.6389H6.35229C7.28743 22.6832 9.42853 25.2046 12.2159 26.6428C9.34655 27.3025 7.02884 29.5936 6.42272 32.5705L4.53552 41.8373H2.8569C1.70163 41.8374 0.761719 42.7773 0.761719 43.9326V49.5826C0.761719 49.9952 1.09611 50.3296 1.50879 50.3296C1.92147 50.3296 2.25586 49.9952 2.25586 49.5826V43.9326C2.25586 43.6012 2.5255 43.3316 2.8569 43.3316H49.6665C49.9979 43.3316 50.2676 43.6012 50.2676 43.9326V49.5826C50.2676 49.9952 50.602 50.3296 51.0146 50.3296C51.4273 50.3296 51.7617 49.9952 51.7617 49.5826V43.9326C51.7617 42.7773 50.8218 41.8374 49.6665 41.8374ZM31.9893 12.8276C33.4552 12.8276 34.6478 14.0202 34.6478 15.4861C34.6478 16.1959 34.3713 16.8639 33.8699 17.366C33.3849 17.8502 32.7463 18.1238 32.0649 18.1429C32.3338 16.5324 32.2911 14.5184 31.8189 12.8276H31.9893ZM16.0268 4.0044C17.0307 2.83529 18.4903 2.16472 20.0313 2.16472H21.9866C23.0453 2.16472 23.9067 3.02604 23.9067 4.08479C23.9067 4.97669 23.1919 5.63232 21.7821 6.03335C18.3726 7.00354 15.7968 6.22021 14.5862 5.68192L16.0268 4.0044ZM4.19505 17.367C3.69292 16.864 3.41641 16.196 3.41641 15.4862C3.40704 14.0069 4.71243 12.7478 6.23675 12.8277C5.78691 14.4731 5.72107 16.3409 5.99918 18.143C5.31775 18.1239 4.67916 17.8503 4.19505 17.367ZM42.246 32.9478C42.9106 32.9478 43.4514 33.4885 43.4514 34.1531V36.7782H41.0409V34.1531C41.0408 33.4884 41.5814 32.9478 42.246 32.9478ZM35.3884 27.4679L42.1287 19.6097C42.1729 19.6029 42.1626 19.4989 42.3634 19.6097L49.1035 27.4679C49.0797 27.4883 49.2653 27.5795 48.9862 27.7231H35.5059C35.5059 27.6916 35.316 27.7733 35.3884 27.4679ZM22.6491 27.9433C21.8017 28.9754 20.5231 29.5998 19.1456 29.5998C17.7685 29.5998 16.4902 28.9754 15.6431 27.9433H22.6491ZM7.88668 32.8687C8.46342 30.0358 10.9664 27.975 13.8521 27.9448C14.7798 29.654 16.4779 30.8069 18.3985 31.0467V39.1054C18.3985 39.518 18.7328 39.8524 19.1455 39.8524C19.5582 39.8524 19.8926 39.518 19.8926 39.1054V31.0467C21.8115 30.8072 23.5082 29.6566 24.4369 27.9505C27.2268 28.0822 29.6156 30.1095 30.1774 32.8687L32.0039 41.8373H27.8785L27.0574 37.0944C26.9872 36.6879 26.6004 36.4155 26.1939 36.4858C25.7874 36.5561 25.5148 36.9428 25.5853 37.3493L26.3622 41.8374H11.6032L12.3802 37.3493C12.4506 36.9428 12.178 36.5561 11.7715 36.4858C11.3652 36.4155 10.9784 36.6879 10.908 37.0944L10.0869 41.8373H6.06014L7.88668 32.8687ZM36.6967 41.8374V38.2722H47.7955V41.8374H36.6967Z" fill="white"/>
</g>
<defs>
<clipPath id="clip0_296_2950">
<rect width="51" height="51" fill="white" transform="translate(0.761719 0.00012207)"/>
</clipPath>
</defs>
</svg>
