<svg width="52" height="52" viewBox="0 0 52 52" fill="none" xmlns="http://www.w3.org/2000/svg">
<g clip-path="url(#clip0_296_3035)">
<path d="M44.5113 40.3463C44.0992 39.9344 43.4293 39.9344 43.0172 40.3463L41.2811 42.0824C40.8692 42.4943 40.8692 43.1646 41.2811 43.5765L43.0172 45.3126C43.2232 45.5186 43.4937 45.6216 43.7642 45.6216C44.0348 45.6216 44.3054 45.5186 44.5112 45.3126L46.2474 43.5765H46.2475C46.447 43.377 46.5568 43.1116 46.5568 42.8294C46.5568 42.5472 46.4469 42.2819 46.2474 42.0823L44.5113 40.3463ZM43.7642 43.9465L42.6471 42.8294L43.7642 41.7123L44.8815 42.8294L43.7642 43.9465Z" fill="white"/>
<path d="M26.5254 38.4559C26.1127 38.4559 25.7783 38.7904 25.7783 39.203V41.9874C25.7783 42.4 26.1127 42.7345 26.5254 42.7345C26.9381 42.7345 27.2725 42.4 27.2725 41.9874V39.203C27.2725 38.7904 26.9381 38.4559 26.5254 38.4559Z" fill="white"/>
<path d="M26.5254 43.5812C26.1127 43.5812 25.7783 43.9157 25.7783 44.3282V50.7531C25.7783 51.1656 26.1127 51.5001 26.5254 51.5001C26.9381 51.5001 27.2725 51.1656 27.2725 50.7531V44.3282C27.2725 43.9157 26.9381 43.5812 26.5254 43.5812Z" fill="white"/>
<path d="M23.5065 34.6769C23.1144 34.5493 22.6926 34.7641 22.5652 35.1566L19.4689 44.6856C19.3414 45.078 19.5562 45.4995 19.9485 45.627C20.0252 45.6519 20.103 45.6638 20.1795 45.6638C20.4944 45.6638 20.7873 45.4631 20.8898 45.1474L23.9861 35.6184C24.1136 35.226 23.8988 34.8044 23.5065 34.6769Z" fill="white"/>
<path d="M19.0832 35.6282C18.7497 35.386 18.2822 35.4597 18.0397 35.7936L13.8498 41.5605C13.6072 41.8943 13.6812 42.3615 14.015 42.6041C14.1476 42.7004 14.3012 42.7468 14.4535 42.7468C14.6844 42.7468 14.9123 42.64 15.0584 42.4388L19.2483 36.6718C19.491 36.3379 19.417 35.8708 19.0832 35.6282Z" fill="white"/>
<path d="M15.2384 32.6618L9.47161 36.8515C9.13771 37.0941 9.0638 37.5613 9.30635 37.895C9.45258 38.0963 9.68029 38.203 9.91128 38.203C10.0635 38.203 10.2172 38.1566 10.3498 38.0603L16.1165 33.8705C16.4504 33.628 16.5243 33.1608 16.2818 32.827C16.0393 32.4934 15.5722 32.4194 15.2384 32.6618Z" fill="white"/>
<path d="M17.233 28.4036C17.1056 28.0111 16.6836 27.7964 16.2916 27.924L6.76252 31.0202C6.37015 31.1477 6.1553 31.5691 6.2829 31.9616C6.3854 32.2773 6.67835 32.478 6.99321 32.478C7.06981 32.478 7.14761 32.4661 7.22421 32.4412L16.7533 29.3451C17.1457 29.2176 17.3605 28.796 17.233 28.4036Z" fill="white"/>
<path d="M11.9301 24.6373H5.98828C5.5756 24.6373 5.24121 24.9718 5.24121 25.3844C5.24121 25.797 5.5756 26.1315 5.98828 26.1315H11.9301C12.3428 26.1315 12.6772 25.797 12.6772 25.3844C12.6772 24.9718 12.3427 24.6373 11.9301 24.6373Z" fill="white"/>
<path d="M16.5227 22.8814C16.8376 22.8814 17.1305 22.6807 17.233 22.3649C17.3605 21.9726 17.1458 21.5511 16.7534 21.4236L7.22417 18.3275C6.83211 18.1999 6.41026 18.4146 6.28286 18.8071C6.15536 19.1994 6.37012 19.6209 6.76248 19.7484L16.2917 22.8445C16.3683 22.8696 16.4462 22.8814 16.5227 22.8814Z" fill="white"/>
<path d="M15.2382 18.1071C15.3708 18.2034 15.5244 18.2498 15.6767 18.2498C15.9075 18.2498 16.1355 18.143 16.2816 17.9418C16.5241 17.608 16.4501 17.1409 16.1163 16.8983L10.3493 12.7085C10.0159 12.4663 9.54839 12.54 9.30584 12.8739C9.06329 13.2077 9.1373 13.6748 9.47109 13.9174L15.2382 18.1071Z" fill="white"/>
<path d="M18.0397 14.9752C18.1859 15.1764 18.4136 15.2832 18.6446 15.2832C18.7968 15.2832 18.9505 15.2368 19.0831 15.1405C19.417 14.8979 19.4909 14.4308 19.2483 14.097L15.0586 8.33008C14.816 7.99629 14.349 7.92237 14.0151 8.16472C13.6812 8.40727 13.6073 8.87444 13.8498 9.20823L18.0397 14.9752Z" fill="white"/>
<path d="M20.2503 8.48759C20.3528 8.80335 20.6457 9.00406 20.9606 9.00406C21.0372 9.00406 21.115 8.99221 21.1916 8.96731C21.5839 8.83981 21.7988 8.41836 21.6712 8.026L20.8899 5.62133C20.7625 5.22887 20.3405 5.01401 19.9486 5.14171C19.5562 5.26921 19.3413 5.69066 19.4689 6.08302L20.2503 8.48759Z" fill="white"/>
<path d="M21.3283 11.8062L22.5649 15.6121C22.6675 15.9278 22.9604 16.1285 23.2752 16.1285C23.3518 16.1285 23.4296 16.1166 23.5062 16.0917C23.8986 15.9642 24.1134 15.5428 23.9858 15.1503L22.7492 11.3444C22.6217 10.9521 22.1998 10.7375 21.8079 10.8648C21.4155 10.9923 21.2008 11.4138 21.3283 11.8062Z" fill="white"/>
<path d="M26.5254 11.5069C26.9381 11.5069 27.2725 11.1724 27.2725 10.7598V4.84692C27.2725 4.43434 26.9381 4.09985 26.5254 4.09985C26.1127 4.09985 25.7783 4.43434 25.7783 4.84692V10.7598C25.7783 11.1724 26.1128 11.5069 26.5254 11.5069Z" fill="white"/>
<path d="M29.5452 16.0918C29.6219 16.1167 29.6997 16.1286 29.7762 16.1286C30.0911 16.1286 30.384 15.9279 30.4865 15.6122L33.5828 6.08308C33.7103 5.69072 33.4955 5.26917 33.1032 5.14167C32.7113 5.01407 32.2894 5.22883 32.1619 5.62129L29.0656 15.1504C28.938 15.5429 29.1528 15.9644 29.5452 16.0918Z" fill="white"/>
<path d="M33.9682 15.1406C34.1008 15.2369 34.2544 15.2833 34.4067 15.2833C34.6376 15.2833 34.8655 15.1765 35.0116 14.9753L39.2015 9.20843C39.444 8.87464 39.37 8.40747 39.0362 8.16492C38.7027 7.92248 38.2353 7.99639 37.9927 8.33018L33.8029 14.0971C33.5604 14.4309 33.6343 14.898 33.9682 15.1406Z" fill="white"/>
<path d="M37.3743 18.2497C37.5265 18.2497 37.6802 18.2033 37.8128 18.107L43.5795 13.9172C43.9134 13.6746 43.9873 13.2075 43.7448 12.8737C43.5022 12.5399 43.0352 12.4659 42.7013 12.7084L36.9345 16.8982C36.6006 17.1407 36.5267 17.6079 36.7692 17.9417C36.9156 18.1429 37.1433 18.2497 37.3743 18.2497Z" fill="white"/>
<path d="M45.8269 18.3275L42.887 19.2827C42.4947 19.4102 42.2798 19.8317 42.4074 20.2241C42.5099 20.5398 42.8029 20.7405 43.1177 20.7405C43.1943 20.7405 43.2721 20.7286 43.3487 20.7037L46.2886 19.7485C46.681 19.621 46.8958 19.1995 46.7682 18.8071C46.6408 18.4147 46.2188 18.1999 45.8269 18.3275Z" fill="white"/>
<path d="M35.818 22.3651C35.9205 22.6807 36.2135 22.8815 36.5283 22.8815C36.6049 22.8815 36.6827 22.8696 36.7593 22.8447L40.0314 21.7816C40.4238 21.6541 40.6386 21.2326 40.511 20.8402C40.3836 20.4477 39.9616 20.2329 39.5697 20.3605L36.2976 21.4237C35.9053 21.5512 35.6905 21.9727 35.818 22.3651Z" fill="white"/>
<path d="M47.8102 25.3844C47.8102 24.9718 47.4758 24.6373 47.0631 24.6373H41.1157C40.703 24.6373 40.3687 24.9718 40.3687 25.3844C40.3687 25.797 40.703 26.1315 41.1157 26.1315H47.0631C47.4757 26.1315 47.8102 25.797 47.8102 25.3844Z" fill="white"/>
<path d="M46.0578 32.4781C46.3726 32.4781 46.6656 32.2774 46.7681 31.9616C46.8956 31.5692 46.6808 31.1478 46.2885 31.0203L36.7593 27.9241C36.3674 27.7965 35.9454 28.0113 35.818 28.4038C35.6905 28.7961 35.9053 29.2177 36.2976 29.3452L45.8268 32.4413C45.9034 32.4662 45.9813 32.4781 46.0578 32.4781Z" fill="white"/>
<path d="M37.8132 32.6617C37.4796 32.4194 37.0123 32.4932 36.7697 32.8271C36.5272 33.1608 36.6012 33.628 36.935 33.8706L42.7019 38.0604C42.8345 38.1568 42.9881 38.2032 43.1404 38.2032C43.3713 38.2032 43.5992 38.0964 43.7453 37.8952C43.9879 37.5614 43.9139 37.0942 43.5801 36.8517L37.8132 32.6617Z" fill="white"/>
<path d="M35.0117 35.7936C34.7691 35.4598 34.3021 35.3858 33.9682 35.6283C33.6343 35.8709 33.5604 36.3381 33.8029 36.6719L37.9927 42.4386C38.1389 42.6398 38.3666 42.7466 38.5976 42.7466C38.7498 42.7466 38.9035 42.7002 39.0361 42.6039C39.37 42.3613 39.4439 41.8942 39.2014 41.5604L35.0117 35.7936Z" fill="white"/>
<path d="M30.4865 35.1567C30.3591 34.7642 29.9372 34.5495 29.5452 34.677C29.1529 34.8045 28.938 35.226 29.0656 35.6183L32.1618 45.1474C32.2643 45.4631 32.5572 45.6638 32.8721 45.6638C32.9487 45.6638 33.0265 45.652 33.1031 45.6271C33.4954 45.4996 33.7103 45.0781 33.5827 44.6858L30.4865 35.1567Z" fill="white"/>
<path d="M33.4998 34.0412C33.9887 34.2735 34.5519 34.1764 34.9347 33.7937C35.3176 33.4109 35.4147 32.8476 35.1823 32.3588L33.1767 28.1394L37.5782 26.5741C38.0882 26.3928 38.4179 25.9258 38.4179 25.3845C38.4179 24.8432 38.0883 24.3762 37.5782 24.1948L33.1767 22.6295L35.1823 18.4102C35.4147 17.9213 35.3175 17.3581 34.9348 16.9752C34.5518 16.5924 33.9885 16.4952 33.4999 16.7277L29.2806 18.7333L27.7153 14.3315C27.5338 13.8215 27.0667 13.4919 26.5255 13.4919C25.9842 13.4919 25.5172 13.8216 25.3359 14.3316L23.7707 18.7332L19.5513 16.7275C19.0624 16.4952 18.4992 16.5924 18.1164 16.9751C17.7336 17.3579 17.6365 17.9211 17.8689 18.41L19.8745 22.6293L15.4728 24.1946C14.9628 24.376 14.6332 24.843 14.6333 25.3843C14.6333 25.9257 14.9629 26.3926 15.4729 26.5739L19.8745 28.1392L17.8689 32.3586C17.6365 32.8475 17.7337 33.4107 18.1164 33.7935C18.4993 34.1763 19.0623 34.2734 19.5513 34.0411L20.4751 33.602C20.8477 33.4249 21.0062 32.9792 20.8291 32.6065C20.652 32.2338 20.2063 32.0756 19.8337 32.2525L19.4977 32.4122L21.3341 28.5491C21.4871 28.2271 21.4967 27.8533 21.3602 27.5238C21.2238 27.1943 20.9527 26.9368 20.6167 26.8174L16.5866 25.3842L20.6168 23.9511C20.9527 23.8316 21.2238 23.5741 21.3602 23.2447C21.4967 22.9152 21.4871 22.5416 21.334 22.2193L19.4977 18.3563L23.3607 20.1926C23.6827 20.3457 24.0563 20.3551 24.3859 20.2189C24.7155 20.0824 24.9731 19.8115 25.0926 19.4753L26.5258 15.4453L27.9588 19.4754C28.0784 19.8115 28.336 20.0824 28.6655 20.2188C28.995 20.3551 29.3688 20.3456 29.6907 20.1926L33.5537 18.3563L31.7174 22.2192C31.5643 22.5413 31.5546 22.915 31.6911 23.2445C31.8276 23.574 32.0986 23.8316 32.4347 23.9511L36.4647 25.3842L32.4346 26.8174C32.0986 26.9369 31.8276 27.1945 31.6911 27.524C31.5546 27.8535 31.5643 28.2273 31.7174 28.5492L33.5537 32.4122L29.6907 30.5759C29.3686 30.4227 28.995 30.4134 28.6655 30.5497C28.336 30.6861 28.0784 30.9572 27.9588 31.2932L26.5257 35.3232L25.0926 31.293C24.9731 30.957 24.7155 30.686 24.3859 30.5497C24.0564 30.4133 23.6828 30.4228 23.3608 30.5758L22.9925 30.7509C22.6199 30.928 22.4614 31.3736 22.6385 31.7464C22.8156 32.1191 23.2616 32.2774 23.6339 32.1004L23.7707 32.0353L25.3359 36.437C25.5172 36.947 25.9842 37.2766 26.5255 37.2766H26.5256C27.0668 37.2766 27.5338 36.9471 27.7153 36.437L29.2806 32.0353L33.4998 34.0412Z" fill="white"/>
<path d="M41.2165 7.95511L42.8241 8.83426L43.7034 10.4421C43.8888 10.7809 44.244 10.9914 44.6302 10.9914H44.6304C45.0167 10.9914 45.3717 10.7807 45.5571 10.442L46.4364 8.83436L48.0439 7.95521C48.3828 7.76984 48.5935 7.41463 48.5935 7.02834C48.5935 6.64206 48.3829 6.28685 48.0439 6.10148L46.4364 5.22233L45.5571 3.61473C45.3718 3.27586 45.0167 3.06529 44.6304 3.06519C44.6303 3.06519 44.6303 3.06519 44.6302 3.06519C44.244 3.06519 43.8889 3.27566 43.7033 3.61473L42.8241 5.22233L41.2164 6.10158C40.8776 6.28695 40.667 6.64216 40.667 7.02844C40.667 7.41473 40.8775 7.76964 41.2165 7.95511ZM43.654 6.47133C43.8313 6.37421 43.9762 6.22908 44.0734 6.05167L44.6301 5.03377L45.187 6.05187C45.2842 6.22938 45.4294 6.37451 45.6068 6.47153L46.6247 7.02824L45.6068 7.58486C45.4292 7.68198 45.284 7.82731 45.1869 8.00481L44.6301 9.02272L44.0734 8.00491C43.9764 7.82751 43.8314 7.68228 43.6535 7.58486L42.6356 7.02814L43.654 6.47133Z" fill="white"/>
<path d="M4.30338 7.87679C4.48866 8.21576 4.84386 8.42644 5.23015 8.42644H5.23035C5.61663 8.42644 5.97174 8.21596 6.15731 7.87689L7.03637 6.2695L8.64416 5.39015C8.98303 5.20467 9.1936 4.84957 9.1936 4.46318C9.19351 4.0769 8.98303 3.72179 8.64406 3.53642L7.03637 2.65706L6.15731 1.04967L6.15721 1.04957C5.97174 0.710597 5.61663 0.500122 5.23035 0.500122H5.23015C4.84386 0.500122 4.48876 0.710796 4.30348 1.04967L3.42423 2.65726L1.81683 3.53642C1.47786 3.72169 1.26719 4.0769 1.26709 4.46318C1.26709 4.84957 1.47766 5.20477 1.81673 5.39015L3.42423 6.2694L4.30338 7.87679ZM4.25328 3.90686C4.43088 3.80984 4.57631 3.66461 4.67373 3.48671L5.23045 2.4688L5.78726 3.48691C5.88458 3.66461 6.03001 3.80984 6.20722 3.90656L7.22512 4.46328L6.20771 5.0197C6.03001 5.11672 5.88458 5.26195 5.78716 5.43995L5.23045 6.45786L4.67363 5.43975C4.57631 5.26195 4.43088 5.11672 4.25378 5.0201L3.23587 4.46328L4.25328 3.90686Z" fill="white"/>
<path d="M11.2056 42.9395L9.59809 42.0602L8.71884 40.4526C8.53356 40.1137 8.17845 39.9032 7.79217 39.9031C7.79207 39.9031 7.79207 39.9031 7.79197 39.9031C7.40569 39.9031 7.05058 40.1136 6.86501 40.4526L5.98595 42.06L4.37836 42.9393C4.03939 43.1245 3.82871 43.4797 3.82861 43.866C3.82861 44.2524 4.03919 44.6076 4.37826 44.793L5.98585 45.6723L6.86511 47.2799C7.05048 47.6188 7.40569 47.8294 7.79197 47.8294H7.79217C8.17845 47.8294 8.53356 47.6187 8.71884 47.2798L9.59809 45.6723L11.2056 44.7931C11.5446 44.6077 11.7552 44.2525 11.7552 43.8661C11.7551 43.4798 11.5446 43.1246 11.2056 42.9395ZM8.76874 44.4229C8.59134 44.5201 8.44611 44.6652 8.34879 44.8429L7.79207 45.8608L7.23525 44.8427C7.13804 44.6652 6.9928 44.5201 6.8153 44.4229L5.79739 43.8662L6.8148 43.3098C6.99251 43.2128 7.13794 43.0676 7.23535 42.8896L7.79207 41.8717L8.34889 42.8898C8.44621 43.0676 8.59163 43.2128 8.76874 43.3094L9.78665 43.8661L8.76874 44.4229Z" fill="white"/>
<path d="M50.971 13.8061L49.2349 12.07C48.8229 11.658 48.1529 11.658 47.7408 12.07L46.0047 13.8061C45.5928 14.218 45.5928 14.8881 46.0047 15.3001L47.7408 17.0362C47.9404 17.2357 48.2057 17.3456 48.4879 17.3456C48.7701 17.3456 49.0353 17.2357 49.2349 17.0362L50.971 15.3001C51.3828 14.8881 51.3829 14.218 50.971 13.8061ZM48.488 15.6702L47.3709 14.5531L48.488 13.436L49.6051 14.5531L48.488 15.6702Z" fill="white"/>
<path d="M7.73193 9.03911C7.73193 10.3324 8.78411 11.3846 10.0774 11.3846C11.3708 11.3846 12.4229 10.3324 12.4229 9.03911C12.4229 7.74578 11.3708 6.6936 10.0774 6.6936C8.78411 6.6936 7.73193 7.74578 7.73193 9.03911ZM10.0774 8.18774C10.5469 8.18774 10.9288 8.56965 10.9288 9.03911C10.9288 9.50856 10.5469 9.89047 10.0774 9.89047C9.60798 9.89047 9.22607 9.50856 9.22607 9.03911C9.22607 8.56965 9.60798 8.18774 10.0774 8.18774Z" fill="white"/>
<path d="M47.2464 33.6202C45.9532 33.6202 44.9009 34.6724 44.9009 35.9657C44.9009 37.2591 45.9531 38.3112 47.2464 38.3112C48.5397 38.3112 49.5919 37.2591 49.5919 35.9657C49.5919 34.6724 48.5396 33.6202 47.2464 33.6202ZM47.2464 36.8171C46.7769 36.8171 46.395 36.4352 46.395 35.9657C46.395 35.4963 46.7769 35.1144 47.2464 35.1144C47.7158 35.1144 48.0977 35.4963 48.0977 35.9657C48.0977 36.4352 47.7158 36.8171 47.2464 36.8171Z" fill="white"/>
<path d="M7.64706 36.056C7.64706 34.7626 6.59488 33.7104 5.30156 33.7104C4.00823 33.7104 2.95605 34.7626 2.95605 36.056C2.95605 37.3493 4.00833 38.4015 5.30156 38.4015C6.59479 38.4015 7.64706 37.3493 7.64706 36.056ZM4.4502 36.056C4.4502 35.5865 4.8321 35.2046 5.30156 35.2046C5.77102 35.2046 6.15292 35.5865 6.15292 36.056C6.15292 36.5254 5.77102 36.9073 5.30156 36.9073C4.8321 36.9073 4.4502 36.5254 4.4502 36.056Z" fill="white"/>
</g>
<defs>
<clipPath id="clip0_296_3035">
<rect width="51" height="51" fill="white" transform="translate(0.773438 0.500122)"/>
</clipPath>
</defs>
</svg>
