<svg width="45" height="46" viewBox="0 0 45 46"
  xmlns="http://www.w3.org/2000/svg">
  <rect y="0.422119" width="45" height="45" rx="5" />
  <g clip-path="url(#clip0_162_1400)">
    <path d="M24.6563 21.4846C23.6612 21.4846 22.6884 21.1895 21.861 20.6367C21.0337 20.0839 20.3888 19.2981 20.008 18.3787C19.6272 17.4594 19.5275 16.4478 19.7217 15.4718C19.9158 14.4959 20.395 13.5994 21.0986 12.8957C21.8023 12.1921 22.6987 11.7129 23.6747 11.5188C24.6507 11.3247 25.6623 11.4243 26.5816 11.8051C27.501 12.1859 28.2867 12.8308 28.8396 13.6582C29.3924 14.4855 29.6875 15.4583 29.6875 16.4534C29.6859 17.7872 29.1553 19.066 28.2121 20.0092C27.2689 20.9524 25.9901 21.483 24.6563 21.4846ZM24.6563 12.8596C23.9455 12.8596 23.2507 13.0704 22.6597 13.4653C22.0687 13.8602 21.6081 14.4214 21.3361 15.0781C21.0641 15.7348 20.9929 16.4574 21.1316 17.1545C21.2702 17.8516 21.6125 18.4919 22.1151 18.9945C22.6177 19.4971 23.258 19.8394 23.9551 19.9781C24.6523 20.1167 25.3748 20.0456 26.0315 19.7736C26.6882 19.5016 27.2495 19.0409 27.6443 18.45C28.0392 17.859 28.25 17.1641 28.25 16.4534C28.2489 15.5006 27.8699 14.5872 27.1962 13.9134C26.5225 13.2397 25.609 12.8607 24.6563 12.8596Z" fill="white"/>
    <path d="M31.8438 34.4221H17.4688C17.2781 34.4221 17.0953 34.3464 16.9605 34.2116C16.8257 34.0768 16.75 33.894 16.75 33.7034V33.6027C16.75 33.4759 16.7836 33.3513 16.8474 33.2416C16.9111 33.1319 17.0028 33.0411 17.113 32.9783C17.2233 32.9155 17.3482 32.883 17.475 32.8841C17.6019 32.8853 17.7262 32.9199 17.8353 32.9846H31.125V27.4143C31.1231 25.8422 30.4978 24.3351 29.3861 23.2235C28.2745 22.1119 26.7674 21.4865 25.1953 21.4846H24.1172C22.7453 21.4844 21.4158 21.9596 20.355 22.8295C20.2073 22.9451 20.0203 22.9985 19.8339 22.9782C19.6474 22.9579 19.4763 22.8655 19.357 22.7208C19.2378 22.576 19.1798 22.3904 19.1955 22.2035C19.2112 22.0166 19.2993 21.8433 19.4411 21.7204C20.7593 20.6385 22.4118 20.0471 24.1172 20.0471H25.1953C27.1486 20.0492 29.0212 20.8261 30.4024 22.2073C31.7835 23.5884 32.5604 25.4611 32.5625 27.4143V33.7034C32.5625 33.894 32.4868 34.0768 32.352 34.2116C32.2172 34.3464 32.0344 34.4221 31.8438 34.4221Z" fill="white"/>
    <path d="M28.25 34.4221C28.0594 34.4221 27.8766 34.3464 27.7418 34.2116C27.607 34.0768 27.5312 33.894 27.5312 33.7034V26.5159C27.5312 26.3252 27.607 26.1424 27.7418 26.0076C27.8766 25.8728 28.0594 25.7971 28.25 25.7971C28.4406 25.7971 28.6234 25.8728 28.7582 26.0076C28.893 26.1424 28.9688 26.3252 28.9688 26.5159V33.7034C28.9688 33.894 28.893 34.0768 28.7582 34.2116C28.6234 34.3464 28.4406 34.4221 28.25 34.4221Z" fill="white"/>
    <path d="M21.0625 34.4222C20.8719 34.4222 20.6891 34.3464 20.5543 34.2116C20.4195 34.0768 20.3438 33.894 20.3438 33.7034V32.4025C20.3438 32.2118 20.4195 32.029 20.5543 31.8942C20.6891 31.7594 20.8719 31.6837 21.0625 31.6837C21.2531 31.6837 21.4359 31.7594 21.5707 31.8942C21.7055 32.029 21.7812 32.2118 21.7812 32.4025V33.7034C21.7812 33.894 21.7055 34.0768 21.5707 34.2116C21.4359 34.3464 21.2531 34.4222 21.0625 34.4222Z" fill="white"/>
    <path d="M17.9693 34.4221C17.9336 34.422 17.898 34.4194 17.8627 34.4144C17.2661 34.3246 14.2258 33.749 12.9528 31.2187C12.5895 30.4912 12.4129 29.6848 12.4391 28.8722V23.1917C12.4389 23.0389 12.4874 22.8901 12.5777 22.7669C12.6679 22.6437 12.7951 22.5525 12.9407 22.5066L17.7523 20.9856C17.8934 20.9407 18.0449 20.9407 18.186 20.9856L22.9976 22.5066C23.1433 22.5525 23.2705 22.6437 23.3608 22.7669C23.4511 22.8901 23.4996 23.0389 23.4995 23.1917V28.8904C23.5237 29.6968 23.3472 30.4966 22.9857 31.2179C21.7135 33.7479 18.6725 34.3246 18.0759 34.4144C18.0406 34.4194 18.005 34.422 17.9693 34.4221ZM13.8766 23.7181V28.8904C13.8547 29.4728 13.9787 30.0513 14.2373 30.5736C15.1365 32.36 17.3966 32.8716 17.9693 32.9748C18.5421 32.8716 20.8029 32.36 21.7014 30.5736C21.958 30.0572 22.082 29.485 22.0621 28.9087V23.7181L17.9693 22.4243L13.8766 23.7181Z" fill="white"/>
    <path d="M17.6734 29.4323C17.579 29.4324 17.4855 29.4139 17.3983 29.3777C17.311 29.3416 17.2318 29.2886 17.1652 29.2217L15.6814 27.7378C15.55 27.6023 15.4771 27.4206 15.4785 27.2319C15.48 27.0431 15.5556 26.8625 15.689 26.7291C15.8225 26.5956 16.003 26.52 16.1918 26.5186C16.3805 26.5171 16.5622 26.59 16.6977 26.7214L17.6734 27.6971L19.9644 25.4061C20.0307 25.3374 20.11 25.2827 20.1977 25.245C20.2854 25.2073 20.3797 25.1875 20.4752 25.1867C20.5706 25.1858 20.6652 25.204 20.7536 25.2402C20.8419 25.2763 20.9221 25.3297 20.9896 25.3972C21.0571 25.4646 21.1105 25.5449 21.1466 25.6332C21.1828 25.7216 21.201 25.8162 21.2001 25.9116C21.1993 26.0071 21.1795 26.1014 21.1418 26.1891C21.1041 26.2768 21.0494 26.3561 20.9807 26.4224L18.1816 29.2217C18.1149 29.2886 18.0357 29.3416 17.9485 29.3777C17.8613 29.4139 17.7678 29.4324 17.6734 29.4323Z" fill="white"/>
  </g>
  <defs>
    <clipPath id="clip0_162_1400">
      <rect width="23" height="23" fill="white" transform="translate(11 11.4221)"/>
    </clipPath>
  </defs>
</svg>
