<svg width="45" height="46" viewBox="0 0 45 46"
  xmlns="http://www.w3.org/2000/svg">
  <rect y="0.422119" width="45" height="45" rx="5" />
  <g clip-path="url(#clip0_162_1391)">
    <path d="M23 33.3805C19.376 33.3805 16.075 31.5482 14.1615 28.4795C14.15 28.4649 14.1396 28.4503 14.1312 28.4367C13.8948 28.0565 13.676 27.6399 13.4625 27.167C12.8781 25.8263 12.5833 24.4149 12.5833 22.9638C12.5677 22.8982 12.0625 19.5138 12.0625 17.7555C12.0625 12.7274 16.5323 12.1117 17.576 12.0367C18.1333 11.5399 20.15 9.94299 23 9.94299C27.5417 9.94299 33.9375 12.367 33.9375 17.7555C33.9375 19.4815 33.4323 22.8961 33.4115 23.0399C33.4167 24.4097 33.1229 25.8253 32.5417 27.1701C32.3094 27.6815 32.0552 28.1492 31.7812 28.5711C31.7615 28.6013 31.7385 28.6305 31.7125 28.6555C29.8583 31.5847 26.5792 33.3805 23 33.3805ZM14.9958 27.8555C15.0073 27.8701 15.0177 27.8836 15.026 27.8982C16.7458 30.6784 19.726 32.3388 23 32.3388C26.2208 32.3388 29.1719 30.7232 30.8937 28.018C30.9146 27.9867 30.9375 27.9555 30.9646 27.9295C31.1521 27.6263 31.3813 27.2045 31.5885 26.7482C32.1094 25.544 32.375 24.267 32.375 22.9638C32.3854 22.8534 32.8958 19.4055 32.8958 17.7555C32.8958 13.0857 27.1094 10.9847 23 10.9847C20.124 10.9847 18.1792 12.8961 18.1604 12.9159C18.0625 13.0128 17.9302 13.067 17.7927 13.068C17.601 13.069 13.1042 13.1409 13.1042 17.7555C13.1042 19.4367 13.6146 22.8524 13.6198 22.8867C13.625 24.2701 13.8906 25.543 14.4156 26.7451C14.6 27.1576 14.7917 27.5232 14.9958 27.8555Z" fill="white"/>
    <path d="M32.6749 25.5679C32.4489 25.5679 32.2405 25.419 32.1749 25.1909L30.9405 20.8784C23.4051 20.8159 20.353 18.9388 19.1384 17.6273C18.352 19.6482 15.9447 20.5294 15.0864 20.7846L13.8259 25.1898C13.7468 25.4679 13.4572 25.6284 13.1822 25.5471C12.9062 25.4679 12.7457 25.1794 12.8249 24.9034L14.1666 20.2159C14.2176 20.0346 14.3645 19.895 14.5478 19.8523C14.5864 19.8429 18.3489 18.9242 18.3489 16.2544C18.3489 15.9909 18.5457 15.769 18.8072 15.7377C19.0697 15.6992 19.3124 15.8742 19.3759 16.1304C19.3843 16.1586 20.5614 19.8388 31.3332 19.8388C31.5655 19.8388 31.7697 19.9919 31.8332 20.2159L33.1749 24.9034C33.2541 25.1804 33.0937 25.4679 32.8176 25.5471C32.7707 25.5617 32.7218 25.5679 32.6749 25.5679Z" fill="white"/>
    <path d="M32.8748 26.0888C32.754 26.0888 32.6321 26.0774 32.5113 26.067C32.2248 26.0388 32.0154 25.7836 32.0435 25.4972C32.0717 25.2118 32.3227 25.0149 32.6123 25.0295C32.6998 25.0378 32.7873 25.0472 32.8748 25.0472C33.7363 25.0472 34.4373 24.3461 34.4373 23.4847C34.4373 22.6909 33.8467 22.0232 33.0633 21.9284C32.7779 21.8951 32.5738 21.6357 32.6081 21.3493C32.6425 21.0649 32.904 20.8534 33.1873 20.894C34.4935 21.0503 35.479 22.1649 35.479 23.4836C35.479 24.9211 34.3102 26.0888 32.8748 26.0888Z" fill="white"/>
    <path d="M13.1042 26.0887C11.6688 26.0887 10.5 24.921 10.5 23.4846C10.5 22.1533 11.4969 21.0387 12.8177 20.894C13.1115 20.869 13.3604 21.069 13.3927 21.3544C13.425 21.6398 13.2177 21.8971 12.9323 21.9294C12.1521 22.0148 11.5417 22.6981 11.5417 23.4846C11.5417 24.346 12.2427 25.0471 13.1042 25.0471C13.1875 25.0471 13.2656 25.0398 13.3323 25.0262C13.6125 24.9617 13.8896 25.1502 13.9469 25.4315C14.0052 25.7137 13.8229 25.9877 13.5417 26.046C13.4063 26.0742 13.2583 26.0887 13.1042 26.0887Z" fill="white"/>
    <path d="M18.833 25.0471C17.9715 25.0471 17.2705 24.3461 17.2705 23.4846C17.2705 22.6232 17.9715 21.9221 18.833 21.9221C19.6945 21.9221 20.3955 22.6232 20.3955 23.4846C20.3955 24.3461 19.6945 25.0471 18.833 25.0471ZM18.833 22.9638C18.5455 22.9638 18.3122 23.1982 18.3122 23.4846C18.3122 23.7711 18.5455 24.0055 18.833 24.0055C19.1205 24.0055 19.3538 23.7711 19.3538 23.4846C19.3538 23.1982 19.1205 22.9638 18.833 22.9638Z" fill="white"/>
    <path d="M27.167 25.0471C26.3055 25.0471 25.6045 24.3461 25.6045 23.4846C25.6045 22.6232 26.3055 21.9221 27.167 21.9221C28.0285 21.9221 28.7295 22.6232 28.7295 23.4846C28.7295 24.3461 28.0285 25.0471 27.167 25.0471ZM27.167 22.9638C26.8795 22.9638 26.6462 23.1982 26.6462 23.4846C26.6462 23.7711 26.8795 24.0055 27.167 24.0055C27.4545 24.0055 27.6878 23.7711 27.6878 23.4846C27.6878 23.1982 27.4545 22.9638 27.167 22.9638Z" fill="white"/>
    <path d="M22.9996 29.2378C21.9329 29.2378 20.8652 28.8316 20.0527 28.0191C19.8496 27.8159 19.8496 27.4857 20.0527 27.2826C20.2559 27.0795 20.5861 27.0795 20.7892 27.2826C22.0079 28.5013 23.9902 28.5013 25.209 27.2826C25.4121 27.0795 25.7423 27.0795 25.9454 27.2826C26.1486 27.4857 26.1486 27.8159 25.9454 28.0191C25.134 28.8326 24.0663 29.2378 22.9996 29.2378Z" fill="white"/>
  </g>
  <defs>
    <clipPath id="clip0_162_1391">
      <rect width="25" height="25" fill="white" transform="translate(10.5 9.42212)"/>
    </clipPath>
  </defs>
</svg>
