<svg width="45" height="46" viewBox="0 0 45 46"
  xmlns="http://www.w3.org/2000/svg">
  <rect y="0.422119" width="45" height="45" rx="5" />
  <g clip-path="url(#clip0_2973_2)">
    <path d="M33.9803 30.6173L30.2844 15.6524C30.2951 15.0116 30.4052 13.7883 30.3686 13.149C30.3686 11.9211 29.3696 10.9221 28.1417 10.9221H26.3227C25.0948 10.9221 24.0958 11.9211 24.0958 13.1491C24.0695 13.788 24.1517 15.1022 24.1991 15.7488L22.8145 21.3552L21.7775 17.1562C21.7881 16.5154 21.8982 15.2921 21.8616 14.6528C21.8616 13.4249 20.8626 12.4258 19.6346 12.4258H17.8157C16.5878 12.4258 15.5887 13.4249 15.5887 14.6528C15.5624 15.2917 15.6447 16.6058 15.6921 17.2525L12.02 32.121C11.9554 32.3824 12.0588 32.6574 12.2813 32.8091C12.5036 32.9606 12.7955 32.9592 13.0154 32.8034C13.0857 32.7547 14.7549 31.626 16.4938 32.8085C16.696 32.9482 16.9751 32.9578 17.1856 32.8295C17.1928 32.8252 17.9167 32.4044 18.7466 32.4044C19.3584 32.4044 19.9121 32.6329 20.1632 32.7543C20.381 32.9553 20.7497 32.9786 20.9995 32.8085C22.7383 31.6261 24.4076 32.7547 24.4751 32.8014C24.6949 32.9571 24.9881 32.9598 25.2106 32.8081C25.4331 32.6564 25.5378 32.3824 25.4732 32.121L25.2983 31.4126C25.4355 31.4272 25.5764 31.3951 25.6948 31.3244C25.7018 31.3201 26.4242 30.9007 27.2536 30.9007C27.8653 30.9007 28.4191 31.1292 28.6702 31.2505C28.888 31.4516 29.2567 31.4749 29.5064 31.3047C31.2453 30.1223 32.9146 31.251 32.9821 31.2977C33.2019 31.4534 33.4951 31.456 33.7176 31.3043C33.9401 31.1527 34.0449 30.8787 33.9803 30.6173ZM27.2537 29.6118C26.8247 29.6118 26.4232 29.6868 26.0824 29.7841L26.6855 21.6243C27.0493 21.6578 27.415 21.6578 27.7788 21.6243L28.381 29.772C28.0497 29.6807 27.6644 29.6118 27.2537 29.6118ZM28.6964 20.1294C27.7402 20.4369 26.7242 20.4369 25.7679 20.1294L25.4298 14.7889H29.0345L28.6964 20.1294ZM25.3847 13.1491C25.3847 12.6319 25.8055 12.2111 26.3227 12.2111H28.1417C28.6589 12.2111 29.0797 12.6319 29.0797 13.1491V13.5H25.3847V13.1491ZM24.47 20.0278L24.5081 20.6299C24.5236 20.8756 24.6778 21.0909 24.9053 21.1848C25.0724 21.2538 25.2415 21.3147 25.412 21.3684L24.8144 29.4533L23.4783 24.0432L24.47 20.0278ZM18.7466 31.1155C18.3177 31.1155 17.9162 31.1906 17.5754 31.2878L18.1785 23.1281C18.5423 23.1616 18.908 23.1616 19.2718 23.1281L19.874 31.2758C19.5427 31.1845 19.1574 31.1155 18.7466 31.1155ZM20.1894 21.6332C19.2332 21.9406 18.2171 21.9406 17.2609 21.6332L16.9228 16.2927H20.5275L20.1894 21.6332ZM16.8777 14.6528C16.8777 14.1356 17.2985 13.7148 17.8157 13.7148H19.6346C20.1518 13.7148 20.5726 14.1356 20.5726 14.6528V15.0038H16.8777V14.6528ZM13.7991 31.1001C13.726 31.1171 13.6551 31.1355 13.5862 31.1549L15.963 21.5314L16.0011 22.1337C16.0166 22.3794 16.1708 22.5946 16.3983 22.6886C16.5654 22.7576 16.7345 22.8185 16.905 22.8722L16.2854 31.2547C15.4989 30.9559 14.6551 30.9008 13.7991 31.1001ZM23.6941 31.1001C22.8231 30.8973 21.9644 30.9573 21.166 31.2702L20.5453 22.8722C20.7158 22.8185 20.8849 22.7576 21.052 22.6886C21.2795 22.5946 21.4337 22.3794 21.4492 22.1337L21.4961 21.3929L23.9071 31.1549C23.8382 31.1355 23.7672 31.1171 23.6941 31.1001ZM32.2011 29.5963C31.3301 29.3935 30.4714 29.4535 29.673 29.7664L29.0523 21.3684C29.2228 21.3147 29.3919 21.2538 29.5591 21.1848C29.7866 21.0909 29.9407 20.8756 29.9562 20.6299L30.0031 19.8892L32.4141 29.6511C32.3452 29.6317 32.2742 29.6134 32.2011 29.5963Z" fill="white"/>
  </g>
  <defs>
    <clipPath id="clip0_2973_2">
      <rect width="22" height="22" fill="white" transform="translate(12 10.9221)"/>
    </clipPath>
  </defs>
</svg>
