<svg width="45" height="46" viewBox="0 0 45 46"
  xmlns="http://www.w3.org/2000/svg">
  <rect y="0.422119" width="45" height="45" rx="5" />
  <path d="M14.4141 23.5959H30.5859C30.9581 23.5959 31.2598 23.2943 31.2598 22.9221V21.5745C31.2598 16.7198 27.3046 12.8147 22.5 12.8147C17.7023 12.8147 13.7402 16.7131 13.7402 21.5745V22.9221C13.7402 23.2943 14.0419 23.5959 14.4141 23.5959ZM29.9121 21.5745V22.2483H24.5215V14.4426C27.6292 15.3247 29.9121 18.1879 29.9121 21.5745ZM23.1738 14.1933V22.2483H21.8262V14.1933C22.0482 14.1732 22.2728 14.1624 22.5 14.1624C22.7272 14.1624 22.9518 14.1732 23.1738 14.1933ZM15.0879 21.5745C15.0879 18.1879 17.3708 15.3247 20.4785 14.4426V22.2483H15.0879V21.5745Z" fill="white"/>
  <path d="M33.3262 24.9436C32.3728 24.9436 12.6194 24.9436 11.6738 24.9436C11.3017 24.9436 11 25.2453 11 25.6174V28.3127C11 28.6849 11.3017 28.9866 11.6738 28.9866H13.8206C14.2052 31.132 15.9555 32.9052 18.2044 33.0229C19.6207 33.0971 20.9935 32.542 21.9587 31.4729C22.1055 31.3105 22.2977 31.221 22.5 31.221C22.7023 31.221 22.8945 31.3105 23.0413 31.4729C23.9982 32.5327 25.3667 33.0977 26.7956 33.0229C29.0444 32.9052 30.7948 31.1319 31.1794 28.9865H33.3262C33.6983 28.9865 34 28.6848 34 28.3127V25.6174C34 25.2453 33.6983 24.9436 33.3262 24.9436ZM12.3477 26.2913H13.7402V27.6389H12.3477V26.2913ZM26.7252 31.6771C25.7036 31.7306 24.7252 31.327 24.0415 30.5698C23.6419 30.1272 23.08 29.8734 22.5 29.8734C21.9201 29.8734 21.3582 30.1272 20.9586 30.5698C20.2748 31.3271 19.2966 31.731 18.2749 31.6772C16.5175 31.5851 15.0879 29.9732 15.0879 28.084V26.2913H29.9121V28.084C29.9121 29.9732 28.4825 31.5851 26.7252 31.6771ZM32.6523 27.6389H31.2598V26.2913H32.6523V27.6389Z" fill="white"/>
</svg>
