<svg width="45" height="46" viewBox="0 0 45 46"
  xmlns="http://www.w3.org/2000/svg">
  <rect y="0.422119" width="45" height="45" rx="5" />
  <g clip-path="url(#clip0_162_1445)">
    <path d="M31.5454 13.8418H13.4546C12.6526 13.8418 12 14.4944 12 15.2964V27.5699C12 28.372 12.6526 29.0246 13.4546 29.0246H24.0036L23.6851 30.9671C23.6252 31.3327 23.7461 31.664 24.0087 31.853C24.2712 32.042 24.6235 32.0522 24.9514 31.8794L27.2273 30.6814C27.2908 30.6488 27.4658 30.6488 27.5293 30.6814L29.8052 31.8794C29.9609 31.9613 30.1222 32.0021 30.2767 32.0021C30.4476 32.0021 30.6102 31.9522 30.748 31.8529C31.0105 31.6639 31.1314 31.3326 31.0716 30.9669L30.7532 29.0245H31.5455C32.3475 29.0245 33.0001 28.3719 33.0001 27.5698V15.2964C33 14.4943 32.3474 13.8418 31.5454 13.8418ZM27.3783 26.5312C25.9805 26.5312 24.8431 25.3939 24.8431 23.9961C24.8431 22.5982 25.9805 21.4609 27.3783 21.4609C28.7762 21.4609 29.9135 22.5982 29.9135 23.9961C29.9135 25.3939 28.7762 26.5312 27.3783 26.5312ZM28.1101 29.5781C27.6861 29.3549 27.0705 29.3549 26.6466 29.5781L25.0376 30.4251L25.5491 27.3048C26.0916 27.6059 26.7152 27.778 27.3784 27.778C28.0417 27.778 28.6651 27.6058 29.2078 27.3048L29.4071 28.5213C29.4076 28.5232 29.4078 28.5254 29.4082 28.5274L29.7193 30.4251L28.1101 29.5781ZM31.7532 27.5699C31.7532 27.6826 31.658 27.7777 31.5454 27.7777H30.5487L30.321 26.3889C30.3201 26.3834 30.3186 26.3781 30.3175 26.3727C30.8441 25.7228 31.1604 24.8958 31.1604 23.9961C31.1604 21.9106 29.4639 20.214 27.3784 20.214C25.293 20.214 23.5964 21.9106 23.5964 23.9961C23.5964 24.8958 23.9128 25.7226 24.4393 26.3727C24.4383 26.3781 24.4368 26.3834 24.4359 26.3888L24.208 27.7788C24.201 27.7786 24.1943 27.7777 24.1873 27.7777H13.4546C13.342 27.7777 13.2468 27.6826 13.2468 27.5699V15.2964C13.2468 15.1838 13.342 15.0886 13.4546 15.0886H31.5454C31.658 15.0886 31.7532 15.1838 31.7532 15.2964V27.5699Z" fill="white"/>
    <path d="M29.3409 17.4294H15.2103C14.866 17.4294 14.5869 17.7085 14.5869 18.0529C14.5869 18.3972 14.866 18.6763 15.2103 18.6763H29.3409C29.6853 18.6763 29.9643 18.3972 29.9643 18.0529C29.9643 17.7085 29.6853 17.4294 29.3409 17.4294Z" fill="white"/>
    <path d="M21.1951 20.8098H15.2103C14.866 20.8098 14.5869 21.0889 14.5869 21.4332C14.5869 21.7776 14.866 22.0566 15.2103 22.0566H21.1951C21.5394 22.0566 21.8185 21.7776 21.8185 21.4332C21.8185 21.0889 21.5394 20.8098 21.1951 20.8098Z" fill="white"/>
  </g>
  <defs>
    <clipPath id="clip0_162_1445">
      <rect width="21" height="21" fill="white" transform="translate(12 12.4221)"/>
    </clipPath>
  </defs>
</svg>
