<svg width="45" height="46" viewBox="0 0 45 46"
  xmlns="http://www.w3.org/2000/svg">
  <rect y="0.422119" width="45" height="45" rx="5" />
  <g clip-path="url(#clip0_162_1409)">
    <path d="M31.0483 20.368L30.0729 20.2025C29.9861 19.9608 29.888 19.7237 29.7795 19.4932L30.3538 18.6896C30.8536 17.9876 30.7733 17.0394 30.1649 16.437L28.9929 15.2648C28.6616 14.9335 28.2225 14.751 27.7565 14.751C27.3895 14.751 27.0386 14.8641 26.7441 15.076L25.9375 15.6505C25.688 15.5326 25.4349 15.4284 25.1801 15.3383L25.0188 14.3827C24.8769 13.5363 24.1508 12.9221 23.2924 12.9221H21.6365C20.7782 12.9221 20.0522 13.5363 19.9106 14.381L19.7411 15.3741C19.5016 15.4615 19.2656 15.5608 19.0344 15.6718L18.2425 15.1014C17.9456 14.8876 17.5932 14.7747 17.2235 14.7747C16.7529 14.7747 16.3136 14.9575 15.986 15.2895L14.8112 16.4605C14.2046 17.0672 14.1251 18.0146 14.6223 18.7131L15.206 19.5331C15.0984 19.7646 15.0017 20.0028 14.9162 20.2459L13.9604 20.4072C13.1142 20.5492 12.5 21.2752 12.5 22.1335V23.7894C12.5 24.6477 13.1142 25.3737 13.9589 25.5155L14.9519 25.6849C15.0394 25.9244 15.1389 26.1606 15.2496 26.3917L14.6814 27.1821C14.1817 27.8841 14.2619 28.8325 14.8703 29.4347L16.0423 30.6069C16.3736 30.9382 16.8127 31.1207 17.2787 31.1207C17.6457 31.1207 17.9967 31.0076 18.291 30.7958L19.111 30.2122C19.3265 30.3123 19.5499 30.404 19.7792 30.4865L19.9417 31.4617C20.0838 32.308 20.8098 32.9221 21.6681 32.9221H23.3278C24.1861 32.9221 24.9123 32.308 25.054 31.4628L25.2194 30.4873C25.4611 30.4005 25.6982 30.3023 25.9288 30.1938L26.7297 30.7664C27.0267 30.9801 27.379 31.0932 27.7487 31.0932C28.2146 31.0932 28.6537 30.9107 28.985 30.5794L30.157 29.4073C30.7639 28.8006 30.8432 27.8531 30.3459 27.1546L29.771 26.3473C29.8824 26.1114 29.9808 25.8744 30.0655 25.6388L31.0394 25.4764C31.8857 25.3344 32.4998 24.6084 32.4998 23.7501V22.0975C32.5095 21.2383 31.8997 20.5114 31.0483 20.368ZM31.328 23.7501C31.328 24.0337 31.125 24.2737 30.8461 24.3206L29.5543 24.5359C29.3159 24.5756 29.1237 24.7437 29.0521 24.9749C28.9374 25.3467 28.7798 25.7268 28.584 26.104C28.4732 26.3167 28.4909 26.5702 28.6301 26.7652L29.3913 27.8342C29.5555 28.0649 29.5291 28.3781 29.3285 28.5787L28.1564 29.7507C28.0449 29.8623 27.9039 29.9213 27.7487 29.9213C27.6263 29.9213 27.5108 29.8847 27.4129 29.8142L26.3484 29.0534C26.1526 28.9129 25.8981 28.8952 25.6844 29.007C25.3264 29.1944 24.946 29.352 24.5537 29.4752C24.3248 29.5469 24.1577 29.7385 24.1179 29.9744L23.8985 31.2676C23.8516 31.5473 23.6116 31.7502 23.3278 31.7502H21.6681C21.3843 31.7502 21.1444 31.5473 21.0976 31.2684L20.8823 29.9766C20.8429 29.7397 20.6763 29.5478 20.4474 29.4755C20.0607 29.3534 19.6925 29.202 19.3527 29.0255C19.2601 28.9774 19.1599 28.9538 19.0601 28.9538C18.931 28.9538 18.8025 28.9934 18.6925 29.0717L17.6089 29.8429C17.5113 29.9132 17.4002 29.9488 17.2787 29.9488C17.1236 29.9488 16.9826 29.8899 16.871 29.7782L15.6969 28.6042C15.4965 28.4058 15.471 28.0936 15.6345 27.864L16.3911 26.8114C16.5335 26.6138 16.5509 26.3575 16.4362 26.1419C16.2437 25.781 16.0843 25.4026 15.9621 25.017C15.8897 24.7896 15.6989 24.6235 15.4639 24.5833L14.1544 24.3601C13.8748 24.3131 13.6719 24.0731 13.6719 23.7894V22.1335C13.6719 21.8499 13.8748 21.6099 14.1548 21.5629L15.4308 21.3476C15.6693 21.3074 15.8614 21.1388 15.9323 20.9069C16.0527 20.5129 16.2076 20.1319 16.3927 19.7748C16.5028 19.5626 16.4851 19.3098 16.3464 19.1146L15.5771 18.0337C15.4128 17.8029 15.4391 17.4898 15.6392 17.2898L16.8152 16.1178L16.8195 16.1133C16.9252 16.0058 17.0686 15.9466 17.2235 15.9466C17.3459 15.9466 17.4615 15.9832 17.5577 16.0525L18.6148 16.8134C18.8127 16.9559 19.0694 16.973 19.2842 16.8583C19.6451 16.6659 20.0235 16.5064 20.4086 16.3843C20.636 16.3122 20.8022 16.1216 20.8426 15.886L21.066 14.5765C21.1128 14.2969 21.3528 14.094 21.6367 14.094H23.2925C23.5762 14.094 23.8162 14.2969 23.8632 14.5769L24.0785 15.8533C24.1188 16.092 24.2877 16.2839 24.5198 16.3547C24.9155 16.475 25.3101 16.6373 25.6929 16.8375C25.9056 16.9486 26.1591 16.9312 26.355 16.7919L27.4265 16.0288C27.524 15.9585 27.635 15.9229 27.7567 15.9229C27.9117 15.9229 28.0527 15.9818 28.1644 16.0935L29.3384 17.2675C29.5387 17.4659 29.5644 17.7781 29.3999 18.0089L28.6383 19.0745C28.4985 19.2704 28.4811 19.5246 28.5927 19.7376C28.7802 20.0956 28.9377 20.476 29.061 20.8684C29.1328 21.0973 29.3243 21.2643 29.5602 21.3041L30.8524 21.5233L30.8534 21.5235C31.1322 21.5703 31.3319 21.8069 31.328 22.0859V23.7501Z" fill="white"/>
    <path d="M22.4999 19.0336C20.3557 19.0336 18.6113 20.778 18.6113 22.9221C18.6113 25.0663 20.3557 26.8107 22.4999 26.8107C24.644 26.8107 26.3884 25.0663 26.3884 22.9221C26.3884 20.778 24.644 19.0336 22.4999 19.0336ZM22.4999 25.6388C21.0019 25.6388 19.7832 24.4201 19.7832 22.9221C19.7832 21.4242 21.0019 20.2054 22.4999 20.2054C23.9978 20.2054 25.2166 21.4242 25.2166 22.9221C25.2166 24.4201 23.9978 25.6388 22.4999 25.6388Z" fill="white"/>
  </g>
  <defs>
    <clipPath id="clip0_162_1409">
      <rect width="20" height="20" fill="white" transform="translate(12.5 12.9221)"/>
    </clipPath>
  </defs>
</svg>
