<svg width="45" height="46" viewBox="0 0 45 46"
  xmlns="http://www.w3.org/2000/svg">
  <rect y="0.422119" width="45" height="45" rx="5" />
  <g clip-path="url(#clip0_162_1427)">
    <path d="M16.2493 14.719H25.0519C25.3216 14.719 25.5402 14.5004 25.5402 14.2307C25.5402 13.9612 25.3216 13.7424 25.0519 13.7424H16.2493C14.6004 13.7424 13.2588 15.0841 13.2588 16.7332V18.6302C13.2588 21.3253 15.4515 23.518 18.1466 23.518C19.6932 23.518 21.1649 22.7735 22.0835 21.5267C22.1861 21.3873 22.3454 21.3074 22.5205 21.3074C22.6954 21.3074 22.8547 21.3873 22.9573 21.5267C23.8759 22.7735 25.3476 23.518 26.8942 23.518C29.5893 23.518 31.782 21.3253 31.782 18.6302V16.7332C31.782 15.9344 31.4709 15.1832 30.906 14.6185C30.3412 14.0535 29.5903 13.7424 28.7913 13.7424H28.7705C28.5008 13.7424 28.2822 13.9612 28.2822 14.2307V14.2374C28.2822 14.5071 28.5008 14.7257 28.7705 14.7257C28.7964 14.7257 28.8218 14.7238 28.8468 14.7198C29.3639 14.7337 29.8481 14.9416 30.2155 15.3089C30.5958 15.6893 30.8053 16.1951 30.8053 16.7332V18.6302C30.8053 20.7868 29.0507 22.5414 26.8942 22.5414C25.6566 22.5414 24.4788 21.9456 23.7437 20.9474C23.4549 20.5555 23.009 20.3306 22.5203 20.3306C22.0316 20.3306 21.5859 20.5555 21.2971 20.9474C20.5618 21.9456 19.384 22.5414 18.1466 22.5414C15.9899 22.5414 14.2354 20.7868 14.2354 18.6302V16.7332C14.2354 15.6225 15.1389 14.719 16.2493 14.719Z" fill="white"/>
    <path d="M20.4658 29.5334C20.1961 29.5334 19.9775 29.752 19.9775 30.0217C19.9775 30.2914 20.1961 30.51 20.4658 30.51H24.5758C24.8455 30.51 25.0641 30.2914 25.0641 30.0217C25.0641 29.752 24.8455 29.5334 24.5758 29.5334H20.4658Z" fill="white"/>
    <path d="M21.6729 28.8464H23.3691C23.6386 28.8464 23.8573 28.6279 23.8573 28.3582C23.8573 28.0886 23.6386 27.8699 23.3691 27.8699H21.6729C21.4032 27.8699 21.1846 28.0886 21.1846 28.3582C21.1846 28.6279 21.4032 28.8464 21.6729 28.8464Z" fill="white"/>
    <path d="M23.3691 31.2134H21.6729C21.4032 31.2134 21.1846 31.4322 21.1846 31.7017C21.1846 31.9714 21.4032 32.1899 21.6729 32.1899H23.3691C23.6386 32.1899 23.8573 31.9714 23.8573 31.7017C23.8573 31.4322 23.6386 31.2134 23.3691 31.2134Z" fill="white"/>
    <path d="M34.5117 15.081H33.7206C33.4165 14.1352 32.834 13.2858 32.0524 12.66C31.1546 11.9411 30.0254 11.5452 28.8734 11.5452H16.1682C15.0158 11.5452 13.8866 11.9411 12.9888 12.66C12.207 13.2858 11.6247 14.1352 11.3206 15.081H10.4883C10.2186 15.081 10 15.2998 10 15.5693V19.8997C10 20.1692 10.2186 20.388 10.4883 20.388H11.2888C11.4948 21.2005 11.8463 21.9606 12.3369 22.6517C12.4929 22.8716 12.7977 22.9233 13.0176 22.7671C13.2375 22.611 13.2892 22.3062 13.1332 22.0863C12.7617 21.5629 12.483 20.9936 12.3012 20.3878C12.3035 20.3878 12.3056 20.3874 12.3077 20.3874C12.322 20.3871 12.3363 20.3863 12.3504 20.3848C12.3518 20.3846 12.3533 20.3844 12.3548 20.3842C12.3697 20.3823 12.3842 20.38 12.3987 20.3771C12.3994 20.377 12.4 20.3766 12.4008 20.3766C12.6201 20.3287 12.7845 20.1334 12.7845 19.8997V15.5693C12.7845 15.3272 12.5978 15.115 12.3571 15.0848C12.6209 14.4392 13.0491 13.8626 13.5992 13.4222C14.335 12.8332 15.2235 12.5217 16.1682 12.5217H28.8732C29.8179 12.5217 30.7062 12.8332 31.442 13.4222C31.991 13.8618 32.4186 14.4373 32.6826 15.0816C32.4257 15.0926 32.2155 15.3116 32.2155 15.5693V19.8997C32.2155 20.1692 32.434 20.388 32.7037 20.388H32.7394C32.0041 22.8378 29.7298 24.5603 27.1221 24.5603H24.6107C24.4356 24.5603 24.2668 24.5678 24.1222 24.4486C23.7482 24.1386 23.1664 23.7692 22.5204 23.7692C21.8755 23.7692 21.2936 24.1384 20.9192 24.4482C20.7744 24.5676 20.606 24.5603 20.4307 24.5603H17.9189C17.1972 24.5603 16.4922 24.4306 15.8235 24.1747C15.5716 24.0785 15.2895 24.2044 15.1929 24.4564C15.0966 24.7082 15.2227 24.9904 15.4745 25.087C16.255 25.3855 17.0774 25.5369 17.9189 25.5369H19.9426V26.6952C19.3693 27.1332 18.91 27.7134 18.618 28.3827H16.8684V28.1294C16.8684 27.6525 16.4806 27.2646 16.0038 27.2646H14.5069C14.258 27.2646 14.0491 27.4519 14.0216 27.6991L13.5324 32.1121C13.517 32.25 13.5612 32.3881 13.6539 32.4915C13.7464 32.595 13.8788 32.6542 14.0176 32.6542H16.0038C16.4806 32.6542 16.8684 32.2662 16.8684 31.7894V31.6774H18.5764C19.2096 33.2344 20.7389 34.3351 22.5208 34.3351C24.3024 34.3351 25.8318 33.2344 26.465 31.6774H28.2125V31.7894C28.2125 32.2662 28.6003 32.6542 29.0771 32.6542H31.0632C31.2021 32.6542 31.3345 32.595 31.427 32.4915C31.5197 32.3881 31.5639 32.25 31.5487 32.1121L31.0592 27.6991C31.0318 27.4519 30.8227 27.2646 30.574 27.2646H29.0771C28.6003 27.2646 28.2125 27.6525 28.2125 28.1294V28.3827H26.4236C26.1316 27.7134 25.6725 27.1332 25.099 26.6952V25.5369H27.1221C30.2625 25.5369 32.9881 23.3948 33.7522 20.388H34.5117C34.7814 20.388 35 20.1692 35 19.8997V15.5693C35 15.2998 34.7814 15.081 34.5117 15.081ZM10.9766 16.0576H11.6895C11.6899 16.0576 11.6901 16.0578 11.6905 16.0578H11.8078V19.4113H11.6796C11.6788 19.4113 11.6779 19.4115 11.6771 19.4115H10.9766V16.0576ZM15.8918 31.6776H14.563L14.944 28.2411H15.8918V31.6776ZM18.3099 30.7009H16.8684V29.359H18.3256C18.3242 29.3667 18.3235 29.3745 18.3221 29.3819C18.3139 29.4315 18.3063 29.4813 18.2998 29.5315C18.2502 29.9192 18.2533 30.3141 18.3099 30.7009ZM30.1368 28.2411L30.5179 31.6776H29.1891V31.1937C29.1891 31.1922 29.1893 31.1907 29.1893 31.1891V28.8708C29.1893 28.8692 29.1891 28.8677 29.1891 28.8662V28.2411H30.1368ZM26.7162 29.3592H28.2125V30.7009H26.7315C26.7965 30.2568 26.7917 29.8015 26.7162 29.3592ZM25.6483 29.0922C25.8329 29.6757 25.8484 30.3091 25.6958 30.9017C25.3297 32.3131 24.0451 33.3586 22.5208 33.3586C20.9964 33.3586 19.7118 32.3131 19.3458 30.9017C19.1621 30.1884 19.2241 29.4199 19.5243 28.7472C19.77 28.1967 20.1686 27.7185 20.6649 27.3765C21.2114 27 21.8732 26.7929 22.5378 26.8001C23.2246 26.8074 23.8954 27.0235 24.4506 27.4292C24.95 27.7939 25.3423 28.2986 25.5704 28.8734C25.5989 28.9453 25.625 29.0184 25.6483 29.0922ZM23.9658 26.0757C23.1958 25.7978 22.3495 25.7479 21.5522 25.9344C21.3369 25.9847 21.1242 26.0515 20.9192 26.1349C20.9192 25.9333 20.9192 25.7316 20.9192 25.53C20.9192 25.4997 20.9241 25.4978 20.9541 25.49C20.9821 25.4827 21.0113 25.4799 21.0392 25.4715C21.3512 25.3792 21.6907 25.0709 21.895 24.9515C22.0672 24.8508 22.2606 24.7646 22.4619 24.7482C22.6518 24.7328 22.841 24.7963 23.0098 24.8785C23.1245 24.9342 23.5834 25.3052 23.9828 25.4654C24.0177 25.4795 24.0715 25.4787 24.1047 25.4955C24.1277 25.5071 24.1224 25.5842 24.1224 25.6208V25.8289V26.135C24.0707 26.1139 24.0182 26.0946 23.9658 26.0757ZM34.0234 19.4115H33.3641C33.3631 19.4115 33.3624 19.4113 33.3614 19.4113H33.192V16.0576H33.3507H33.3515H34.0234V19.4115Z" fill="white"/>
    <path d="M13.5945 23.9776C13.7099 24.1492 13.9268 24.2318 14.127 24.1779C14.3216 24.1254 14.4658 23.9547 14.4866 23.7544C14.5072 23.5549 14.3958 23.3569 14.2163 23.2686C14.0301 23.1773 13.802 23.2152 13.655 23.3613C13.4921 23.5238 13.4675 23.7869 13.5945 23.9776Z" fill="white"/>
    <path d="M26.5212 14.5016C26.6351 14.6708 26.8474 14.7542 27.046 14.7042C27.2415 14.6548 27.3883 14.4864 27.4124 14.2865C27.4364 14.0843 27.3256 13.8825 27.1432 13.7931C26.9576 13.7019 26.7288 13.7393 26.5823 13.8854C26.4192 14.0479 26.3938 14.3102 26.5212 14.5016Z" fill="white"/>
  </g>
  <defs>
    <clipPath id="clip0_162_1427">
      <rect width="25" height="25" fill="white" transform="translate(10 10.4221)"/>
    </clipPath>
  </defs>
</svg>
