<svg width="45" height="46" viewBox="0 0 45 46"
  xmlns="http://www.w3.org/2000/svg">
  <rect y="0.123749" width="45" height="45" rx="5" />
  <g clip-path="url(#clip0_162_1348)">
    <path d="M16.8844 30.7425C15.5945 31.4831 14.1406 31.7487 13.2797 31.8441C13.375 30.9831 13.6406 29.5292 14.3805 28.2386C14.5742 27.9019 14.4578 27.4722 14.1211 27.2784C13.7812 27.0839 13.3539 27.2019 13.1609 27.5386C11.8359 29.8495 11.8203 32.4886 11.8203 32.6003C11.8203 32.9886 12.1352 33.3034 12.5234 33.3034C12.6352 33.3034 15.2742 33.2878 17.5852 31.9628C17.9219 31.7691 18.0383 31.3402 17.8445 31.0027C17.6523 30.6659 17.2234 30.5487 16.8844 30.7425Z" fill="white"/>
    <path d="M34.1475 12.6823C34.1561 12.2206 33.9819 11.7878 33.6569 11.4636C33.3327 11.1394 32.8639 10.9792 32.4405 10.9753C30.4936 11.012 25.242 11.5706 20.2733 16.0308C19.3873 15.6862 18.0522 15.1745 17.0389 15.305C15.5483 15.4964 13.3459 17.5245 11.1889 19.6886C10.903 19.9753 10.7889 20.3816 10.885 20.7753C10.9803 21.1706 11.2694 21.4808 11.6569 21.605L15.0866 22.7066C14.828 23.1784 14.5733 23.6612 14.3272 24.1706C14.0178 24.8112 14.1491 25.5808 14.6537 26.0839L19.0389 30.4691C19.3608 30.7917 19.792 30.962 20.2272 30.962C20.4733 30.962 20.7217 30.9081 20.953 30.7964C21.4623 30.5503 21.9451 30.2956 22.4155 30.0378L23.5178 33.4667C23.642 33.8542 23.9522 34.1433 24.3483 34.2394C24.4397 34.2612 24.5319 34.2722 24.6241 34.2722C24.9248 34.2722 25.2147 34.1542 25.435 33.9347C27.5991 31.7777 29.6272 29.5761 29.8178 28.0862C29.9498 27.0636 29.4366 25.7362 29.092 24.8503C33.5514 19.8816 34.1108 14.63 34.1475 12.6823ZM12.4748 20.3917C13.6194 19.2519 16.1053 16.8433 17.2178 16.7003C17.7139 16.637 18.4928 16.8722 19.1506 17.1105C17.9889 18.3112 16.8608 19.7503 15.8092 21.462L12.4748 20.3917ZM20.3412 29.53C20.242 29.5784 20.1147 29.5566 20.0334 29.4753L15.6475 25.0894C15.567 25.0089 15.5444 24.8823 15.5936 24.7816C21.0553 13.4683 29.8897 12.4308 32.4678 12.3823H32.4741C32.567 12.3823 32.628 12.4237 32.6639 12.4597C32.6936 12.4894 32.7444 12.555 32.7428 12.6566C32.6928 15.2347 31.6545 24.0691 20.3412 29.53ZM28.4233 27.9066C28.2803 29.0183 25.8717 31.505 24.7319 32.6487L23.66 29.3152C25.3733 28.2636 26.8123 27.1347 28.0131 25.973C28.2522 26.63 28.4873 27.4073 28.4233 27.9066Z" fill="white"/>
    <path d="M28.85 20.4472C30 19.2964 30 17.4245 28.85 16.2737C27.7344 15.1597 25.7906 15.1597 24.6766 16.2737C24.1195 16.8308 23.8125 17.5722 23.8125 18.3605C23.8125 19.1487 24.1203 19.8902 24.6766 20.4472C25.2336 21.0042 25.975 21.3112 26.7633 21.3112C27.5516 21.3112 28.2922 21.0042 28.85 20.4472ZM27.8547 19.4527C27.2711 20.037 26.2531 20.037 25.6711 19.4527C25.3789 19.1612 25.218 18.773 25.218 18.3605C25.218 17.948 25.3789 17.5605 25.6711 17.2683C25.9625 16.9769 26.35 16.8159 26.7625 16.8159C27.1742 16.8159 27.5625 16.9769 27.8539 17.2683C28.457 17.8706 28.457 18.8503 27.8547 19.4527Z" fill="white"/>
  </g>
  <defs>
    <clipPath id="clip0_162_1348">
      <rect width="25" height="25" fill="white" transform="translate(10 10.1237)"/>
    </clipPath>
  </defs>
</svg>
