<svg width="45" height="46" viewBox="0 0 45 46"
  xmlns="http://www.w3.org/2000/svg">
  <rect y="0.422119" width="45" height="45" rx="5" />
  <g clip-path="url(#clip0_162_1355)">
    <path d="M30.0665 11.2842H24.0428H17.6838C16.1539 11.287 14.9124 12.5227 14.9023 14.0525V30.5157C14.9124 32.0456 16.1539 33.2812 17.6838 33.284H30.0744C30.4146 33.2891 30.7427 33.1581 30.9858 32.92C31.2178 32.6817 31.3475 32.3621 31.3472 32.0295V12.5649C31.3458 11.8581 30.7733 11.2856 30.0665 11.2842ZM24.5718 12.3318H27.6492V17.2451L26.557 15.5034C26.5128 15.4297 26.4511 15.368 26.3774 15.3238C26.1293 15.1749 25.8075 15.2554 25.6587 15.5034L24.5718 17.2372V12.3318ZM15.9631 14.0525C15.9674 13.1039 16.7352 12.3361 17.6838 12.3318H23.5242V17.6746C23.5045 18.0999 23.7715 18.4859 24.1763 18.6175C24.6373 18.7563 25.0511 18.4577 25.2973 18.0649L26.1118 16.7553L26.9263 18.0649C27.1699 18.4525 27.5837 18.751 28.0577 18.6175C28.4607 18.4864 28.7272 18.1032 28.7099 17.6799V12.3449H30.0744C30.1953 12.3463 30.293 12.444 30.2944 12.5649V27.7549C30.2217 27.7426 30.1481 27.7365 30.0744 27.7369H17.6838C17.0589 27.7367 16.4524 27.9482 15.9631 28.3367V14.0525ZM30.2944 29.9972L18.218 30.0103C17.9288 30.0103 17.6942 30.2448 17.6942 30.5341C17.6942 30.8233 17.9288 31.0579 18.218 31.0579L30.2944 31.0448V32.0191C30.2949 32.0777 30.2724 32.1342 30.2315 32.1762C30.1895 32.217 30.133 32.2396 30.0744 32.2391H17.6838C16.7327 32.2391 15.9617 31.4681 15.9617 30.517C15.9617 29.566 16.7327 28.795 17.6838 28.795H30.0744C30.1953 28.7965 30.293 28.8941 30.2944 29.015V29.9972Z" fill="white"/>
  </g>
  <defs>
    <clipPath id="clip0_162_1355">
      <rect width="22" height="22" fill="white" transform="translate(12.125 11.2842)"/>
    </clipPath>
  </defs>
</svg>
