<svg width="45" height="46" viewBox="0 0 45 46"
  xmlns="http://www.w3.org/2000/svg">
  <rect y="0.422119" width="45" height="45" rx="5" />
  <g clip-path="url(#clip0_162_1367)">
    <path d="M24.4336 30.3292H23.1445V31.6679H24.4336V30.3292Z" fill="white"/>
    <path d="M31.7448 16.5384C30.8384 14.3438 28.7016 12.8823 26.3672 12.8823H21.2109C18.8766 12.8823 16.7397 14.3438 15.8334 16.5384C15.6685 16.6709 15.5128 16.815 15.3672 16.9695V11.499H11.5C11.5 12.1897 11.5 24.9697 11.5 25.644C11.5 29.7037 14.6805 33.0065 18.5898 33.0065H21.2127C21.8012 33.8188 22.737 34.3452 23.7891 34.3452C25.566 34.3452 27.0117 32.8439 27.0117 30.9986C27.0117 29.1533 25.566 27.652 23.7891 27.652C22.737 27.652 21.8012 28.1783 21.2127 28.9906H18.5898C16.8129 28.9906 15.3672 27.4893 15.3672 25.644V23.5202C16.1867 24.3896 17.3285 24.9301 18.5898 24.9301H19.8789C20.2999 24.9301 20.7076 24.8708 21.0948 24.7603C21.6832 25.6925 22.6873 26.2687 23.7891 26.2687C24.8878 26.2687 25.8895 25.6956 26.4785 24.7678C26.8541 24.8733 27.2489 24.9301 27.6562 24.9301H28.9883C31.476 24.9301 33.5 22.8283 33.5 20.2448C33.5 18.7384 32.8117 17.3961 31.7448 16.5384ZM23.7891 28.9906C24.8552 28.9906 25.7227 29.8914 25.7227 30.9986C25.7227 32.1058 24.8552 33.0065 23.7891 33.0065C22.7229 33.0065 21.8555 32.1058 21.8555 30.9986C21.8555 29.8914 22.7229 28.9906 23.7891 28.9906ZM12.7891 12.8377H14.0781V19.5755H12.7891V12.8377ZM12.7891 20.9141H14.1244C14.1897 21.3866 14.3231 21.8365 14.514 22.2528H12.7891V20.9141ZM18.5898 30.3293H20.6312C20.5888 30.5456 20.5664 30.7694 20.5664 30.9986C20.5664 31.2277 20.5888 31.4516 20.6312 31.6679H18.5898C15.3913 31.6679 12.7891 28.9656 12.7891 25.644V23.5914H14.0781V25.644C14.0781 28.2274 16.1021 30.3293 18.5898 30.3293ZM21.2109 14.2209H26.3672C27.5976 14.2209 28.7571 14.7397 29.5975 15.6024C29.3982 15.5744 29.1949 15.5596 28.9883 15.5596C28.6429 15.5596 18.9431 15.5596 18.5898 15.5596C18.3832 15.5596 18.18 15.5744 17.9807 15.6024C18.8211 14.7397 19.9806 14.2209 21.2109 14.2209ZM19.8789 23.5914H18.5898C16.8129 23.5914 15.3672 22.0901 15.3672 20.2448C15.3672 18.3995 16.8129 16.8982 18.5898 16.8982H23.1445V20.2448C23.1445 22.0901 21.6796 23.5914 19.8789 23.5914ZM23.7891 24.9301C23.204 24.9301 22.6647 24.6592 22.3037 24.2092C22.9083 23.8164 23.4173 23.2815 23.786 22.6503C24.1538 23.2861 24.6627 23.8241 25.2674 24.2176C24.9064 24.6625 24.3705 24.9301 23.7891 24.9301ZM28.9883 23.5914H27.6562C25.8793 23.5914 24.4336 22.0901 24.4336 20.2448V16.8982H28.9883C30.7653 16.8982 32.2109 18.3995 32.2109 20.2448C32.2109 22.0901 30.7653 23.5914 28.9883 23.5914Z" fill="white"/>
  </g>
  <defs>
    <clipPath id="clip0_162_1367">
      <rect width="22" height="22.8462" fill="white" transform="translate(11.5 11.499)"/>
    </clipPath>
  </defs>
</svg>
