<svg width="45" height="46" viewBox="0 0 45 46"
  xmlns="http://www.w3.org/2000/svg">
  <rect y="0.422119" width="45" height="45" rx="5" />
  <path d="M32.011 14.8909H28.7905L28.4155 13.719C28.2348 13.15 27.8863 12.6549 27.4197 12.3042C26.9531 11.9535 26.3921 11.7651 25.8168 11.7659H21.1833C20.608 11.7654 20.0473 11.9539 19.5809 12.3046C19.1145 12.6552 18.7661 13.1502 18.5852 13.719L18.2095 14.8909H14.989C14.2628 14.8917 13.5666 15.1926 13.0531 15.7274C12.5396 16.2623 12.2508 16.9876 12.25 17.744V29.2284C12.2516 29.9843 12.5408 30.7087 13.0542 31.2429C13.5676 31.7771 14.2633 32.0775 14.989 32.0784H32.014C32.7397 32.0767 33.4351 31.7755 33.948 31.2407C34.4608 30.7059 34.7492 29.9811 34.75 29.2252V17.7409C34.7484 16.985 34.4592 16.2605 33.9458 15.7263C33.4324 15.1921 32.7367 14.8917 32.011 14.8909ZM33.25 29.2252C33.2496 29.5674 33.1189 29.8954 32.8867 30.1374C32.6544 30.3793 32.3395 30.5155 32.011 30.5159H14.989C14.6605 30.5155 14.3456 30.3793 14.1133 30.1374C13.8811 29.8954 13.7504 29.5674 13.75 29.2252V17.7409C13.7512 17.3992 13.8822 17.072 14.1144 16.8307C14.3466 16.5895 14.661 16.4538 14.989 16.4534H18.7502C18.9076 16.4532 19.0609 16.4016 19.1885 16.3057C19.3161 16.2098 19.4115 16.0745 19.4612 15.919L20.008 14.2104C20.0901 13.9534 20.2478 13.7299 20.4588 13.5716C20.6698 13.4132 20.9232 13.3281 21.1833 13.3284H25.8168C26.0769 13.3281 26.3305 13.4132 26.5415 13.5717C26.7525 13.7302 26.9101 13.954 26.992 14.2112L27.5387 15.919C27.5885 16.0745 27.6839 16.2098 27.8115 16.3057C27.9391 16.4016 28.0924 16.4532 28.2498 16.4534H32.011C32.3395 16.4538 32.6544 16.5899 32.8867 16.8318C33.1189 17.0738 33.2496 17.4018 33.25 17.744V29.2252Z" fill="white"/>
  <path d="M23.5 17.2346C22.3875 17.2346 21.2999 17.5783 20.3749 18.2221C19.4499 18.8659 18.7289 19.781 18.3032 20.8517C17.8774 21.9224 17.766 23.1005 17.9831 24.2371C18.2001 25.3737 18.7359 26.4177 19.5225 27.2372C20.3092 28.0566 21.3115 28.6147 22.4026 28.8408C23.4938 29.0669 24.6248 28.9508 25.6526 28.5074C26.6804 28.0639 27.5589 27.3129 28.177 26.3493C28.7951 25.3857 29.125 24.2529 29.125 23.094C29.1234 21.5405 28.5303 20.0511 27.4757 18.9526C26.4212 17.8541 24.9914 17.2363 23.5 17.2346ZM23.5 27.3909C22.6842 27.3909 21.8866 27.1389 21.2083 26.6667C20.5299 26.1946 20.0012 25.5235 19.689 24.7383C19.3768 23.9532 19.2951 23.0892 19.4543 22.2557C19.6134 21.4222 20.0063 20.6566 20.5832 20.0556C21.1601 19.4547 21.8951 19.0455 22.6953 18.8797C23.4954 18.7139 24.3248 18.799 25.0786 19.1242C25.8323 19.4494 26.4766 20.0002 26.9298 20.7068C27.3831 21.4134 27.625 22.2442 27.625 23.094C27.6238 24.2332 27.1888 25.3254 26.4155 26.131C25.6422 26.9365 24.5937 27.3896 23.5 27.3909Z" fill="white"/>
  <path d="M31 19.5784C31.4142 19.5784 31.75 19.2286 31.75 18.7971C31.75 18.3656 31.4142 18.0159 31 18.0159C30.5858 18.0159 30.25 18.3656 30.25 18.7971C30.25 19.2286 30.5858 19.5784 31 19.5784Z" fill="white"/>
</svg>
