<svg width="18" height="18" viewBox="0 0 18 18" fill="none" xmlns="http://www.w3.org/2000/svg">
<g clip-path="url(#clip0_502_402)">
<path d="M12.1742 0.63623H6.20483C5.02642 0.63623 4.07983 1.58282 4.07983 2.76123V15.5112C4.07983 16.6896 5.04574 17.6362 6.20483 17.6362H12.1742C13.3526 17.6362 14.2992 16.6896 14.2992 15.5112V2.76123C14.2992 1.58282 13.3526 0.63623 12.1742 0.63623ZM9.19915 16.2646C8.65824 16.2646 8.23324 15.8396 8.23324 15.2987C8.23324 14.7578 8.65824 14.3328 9.19915 14.3328C9.74006 14.3328 10.1651 14.7578 10.1651 15.2987C10.1651 15.8396 9.74006 16.2646 9.19915 16.2646ZM13.3332 13.309H5.04574V3.476H13.3332V13.309Z" fill="white"/>
</g>
<defs>
<clipPath id="clip0_502_402">
<rect width="17" height="17" fill="white" transform="translate(0.689453 0.63623)"/>
</clipPath>
</defs>
</svg>
