<svg width="15" height="16" viewBox="0 0 15 16" fill="none" xmlns="http://www.w3.org/2000/svg">
<g clip-path="url(#clip0_296_4330)">
<path d="M7.5 15.5C11.6411 15.5 15 12.1411 15 8C15 3.85892 11.6411 0.5 7.5 0.5C3.35892 0.5 0 3.85892 0 8C0 12.1411 3.35892 15.5 7.5 15.5ZM6.96427 3.71429C6.96427 3.41964 7.20535 3.17856 7.5 3.17856C7.79465 3.17856 8.03573 3.41964 8.03573 3.71429V7.74286L10.5134 9.72501C10.7438 9.90983 10.7813 10.2473 10.5964 10.4777C10.492 10.6089 10.3366 10.6786 10.1786 10.6786C10.0607 10.6786 9.94284 10.641 9.84376 10.5607L7.1652 8.41787C7.0393 8.31607 6.96431 8.16341 6.96431 8V3.71429H6.96427Z" fill="white"/>
</g>
<defs>
<clipPath id="clip0_296_4330">
<rect width="15" height="15" fill="white" transform="translate(0 0.5)"/>
</clipPath>
</defs>
</svg>
