<svg width="19" height="19" viewBox="0 0 19 19" fill="none" xmlns="http://www.w3.org/2000/svg">
<path d="M6.1601 0C5.26587 0 2.68084 0.0409688 2.31152 2.26367H10.0087C9.63936 0.0409688 7.05432 0 6.1601 0Z" fill="#CACACA"/>
<path d="M13.3965 18.4434V14.2972L17.5419 12.2245C17.7306 12.1299 17.8496 11.9375 17.8496 11.7266C17.8496 11.5156 17.7306 11.3232 17.5419 11.2286L13.0888 9.00207C12.916 8.91619 12.7116 8.92432 12.5474 9.02652C12.3832 9.12816 12.2832 9.30703 12.2832 9.5V18.4434C12.2832 18.751 12.5322 19 12.8398 19C13.1475 19 13.3965 18.751 13.3965 18.4434Z" fill="#CACACA"/>
<path d="M10.4009 3.37695H1.91975L1.20926 4.79791C1.12283 4.97024 1.13207 5.17516 1.23371 5.33933C1.33535 5.50351 1.51422 5.60352 1.70719 5.60352H10.6134C10.8064 5.60352 10.9853 5.50351 11.0869 5.33933C11.1886 5.17516 11.1978 4.97024 11.1114 4.79791L10.4009 3.37695Z" fill="#CACACA"/>
<path d="M10.0566 8.38672V6.7168H2.26367V8.38672C2.26367 9.73067 3.22143 10.855 4.49023 11.1136V12.2832H4.23147L6.16016 15.1762L8.08884 12.2832H7.83008V11.1136C9.09889 10.855 10.0566 9.73067 10.0566 8.38672Z" fill="#CACACA"/>
<path d="M5.04688 16.7363H7.27344V19H5.04688V16.7363Z" fill="#CACACA"/>
<path d="M1.15039 15.0664V18.4433C1.15039 18.751 1.39936 19 1.70703 19H3.93359V16.1797C3.93359 15.872 4.18256 15.623 4.49023 15.623H5.12005L3.00723 12.4537C1.92909 12.8376 1.15039 13.8582 1.15039 15.0664Z" fill="#CACACA"/>
<path d="M9.31302 12.4537L7.2002 15.623H7.83002C8.13769 15.623 8.38666 15.872 8.38666 16.1797V19H10.6132C10.9209 19 11.1699 18.751 11.1699 18.4433V15.0664C11.1699 13.8582 10.3912 12.8376 9.31302 12.4537Z" fill="#CACACA"/>
</svg>
