<svg width="30" height="30" viewBox="0 0 30 30" fill="none" xmlns="http://www.w3.org/2000/svg">
<path d="M28.4726 2.01795V10.1182C28.4726 10.6157 28.0701 11.0182 27.5726 11.0182C27.0751 11.0182 26.6726 10.6157 26.6726 10.1182V4.19061L13.8085 17.0547C13.6327 17.2304 13.4023 17.3184 13.1722 17.3184C12.942 17.3184 12.7116 17.2304 12.5358 17.0547C12.1841 16.703 12.1841 16.1335 12.5358 15.7821L25.3999 2.91797H19.4723C18.9748 2.91797 18.5723 2.51544 18.5723 2.01795C18.5723 1.52046 18.9748 1.11792 19.4723 1.11792H27.5726C28.0701 1.11792 28.4726 1.52046 28.4726 2.01795ZM24.8725 25.4186V14.6183C24.8725 14.1208 24.47 13.7183 23.9725 13.7183C23.475 13.7183 23.0724 14.1208 23.0724 14.6183V25.4186C23.0724 25.9152 22.669 26.3187 22.1724 26.3187H4.17188C3.67529 26.3187 3.27186 25.9152 3.27186 25.4186V7.41811C3.27186 6.92152 3.67529 6.51808 4.17188 6.51808H14.9722C15.4697 6.51808 15.8722 6.11554 15.8722 5.61805C15.8722 5.12056 15.4697 4.71803 14.9722 4.71803H4.17188C2.68301 4.71803 1.4718 5.92924 1.4718 7.41811V25.4186C1.4718 26.9075 2.68301 28.1187 4.17188 28.1187H22.1724C23.6613 28.1187 24.8725 26.9075 24.8725 25.4186Z" fill="white"/>
</svg>
