<svg width="16" height="16" viewBox="0 0 16 16"
  xmlns="http://www.w3.org/2000/svg">
  <g clip-path="url(#clip0_530_21)">
    <path d="M13.3033 10.6636C12.4864 9.84674 11.5141 9.24203 10.4533 8.87596C11.5895 8.09341 12.3359 6.78375 12.3359 5.30286C12.3359 2.91203 10.3908 0.966919 8 0.966919C5.60917 0.966919 3.66406 2.91203 3.66406 5.30286C3.66406 6.78375 4.41052 8.09341 5.54674 8.87596C4.4859 9.24203 3.51359 9.84674 2.69671 10.6636C1.28015 12.0802 0.5 13.9636 0.5 15.9669H1.67188C1.67188 12.4776 4.51065 9.63879 8 9.63879C11.4893 9.63879 14.3281 12.4776 14.3281 15.9669H15.5C15.5 13.9636 14.7199 12.0802 13.3033 10.6636ZM8 8.46692C6.25534 8.46692 4.83594 7.04754 4.83594 5.30286C4.83594 3.55817 6.25534 2.13879 8 2.13879C9.74466 2.13879 11.1641 3.55817 11.1641 5.30286C11.1641 7.04754 9.74466 8.46692 8 8.46692Z" />
  </g>
  <defs>
    <clipPath id="clip0_530_21">
      <rect width="15" height="15" fill="white" transform="translate(0.5 0.966919)"/>
    </clipPath>
  </defs>
</svg>
