<svg width="16" height="16" viewBox="0 0 16 16" fill="none" xmlns="http://www.w3.org/2000/svg">
<g clip-path="url(#clip0_129_2056)">
<path d="M15.7706 11.2407C15.7524 11.2015 15.7355 11.1691 15.7198 11.1431C15.4595 10.6743 14.9622 10.099 14.2281 9.41695L14.2126 9.40133L14.2048 9.39367L14.1969 9.38582H14.1891C13.8559 9.06821 13.6449 8.85465 13.5565 8.74532C13.3949 8.53704 13.3587 8.32622 13.447 8.11261C13.5094 7.95122 13.7439 7.61038 14.1499 7.08964C14.3635 6.81366 14.5326 6.59247 14.6575 6.42583C15.5583 5.22825 15.9488 4.46298 15.829 4.12973L15.7825 4.05185C15.7512 4.00496 15.6705 3.96207 15.5405 3.92295C15.4102 3.88392 15.2437 3.87746 15.0405 3.90348L12.7914 3.91902C12.7549 3.9061 12.7029 3.90731 12.6351 3.92295C12.5674 3.9386 12.5335 3.94645 12.5335 3.94645L12.4944 3.96601L12.4633 3.98951C12.4373 4.00504 12.4086 4.03237 12.3774 4.07143C12.3463 4.11036 12.3203 4.15604 12.2995 4.2081C12.0546 4.8381 11.7762 5.42384 11.4637 5.96529C11.2711 6.28815 11.0941 6.56796 10.9325 6.80488C10.7712 7.04171 10.6358 7.2162 10.5265 7.32806C10.4171 7.44002 10.3184 7.52971 10.2297 7.59747C10.1412 7.66525 10.0736 7.69389 10.0268 7.68342C9.97985 7.67294 9.93567 7.66255 9.89384 7.65215C9.821 7.60527 9.76241 7.5415 9.71823 7.46081C9.67386 7.38011 9.64399 7.27854 9.62837 7.15619C9.61283 7.03375 9.60364 6.92844 9.60101 6.83989C9.59858 6.75145 9.5997 6.62636 9.60498 6.46497C9.6104 6.3035 9.61283 6.19424 9.61283 6.13696C9.61283 5.93908 9.61669 5.72432 9.62443 5.49263C9.63231 5.26094 9.63868 5.07736 9.64402 4.94212C9.64932 4.80675 9.65178 4.66352 9.65178 4.51252C9.65178 4.36153 9.64259 4.24311 9.62443 4.15716C9.60649 4.07132 9.57894 3.988 9.54264 3.90723C9.50612 3.82653 9.45267 3.76411 9.38253 3.71979C9.31226 3.67553 9.22489 3.64041 9.12092 3.61431C8.84494 3.55186 8.49352 3.51808 8.06649 3.51283C7.09811 3.50244 6.47588 3.56497 6.19993 3.70034C6.0906 3.75754 5.99166 3.83569 5.90319 3.93455C5.80945 4.04914 5.79637 4.11167 5.86405 4.12196C6.17649 4.16876 6.39768 4.28072 6.52786 4.45773L6.57477 4.55153C6.61126 4.61921 6.6477 4.73902 6.68416 4.9108C6.72057 5.08259 6.74407 5.27262 6.75441 5.48079C6.78039 5.86093 6.78039 6.18634 6.75441 6.45704C6.72834 6.72785 6.70372 6.93867 6.68022 7.08966C6.65672 7.24066 6.6216 7.36302 6.57477 7.4567C6.52786 7.55042 6.49665 7.6077 6.481 7.62849C6.46538 7.64928 6.45236 7.66238 6.44202 7.66752C6.37434 7.69346 6.30396 7.70667 6.23112 7.70667C6.15816 7.70667 6.0697 7.67018 5.96559 7.59725C5.8615 7.52432 5.75348 7.42415 5.64152 7.29657C5.52956 7.16896 5.40329 6.99064 5.26266 6.76157C5.12214 6.53251 4.97634 6.26178 4.82535 5.9494L4.70042 5.72285C4.62232 5.5771 4.51564 5.36489 4.38026 5.08639C4.24481 4.80779 4.12508 4.53829 4.02099 4.27796C3.97939 4.16862 3.91688 4.08538 3.83359 4.0281L3.7945 4.00461C3.76851 3.98382 3.72679 3.96174 3.66957 3.93822C3.61226 3.91472 3.55247 3.89787 3.48993 3.8875L1.35003 3.90304C1.13136 3.90304 0.982985 3.95258 0.904861 4.05152L0.873595 4.09832C0.857976 4.12439 0.850098 4.16603 0.850098 4.22333C0.850098 4.28061 0.865717 4.35091 0.896983 4.43415C1.20937 5.16835 1.54908 5.87641 1.91613 6.55847C2.28317 7.24052 2.60212 7.78994 2.87279 8.20621C3.14352 8.62279 3.41947 9.01596 3.70064 9.38552C3.98182 9.75521 4.16794 9.99213 4.259 10.0962C4.35017 10.2005 4.42179 10.2784 4.47384 10.3305L4.66913 10.5179C4.79408 10.6429 4.97757 10.7926 5.21969 10.967C5.46186 11.1414 5.72996 11.3132 6.02413 11.4826C6.31835 11.6517 6.66064 11.7896 7.05117 11.8963C7.44166 12.0032 7.82172 12.046 8.19141 12.0254H9.08957C9.27172 12.0096 9.40973 11.9523 9.50352 11.8535L9.5346 11.8143C9.5555 11.7833 9.57506 11.735 9.59311 11.67C9.61138 11.6049 9.62046 11.5332 9.62046 11.4553C9.61513 11.2314 9.63217 11.0297 9.67112 10.8501C9.71005 10.6705 9.75442 10.5351 9.80404 10.444C9.85363 10.3529 9.9096 10.276 9.97189 10.2137C10.0343 10.1512 10.0788 10.1134 10.1049 10.1004C10.1308 10.0873 10.1515 10.0784 10.1671 10.0731C10.2921 10.0314 10.4392 10.0718 10.6085 10.1942C10.7778 10.3166 10.9365 10.4677 11.085 10.6472C11.2334 10.8269 11.4117 11.0286 11.6199 11.2524C11.8283 11.4763 12.0104 11.6428 12.1666 11.7523L12.3227 11.846C12.427 11.9085 12.5624 11.9658 12.729 12.0179C12.8954 12.0699 13.0411 12.0829 13.1662 12.0569L15.1655 12.0257C15.3632 12.0257 15.5171 11.993 15.6263 11.928C15.7356 11.8629 15.8006 11.7912 15.8215 11.7132C15.8424 11.6352 15.8436 11.5466 15.8255 11.4476C15.807 11.3488 15.7887 11.2797 15.7706 11.2407Z" fill="white"/>
</g>
<defs>
<clipPath id="clip0_129_2056">
<rect width="15" height="15" fill="white" transform="translate(0.850098 0.291016)"/>
</clipPath>
</defs>
</svg>
