<svg width="19" height="19" viewBox="0 0 19 19" fill="none" xmlns="http://www.w3.org/2000/svg">
<path d="M16.7764 5.84191H3.98644C3.65809 5.84191 3.39269 5.57591 3.39269 5.24816C3.39269 4.92041 3.65809 4.65441 3.98644 4.65441H14.4198V2.42785C14.4198 2.11138 14.2779 1.81629 14.0309 1.61857C13.7827 1.41966 13.4615 1.34782 13.1551 1.41669L1.99619 3.92232C1.52059 4.02919 1.1875 4.44541 1.1875 4.93347V16.5728C1.1875 17.1439 1.65241 17.6094 2.22359 17.6094H16.7764C17.3476 17.6094 17.8125 17.1445 17.8125 16.5728V6.878C17.8125 6.30682 17.3476 5.84191 16.7764 5.84191ZM14.9067 12.784C14.3515 12.784 13.9003 12.3322 13.9003 11.777C13.9003 11.2219 14.3521 10.77 14.9067 10.77C15.4624 10.77 15.9137 11.2219 15.9137 11.777C15.9137 12.3322 15.4624 12.784 14.9067 12.784Z" fill="white"/>
</svg>
