<?xml version="1.0" encoding="utf-8"?><svg viewBox="0 0 53 52" xmlns="http://www.w3.org/2000/svg" xmlns:xlink="http://www.w3.org/1999/xlink"><style>:root>svg{display:none}:root>svg:target{display:block}</style><svg viewBox="0 0 8 9" id="arrow-down" xmlns="http://www.w3.org/2000/svg"><path d="M7.872 2.286 7.61 1.99a.412.412 0 0 0-.31-.143.412.412 0 0 0-.309.143l-2.99 3.364L1.01 1.986a.411.411 0 0 0-.31-.144.412.412 0 0 0-.309.144l-.262.295a.537.537 0 0 0 0 .696L3.691 7a.427.427 0 0 0 .31.158h.002A.427.427 0 0 0 4.313 7l3.56-4.012A.531.531 0 0 0 8 2.636a.525.525 0 0 0-.128-.35z"/></svg><svg fill="none" viewBox="0 0 16 16" id="calendar" xmlns="http://www.w3.org/2000/svg"><g clip-path="url(#aba)" fill="#fff" fill-opacity=".5"><path d="M14.2 1.802h-2.008V.875a.463.463 0 1 0-.926 0v.927h-2.78V.875a.463.463 0 1 0-.927 0v.927h-2.78V.875a.463.463 0 1 0-.927 0v.927H1.844c-.682 0-1.236.553-1.236 1.236v10.966c0 .682.554 1.236 1.236 1.236h12.357c.682 0 1.235-.554 1.235-1.236V3.038c0-.683-.553-1.236-1.235-1.236zm.31 12.202a.31.31 0 0 1-.31.309H1.845a.31.31 0 0 1-.309-.31V3.039a.31.31 0 0 1 .31-.31h2.007v.928a.463.463 0 1 0 .927 0V2.73h2.78v.927a.463.463 0 1 0 .927 0V2.73h2.78v.927a.463.463 0 1 0 .926 0V2.73h2.009a.31.31 0 0 1 .308.309v10.966z"/><path d="M5.705 5.973H3.853v1.39h1.853v-1.39zm0 2.317H3.853v1.39h1.853V8.29zm0 2.316H3.853v1.39h1.853v-1.39zm3.244 0H7.095v1.39H8.95v-1.39zm0-2.316H7.095v1.39H8.95V8.29zm0-2.317H7.095v1.39H8.95v-1.39zm3.243 4.633H10.34v1.39h1.853v-1.39zm0-2.316H10.34v1.39h1.853V8.29zm0-2.317H10.34v1.39h1.853v-1.39z"/></g><defs><clipPath id="aba"><path fill="#fff" transform="translate(.608 .412)" d="M0 0h14.828v14.828H0z"/></clipPath></defs></svg><svg fill="none" viewBox="0 0 16 16" id="call" xmlns="http://www.w3.org/2000/svg"><g clip-path="url(#aca)"><path d="M13.812 10.718c-.918 0-1.82-.144-2.675-.426-.418-.143-.933-.012-1.189.25l-1.686 1.274c-1.956-1.044-3.16-2.249-4.19-4.19l1.235-1.643c.321-.32.436-.789.298-1.228a8.53 8.53 0 0 1-.427-2.68c0-.663-.54-1.203-1.204-1.203H1.219c-.663 0-1.203.54-1.203 1.204 0 7.607 6.189 13.796 13.796 13.796.664 0 1.204-.54 1.204-1.204v-2.747c0-.663-.54-1.203-1.204-1.203z" fill="#fff"/></g><defs><clipPath id="aca"><path fill="#fff" transform="translate(.016 .872)" d="M0 0h15v15H0z"/></clipPath></defs></svg><svg viewBox="0 0 15 16" id="close" xmlns="http://www.w3.org/2000/svg"><g clip-path="url(#ada)"><path d="M.732 16a.7.7 0 0 1-.407-.132.773.773 0 0 1-.27-.35.83.83 0 0 1-.041-.452.798.798 0 0 1 .2-.4L13.75.23a.71.71 0 0 1 .518-.23.71.71 0 0 1 .518.23.808.808 0 0 1 .214.55.808.808 0 0 1-.215.553L1.25 15.77a.73.73 0 0 1-.238.17.69.69 0 0 1-.28.059z"/><path d="M14.267 16a.69.69 0 0 1-.28-.06.73.73 0 0 1-.238-.169L.214 1.334A.809.809 0 0 1 0 .78C0 .574.077.375.214.23A.71.71 0 0 1 .732 0a.71.71 0 0 1 .518.23l13.535 14.437c.103.11.172.249.2.4a.831.831 0 0 1-.041.452.773.773 0 0 1-.27.35.7.7 0 0 1-.407.132z"/></g><defs><clipPath id="ada"><path fill="#fff" d="M0 0h15v16H0z"/></clipPath></defs></svg><svg fill="none" viewBox="0 0 30 31" id="comment" xmlns="http://www.w3.org/2000/svg"><path d="M25.875 2.543H4.125c-1.499 0-2.719 1.262-2.719 2.812v15c0 1.551 1.22 2.813 2.719 2.813h2.719v4.688c0 .36.2.688.513.844a.886.886 0 0 0 .96-.112l6.548-5.42h11.01c1.499 0 2.719-1.262 2.719-2.813v-15c0-1.55-1.22-2.812-2.719-2.812zM15 15.668H7.75c-.501 0-.906-.42-.906-.938 0-.517.405-.937.906-.937H15c.501 0 .906.42.906.938 0 .517-.405.937-.906.937zm7.25-3.75H7.75c-.501 0-.906-.42-.906-.938 0-.517.405-.937.906-.937h14.5c.501 0 .906.42.906.938 0 .517-.405.937-.906.937z" fill="#fff"/></svg><svg viewBox="0 0 19 19" id="email" xmlns="http://www.w3.org/2000/svg"><g clip-path="url(#afa)"><path d="m9.75 9.874 8.176-4.672a2.595 2.595 0 0 0-2.414-1.659H3.988a2.595 2.595 0 0 0-2.414 1.66l8.176 4.67z"/><path d="M10.072 11.172a.642.642 0 0 1-.638 0L1.394 6.58v7.226A2.599 2.599 0 0 0 3.987 16.4h11.524a2.599 2.599 0 0 0 2.595-2.595V6.579l-8.035 4.593z"/></g><defs><clipPath id="afa"><path fill="#fff" transform="translate(.75 .972)" d="M0 0h18v18H0z"/></clipPath></defs></svg><svg fill="none" viewBox="0 0 16 16" id="instagram" xmlns="http://www.w3.org/2000/svg"><g clip-path="url(#aga)" fill="#fff"><path d="M12.1.291H4.6C2.5.291.85 1.941.85 4.041v7.5c0 2.1 1.65 3.75 3.75 3.75h7.5c2.1 0 3.75-1.65 3.75-3.75v-7.5c0-2.1-1.65-3.75-3.75-3.75zm2.25 11.25c0 1.275-.975 2.25-2.25 2.25H4.6c-1.275 0-2.25-.975-2.25-2.25v-7.5c0-1.275.975-2.25 2.25-2.25h7.5c1.275 0 2.25.975 2.25 2.25v7.5z"/><path d="M8.35 4.041c-2.1 0-3.75 1.65-3.75 3.75s1.65 3.75 3.75 3.75 3.75-1.65 3.75-3.75-1.65-3.75-3.75-3.75zm0 6c-1.275 0-2.25-.975-2.25-2.25s.975-2.25 2.25-2.25 2.25.975 2.25 2.25-.975 2.25-2.25 2.25zm3.75-5.25a.75.75 0 1 0 0-1.5.75.75 0 0 0 0 1.5z"/></g><defs><clipPath id="aga"><path fill="#fff" transform="translate(.85 .291)" d="M0 0h15v15H0z"/></clipPath></defs></svg><svg fill="none" viewBox="0 0 18 18" id="leader" xmlns="http://www.w3.org/2000/svg"><g clip-path="url(#aha)" fill="#CACACA"><path d="M7.298 8.215A4.076 4.076 0 1 0 6.76.081a4.076 4.076 0 0 0 .538 8.134zm1.165 4.278c0-1.409.58-2.68 1.513-3.597-.29-.14-.59-.259-.903-.357a4.787 4.787 0 0 1-4.095-.003 6.817 6.817 0 0 0-4.758 6.5v2.894h13.632v-.405c-.113.008-.225.017-.338.017a5.054 5.054 0 0 1-5.05-5.049z"/><path d="M13.512 8.224a4.269 4.269 0 1 0-.001 8.538 4.269 4.269 0 0 0 0-8.538zm2.486 3.923-1.15.835.438 1.35c.121.377-.31.69-.627.456l-1.15-.835-1.15.835a.407.407 0 0 1-.628-.456l.439-1.35-1.15-.835a.409.409 0 0 1 .239-.74h1.42l.439-1.35a.408.408 0 0 1 .776 0l.439 1.35h1.42c.402.003.565.51.245.74z"/></g><defs><clipPath id="aha"><path fill="#fff" d="M0 0h18v18H0z"/></clipPath></defs></svg><svg fill="none" viewBox="0 0 30 30" id="link" xmlns="http://www.w3.org/2000/svg"><path d="M28.473 2.018v8.1a.9.9 0 1 1-1.8 0V4.191L13.809 17.055a.898.898 0 0 1-1.273 0 .9.9 0 0 1 0-1.273L25.4 2.918h-5.928a.9.9 0 1 1 0-1.8h8.1a.9.9 0 0 1 .9.9zm-3.6 23.4v-10.8a.9.9 0 1 0-1.8 0v10.8a.9.9 0 0 1-.9.9H4.171a.9.9 0 0 1-.9-.9v-18a.9.9 0 0 1 .9-.9h10.8a.9.9 0 1 0 0-1.8h-10.8a2.703 2.703 0 0 0-2.7 2.7v18c0 1.49 1.211 2.7 2.7 2.7h18c1.49 0 2.7-1.21 2.7-2.7z" fill="#fff"/></svg><svg fill="none" viewBox="0 0 35 34" id="next" xmlns="http://www.w3.org/2000/svg"><circle cx="16.901" cy="16.901" r="15.901" transform="matrix(-1 0 0 1 34.5 .198)" stroke="#fff" stroke-opacity=".1" stroke-width="2"/><g clip-path="url(#aka)" fill="#fff"><path d="M11.552 17.902h11.36a.43.43 0 0 0 .396-.269.442.442 0 0 0-.093-.475l-5.144-5.236a.423.423 0 0 0-.606 0 .441.441 0 0 0 0 .617l4.412 4.49H11.552a.432.432 0 0 0-.428.437c0 .241.191.436.428.436zm6.216 5.236c.11 0 .22-.043.303-.128l3.43-3.49a.441.441 0 0 0 0-.617.423.423 0 0 0-.607 0l-3.429 3.49a.441.441 0 0 0 0 .617.423.423 0 0 0 .303.128z"/></g><defs><clipPath id="aka"><path fill="#fff" transform="matrix(-1 0 0 1 24.212 10.485)" d="M0 0h13.962v13.962H0z"/></clipPath></defs></svg><svg fill="none" viewBox="0 0 35 36" id="next-active" xmlns="http://www.w3.org/2000/svg"><circle cx="16.901" cy="16.901" r="15.901" transform="matrix(-1 0 0 1 34.5 1.198)" stroke="#fff" stroke-opacity=".1" stroke-width="2"/><path d="M1.433 18.099c0 8.928 7.238 16.166 16.166 16.166s16.166-7.238 16.166-16.166c0-8.929-7.238-16.166-16.166-16.166" stroke="#FD0207" stroke-width="2"/><g clip-path="url(#aja)" fill="#fff"><path d="M11.552 18.902h11.36a.43.43 0 0 0 .396-.269.442.442 0 0 0-.093-.475l-5.144-5.236a.423.423 0 0 0-.606 0 .441.441 0 0 0 0 .617l4.412 4.49H11.552a.432.432 0 0 0-.428.437c0 .241.191.436.428.436zm6.216 5.236c.11 0 .22-.043.303-.128l3.43-3.49a.441.441 0 0 0 0-.617.423.423 0 0 0-.607 0l-3.429 3.49a.441.441 0 0 0 0 .617.423.423 0 0 0 .303.128z"/></g><defs><clipPath id="aja"><path fill="#fff" transform="matrix(-1 0 0 1 24.212 11.485)" d="M0 0h13.962v13.962H0z"/></clipPath></defs></svg><svg fill="none" viewBox="0 0 52 51" id="oceanariums-icon-1" xmlns="http://www.w3.org/2000/svg"><g clip-path="url(#ala)" fill="#fff"><path d="M13.108 40.45c.962 0 .963-1.494 0-1.494-.961 0-.963 1.494 0 1.494zm12.922 0c.961 0 .963-1.494 0-1.494-.962 0-.963 1.494 0 1.494zm12.92 0c.962 0 .964-1.494 0-1.494-.96 0-.962 1.494 0 1.494zM16.42 26.362c.962 0 .963-1.494 0-1.494-.961 0-.963 1.494 0 1.494zm9.61 0c.961 0 .963-1.494 0-1.494-.962 0-.963 1.494 0 1.494zm9.609 0c.961 0 .963-1.494 0-1.494-.962 0-.963 1.494 0 1.494zm.118-18.1c.378 0 .749-.38.747-.75l-.005-1.18c-.004-.939-1.498-.979-1.494.006l.005 1.18a.747.747 0 0 0 .747.744zm-3.131.903c.686.679 1.738-.382 1.051-1.062l-.84-.83c-.686-.68-1.737.382-1.05 1.061l.84.831zm-1.706 2.852h.004l1.182-.005c.944-.005.916-1.494-.006-1.494l-1.183.005c-.964.004-.96 1.494.003 1.494zm1.773 1.323-.832.838c-.68.685.379 1.738 1.06 1.052l.833-.838c.68-.685-.38-1.739-1.06-1.053zm5.239-.071a.747.747 0 0 0 .005 1.056l.84.831c.686.679 1.738-.382 1.051-1.062-.363-.482-1.273-1.455-1.896-.825zm.833-2.102c.002.37.373.744.75.744l1.183-.005c.944-.005.916-1.495-.007-1.495l-1.182.006a.747.747 0 0 0-.744.75zm-.373-1.857a.745.745 0 0 0 .53-.22l.832-.84c.68-.685-.38-1.737-1.06-1.052l-.833.839c-.44.444-.095 1.273.53 1.273zM16.2 2.998c.379 0 .75-.381.748-.75l-.006-1.182c-.004-.938-1.498-.977-1.494.007l.005 1.18a.747.747 0 0 0 .748.745zm-3.13.902c.686.68 1.738-.382 1.051-1.061l-.84-.832c-.686-.679-1.737.383-1.05 1.062l.84.832zm-1.706 2.852h.003l1.182-.005c.944-.004.917-1.494-.006-1.494l-1.182.005c-.965.004-.961 1.494.003 1.494zm1.773 1.322-.832.839c-.68.685.379 1.739 1.06 1.053l.832-.839c.68-.685-.38-1.738-1.06-1.053zm5.238-.07a.747.747 0 0 0 .006 1.056l.84.832c.686.678 1.738-.383 1.05-1.063l-.84-.83a.747.747 0 0 0-1.056.005zm.834-2.102a.747.747 0 0 0 .747.744h.003l1.182-.005c.944-.004.917-1.494-.006-1.494l-1.183.005a.747.747 0 0 0-.744.75zm-.374-1.857a.745.745 0 0 0 .53-.22l.833-.839c.68-.685-.38-1.738-1.06-1.053l-.833.839c-.441.444-.095 1.273.53 1.273z"/><path d="M50.782 46.123h-4.64v-8.19a4.968 4.968 0 0 0-4.928-4.962v-8.368a4.968 4.968 0 0 0-4.66-4.952v-8.888a.747.747 0 1 0-1.494 0v8.878h-5.555v-8.375a.747.747 0 0 0-.747-.747h-1.994V7.862c2.975-.816 1.92-3.798.943-5.662a35.157 35.157 0 0 0-1.04-1.843c-.425-.476-.85-.476-1.275 0-.021.035-.527.862-1.04 1.843-.974 1.86-2.044 4.813.918 5.655v2.664H23.3a.747.747 0 0 0-.746.747v8.375h-5.556V5.498c0-.966-1.494-.966-1.494 0v14.153a4.968 4.968 0 0 0-4.659 4.952v8.368a4.968 4.968 0 0 0-4.927 4.962v8.19H1.276a.747.747 0 0 0-.747.747A4.135 4.135 0 0 0 4.66 51H47.4a4.135 4.135 0 0 0 4.13-4.13.747.747 0 0 0-.747-.747zM24.745 5.186c0-.957.846-2.164 1.285-2.956.424.762 1.448 2.23 1.234 3.18-.319 1.415-2.519 1.407-2.519-.224zm-.697 9.896h3.963v1.49h-3.963v-1.49zm3.963-3.07v1.576h-3.963v-1.575h3.963zm-3.963 6.054h3.963v1.575h-3.963v-1.575zm-8.24 3.069H36.25c1.748 0 3.197 1.3 3.434 2.984-1.124.325-1.756 1.35-2.28 2.204-.61.99-1.02 1.597-1.766 1.597s-1.157-.607-1.767-1.597c-.632-1.029-1.42-2.31-3.038-2.31-1.62 0-2.407 1.281-3.04 2.31-.608.99-1.02 1.597-1.765 1.597-.746 0-1.157-.607-1.766-1.597-.633-1.029-1.42-2.31-3.039-2.31-.678 0-1.29.237-1.819.703-.724.64.264 1.76.989 1.12.258-.226.514-.328.83-.328.746 0 1.157.607 1.766 1.597.633 1.029 1.42 2.31 3.039 2.31 1.619 0 2.406-1.281 3.039-2.31.609-.99 1.02-1.597 1.766-1.597.745 0 1.157.607 1.766 1.597.632 1.029 1.42 2.31 3.039 2.31 1.618 0 2.406-1.281 3.038-2.31.382-.62.686-1.09 1.042-1.354v7.22H12.34v-7.22c.357.265.66.734 1.042 1.354.633 1.03 1.42 2.31 3.039 2.31.792 0 1.467-.308 2.062-.94.663-.704-.425-1.728-1.087-1.025-.31.33-.602.47-.975.47-.746 0-1.157-.607-1.766-1.597-.525-.853-1.157-1.879-2.28-2.204a3.473 3.473 0 0 1 3.433-2.984zm-4.928 13.33h30.299a3.473 3.473 0 0 1 3.41 2.84c-1.5.356-2.322 1.69-3.06 2.888-.867 1.41-1.475 2.268-2.59 2.268-.745 0-1.29-.153-2.592-2.268-.859-1.397-1.832-2.98-3.864-2.98-2.031 0-3.005 1.583-3.864 2.98-.868 1.41-1.475 2.268-2.59 2.268-.745 0-1.29-.153-2.592-2.268-.859-1.397-1.832-2.98-3.864-2.98-2.03 0-3.004 1.583-3.863 2.98-.868 1.41-1.476 2.268-2.591 2.268-.744 0-1.29-.153-2.591-2.268-.737-1.198-1.558-2.532-3.059-2.888a3.474 3.474 0 0 1 3.41-2.84zm36.52 15.04H4.66a2.64 2.64 0 0 1-2.529-1.889h34.904c.966 0 .966-1.494 0-1.494H7.412V38.84c.47.213.996.758 1.844 2.135.858 1.397 1.832 2.98 3.863 2.98 2.032 0 3.005-1.583 3.864-2.98.868-1.411 1.475-2.268 2.59-2.268.745 0 1.29.153 2.592 2.268.859 1.397 1.832 2.98 3.864 2.98 2.03 0 3.005-1.583 3.863-2.98.868-1.411 1.476-2.268 2.592-2.268.744 0 1.29.153 2.59 2.268.86 1.397 1.834 2.98 3.865 2.98s3.005-1.583 3.864-2.98c.653-1.062 1.159-1.81 1.844-2.115v7.263H40.82c-.966 0-.966 1.494 0 1.494h9.108a2.641 2.641 0 0 1-2.528 1.889z"/></g><defs><clipPath id="ala"><path fill="#fff" transform="translate(.53)" d="M0 0h51v51H0z"/></clipPath></defs></svg><svg fill="none" viewBox="0 0 52 51" id="oceanariums-icon-10" xmlns="http://www.w3.org/2000/svg"><g clip-path="url(#ama)" fill="#fff"><path d="M50.559 24.49c-3.051.049-3.162 1.193-5.989 1.193-2.886 0-2.94-1.195-6.188-1.195-1.662 0-2.551.334-3.328.634a1.647 1.647 0 0 1 .787-1.76l.666-.384c1.246.494 2.622.61 3.824.03l3.997-1.931a5.492 5.492 0 0 0 2.52-2.46.747.747 0 1 0-1.33-.681 4 4 0 0 1-1.287 1.473l-2.017-3.494v-.002l-2.015-3.488c1.849-.864 4.1-.257 5.198 1.593.186.312.328.646.424.992a.747.747 0 1 0 1.44-.4 5.575 5.575 0 0 0-.58-1.355c-1.644-2.77-5.236-3.55-7.923-1.723l-3.629 2.467c-1.134.77-1.699 2.05-1.886 3.33l-.664.384a1.644 1.644 0 0 1-2.246-.602l-5.58-9.667a2.607 2.607 0 0 0-2.929-1.213L6.08 10.45a1.78 1.78 0 0 0-1.09.836 1.782 1.782 0 0 0-.178 1.36 3.055 3.055 0 0 0 3.443 2.225 2.2 2.2 0 0 0 1.668 1.626c1.156.255 2.308-.46 2.621-1.63l.315-1.176 4.985-.897a7.861 7.861 0 0 0 2.782-1.077c.111.759.366 1.493.753 2.164.664 1.146.67 1.169.796 1.367a2.53 2.53 0 0 1-.858 3.558l-2.634 1.52a.747.747 0 0 0 .747 1.294l2.634-1.52a4.022 4.022 0 0 0 1.372-5.654c-.094-.147-.098-.163-.763-1.312a4.607 4.607 0 0 1-.616-2.427.943.943 0 0 0-1.543-.75 6.362 6.362 0 0 1-2.935 1.367l-5.451.98a.747.747 0 0 0-.59.543l-.437 1.633c-.104.389-.489.639-.856.558a.715.715 0 0 1-.538-.885.78.78 0 0 0-.202-.75.779.779 0 0 0-.747-.198l-.592.159a1.56 1.56 0 0 1-1.911-1.104.3.3 0 0 1 .212-.367L22.21 7.674a1.11 1.11 0 0 1 1.247.517l5.581 9.666a3.137 3.137 0 0 0 4.17 1.214c.074.71.255 1.331.499 1.754.244.423.694.892 1.272 1.312a3.145 3.145 0 0 0-1.357 3.427c-.39.073-.849.119-1.43.119-2.898 0-2.937-1.196-6.188-1.196-3.22 0-3.321 1.196-6.188 1.196-2.68 0-2.825-.98-5.4-1.168l1.892-1.093a.747.747 0 0 0-.747-1.294l-5.035 2.907-.261.1c-.729.282-1.417.548-2.825.548-2.835 0-2.92-1.144-5.988-1.194a.93.93 0 0 0-.947.93v18.508c0 .513.417.93.93.93h49.14c.512 0 .93-.417.93-.93v-11.2a.747.747 0 1 0-1.494 0v10.637H2V26.009c2.132.17 2.495 1.168 5.44 1.168 3.23 0 3.312-1.195 6.189-1.195 2.898 0 2.938 1.195 6.188 1.195 3.22 0 3.321-1.195 6.188-1.195 2.886 0 2.94 1.195 6.188 1.195 3.263 0 3.275-1.195 6.189-1.195 2.886 0 2.94 1.195 6.188 1.195 2.951 0 3.301-.997 5.442-1.168v3.232a.747.747 0 1 0 1.494 0v-3.822a.931.931 0 0 0-.947-.93zm-9.265-7.182 1.613 2.796-.788.38a.812.812 0 0 1-1.052-.324l-.773-1.34a.81.81 0 0 1 .296-1.105l.703-.407zm-3.09-3.594c.021-.014.12-.08.729-.495l1.613 2.795-.703.407a.809.809 0 0 1-1.106-.296l-.773-1.34a.813.813 0 0 1 .24-1.07zm-2.235 1.52.458-.31c.05.209.13.414.243.608l.773 1.34c.291.504.752.872 1.304 1.045a2.295 2.295 0 0 0 .253 1.65l.773 1.34c.112.195.25.367.406.515l-.498.24c-1.7.822-4.161-.687-4.679-1.584-.518-.896-.594-3.782.967-4.844z"/><path d="M23.18 32.528c.729-.282 1.417-.548 2.825-.548a.747.747 0 1 0 0-1.494c-1.686 0-2.577.344-3.363.648-.729.281-1.417.547-2.825.547-1.407 0-2.096-.266-2.825-.547-.786-.304-1.677-.648-3.363-.648s-2.577.344-3.363.648c-.729.281-1.417.547-2.825.547a.747.747 0 1 0 0 1.494c1.686 0 2.577-.344 3.363-.647.729-.282 1.418-.548 2.825-.548 1.408 0 2.096.266 2.825.548.786.303 1.677.647 3.363.647s2.577-.344 3.363-.647zm-3.363 6.646c1.686 0 2.577-.344 3.363-.648.729-.282 1.417-.547 2.825-.547 1.408 0 2.096.265 2.825.547.786.304 1.677.648 3.363.648s2.577-.344 3.363-.648c.73-.282 1.418-.547 2.825-.547 1.408 0 2.097.266 2.825.547.786.304 1.677.648 3.364.648a.747.747 0 1 0 0-1.494c-1.408 0-2.096-.266-2.825-.548-.786-.303-1.677-.648-3.364-.648-1.686 0-2.577.345-3.363.648-.729.282-1.417.548-2.825.548-1.408 0-2.096-.266-2.825-.548-.786-.303-1.677-.648-3.363-.648-1.687 0-2.577.345-3.363.648-.73.282-1.418.548-2.825.548a.747.747 0 1 0 0 1.494zm9.376-14.976a.747.747 0 0 0 .54-.908l-.552-2.163a.747.747 0 0 0-1.448.37l.552 2.162c.102.4.509.641.908.54z"/></g><defs><clipPath id="ama"><path fill="#fff" transform="translate(.506)" d="M0 0h51v51H0z"/></clipPath></defs></svg><svg fill="none" viewBox="0 0 52 52" id="oceanariums-icon-2" xmlns="http://www.w3.org/2000/svg"><g clip-path="url(#ana)" fill="#fff"><path d="M44.511 40.346a1.058 1.058 0 0 0-1.494 0l-1.736 1.736a1.058 1.058 0 0 0 0 1.495l1.736 1.736a1.054 1.054 0 0 0 1.494-.001l1.736-1.735c.2-.2.31-.465.31-.748 0-.282-.11-.547-.31-.747l-1.736-1.736zm-.747 3.6-1.117-1.117 1.117-1.117 1.117 1.117-1.117 1.117zm-17.239-5.49a.747.747 0 0 0-.747.747v2.784a.747.747 0 1 0 1.495 0v-2.784a.747.747 0 0 0-.748-.747zm0 5.125a.747.747 0 0 0-.747.747v6.425a.747.747 0 0 0 1.495 0v-6.425a.747.747 0 0 0-.748-.747zm-3.019-8.904a.747.747 0 0 0-.94.48l-3.097 9.529a.747.747 0 0 0 1.42.461l3.097-9.529a.747.747 0 0 0-.48-.941zm-4.423.951a.747.747 0 0 0-1.043.166l-4.19 5.767a.747.747 0 1 0 1.208.878l4.19-5.767a.747.747 0 0 0-.165-1.044zm-3.845-2.966-5.766 4.19a.747.747 0 1 0 .878 1.208l5.766-4.19a.747.747 0 1 0-.878-1.208zm1.995-4.258a.747.747 0 0 0-.941-.48l-9.53 3.096a.747.747 0 1 0 .462 1.421l9.53-3.096a.747.747 0 0 0 .479-.941zm-5.303-3.767H5.988a.747.747 0 1 0 0 1.494h5.942a.747.747 0 1 0 0-1.494zm4.593-1.756a.747.747 0 0 0 .23-1.457l-9.529-3.096a.747.747 0 1 0-.462 1.42l9.53 3.096a.74.74 0 0 0 .23.037zm-1.285-4.774a.744.744 0 0 0 1.044-.165.747.747 0 0 0-.166-1.044l-5.767-4.19a.747.747 0 0 0-.878 1.21l5.767 4.19zm2.802-3.132a.746.746 0 1 0 1.208-.878l-4.19-5.767a.747.747 0 0 0-1.208.878l4.19 5.767zm2.21-6.487a.747.747 0 1 0 1.421-.462l-.781-2.405a.747.747 0 1 0-1.421.462l.781 2.405zm1.078 3.318 1.237 3.806a.747.747 0 0 0 1.42-.462l-1.236-3.806a.747.747 0 0 0-1.42.462zm5.197-.299a.747.747 0 0 0 .748-.747V4.847a.747.747 0 1 0-1.495 0v5.913c0 .412.335.747.747.747zm3.02 4.585a.747.747 0 0 0 .941-.48l3.097-9.529a.747.747 0 0 0-1.421-.462l-3.096 9.53a.747.747 0 0 0 .48.94zm4.423-.952a.744.744 0 0 0 1.044-.165l4.19-5.767a.747.747 0 0 0-1.21-.878l-4.19 5.767a.747.747 0 0 0 .166 1.044zm3.406 3.11a.744.744 0 0 0 .439-.143l5.767-4.19a.747.747 0 1 0-.879-1.209l-5.767 4.19a.747.747 0 0 0 .44 1.352zm8.453.078-2.94.955a.747.747 0 0 0 .462 1.42l2.94-.954a.747.747 0 1 0-.462-1.421zm-10.009 4.037a.747.747 0 0 0 .941.48l3.272-1.063a.747.747 0 1 0-.461-1.422l-3.272 1.064a.747.747 0 0 0-.48.941zm11.992 3.019a.747.747 0 0 0-.747-.747h-5.947a.747.747 0 1 0 0 1.494h5.947a.747.747 0 0 0 .747-.747zm-1.752 7.094a.747.747 0 0 0 .23-1.458l-9.529-3.096a.747.747 0 0 0-.461 1.421l9.529 3.096a.747.747 0 0 0 .23.037zm-8.245.184a.747.747 0 0 0-.878 1.209l5.767 4.19a.743.743 0 0 0 1.043-.166.747.747 0 0 0-.165-1.043l-5.767-4.19zm-2.801 3.132a.747.747 0 1 0-1.21.878l4.19 5.767a.746.746 0 1 0 1.21-.879l-4.19-5.766zm-4.526-.637a.747.747 0 0 0-1.42.461l3.096 9.53a.747.747 0 1 0 1.42-.462l-3.096-9.53z"/><path d="M33.5 34.041a1.25 1.25 0 0 0 1.435-.247c.383-.383.48-.946.247-1.435l-2.005-4.22 4.401-1.565c.51-.181.84-.648.84-1.19a1.25 1.25 0 0 0-.84-1.19l-4.401-1.564 2.005-4.22a1.25 1.25 0 0 0-.247-1.435 1.25 1.25 0 0 0-1.435-.247l-4.22 2.005-1.565-4.402a1.25 1.25 0 0 0-1.19-.84 1.25 1.25 0 0 0-1.19.84l-1.564 4.402-4.22-2.006a1.25 1.25 0 0 0-1.435.248 1.25 1.25 0 0 0-.247 1.435l2.006 4.22-4.402 1.565a1.25 1.25 0 0 0-.84 1.19c0 .54.33 1.008.84 1.189l4.402 1.565-2.006 4.22a1.25 1.25 0 0 0 .247 1.434c.383.383.946.48 1.435.248l.924-.439a.747.747 0 0 0-.641-1.35l-.336.16 1.836-3.863a1.265 1.265 0 0 0-.717-1.732l-4.03-1.433 4.03-1.433a1.265 1.265 0 0 0 .717-1.732l-1.836-3.863 3.863 1.837a1.266 1.266 0 0 0 1.732-.718l1.433-4.03 1.433 4.03a1.265 1.265 0 0 0 1.732.718l3.863-1.837-1.837 3.863a1.265 1.265 0 0 0 .718 1.732l4.03 1.433-4.03 1.433a1.265 1.265 0 0 0-.718 1.732l1.837 3.863-3.863-1.836a1.265 1.265 0 0 0-1.732.717l-1.433 4.03-1.433-4.03a1.264 1.264 0 0 0-1.732-.717l-.369.175a.747.747 0 0 0 .642 1.35l.137-.066 1.565 4.402c.181.51.648.84 1.19.84a1.25 1.25 0 0 0 1.19-.84l1.565-4.402 4.219 2.006zm7.717-26.086 1.607.88.88 1.607a1.056 1.056 0 0 0 1.854 0l.878-1.608 1.608-.879a1.056 1.056 0 0 0 0-1.854l-1.608-.879-.879-1.607a1.056 1.056 0 0 0-1.854 0l-.879 1.607-1.608.88a1.056 1.056 0 0 0 0 1.853zm2.437-1.484a1.06 1.06 0 0 0 .42-.42l.556-1.017.557 1.018c.097.177.242.323.42.42l1.018.556-1.018.557a1.055 1.055 0 0 0-.42.42l-.557 1.018-.557-1.018a1.055 1.055 0 0 0-.42-.42l-1.017-.557 1.018-.557zM4.303 7.877a1.056 1.056 0 0 0 1.854 0l.88-1.607 1.607-.88a1.056 1.056 0 0 0 0-1.854l-1.608-.879-.879-1.607a1.056 1.056 0 0 0-1.854 0l-.879 1.607-1.607.88a1.056 1.056 0 0 0 0 1.853l1.607.88.88 1.607zm-.05-3.97c.178-.097.323-.242.42-.42l.557-1.018.557 1.018c.098.178.243.323.42.42l1.018.556-1.017.557a1.055 1.055 0 0 0-.42.42L5.23 6.458 4.674 5.44a1.053 1.053 0 0 0-.42-.42l-1.018-.557 1.017-.556zm6.953 39.033-1.608-.88-.88-1.607a1.056 1.056 0 0 0-1.854 0l-.878 1.607-1.608.88a1.056 1.056 0 0 0 0 1.853l1.608.88.88 1.607a1.056 1.056 0 0 0 1.854 0l.878-1.608 1.608-.879a1.056 1.056 0 0 0 0-1.853zm-2.437 1.483a1.057 1.057 0 0 0-.42.42l-.557 1.018-.557-1.018a1.056 1.056 0 0 0-.42-.42l-1.018-.557 1.018-.556c.178-.097.323-.242.42-.42l.557-1.018.557 1.018c.097.178.243.323.42.42l1.018.556-1.018.557zm42.202-30.617-1.736-1.736a1.058 1.058 0 0 0-1.494 0l-1.736 1.736a1.058 1.058 0 0 0 0 1.494l1.736 1.736c.2.2.465.31.747.31s.547-.11.747-.31L50.97 15.3a1.058 1.058 0 0 0 0-1.494zm-2.483 1.864-1.117-1.117 1.117-1.117 1.117 1.117-1.117 1.117zM7.732 9.04a2.348 2.348 0 0 0 2.345 2.345 2.348 2.348 0 0 0 2.346-2.346 2.348 2.348 0 0 0-2.346-2.345 2.348 2.348 0 0 0-2.345 2.345zm2.345-.852a.852.852 0 0 1 0 1.702.852.852 0 0 1 0-1.702zM47.246 33.62a2.348 2.348 0 0 0-2.345 2.346 2.348 2.348 0 0 0 2.345 2.345 2.348 2.348 0 0 0 2.346-2.345 2.348 2.348 0 0 0-2.346-2.346zm0 3.197a.852.852 0 0 1 0-1.703.852.852 0 0 1 0 1.703zm-39.599-.761a2.348 2.348 0 0 0-2.345-2.346 2.348 2.348 0 0 0-2.346 2.346 2.348 2.348 0 0 0 2.346 2.346 2.348 2.348 0 0 0 2.345-2.346zm-3.197 0a.852.852 0 0 1 1.703 0 .852.852 0 0 1-1.703 0z"/></g><defs><clipPath id="ana"><path fill="#fff" transform="translate(.773 .5)" d="M0 0h51v51H0z"/></clipPath></defs></svg><svg fill="none" viewBox="0 0 52 52" id="oceanariums-icon-3" xmlns="http://www.w3.org/2000/svg"><g clip-path="url(#aoa)"><path d="m46.736 27.574-4.87 1.772a68.363 68.363 0 0 0-.884-7.2L49.8 19.23a1.75 1.75 0 0 0 1.217-1.684c0-.779-.478-1.44-1.218-1.684l-23.403-7.74a2.818 2.818 0 0 0-1.759 0l-23.403 7.74a1.75 1.75 0 0 0-1.217 1.684c0 .779.477 1.44 1.217 1.684l8.817 2.916a66.423 66.423 0 0 0-.57 3.863.747.747 0 1 0 1.484.175c.144-1.216.318-2.411.52-3.564l2.375.786v1.858a2.827 2.827 0 0 0-2.076 2.722c0 .783.32 1.492.836 2.003-.378 1.384-.67 3.005-.874 4.852-.51-.291-.89-.542-1.143-.722a.284.284 0 0 1-.119-.234c.011-1.476.07-2.974.175-4.454a.747.747 0 1 0-1.49-.106 72.224 72.224 0 0 0-.179 4.549c-.004.581.276 1.13.75 1.464.374.265.99.668 1.854 1.124a72.044 72.044 0 0 0-.203 5.297c-.002.57.382 1.068.935 1.21.49.127 1.283.277 2.281.277a9.23 9.23 0 0 0 2.281-.277c.553-.142.937-.64.935-1.21a80.267 80.267 0 0 0-.066-2.997 36.17 36.17 0 0 0 3.134.64c.028.588.155 1.207.376 1.815.35.963.903 1.8 1.555 2.356.546.466 1.143.709 1.707.709a1.86 1.86 0 0 0 .637-.111l11.547-4.203h.002c.454-.165.848-.164 1.204.003.814.382 1.301 1.53 1.472 2.007.113.313.341.563.643.704a1.24 1.24 0 0 0 .954.043l3.429-1.248a1.247 1.247 0 0 0 .679-1.745c-.481-.914-1.232-1.597-2.202-2.014l1.194-.434a.747.747 0 1 0-.512-1.404l-2.044.744c.108-.79.005-1.719-.337-2.66-.331-.909-.841-1.704-1.445-2.258l7.495-2.729c.445-.162 1.438.562 1.984 2.062.26.714.353 1.46.254 2.046-.072.43-.24.732-.448.808l-2.338.85a.747.747 0 1 0 .51 1.405l2.339-.85c.731-.267 1.245-.983 1.41-1.965.143-.846.028-1.842-.322-2.805-.788-2.165-2.5-3.463-3.9-2.954zm-32.128-.917a1.33 1.33 0 0 1 1.33 1.329 1.33 1.33 0 0 1-1.33 1.329 1.33 1.33 0 0 1-1.329-1.33 1.33 1.33 0 0 1 1.33-1.328zm0 15.095a7.986 7.986 0 0 1-1.72-.185c.035-5.42.573-8.817 1.083-10.832a2.823 2.823 0 0 0 1.275 0c.509 2.012 1.048 5.41 1.083 10.832a7.984 7.984 0 0 1-1.72.185zm1.987-11.763c.516-.511.836-1.22.836-2.003 0-1.298-.88-2.394-2.076-2.722V23.9l9.283 3.07a2.802 2.802 0 0 0 1.759 0l6.052-2.002a.747.747 0 0 0-.47-1.418l-6.051 2.001a1.315 1.315 0 0 1-.82 0l-8.804-2.911 6.936-4.59.094.047c.555.26 1.286.39 2.174.39.888 0 1.62-.13 2.174-.39.774-.362 1.2-.98 1.2-1.742 0-1.425-1.482-2.543-3.374-2.543-1.892 0-3.374 1.118-3.374 2.543 0 .203.03.395.09.576l-7.726 5.112-12.794-4.231a.264.264 0 0 1-.192-.266c0-.076.025-.21.192-.266l23.403-7.74a1.32 1.32 0 0 1 .82 0l23.404 7.74c.167.055.192.19.192.266 0 .075-.025.21-.192.266l-14.204 4.697a.747.747 0 0 0 .469 1.419l3.954-1.308c.403 2.31.697 4.8.855 7.258l-6.502 2.367-11.547 4.202-.003.002c-.601.22-1.054.743-1.288 1.468a34.432 34.432 0 0 1-3.39-.72c-.188-2.851-.548-5.264-1.08-7.208zm7.033-13.634c0-.495.804-1.048 1.88-1.048 1.076 0 1.88.553 1.88 1.048 0 .439-.975.639-1.88.639-.906 0-1.88-.2-1.88-.639zm11.65 17.625c.452.385.86 1.016 1.12 1.73.26.714.352 1.46.254 2.046-.073.43-.24.732-.449.808L26.6 42.059c.106-.812-.015-1.75-.345-2.657-.33-.909-.84-1.704-1.444-2.258l9.603-3.495c.208-.076.531.047.863.33zm-12.606 6.726c-.26-.715-.352-1.46-.254-2.046.073-.43.24-.732.449-.808a.39.39 0 0 1 .133-.023c.2 0 .462.125.73.353.452.386.86 1.017 1.12 1.73.26.715.353 1.46.255 2.046-.073.43-.24.733-.45.809-.207.076-.53-.048-.862-.331-.453-.386-.86-1.016-1.12-1.73zm20.954-.53-2.917 1.06c-.26-.652-.729-1.56-1.48-2.183l.797-.29c.407-.04 2.556-.171 3.6 1.412zm-4.955-7.432c.453.386.861 1.017 1.12 1.73.547 1.5.25 2.692-.193 2.855l-1.451.528c.106-.813-.014-1.75-.345-2.658-.33-.908-.84-1.704-1.444-2.258l1.45-.528c.209-.075.531.048.863.331z" fill="#fff"/></g><defs><clipPath id="aoa"><path fill="#fff" transform="translate(.018 .632)" d="M0 0h51v51H0z"/></clipPath></defs></svg><svg fill="none" viewBox="0 0 53 52" id="oceanariums-icon-4" xmlns="http://www.w3.org/2000/svg"><g clip-path="url(#apa)"><path d="M35.897 14.867c-3.507 0-6.826 1.062-9.635 3.076a16.312 16.312 0 0 0-5.768-2.63l4.396-4.941.004-.005a.744.744 0 0 0 .07-.096c.004-.005.008-.01.01-.016a.745.745 0 0 0 .052-.103l.006-.017a.732.732 0 0 0 .032-.112l.002-.01a.74.74 0 0 0 .011-.11l.001-.015V9.88a.74.74 0 0 0-.008-.105c0-.007-.002-.013-.003-.02a.714.714 0 0 0-.028-.11l-.005-.015a.739.739 0 0 0-.05-.11l-.002-.004a.74.74 0 0 0-.073-.105l-.002-.004-.003-.003-3.4-4.094a.77.77 0 0 0-.592-.276H12.34a.77.77 0 0 0-.592.276l-3.4 4.093-.003.004-.002.003a.749.749 0 0 0-.073.105c0 .002-.002.003-.003.004a.75.75 0 0 0-.05.11c0 .005-.003.01-.004.015a.745.745 0 0 0-.04.235v.008l.001.015a.727.727 0 0 0 .012.11l.002.01a.727.727 0 0 0 .032.113l.006.017c.014.035.032.07.051.103l.01.016a.749.749 0 0 0 .07.095l.004.005 4.402 4.948C5.599 17.026.262 23.37.262 30.917c0 8.85 7.341 16.05 16.364 16.05 3.508 0 6.826-1.062 9.636-3.076 2.81 2.014 6.128 3.076 9.635 3.076 9.024 0 16.365-7.2 16.365-16.05 0-8.85-7.342-16.05-16.365-16.05zM20.549 6.53l2.16 2.6h-2.484l-.855-2.6h1.18zm-.336 4.097h2.423l-3.888 4.37-.07-.008 1.535-4.362zM15.486 6.53h2.28l.855 2.6h-3.99l.855-2.6zm3.112 4.097-1.495 4.246a17.174 17.174 0 0 0-.777-.004l-.176.004-1.495-4.246h3.943zM12.704 6.53h1.178l-.854 2.6h-2.484l2.16-2.6zm-2.087 4.097h2.423l1.536 4.364-.069.009-3.89-4.373zm6.01 34.841c-8.182 0-14.839-6.528-14.839-14.552 0-7.26 5.448-13.294 12.544-14.379a15.014 15.014 0 0 1 1.321-.14h.011a14.964 14.964 0 0 1 .962-.034 15.203 15.203 0 0 1 1.01.042l.036-.003c.407.03.823.078 1.253.143.04.006.078.009.117.009h.005a14.805 14.805 0 0 1 7.908 3.914 14.714 14.714 0 0 1 1.082 1.145 14.4 14.4 0 0 1 3.427 9.303c0 3.15-1.05 6.224-2.969 8.733l-.012-.01c-.106-.086-.21-.175-.313-.265l-.058-.053a11.655 11.655 0 0 1-.244-.222l-.103-.1a11.858 11.858 0 0 1-.19-.187l-.11-.116a7.434 7.434 0 0 1-.173-.182l-.051-.057a12.69 12.69 0 0 0 2.349-5.635.75.75 0 0 0-.643-.85.76.76 0 0 0-.867.63 11.19 11.19 0 0 1-1.82 4.614 11.067 11.067 0 0 1-1.944-6.3c0-2.278.67-4.437 1.944-6.3a11.148 11.148 0 0 1 1.886 5.126.758.758 0 0 0 .837.668.753.753 0 0 0 .681-.821 12.662 12.662 0 0 0-2.807-6.708 13.056 13.056 0 0 0-2.507-2.352 13.18 13.18 0 0 0-7.724-2.469 13.254 13.254 0 0 0-8.582 3.14.739.739 0 0 0-.076 1.056.774.774 0 0 0 1.076.075 11.708 11.708 0 0 1 7.582-2.772c2.206 0 4.322.602 6.167 1.745a15.872 15.872 0 0 0-3.261 9.612c0 3.468 1.153 6.85 3.26 9.613a11.65 11.65 0 0 1-6.166 1.745c-6.385 0-11.58-5.095-11.58-11.358 0-2.329.713-4.567 2.063-6.472a.74.74 0 0 0-.191-1.042.773.773 0 0 0-1.063.188 12.609 12.609 0 0 0-2.336 7.326c0 7.089 5.88 12.855 13.107 12.855 2.563 0 5.019-.716 7.145-2.077l.057.06a17.608 17.608 0 0 0 .608.617l.162.153.155.144c.054.05.11.099.165.148.036.033.072.066.11.098-2.475 1.675-5.36 2.555-8.402 2.555zm19.27 0c-3.36 0-6.529-1.074-9.163-3.105a14.842 14.842 0 0 1-2.248-2.145 14.4 14.4 0 0 1-3.427-9.302c0-3.152 1.05-6.225 2.969-8.734l.012.01c.106.086.21.174.313.265l.06.055c.082.072.162.145.242.22l.105.102.187.185.113.117.17.18.052.059a12.73 12.73 0 0 0-2.492 7.54c0 2.913 1.021 5.766 2.876 8.035a13.18 13.18 0 0 0 10.23 4.82c3.429 0 6.67-1.289 9.13-3.63a.739.739 0 0 0 .015-1.058.774.774 0 0 0-1.079-.016 11.639 11.639 0 0 1-8.065 3.207c-2.206 0-4.322-.602-6.167-1.745a15.872 15.872 0 0 0 3.26-9.612c0-3.468-1.152-6.85-3.26-9.613a11.65 11.65 0 0 1 6.167-1.745c6.385 0 11.58 5.095 11.58 11.358 0 2.108-.593 4.166-1.715 5.95a.74.74 0 0 0 .25 1.03.772.772 0 0 0 1.05-.244 12.643 12.643 0 0 0 1.942-6.736c0-7.089-5.88-12.855-13.107-12.855-2.563 0-5.018.716-7.145 2.077l-.056-.058c-.051-.056-.104-.11-.156-.165-.048-.05-.095-.1-.143-.148a17.565 17.565 0 0 0-.162-.161l-.146-.144a8.346 8.346 0 0 0-.167-.157l-.15-.14a14.714 14.714 0 0 0-.17-.153l-.106-.094c2.474-1.675 5.359-2.555 8.4-2.555 8.182 0 14.839 6.528 14.839 14.553 0 8.024-6.656 14.552-14.838 14.552z" fill="#fff"/></g><defs><clipPath id="apa"><path fill="#fff" transform="translate(.262 .5)" d="M0 0h52v51H0z"/></clipPath></defs></svg><svg fill="none" viewBox="0 0 52 51" id="oceanariums-icon-5" xmlns="http://www.w3.org/2000/svg"><g clip-path="url(#aqa)" fill="#fff"><path d="M50.976 44.014c-.999-.652-1.95-.992-2.994-1.068a2.816 2.816 0 0 1-2.442-1.837l-.705-1.937a.747.747 0 1 0-1.404.511l.705 1.938a4.312 4.312 0 0 0 3.737 2.815 4.32 4.32 0 0 1 1.708.49l-8.538 3.108a4.324 4.324 0 0 1 .993-1.473A4.312 4.312 0 0 0 43.088 42l-3.004-8.252a9.055 9.055 0 0 0 1.048-.38l1.04 2.854a.748.748 0 0 0 1.404-.511l-1.114-3.06a9.128 9.128 0 0 0 3.462-4.173 9.127 9.127 0 0 0-.191-7.358l-5.7-12.048a1.522 1.522 0 0 0-1.904-.782l-11.862 4.317a1.556 1.556 0 0 0-.259.122 1.557 1.557 0 0 0-.259-.122l-3.576-1.301a.747.747 0 1 0-.51 1.404l3.575 1.301a.034.034 0 0 1 .022.04l-1.39 5.307a5.937 5.937 0 0 0-2.09-1.301 5.975 5.975 0 0 0-4.875.378 5.975 5.975 0 0 0-3.497-3.418 5.94 5.94 0 0 0-2.423-.342l2.349-4.964a.034.034 0 0 1 .042-.017l4.828 1.757a.747.747 0 1 0 .511-1.404L13.887 8.29a1.522 1.522 0 0 0-1.904.782l-5.7 12.048a9.128 9.128 0 0 0-.191 7.358 9.128 9.128 0 0 0 3.462 4.173L6.476 41.11a2.816 2.816 0 0 1-2.442 1.837c-1.044.076-1.996.416-2.994 1.068a1.167 1.167 0 0 0-.524 1.116c.05.443.343.812.762.965l9.83 3.578a1.163 1.163 0 0 0 1.204-.25c.325-.306.446-.763.317-1.191-.346-1.142-.857-2.013-1.608-2.743a2.816 2.816 0 0 1-.69-2.976l3.079-8.458a9.118 9.118 0 0 0 5.335-.971 9.128 9.128 0 0 0 4.582-5.76l2.68-10.232 2.681 10.233a9.053 9.053 0 0 0 2.85 4.58.747.747 0 0 0 .977-1.13 7.567 7.567 0 0 1-2.381-3.829l-.631-2.409a5.86 5.86 0 0 0 2.964-.288 5.973 5.973 0 0 0 3.772-4.361.742.742 0 0 0 .045-.209 4.41 4.41 0 0 1 2.82-3.26 4.382 4.382 0 0 1 2.698-.112l2.58 5.453a7.63 7.63 0 0 1 .16 6.15 7.63 7.63 0 0 1-4.438 4.262 7.556 7.556 0 0 1-4.623.187.747.747 0 1 0-.398 1.44 9.064 9.064 0 0 0 3.524.26l3.077 8.454a2.816 2.816 0 0 1-.69 2.976c-.75.73-1.261 1.601-1.607 2.743-.13.428-.008.884.316 1.192a1.163 1.163 0 0 0 1.204.249l9.831-3.578c.419-.153.71-.523.762-.965a1.166 1.166 0 0 0-.524-1.116zm-38.08-27.592a4.472 4.472 0 0 1 2.733 2.893 4.405 4.405 0 0 1-3.966.474 4.427 4.427 0 0 1-2.243-1.805l.792-1.674a4.384 4.384 0 0 1 2.685.112zm-3.969 25.58A4.313 4.313 0 0 0 9.98 46.56c.427.415.745.884.993 1.473l-8.538-3.108a4.32 4.32 0 0 1 1.708-.49A4.312 4.312 0 0 0 7.88 41.62l3.003-8.252c.17.074.343.144.518.208.175.063.353.12.53.172l-3.004 8.254zm12.955-15.056a7.63 7.63 0 0 1-3.831 4.815 7.63 7.63 0 0 1-6.139.41 7.63 7.63 0 0 1-4.439-4.26 7.631 7.631 0 0 1 .16-6.151l1.065-2.25a5.915 5.915 0 0 0 2.456 1.684 5.973 5.973 0 0 0 5.693-.917.74.74 0 0 0 .169-.13 4.41 4.41 0 0 1 4.256-.684 4.38 4.38 0 0 1 2.139 1.647l-1.529 5.836zm10.072-4.1a4.427 4.427 0 0 1-2.879.059l-.47-1.79a4.385 4.385 0 0 1 2.13-1.641 4.47 4.47 0 0 1 3.952.46 4.404 4.404 0 0 1-2.733 2.912zm6.637-7.83A5.975 5.975 0 0 0 35.1 18.44a5.974 5.974 0 0 0-4.875-.37 5.946 5.946 0 0 0-2.077 1.293l-1.39-5.31a.034.034 0 0 1 .02-.04L38.64 9.694a.034.034 0 0 1 .042.017l2.346 4.958a5.937 5.937 0 0 0-2.437.346zM48.89 24.39h-.001a.747.747 0 0 0-.003 1.494l1.053.003h.002a.747.747 0 0 0 .003-1.494l-1.053-.003zm-.45-1.137a.746.746 0 0 0 .384-.107l.913-.547a.747.747 0 1 0-.768-1.281l-.913.547a.747.747 0 0 0 .385 1.388zm-.402 5.151.91.553a.744.744 0 0 0 1.027-.251.747.747 0 0 0-.251-1.027l-.91-.552a.747.747 0 0 0-.776 1.277zM2.074 25.889h.004l1.052-.005a.747.747 0 0 0-.006-1.495l-1.053.005a.747.747 0 0 0 .003 1.495zm.2-3.289.914.546a.747.747 0 1 0 .765-1.283l-.913-.546a.747.747 0 1 0-.766 1.284z"/><path d="m3.206 27.126-.91.554a.747.747 0 0 0 .778 1.276l.91-.554a.747.747 0 0 0-.778-1.276zm21.834-16.64a1.382 1.382 0 0 0 1.956-.003l3.606-3.618a3.293 3.293 0 0 0-.008-4.651 3.293 3.293 0 0 0-4.59-.053 3.293 3.293 0 0 0-4.59.068 3.293 3.293 0 0 0 .008 4.651l3.618 3.606zm-2.567-7.202c.338-.34.789-.527 1.268-.528h.003c.478 0 .928.186 1.267.523l.467.466a.747.747 0 0 0 1.057-.001L27 3.276a1.797 1.797 0 0 1 2.538-.004c.7.699.703 1.837.004 2.538l-3.527 3.54-3.54-3.528a1.783 1.783 0 0 1-.527-1.268c0-.48.185-.93.524-1.27z"/></g><defs><clipPath id="aqa"><path fill="#fff" transform="translate(.508)" d="M0 0h51v51H0z"/></clipPath></defs></svg><svg fill="none" viewBox="0 0 52 51" id="oceanariums-icon-6" xmlns="http://www.w3.org/2000/svg"><g clip-path="url(#ara)"><path d="M48.175 32.575h-4.483c.498-.9.803-2.042.869-3.318.12-2.332-.604-4.58-1.892-5.868-.497-.498-1.12-.71-1.802-.615-.824.115-1.72.678-2.714 1.709l-1.012-12.879a1.384 1.384 0 0 0-1.374-1.27h-2.152a.747.747 0 0 0 0 1.495h2.045l1.123 14.289-.056.074c-.365.491-.696.975-.977 1.405a2.738 2.738 0 0 0-2.29-1.238h-.835c-.956 0-1.8.493-2.29 1.238a28.5 28.5 0 0 0-.976-1.405c-1.586-2.133-2.94-3.25-4.14-3.418-.682-.095-1.305.117-1.802.615-1.288 1.288-2.013 3.536-1.892 5.868.066 1.276.37 2.417.869 3.318H17.91c-.73 0-1.325.595-1.325 1.326v3.861c0 .622.43 1.144 1.01 1.286v9.84c0 .215.032.422.092.618H4.062l.487-6.204H14.55a.747.747 0 0 0 0-1.494H4.667l2.356-29.98h7.503v4.606h-.182a.747.747 0 1 0 0 1.494h1.907a.747.747 0 0 0 0-1.494h-.23V11.83h10.617v4.605h-.206a.747.747 0 1 0 0 1.494h1.907a.747.747 0 0 0 0-1.494h-.207V11.83h1.997a.747.747 0 1 0 0-1.494h-1.997V6.803A6.81 6.81 0 0 0 21.33 0a6.81 6.81 0 0 0-6.803 6.803v3.532h-7.61c-.715 0-1.318.557-1.374 1.27l-2.98 37.91A1.381 1.381 0 0 0 3.935 51h42.443a2.115 2.115 0 0 0 2.112-2.112v-9.84a1.327 1.327 0 0 0 1.01-1.286v-3.861c0-.731-.594-1.326-1.325-1.326zM16.02 6.803a5.315 5.315 0 0 1 5.31-5.309 5.315 5.315 0 0 1 5.308 5.31v3.53H16.02v-3.53zm13.867 42.703h-10.18a.62.62 0 0 1-.617-.618v-9.8h10.797v10.418zm0-11.912H18.08v-3.525h11.807v3.525zm0-5.019H24.23c-.69-.69-1.138-1.935-1.214-3.395-.1-1.923.458-3.737 1.456-4.735.166-.166.322-.221.539-.191.35.048 1.354.42 3.139 2.817a29.315 29.315 0 0 1 1.736 2.642v2.862zm1.494-3.06v-.418c0-.686.558-1.244 1.244-1.244h.836c.686 0 1.244.558 1.244 1.244v3.478H31.38v-3.06zm3.524 19.991h-3.524V39.088h3.524v10.418zm0-11.912h-3.524v-3.525h3.524v3.525zm1.294-7.88a29.46 29.46 0 0 1 1.736-2.643c1.784-2.397 2.79-2.769 3.139-2.817.217-.03.373.025.539.191.998.998 1.556 2.812 1.456 4.735-.076 1.46-.525 2.704-1.214 3.395h-5.656v-2.862zm10.797 19.174a.62.62 0 0 1-.618.618h-9.979V39.088h10.597v9.8zm1.01-11.294H36.399v-3.525h11.607v3.525z" fill="#fff"/></g><defs><clipPath id="ara"><path fill="#fff" transform="translate(.53)" d="M0 0h51v51H0z"/></clipPath></defs></svg><svg fill="none" viewBox="0 0 52 51" id="oceanariums-icon-7" xmlns="http://www.w3.org/2000/svg"><g clip-path="url(#asa)" fill="#fff"><path d="M40.505 23.64c-2.75-.478-5.798.226-8.813 2.036-.5.3-.96.607-1.372.903a49.043 49.043 0 0 0-2.8-3.042 48.618 48.618 0 0 0-3.317-3.03c.352-.571.708-1.2 1.044-1.874 2.08-4.175 2.358-8.102.803-11.357a.809.809 0 1 0-1.46.698c1.942 4.064.123 8.545-1.67 11.512a28.889 28.889 0 0 0-3.06-2.064c-2.708-1.559-4.586-1.843-5.583-.847-.03.03-.06.062-.087.094a.811.811 0 0 0-.236.316l-.08.189-.026.065-3.789 9.092-.01.025-4.575 10.978-2.24 5.372v.002L.336 49.663a.81.81 0 0 0 1.058 1.058l8.946-3.728.003-.001 7.1-2.959 7.514-3.131.004-.002 8.227-3.428h.001l.883-.369a.806.806 0 0 0 .323-.245c.029-.026.059-.05.087-.078.996-.997.712-2.875-.847-5.583-.608-1.057-1.384-2.19-2.29-3.354 2.088-1.478 5.405-3.214 8.882-2.608a.809.809 0 1 0 .278-1.594zM2.585 48.473l1.78-4.27a48.256 48.256 0 0 0 3.662 2.002l-5.442 2.268zM17.11 42.42a41.74 41.74 0 0 1-5.956-2.679.809.809 0 1 0-.774 1.421 44.5 44.5 0 0 0 4.556 2.164l-4.894 2.04a45.693 45.693 0 0 1-5.048-2.673l1.592-3.822c.316.21.632.415.946.614a.81.81 0 0 0 .866-1.367c-.39-.248-.785-.506-1.177-.77l1.625-3.899c4.397 3.181 8.865 5.482 13.324 6.863l-5.06 2.108zm7.473-3.114c-5.026-1.242-10.098-3.725-15.089-7.385l1.648-3.976c2.962 2.319 5.995 4.256 9.03 5.766a.809.809 0 1 0 .721-1.449c-3.058-1.521-6.119-3.495-9.107-5.87l2.476-5.94c.061.146.128.295.2.448l.005.01c.031.068.064.135.097.203l.02.04.09.18.032.064.088.166.042.08c.03.058.063.116.095.174l.04.074c.042.076.085.152.13.229l.012.022.01.017.024.042c.039.066.077.133.118.2l.054.09a25.929 25.929 0 0 0 1.069 1.638l.077.109.262.365a38.61 38.61 0 0 0 .352.474l.042.054a36.605 36.605 0 0 0 .7.896l.015.02c.122.15.246.302.372.454l.012.014c.127.153.256.307.387.46a47.287 47.287 0 0 0 .41.474l.024.027c.131.149.263.298.397.447l.049.053c.126.14.253.28.383.42l.093.099.351.375.156.162.301.313c.106.109.214.217.322.326l.146.148.14.139.334.33.31.297.165.159c.126.12.253.238.38.356l.094.088c.14.13.281.258.422.385l.051.047a48.5 48.5 0 0 0 .934.82l.013.01a42.802 42.802 0 0 0 1.392 1.14l.03.023c.143.111.284.22.425.326l.05.04a34.506 34.506 0 0 0 .842.615l.107.076.041.029a37.707 37.707 0 0 1-3.373-1.208.809.809 0 1 0-.616 1.496c2.326.958 4.637 1.664 6.901 2.11l-5.298 2.209zm7.65-7.3c1.42 2.465 1.279 3.457 1.105 3.631a.25.25 0 0 1-.065.043.412.412 0 0 1-.026.012l-.009.003a.553.553 0 0 1-.031.011l-.007.002c-.393.115-1.488-.018-3.516-1.188a21.626 21.626 0 0 1-.968-.595l-.135-.088a29.268 29.268 0 0 1-.31-.206l-.103-.07-.347-.24-.069-.05c-.127-.09-.254-.181-.382-.275l-.039-.028a31.65 31.65 0 0 1-.414-.309l-.011-.008a41.432 41.432 0 0 1-2.704-2.247l-.02-.02c-.145-.13-.289-.26-.433-.394l-.068-.064-.386-.362-.14-.136c-.106-.1-.211-.201-.316-.303l-.3-.296-.156-.154-.156-.159-.294-.297-.305-.318-.134-.138a49.371 49.371 0 0 1-.361-.386l-.065-.069a46.628 46.628 0 0 1-.394-.43l-.02-.023a41.45 41.45 0 0 1-2.592-3.168 31.597 31.597 0 0 1-.564-.797l-.07-.104a26.3 26.3 0 0 1-.47-.718l-.102-.165a22.92 22.92 0 0 1-.318-.53c-1.17-2.029-1.303-3.123-1.188-3.516l.001-.003a.538.538 0 0 1 .012-.035c0-.003.002-.005.003-.007a.346.346 0 0 1 .012-.028l.002-.003a.416.416 0 0 1 .015-.027.205.205 0 0 1 .026-.034c.055-.055.192-.107.432-.107.517 0 1.514.242 3.2 1.212a27.41 27.41 0 0 1 2.981 2.02 20.913 20.913 0 0 1-1.549 1.981.81.81 0 1 0 1.186 1.102c.048-.052.75-.814 1.634-2.063a47.65 47.65 0 0 1 3.07 2.817 47.65 47.65 0 0 1 2.665 2.89c-.665.558-1.05.954-1.081.986a.809.809 0 0 0 1.163 1.124c.014-.013.352-.357.942-.851.86 1.105 1.595 2.177 2.169 3.174z"/><path d="M33.812 11.6a.811.811 0 0 0-.922.677c-.007.044-.743 4.478-5.248 8.982a.81.81 0 0 0 1.144 1.145c4.905-4.905 5.673-9.683 5.704-9.884a.808.808 0 0 0-.678-.92zM21.36 5.52a3.34 3.34 0 0 0-.985-2.377 3.34 3.34 0 0 0-2.378-.985 3.34 3.34 0 0 0-2.377.985 3.34 3.34 0 0 0-.985 2.377c0 .898.35 1.743.985 2.378a3.34 3.34 0 0 0 2.377.985 3.34 3.34 0 0 0 2.378-.985 3.34 3.34 0 0 0 .985-2.378zm-2.129 1.234c-.33.33-.767.51-1.234.51a1.73 1.73 0 0 1-1.233-.51c-.33-.33-.51-.768-.51-1.234-.001-.466.18-.904.51-1.233.33-.33.768-.511 1.233-.511a1.74 1.74 0 0 1 1.744 1.744c0 .466-.18.904-.51 1.234zm16.836-3.611a3.366 3.366 0 0 0-4.755 0 3.34 3.34 0 0 0-.985 2.377c0 .899.35 1.743.985 2.378a3.352 3.352 0 0 0 2.378.983c.86 0 1.722-.328 2.377-.983a3.34 3.34 0 0 0 .985-2.378 3.34 3.34 0 0 0-.985-2.377zm-1.144 3.61a1.746 1.746 0 0 1-2.978-1.233 1.74 1.74 0 0 1 1.745-1.743 1.74 1.74 0 0 1 1.744 1.743c0 .466-.181.904-.51 1.234zM45.58 32.906a3.366 3.366 0 0 0-4.754 0 3.366 3.366 0 0 0 0 4.755 3.352 3.352 0 0 0 2.377.983c.861 0 1.722-.327 2.378-.983a3.366 3.366 0 0 0 0-4.755zm-1.143 3.611c-.68.68-1.787.68-2.467 0a1.746 1.746 0 0 1 0-2.467c.34-.34.787-.51 1.233-.51.447 0 .894.17 1.234.51.68.68.68 1.787 0 2.467zm.972-22.277a.809.809 0 0 0-.9-.707c-.173.021-4.294.57-9.385 5.662a.81.81 0 0 0 1.144 1.144c2.436-2.437 4.603-3.721 5.991-4.37 1.494-.697 2.43-.828 2.447-.83a.809.809 0 0 0 .703-.9zm1.732-10.73-1.354-.607a1.694 1.694 0 0 1-.854-.854L44.326.695a.809.809 0 0 0-1.477 0l-.606 1.354c-.17.38-.474.684-.854.854l-1.355.607a.809.809 0 0 0 0 1.477l1.355.607c.38.17.683.473.854.854l.607 1.354a.81.81 0 0 0 1.476 0l.607-1.354c.17-.38.474-.684.854-.854l1.354-.607a.809.809 0 0 0 0-1.477zm-3.553 2.014c-.3-.535-.74-.977-1.276-1.276.536-.299.977-.74 1.276-1.275.3.535.74.976 1.276 1.275-.536.3-.977.74-1.276 1.276zm-32.49 8.982L9.743 13.9a1.694 1.694 0 0 1-.853-.854l-.607-1.354a.81.81 0 0 0-1.477 0L6.2 13.045a1.69 1.69 0 0 1-.854.854l-1.354.607a.81.81 0 0 0 0 1.477l1.354.607c.38.17.684.474.854.854l.607 1.354a.81.81 0 0 0 1.477 0l.607-1.354c.17-.38.473-.684.854-.854l1.354-.607a.809.809 0 0 0 0-1.477zM7.544 16.52a3.31 3.31 0 0 0-1.275-1.275c.535-.3.976-.74 1.275-1.276.3.536.74.977 1.276 1.276-.535.299-.976.74-1.276 1.275zm26.207 27.766-1.354-.607a1.694 1.694 0 0 1-.854-.853l-.607-1.355a.809.809 0 0 0-1.477 0l-.607 1.355c-.17.38-.473.683-.853.853l-1.355.607a.81.81 0 0 0 0 1.477L28 46.37c.38.17.683.474.854.854l.606 1.354a.81.81 0 0 0 1.477 0l.607-1.354c.17-.38.474-.684.854-.854l1.354-.607a.81.81 0 0 0 0-1.477zm-3.553 2.015c-.3-.536-.74-.977-1.276-1.276.536-.3.977-.74 1.276-1.276.299.536.74.977 1.276 1.276-.536.299-.977.74-1.276 1.276zM50.795 20.88l-1.354-.608a1.694 1.694 0 0 1-.854-.853l-.607-1.355a.81.81 0 0 0-1.477 0l-.607 1.355c-.17.38-.473.683-.853.853l-1.355.607a.809.809 0 0 0 0 1.477l1.354.607c.38.17.684.474.854.854l.607 1.354a.81.81 0 0 0 1.477 0l.607-1.354c.17-.38.473-.684.854-.854l1.354-.607a.809.809 0 0 0 0-1.477zm-3.553 2.014c-.3-.536-.74-.977-1.276-1.276.536-.3.977-.74 1.276-1.276.3.536.74.977 1.276 1.276-.536.299-.977.74-1.276 1.276z"/></g><defs><clipPath id="asa"><path fill="#fff" transform="translate(.273)" d="M0 0h51v51H0z"/></clipPath></defs></svg><svg fill="none" viewBox="0 0 52 51" id="oceanariums-icon-8" xmlns="http://www.w3.org/2000/svg"><g clip-path="url(#ata)" fill="#fff"><path d="M30.468 17.327c-5.871 0-10.648 4.777-10.648 10.648 0 5.872 4.777 10.649 10.648 10.649 5.871 0 10.648-4.777 10.648-10.649 0-5.871-4.776-10.648-10.648-10.648zm0 19.802c-5.047 0-9.154-4.106-9.154-9.154 0-5.047 4.107-9.154 9.154-9.154 5.048 0 9.154 4.107 9.154 9.154 0 5.048-4.106 9.154-9.154 9.154z"/><path d="M30.468 23.928a4.052 4.052 0 0 0-4.048 4.047 4.052 4.052 0 0 0 4.048 4.048 4.052 4.052 0 0 0 4.047-4.048 4.052 4.052 0 0 0-4.047-4.047zm0 6.6a2.556 2.556 0 0 1-2.553-2.553 2.556 2.556 0 0 1 2.553-2.553 2.556 2.556 0 0 1 2.553 2.553 2.556 2.556 0 0 1-2.553 2.554z"/><path d="M46.97 14.027h-2.716a2.54 2.54 0 0 1-2.37-1.605L40.241 8.32a4.028 4.028 0 0 0-3.758-2.544H22.801c-1.664 0-3.14.999-3.757 2.544l-1.641 4.102a2.541 2.541 0 0 1-2.37 1.605h-3.62V12.27c0-.851-.693-1.544-1.544-1.544H6.512c-.851 0-1.544.693-1.544 1.544v1.757h-.903a4.052 4.052 0 0 0-4.047 4.047v23.103a4.052 4.052 0 0 0 4.047 4.047h15.329a.747.747 0 0 0 0-1.494h-1.38v-1.756c0-.851-.693-1.544-1.544-1.544h-1.757V22.122h3.096a13.865 13.865 0 0 0-1.29 5.853c0 7.692 6.258 13.949 13.95 13.949 6.873 0 12.601-4.998 13.741-11.551h1.11a2.4 2.4 0 0 0 2.397-2.398 2.4 2.4 0 0 0-2.397-2.397h-1.11a13.833 13.833 0 0 0-1.083-3.456h6.396v4.733a.747.747 0 1 0 1.495 0v-8.78a4.052 4.052 0 0 0-4.048-4.048zM6.462 12.27a.05.05 0 0 1 .05-.05H9.87a.05.05 0 0 1 .05.05v1.757H6.462V12.27zm-2.397 3.251h9.154v5.107H1.512v-2.554a2.556 2.556 0 0 1 2.553-2.553zm12.454 26.453v1.756h-5.106v-1.756a.05.05 0 0 1 .05-.05h5.007a.05.05 0 0 1 .05.05zm-3.3-1.544h-1.756c-.852 0-1.544.693-1.544 1.544v1.756H4.065a2.556 2.556 0 0 1-2.553-2.553v-7.504h2.553a.747.747 0 0 0 0-1.494H1.512v-1.806h2.553a.747.747 0 0 0 0-1.494H1.512v-1.807h2.553a.747.747 0 0 0 0-1.494H1.512v-3.456h11.707V40.43zm17.25 0c-6.868 0-12.455-5.587-12.455-12.455 0-6.867 5.587-12.454 12.454-12.454 6.868 0 12.455 5.587 12.455 12.454 0 6.868-5.587 12.455-12.455 12.455zm14.85-13.358a.904.904 0 0 1 0 1.806h-.932a14.072 14.072 0 0 0 0-1.806h.933zm-3-6.444c-2.464-3.96-6.854-6.601-11.85-6.601-4.998 0-9.388 2.641-11.852 6.6h-3.904v-5.106h.32a4.027 4.027 0 0 0 3.757-2.545l1.64-4.101a2.541 2.541 0 0 1 2.371-1.605h13.684c1.05 0 1.98.63 2.37 1.605l1.641 4.101a4.028 4.028 0 0 0 3.758 2.545h2.716a2.556 2.556 0 0 1 2.553 2.553v2.553H42.32z"/><path d="M50.27 29.096a.747.747 0 0 0-.747.747v11.334a2.556 2.556 0 0 1-2.553 2.553H22.382a.747.747 0 0 0 0 1.495H46.97a4.052 4.052 0 0 0 4.048-4.048V29.843a.747.747 0 0 0-.747-.747zm-14.851-18.37H23.867a.747.747 0 1 0 0 1.494H35.42a.747.747 0 1 0 0-1.494z"/><path d="M46.97 41.924a.747.747 0 0 0 .747-.747v-3.3a.747.747 0 0 0-.747-.748h-3.3a.747.747 0 0 0-.747.748v3.3c0 .413.334.747.747.747h3.3zm-2.553-3.3h1.806v1.806h-1.806v-1.806z"/></g><defs><clipPath id="ata"><path fill="#fff" transform="translate(.018)" d="M0 0h51v51H0z"/></clipPath></defs></svg><svg fill="none" viewBox="0 0 52 51" id="oceanariums-icon-9" xmlns="http://www.w3.org/2000/svg"><g clip-path="url(#aua)" fill="#fff"><path d="M20.574 21.355c-.318.549-.909.89-1.542.89a1.786 1.786 0 0 1-1.542-.89.747.747 0 0 0-1.293.747 3.284 3.284 0 0 0 2.835 1.637 3.286 3.286 0 0 0 2.836-1.636.747.747 0 1 0-1.294-.748zm4.141-5.869v1.142a.747.747 0 1 0 1.494 0v-1.142a.747.747 0 1 0-1.494 0zm-12.86 0v1.142a.747.747 0 1 0 1.495 0v-1.142a.747.747 0 1 0-1.495 0z"/><path d="M49.666 41.837h-.376v-4.312c.017-.29-.27-.725-.748-.747h-3.597v-2.625c0-1.488-1.21-2.7-2.7-2.7a2.702 2.702 0 0 0-2.698 2.7v2.625h-2.85v-7.56h11.098v4.777a.747.747 0 1 0 1.494 0v-4.806c1.139-.163 1.793-1.727.949-2.694l-6.74-7.858a1.644 1.644 0 0 0-.505-.394V15.16a.747.747 0 1 0-1.494 0v3.083c-.19.097-.362.228-.504.394l-6.74 7.858c-.785.853-.315 2.472.948 2.694v12.648h-1.674l-1.887-9.266c-.606-2.977-2.924-5.268-5.793-5.928a11.805 11.805 0 0 0 5.863-7.004h.277a4.13 4.13 0 0 0 2.938-1.216 4.13 4.13 0 0 0 1.215-2.937 4.157 4.157 0 0 0-4.153-4.152h-.695a11.406 11.406 0 0 0-3.66-4.634.747.747 0 1 0-.89 1.199 9.829 9.829 0 0 1 3.33 4.362c.44 1.095.702 2.621.66 3.935 0 5.654-4.6 10.253-10.254 10.253h-2.895c-5.654 0-10.254-4.6-10.254-10.253-.184-3.946 2.291-7.939 6.02-9.46.746.407 2.612 1.25 5.24 1.25 1.08 0 2.288-.142 3.6-.515 1.199-.341 3.21-1.235 3.21-3.386A3.418 3.418 0 0 0 21.987.671h-1.955c-1.978 0-3.85.86-5.139 2.36L12.96 5.282a11.43 11.43 0 0 0-6.198 6.052h-.687a4.157 4.157 0 0 0-4.153 4.152 4.13 4.13 0 0 0 1.217 2.938 4.13 4.13 0 0 0 2.936 1.215h.277a11.806 11.806 0 0 0 5.864 7.004c-2.87.66-5.187 2.95-5.793 5.928l-1.887 9.266h-1.68c-1.154 0-2.094.94-2.094 2.096v5.65a.747.747 0 1 0 1.494 0v-5.65c0-.332.27-.601.6-.601h46.81c.332 0 .602.27.602.6v5.65a.747.747 0 1 0 1.494 0v-5.65c0-1.155-.94-2.095-2.096-2.095zM31.99 12.827a2.662 2.662 0 0 1 1.88 4.539 2.644 2.644 0 0 1-1.804.777c.269-1.61.226-3.625-.246-5.315h.17zM16.027 4.005a5.273 5.273 0 0 1 4.004-1.84h1.956c1.058 0 1.92.862 1.92 1.92 0 .893-.715 1.548-2.125 1.95-3.41.97-5.985.186-7.196-.352l1.44-1.678zM4.195 17.367a2.645 2.645 0 0 1-.779-1.88c-.009-1.48 1.296-2.74 2.82-2.66-.45 1.646-.515 3.514-.237 5.316a2.644 2.644 0 0 1-1.804-.776zm38.051 15.58c.665 0 1.205.541 1.205 1.206v2.625h-2.41v-2.625c0-.665.54-1.205 1.205-1.205zm-6.858-5.48 6.74-7.857c.045-.007.035-.111.235 0l6.74 7.858c-.023.02.162.111-.117.255h-13.48c0-.031-.19.05-.118-.255zm-12.739.476a4.534 4.534 0 0 1-7.006 0h7.006zM7.887 32.87a6.173 6.173 0 0 1 5.965-4.924 6.026 6.026 0 0 0 4.546 3.102v8.058a.747.747 0 1 0 1.495 0v-8.058a6.028 6.028 0 0 0 4.544-3.096 6.175 6.175 0 0 1 5.74 4.918l1.827 8.968h-4.125l-.822-4.743a.747.747 0 1 0-1.472.255l.777 4.488H11.603l.777-4.488a.747.747 0 0 0-1.472-.255l-.821 4.743H6.06l1.827-8.968zm28.81 8.968v-3.565h11.098v3.565H36.697z"/></g><defs><clipPath id="aua"><path fill="#fff" transform="translate(.762)" d="M0 0h51v51H0z"/></clipPath></defs></svg><svg fill="none" viewBox="0 0 17 18" id="phone-call" xmlns="http://www.w3.org/2000/svg"><g opacity=".7" clip-path="url(#ava)" fill="#fff"><path d="M13.435 11.057c-.348-.38-.768-.584-1.213-.584-.44 0-.864.2-1.227.58L9.862 12.24l-.277-.15a4.495 4.495 0 0 1-.355-.2c-1.062-.708-2.027-1.631-2.953-2.826-.448-.595-.75-1.096-.969-1.604.295-.283.567-.577.833-.86l.301-.32c.754-.79.754-1.815 0-2.607l-.98-1.028a15.36 15.36 0 0 1-.333-.358 17.387 17.387 0 0 0-.674-.7c-.349-.362-.765-.555-1.202-.555-.438 0-.862.193-1.22.554l-.008.008-1.22 1.292a2.816 2.816 0 0 0-.778 1.752c-.086 1.1.222 2.125.46 2.795.58 1.647 1.449 3.172 2.744 4.807 1.572 1.97 3.462 3.527 5.622 4.623.826.41 1.927.897 3.158.98.075.003.154.007.226.007.829 0 1.525-.313 2.07-.934.004-.008.01-.012.014-.02.187-.236.402-.451.628-.681.155-.154.313-.316.467-.486.355-.388.541-.84.541-1.303 0-.468-.19-.916-.552-1.293l-1.97-2.076zm1.285 3.967c-.004 0-.004.004 0 0-.14.159-.284.302-.438.46-.233.234-.47.479-.693.754-.362.406-.789.599-1.349.599-.053 0-.11 0-.165-.004-1.065-.072-2.055-.509-2.798-.882-2.031-1.032-3.814-2.498-5.296-4.355-1.224-1.548-2.042-2.98-2.583-4.517C1.064 6.141.942 5.41.996 4.721c.036-.441.197-.806.495-1.12l1.223-1.284c.176-.173.363-.267.546-.267.226 0 .409.143.524.263l.01.012c.22.214.427.437.646.674l.341.365.98 1.029c.38.4.38.769 0 1.168-.105.11-.205.218-.309.324-.301.324-.588.625-.9.92-.008.007-.015.01-.019.018-.308.324-.25.64-.186.855l.01.034c.255.648.614 1.258 1.16 1.985l.003.004c.99 1.281 2.035 2.28 3.186 3.044.147.098.298.177.442.253.129.067.25.132.355.2.014.007.028.018.043.026a.749.749 0 0 0 .355.094c.298 0 .484-.196.545-.26l1.228-1.288c.122-.129.315-.283.541-.283.223 0 .406.147.517.275l.007.008 1.977 2.075c.37.385.37.78.004 1.18zM9.187 4.246c.94.166 1.794.633 2.476 1.349a4.888 4.888 0 0 1 1.284 2.6c.04.248.244.421.478.421.028 0 .053-.004.082-.007.266-.046.441-.31.399-.588a5.914 5.914 0 0 0-1.554-3.146 5.45 5.45 0 0 0-2.996-1.631.49.49 0 0 0-.56.414c-.046.275.126.543.391.588zm7.793 3.628a9.73 9.73 0 0 0-2.558-5.18C13.066 1.27 11.362.343 9.488.008c-.262-.05-.51.14-.556.414a.51.51 0 0 0 .399.588c1.671.297 3.196 1.13 4.41 2.4a8.686 8.686 0 0 1 2.285 4.63.49.49 0 0 0 .477.422c.029 0 .054-.004.082-.008a.497.497 0 0 0 .395-.58z"/></g><defs><clipPath id="ava"><path fill="#fff" d="M0 0h17v17.85H0z"/></clipPath></defs></svg><svg viewBox="0 0 19 19" id="pin" xmlns="http://www.w3.org/2000/svg"><g clip-path="url(#awa)"><path d="M14.038 3.258a6.796 6.796 0 0 0-5.643-1.404A6.75 6.75 0 0 0 5.642 13.82a11.437 11.437 0 0 1 2.94 3.163l.526.873a.75.75 0 0 0 1.285 0l.503-.838a9.54 9.54 0 0 1 2.684-3 6.743 6.743 0 0 0 .459-10.764v.003zM9.75 11.472a3 3 0 1 1 0-6.001 3 3 0 0 1 0 6z"/></g><defs><clipPath id="awa"><path fill="#fff" transform="translate(.75 .972)" d="M0 0h18v18H0z"/></clipPath></defs></svg><svg fill="none" viewBox="0 0 22 21" id="pleer" xmlns="http://www.w3.org/2000/svg"><g clip-path="url(#axa)"><path d="M5.202.599c-1.878-1.053-3.4-.19-3.4 1.924V18.13c0 2.117 1.522 2.978 3.4 1.927l13.956-7.823c1.878-1.053 1.878-2.76 0-3.812L5.201.599z" fill="#fff"/></g><defs><clipPath id="axa"><path fill="#fff" transform="translate(.771 .15)" d="M0 0h20.826v20.355H0z"/></clipPath></defs></svg><svg fill="none" viewBox="0 0 21 22" id="press-button" xmlns="http://www.w3.org/2000/svg"><g clip-path="url(#aya)" fill="#fff"><path d="M5.288 7.65c-.141-.48-.278-.961-.38-1.422a2.275 2.275 0 0 1-1.13-1.958A2.283 2.283 0 0 1 6.06 1.989 2.284 2.284 0 0 1 8.34 4.27c0 .173-.023.34-.06.502.22.48.395 1.021.55 1.571a3.44 3.44 0 0 0 .702-2.073 3.472 3.472 0 1 0-6.944 0 3.467 3.467 0 0 0 2.7 3.38z"/><path d="M2.89 15.87c.856-.925 1.816-.562 3.102-.367 1.105.17 2.192-.14 2.12-.736-.114-.966-.276-1.397-.642-2.648-.292-.994-.847-2.786-1.352-4.5-.676-2.292-.872-3.356.028-3.622.97-.283 1.527 1.096 2.031 3.007.574 2.176.876 3.136 1.045 3.085.298-.085-.11-1.016.67-1.245.974-.283 1.163.478 1.436.402.273-.082.18-.854.957-1.08.78-.226 1.173.735 1.495.64.319-.095.312-.442.793-.58.482-.143 2.297.67 3.336 4.218 1.303 4.461-.165 5.29.28 6.8l-5.819 2.213c-.47-1.133-1.93-1.216-3.22-1.938-1.3-.732-2.184-2.158-5.573-2.089-1.274.026-1.214-.99-.687-1.56z"/></g><defs><clipPath id="aya"><path fill="#fff" transform="translate(.17 .797)" d="M0 0h20.66v20.66H0z"/></clipPath></defs></svg><svg fill="none" viewBox="0 0 35 34" id="prev" xmlns="http://www.w3.org/2000/svg"><circle cx="17.509" cy="17.099" r="15.901" stroke="#fff" stroke-opacity=".1" stroke-width="2"/><g clip-path="url(#aza)" fill="#fff"><path d="M23.556 17.902h-11.36a.43.43 0 0 1-.395-.269.442.442 0 0 1 .093-.475l5.143-5.236a.423.423 0 0 1 .606 0 .441.441 0 0 1 0 .617l-4.411 4.49h10.324c.237 0 .429.196.429.437s-.192.436-.429.436zm-6.216 5.236a.425.425 0 0 1-.303-.128l-3.429-3.49a.441.441 0 0 1 0-.617.423.423 0 0 1 .606 0l3.43 3.49a.441.441 0 0 1 0 .617.423.423 0 0 1-.303.128z"/></g><defs><clipPath id="aza"><path fill="#fff" transform="translate(10.896 10.485)" d="M0 0h13.962v13.962H0z"/></clipPath></defs></svg><svg viewBox="0 0 45 46" id="prices-icon-1" xmlns="http://www.w3.org/2000/svg"><rect y=".124" width="45" height="45" rx="5"/><g clip-path="url(#baa)" fill="#fff"><path d="M16.884 30.742c-1.29.741-2.743 1.007-3.604 1.102.095-.86.36-2.315 1.1-3.605a.703.703 0 1 0-1.22-.7c-1.324 2.31-1.34 4.95-1.34 5.061 0 .389.315.703.703.703.112 0 2.751-.015 5.062-1.34a.703.703 0 1 0-.7-1.22zm17.264-18.06a1.662 1.662 0 0 0-.491-1.218c-.324-.325-.793-.485-1.216-.489-1.947.037-7.199.596-12.168 5.056-.886-.345-2.22-.856-3.234-.726-1.49.191-3.693 2.22-5.85 4.384-.286.286-.4.693-.304 1.086.095.396.384.706.772.83l3.43 1.102c-.259.471-.514.954-.76 1.464-.31.64-.178 1.41.327 1.913l4.385 4.385a1.68 1.68 0 0 0 1.914.327c.51-.246.992-.5 1.463-.758l1.102 3.429a1.151 1.151 0 0 0 1.106.805c.3 0 .59-.118.811-.337 2.164-2.157 4.192-4.359 4.383-5.849.132-1.022-.381-2.35-.726-3.236 4.46-4.968 5.019-10.22 5.056-12.168zm-21.673 7.71c1.144-1.14 3.63-3.549 4.743-3.692.496-.063 1.275.172 1.933.41-1.162 1.201-2.29 2.64-3.342 4.352l-3.334-1.07zm7.866 9.138a.274.274 0 0 1-.308-.055l-4.386-4.386a.273.273 0 0 1-.053-.307c5.461-11.314 14.296-12.351 16.874-12.4h.006a.26.26 0 0 1 .19.078c.03.03.08.095.079.197-.05 2.578-1.089 11.412-12.402 16.873zm8.082-1.623c-.143 1.111-2.551 3.598-3.691 4.742l-1.072-3.334c1.713-1.051 3.152-2.18 4.353-3.342.24.657.474 1.434.41 1.934z"/><path d="M28.85 20.447a2.956 2.956 0 0 0 0-4.173c-1.116-1.114-3.06-1.114-4.173 0a2.932 2.932 0 0 0-.864 2.086c0 .789.307 1.53.864 2.087a2.932 2.932 0 0 0 2.086.864c.789 0 1.53-.307 2.087-.864zm-.995-.994c-.584.584-1.602.584-2.184 0a1.533 1.533 0 0 1-.453-1.093c0-.412.16-.8.453-1.092a1.534 1.534 0 0 1 1.091-.452 1.546 1.546 0 0 1 1.092 2.637z"/></g><defs><clipPath id="baa"><path fill="#fff" transform="translate(10 10.124)" d="M0 0h25v25H0z"/></clipPath></defs></svg><svg viewBox="0 0 45 46" id="prices-icon-10" xmlns="http://www.w3.org/2000/svg"><rect y=".422" width="45" height="45" rx="5"/><g clip-path="url(#bba)"><path d="m33.98 30.617-3.696-14.965c.011-.64.121-1.864.085-2.503a2.23 2.23 0 0 0-2.227-2.227h-1.82a2.23 2.23 0 0 0-2.226 2.227c-.026.639.056 1.953.103 2.6l-1.385 5.606-1.037-4.199c.011-.64.121-1.864.085-2.503a2.23 2.23 0 0 0-2.227-2.227h-1.82a2.23 2.23 0 0 0-2.226 2.227c-.027.639.056 1.953.103 2.6L12.02 32.12a.645.645 0 0 0 .995.682c.07-.048 1.74-1.177 3.479.006.202.14.481.149.692.02.007-.004.73-.425 1.56-.425.612 0 1.166.229 1.417.35a.698.698 0 0 0 .837.055c1.738-1.183 3.408-.054 3.475-.008a.644.644 0 0 0 .998-.68l-.175-.708a.646.646 0 0 0 .397-.089c.007-.004.73-.423 1.559-.423.611 0 1.165.228 1.416.35a.698.698 0 0 0 .836.054c1.74-1.183 3.409-.054 3.476-.007a.644.644 0 0 0 .998-.68zm-6.726-1.005c-.43 0-.83.075-1.172.172l.604-8.16c.363.034.729.034 1.093 0l.602 8.148a4.266 4.266 0 0 0-1.127-.16zm1.442-9.483a4.764 4.764 0 0 1-2.928 0l-.338-5.34h3.605l-.339 5.34zm-3.311-6.98a.94.94 0 0 1 .938-.938h1.819a.94.94 0 0 1 .938.938v.351h-3.695v-.35zm-.915 6.879.038.602c.016.246.17.46.397.555.167.069.336.13.507.183l-.598 8.085-1.336-5.41.992-4.015zm-5.723 11.088c-.43 0-.83.075-1.172.172l.604-8.16c.363.034.729.034 1.093 0l.602 8.148a4.266 4.266 0 0 0-1.127-.16zm1.442-9.483a4.765 4.765 0 0 1-2.928 0l-.338-5.34h3.605l-.339 5.34zm-3.311-6.98a.94.94 0 0 1 .938-.938h1.819a.94.94 0 0 1 .938.938v.35h-3.695v-.35zM13.799 31.1a4.779 4.779 0 0 0-.213.055l2.377-9.624.038.603c.016.245.17.46.397.555.167.069.337.13.507.183l-.62 8.383A4.219 4.219 0 0 0 13.8 31.1zm9.895 0a4.217 4.217 0 0 0-2.528.17l-.62-8.398a6.01 6.01 0 0 0 .506-.183.644.644 0 0 0 .397-.555l.047-.741 2.411 9.762a4.783 4.783 0 0 0-.213-.055zm8.507-1.504a4.217 4.217 0 0 0-2.528.17l-.62-8.398a6.01 6.01 0 0 0 .506-.183.644.644 0 0 0 .397-.555l.047-.74 2.411 9.761a4.925 4.925 0 0 0-.213-.055z" fill="#fff"/></g><defs><clipPath id="bba"><path fill="#fff" transform="translate(12 10.922)" d="M0 0h22v22H0z"/></clipPath></defs></svg><svg viewBox="0 0 45 46" id="prices-icon-11" xmlns="http://www.w3.org/2000/svg"><rect y=".422" width="45" height="45" rx="5"/><path d="M22.163 30.893h-7.54a1.54 1.54 0 0 1-1.538-1.538v-9.504h18.824v2.74a.647.647 0 0 0 1.294 0v-6.109a2.828 2.828 0 0 0-2.826-2.824H14.616a2.828 2.828 0 0 0-2.825 2.824v12.873a2.836 2.836 0 0 0 2.832 2.832h7.54a.647.647 0 0 0 0-1.294zm-7.547-15.942h15.762c.844 0 1.53.687 1.53 1.531v2.075H13.086v-2.075c0-.844.686-1.53 1.53-1.53z" fill="#fff"/><path d="M15.525 17.37a.621.621 0 1 0 0-1.243.621.621 0 0 0 0 1.243zm2.189 0a.621.621 0 1 0 0-1.243.621.621 0 0 0 0 1.243zm2.189 0a.621.621 0 1 0 0-1.242.621.621 0 0 0 0 1.242zm12.859 7.92-4.313-2.506a1.502 1.502 0 0 0-1.507 0l-4.313 2.505a.901.901 0 0 0 0 1.556l1.145.665v1.99c0 .526.284 1.017.74 1.28l1.8 1.037a2.766 2.766 0 0 0 2.763 0l1.801-1.038c.456-.263.74-.753.74-1.28V27.51l1.144-.665a.901.901 0 0 0 0-1.556zm-5.17-1.387a.204.204 0 0 1 .207 0l3.727 2.165-3.727 2.164a.205.205 0 0 1-.207 0l-3.726-2.165 3.726-2.164zm2.732 5.597a.184.184 0 0 1-.092.158l-1.8 1.037a1.48 1.48 0 0 1-1.472 0l-1.8-1.037a.184.184 0 0 1-.092-.159v-1.236l1.874 1.088a1.502 1.502 0 0 0 1.507 0l1.874-1.088v1.236z" fill="#fff"/></svg><svg viewBox="0 0 45 46" id="prices-icon-12" xmlns="http://www.w3.org/2000/svg"><rect y=".422" width="45" height="45" rx="5"/><g clip-path="url(#bda)" fill="#fff"><path d="M23 33.38a10.35 10.35 0 0 1-8.838-4.9.47.47 0 0 1-.03-.043 10.78 10.78 0 0 1-.67-1.27 10.448 10.448 0 0 1-.879-4.203c-.015-.066-.52-3.45-.52-5.208 0-5.029 4.47-5.644 5.513-5.72.557-.496 2.574-2.093 5.424-2.093 4.542 0 10.938 2.424 10.938 7.813 0 1.726-.506 5.14-.527 5.284a10.362 10.362 0 0 1-.87 4.13c-.232.511-.486.98-.76 1.401a.485.485 0 0 1-.069.084C29.858 31.585 26.58 33.38 23 33.38zm-8.004-5.525a.35.35 0 0 1 .03.043A9.315 9.315 0 0 0 23 32.338a9.308 9.308 0 0 0 7.894-4.32.527.527 0 0 1 .07-.088c.188-.304.417-.726.625-1.182a9.493 9.493 0 0 0 .786-3.784c.01-.11.52-3.558.52-5.208 0-4.67-5.786-6.771-9.895-6.771-2.876 0-4.82 1.911-4.84 1.93a.528.528 0 0 1-.367.153c-.192.001-4.689.073-4.689 4.688 0 1.68.51 5.096.516 5.13a9.58 9.58 0 0 0 .796 3.86c.184.412.376.777.58 1.11z"/><path d="M32.675 25.568a.521.521 0 0 1-.5-.377l-1.234-4.313c-7.536-.062-10.588-1.94-11.803-3.25-.786 2.02-3.193 2.901-4.052 3.157l-1.26 4.405a.521.521 0 0 1-1.001-.286l1.342-4.688a.519.519 0 0 1 .38-.364c.04-.01 3.802-.928 3.802-3.598a.52.52 0 0 1 .458-.516.514.514 0 0 1 .569.392c.008.029 1.185 3.709 11.957 3.709.233 0 .437.153.5.377l1.342 4.687a.52.52 0 0 1-.5.665z"/><path d="M32.875 26.089c-.121 0-.243-.012-.364-.022a.521.521 0 0 1-.468-.57.529.529 0 0 1 .57-.468c.087.009.174.018.262.018a1.564 1.564 0 0 0 .188-3.119.52.52 0 0 1-.455-.579.519.519 0 0 1 .58-.455 2.607 2.607 0 0 1-.313 5.195zm-19.771 0a2.607 2.607 0 0 1-2.604-2.604c0-1.332.997-2.446 2.318-2.591a.522.522 0 0 1 .114 1.035 1.58 1.58 0 0 0-1.39 1.556c0 .861.7 1.562 1.562 1.562.084 0 .162-.007.228-.02a.516.516 0 0 1 .615.404.52.52 0 0 1-.405.615 2.16 2.16 0 0 1-.438.043zm5.729-1.042a1.564 1.564 0 0 1-1.563-1.562c0-.862.701-1.563 1.563-1.563s1.563.701 1.563 1.563c0 .861-.701 1.562-1.563 1.562zm0-2.083a.522.522 0 1 0 .002 1.043.522.522 0 0 0-.002-1.043zm8.334 2.083a1.564 1.564 0 0 1-1.563-1.562c0-.862.701-1.563 1.563-1.563.861 0 1.563.701 1.563 1.563 0 .861-.701 1.562-1.563 1.562zm0-2.083a.522.522 0 1 0 .002 1.043.522.522 0 0 0-.002-1.043zM23 29.238a4.155 4.155 0 0 1-2.947-1.219.521.521 0 0 1 .736-.736 3.129 3.129 0 0 0 4.42 0 .521.521 0 0 1 .736.736A4.147 4.147 0 0 1 23 29.238z"/></g><defs><clipPath id="bda"><path fill="#fff" transform="translate(10.5 9.422)" d="M0 0h25v25H0z"/></clipPath></defs></svg><svg viewBox="0 0 45 46" id="prices-icon-13" xmlns="http://www.w3.org/2000/svg"><rect y=".422" width="45" height="45" rx="5"/><g clip-path="url(#bea)" fill="#fff"><path d="M24.656 21.485a5.032 5.032 0 1 1 5.032-5.032 5.037 5.037 0 0 1-5.032 5.032zm0-8.625a3.594 3.594 0 1 0 0 7.187 3.594 3.594 0 0 0 0-7.187z"/><path d="M31.844 34.422H17.469a.719.719 0 0 1-.719-.719v-.1a.718.718 0 0 1 1.085-.618h13.29v-5.57a5.936 5.936 0 0 0-5.93-5.93h-1.078a5.932 5.932 0 0 0-3.762 1.345.72.72 0 0 1-.914-1.11 7.37 7.37 0 0 1 4.676-1.673h1.078a7.375 7.375 0 0 1 7.367 7.367v6.29a.719.719 0 0 1-.718.718z"/><path d="M28.25 34.422a.719.719 0 0 1-.719-.719v-7.187a.719.719 0 0 1 1.438 0v7.187a.719.719 0 0 1-.719.72zm-7.187 0a.719.719 0 0 1-.72-.719v-1.3a.719.719 0 1 1 1.438 0v1.3a.719.719 0 0 1-.718.72z"/><path d="M17.97 34.422a.775.775 0 0 1-.107-.008c-.597-.09-3.637-.665-4.91-3.195a4.899 4.899 0 0 1-.514-2.347v-5.68a.717.717 0 0 1 .502-.685l4.811-1.521a.715.715 0 0 1 .434 0l4.812 1.52a.718.718 0 0 1 .502.686v5.698a4.869 4.869 0 0 1-.514 2.328c-1.273 2.53-4.314 3.107-4.91 3.196a.775.775 0 0 1-.107.008zm-4.093-10.704v5.172a3.506 3.506 0 0 0 .36 1.684c.9 1.786 3.16 2.298 3.732 2.4.573-.102 2.834-.614 3.732-2.4a3.47 3.47 0 0 0 .361-1.665v-5.19l-4.093-1.295-4.092 1.294z"/><path d="M17.673 29.432a.715.715 0 0 1-.508-.21l-1.484-1.484a.72.72 0 0 1 1.017-1.017l.975.976 2.291-2.29a.718.718 0 1 1 1.017 1.015l-2.8 2.8a.716.716 0 0 1-.508.21z"/></g><defs><clipPath id="bea"><path fill="#fff" transform="translate(11 11.422)" d="M0 0h23v23H0z"/></clipPath></defs></svg><svg viewBox="0 0 45 46" id="prices-icon-14" xmlns="http://www.w3.org/2000/svg"><rect y=".422" width="45" height="45" rx="5"/><g clip-path="url(#bfa)" fill="#fff"><path d="m31.048 20.368-.975-.165a8.076 8.076 0 0 0-.294-.71l.575-.803c.5-.702.42-1.65-.19-2.253l-1.171-1.172a1.738 1.738 0 0 0-2.249-.189l-.806.574a8.075 8.075 0 0 0-.758-.312l-.161-.955a1.745 1.745 0 0 0-1.727-1.46h-1.655c-.859 0-1.585.613-1.726 1.458l-.17.993c-.24.087-.475.187-.707.298l-.791-.57a1.733 1.733 0 0 0-1.02-.327c-.47 0-.91.182-1.237.514l-1.175 1.171a1.745 1.745 0 0 0-.189 2.253l.584.82a7.95 7.95 0 0 0-.29.713l-.956.161a1.745 1.745 0 0 0-1.46 1.727v1.655c0 .859.614 1.585 1.459 1.726l.993.17c.087.24.187.476.298.707l-.569.79c-.5.702-.42 1.65.19 2.253l1.171 1.172a1.738 1.738 0 0 0 2.249.189l.82-.584c.215.1.439.192.668.274l.163.976c.142.846.868 1.46 1.726 1.46h1.66c.858 0 1.584-.614 1.726-1.46l.165-.975c.242-.086.48-.185.71-.293l.8.572c.298.214.65.327 1.02.327.466 0 .905-.182 1.236-.514l1.172-1.172a1.745 1.745 0 0 0 .189-2.252l-.575-.808a8 8 0 0 0 .294-.708l.974-.163a1.745 1.745 0 0 0 1.46-1.726v-1.652c.01-.86-.6-1.587-1.45-1.73zm.28 3.382a.577.577 0 0 1-.482.57l-1.292.216a.632.632 0 0 0-.502.439 6.846 6.846 0 0 1-.468 1.129.631.631 0 0 0 .046.661l.761 1.07a.577.577 0 0 1-.063.744l-1.172 1.172a.566.566 0 0 1-.407.17.569.569 0 0 1-.336-.107l-1.065-.76a.631.631 0 0 0-.664-.047 6.905 6.905 0 0 1-1.13.468.631.631 0 0 0-.436.5l-.22 1.293a.577.577 0 0 1-.57.482h-1.66a.576.576 0 0 1-.57-.482l-.216-1.291a.632.632 0 0 0-.435-.502 6.864 6.864 0 0 1-1.094-.45.634.634 0 0 0-.66.047l-1.084.77a.566.566 0 0 1-.738-.065l-1.174-1.173a.572.572 0 0 1-.063-.74l.757-1.053a.63.63 0 0 0 .045-.67 6.693 6.693 0 0 1-.474-1.124.633.633 0 0 0-.498-.434l-1.31-.223a.577.577 0 0 1-.482-.57v-1.656c0-.284.203-.524.483-.571l1.276-.215a.631.631 0 0 0 .501-.441 6.81 6.81 0 0 1 .46-1.132.632.632 0 0 0-.046-.66l-.769-1.081a.576.576 0 0 1 .062-.744l1.176-1.172.005-.005a.561.561 0 0 1 .404-.166c.122 0 .238.036.334.105l1.057.761a.63.63 0 0 0 .67.045c.36-.192.738-.352 1.124-.474a.633.633 0 0 0 .434-.498l.223-1.31a.577.577 0 0 1 .57-.482h1.657c.283 0 .523.203.57.483l.215 1.276c.04.239.21.43.442.502.396.12.79.282 1.173.482a.632.632 0 0 0 .662-.045l1.072-.763a.566.566 0 0 1 .738.065l1.173 1.173c.2.199.226.511.062.742l-.762 1.066a.632.632 0 0 0-.045.663c.187.358.345.738.468 1.13a.631.631 0 0 0 .5.436l1.291.22h.001a.562.562 0 0 1 .475.562v1.664z"/><path d="M22.5 19.034a3.893 3.893 0 0 0-3.889 3.888 3.893 3.893 0 0 0 3.889 3.889 3.893 3.893 0 0 0 3.888-3.889 3.893 3.893 0 0 0-3.888-3.888zm0 6.605a2.72 2.72 0 0 1-2.717-2.717 2.72 2.72 0 0 1 2.717-2.717 2.72 2.72 0 0 1 2.717 2.717A2.72 2.72 0 0 1 22.5 25.64z"/></g><defs><clipPath id="bfa"><path fill="#fff" transform="translate(12.5 12.922)" d="M0 0h20v20H0z"/></clipPath></defs></svg><svg viewBox="0 0 45 46" id="prices-icon-15" xmlns="http://www.w3.org/2000/svg"><rect y=".422" width="45" height="45" rx="5"/><g clip-path="url(#bga)"><path d="m33.486 30.916-2.182-10.594a.655.655 0 0 0-.374-.466l-2.069-.924-1.12-4.407a.654.654 0 0 0-.386-.444l-4.606-1.89a.654.654 0 0 0-.497 0l-4.607 1.89a.655.655 0 0 0-.386.444l-1.12 4.407-2.069.924a.655.655 0 0 0-.374.466l-2.182 10.594a.655.655 0 0 0 .64.787h20.691a.655.655 0 0 0 .642-.787zm-14.471-.523.73-5.192 2.755-2.016 2.756 2.016.73 5.192h-6.971zm8.293 0-.794-5.648a.655.655 0 0 0-.262-.438l-3.365-2.461a.655.655 0 0 0-.774 0l-3.365 2.461a.655.655 0 0 0-.262.438l-.794 5.648h-4.734l1.953-9.478.785-.35-.244.886a.655.655 0 0 0 1.263.347l1.732-6.631 4.053-1.663 4.053 1.663.795 3.13-1.673-.693a.655.655 0 0 0-.5 1.21l4.914 2.1 1.953 9.48h-4.734z" fill="#fff"/></g><defs><clipPath id="bga"><path fill="#fff" transform="translate(11.5 10.922)" d="M0 0h22v22H0z"/></clipPath></defs></svg><svg viewBox="0 0 45 46" id="prices-icon-16" xmlns="http://www.w3.org/2000/svg"><rect y=".422" width="45" height="45" rx="5"/><g clip-path="url(#bha)" fill="#fff"><path d="M16.25 14.719h8.802a.488.488 0 1 0 0-.977h-8.803a2.994 2.994 0 0 0-2.99 2.991v1.897a4.893 4.893 0 0 0 4.888 4.888 4.91 4.91 0 0 0 3.937-1.991.537.537 0 0 1 .436-.22c.175 0 .335.08.437.22a4.91 4.91 0 0 0 3.937 1.991 4.893 4.893 0 0 0 4.888-4.888v-1.897a2.97 2.97 0 0 0-.876-2.115 2.97 2.97 0 0 0-2.115-.876h-.02a.488.488 0 0 0-.489.489v.006a.488.488 0 0 0 .565.483 2 2 0 0 1 1.368.589c.38.38.59.886.59 1.424v1.897a3.916 3.916 0 0 1-3.91 3.911 3.928 3.928 0 0 1-3.151-1.594 1.505 1.505 0 0 0-1.224-.616c-.488 0-.934.224-1.223.616a3.929 3.929 0 0 1-3.15 1.594 3.916 3.916 0 0 1-3.912-3.91v-1.898c0-1.11.904-2.014 2.014-2.014zm4.216 14.814a.488.488 0 1 0 0 .977h4.11a.488.488 0 1 0 0-.977h-4.11zm1.207-.687h1.696a.488.488 0 0 0 0-.976h-1.696a.488.488 0 0 0 0 .976zm1.697 2.367h-1.697a.488.488 0 0 0 0 .977h1.696a.488.488 0 0 0 0-.977z"/><path d="M34.512 15.081h-.791a5.12 5.12 0 0 0-1.669-2.421 5.104 5.104 0 0 0-3.179-1.115H16.168a5.104 5.104 0 0 0-3.18 1.115 5.12 5.12 0 0 0-1.667 2.421h-.833a.488.488 0 0 0-.488.488v4.33c0 .27.219.489.488.489h.8a6.765 6.765 0 0 0 1.049 2.264.488.488 0 1 0 .796-.566 5.81 5.81 0 0 1-.832-1.698h.007a.504.504 0 0 0 .042-.003h.005a.627.627 0 0 0 .044-.008h.002a.488.488 0 0 0 .383-.477v-4.33a.494.494 0 0 0-.427-.485 4.143 4.143 0 0 1 1.242-1.663 4.07 4.07 0 0 1 2.57-.9h12.704a4.07 4.07 0 0 1 2.569.9c.549.44.977 1.015 1.24 1.66a.494.494 0 0 0-.467.487v4.33c0 .27.219.489.489.489h.035a5.872 5.872 0 0 1-5.617 4.172h-2.511c-.175 0-.344.008-.489-.111-.374-.31-.956-.68-1.602-.68-.645 0-1.226.37-1.6.68-.146.119-.314.111-.49.111h-2.51a5.84 5.84 0 0 1-2.096-.385.489.489 0 0 0-.348.912 6.8 6.8 0 0 0 2.444.45h2.024v1.158a4.282 4.282 0 0 0-1.325 1.688h-1.75v-.254a.866.866 0 0 0-.864-.864h-1.497a.488.488 0 0 0-.485.434l-.49 4.413a.487.487 0 0 0 .486.542h1.986a.866.866 0 0 0 .864-.865v-.112h1.708a4.263 4.263 0 0 0 3.945 2.658c1.781 0 3.31-1.1 3.944-2.658h1.747v.112c0 .477.388.865.865.865h1.986a.488.488 0 0 0 .486-.542l-.49-4.413a.488.488 0 0 0-.485-.434h-1.497a.866.866 0 0 0-.865.864v.254h-1.788a4.28 4.28 0 0 0-1.325-1.688v-1.158h2.023a6.848 6.848 0 0 0 6.63-5.149h.76c.27 0 .488-.219.488-.488v-4.33a.488.488 0 0 0-.488-.489zm-23.535.977h.831v3.353h-.831v-3.353zm4.915 15.62h-1.329l.381-3.437h.948v3.437zm2.418-.977h-1.442v-1.342h1.458l-.004.023c-.008.05-.016.1-.022.15-.05.387-.047.782.01 1.169zm11.827-2.46.38 3.437H29.19v-3.437h.948zm-3.42 1.118h1.495v1.342h-1.48c.065-.444.06-.9-.016-1.342zm-1.069-.267c.185.584.2 1.217.048 1.81a3.286 3.286 0 0 1-3.175 2.457 3.285 3.285 0 0 1-3.175-2.457 3.3 3.3 0 0 1 .178-2.155 3.312 3.312 0 0 1 1.14-1.37 3.264 3.264 0 0 1 1.874-.577 3.3 3.3 0 0 1 1.913.63 3.309 3.309 0 0 1 1.197 1.662zm-1.682-3.016a4.276 4.276 0 0 0-3.047.059v-.605c0-.03.005-.032.035-.04.028-.007.057-.01.085-.018.312-.093.652-.401.856-.52.172-.101.366-.187.567-.204.19-.015.379.048.548.13.114.056.573.427.973.587.035.015.088.014.122.03.023.012.017.09.017.126v.514a4.055 4.055 0 0 0-.156-.06zm10.057-6.665h-.831v-3.353h.831v3.354z"/><path d="M13.595 23.978a.493.493 0 0 0 .532.2.494.494 0 0 0 .36-.424.493.493 0 0 0-.27-.485.493.493 0 0 0-.562.092.493.493 0 0 0-.06.617zm12.926-9.476a.493.493 0 0 0 .525.202.494.494 0 0 0 .366-.418.492.492 0 0 0-.269-.493.493.493 0 0 0-.56.092.493.493 0 0 0-.062.617z"/></g><defs><clipPath id="bha"><path fill="#fff" transform="translate(10 10.422)" d="M0 0h25v25H0z"/></clipPath></defs></svg><svg viewBox="0 0 45 46" id="prices-icon-17" xmlns="http://www.w3.org/2000/svg"><rect y=".422" width="45" height="45" rx="5"/><g clip-path="url(#bia)" fill="#fff"><path d="M15.6 11.422a3.454 3.454 0 0 0-3.45 3.45 3.453 3.453 0 0 0 3.45 3.45 3.454 3.454 0 0 0 3.45-3.45 3.454 3.454 0 0 0-3.45-3.45zm0 5.75a2.3 2.3 0 1 1 0-4.6 2.3 2.3 0 0 1 0 4.6zm17.25 0h-11.5a1.15 1.15 0 0 0-1.15 1.15v.878l1.15.575v-1.453h11.5v9.2h-11.5v-1.368l-1.15-.287v1.654c0 .635.515 1.15 1.15 1.15h4.735l-2.928 4.88a.574.574 0 1 0 .986.59l2.382-3.97v3.675a.575.575 0 1 0 1.15 0v-3.674l2.382 3.969a.575.575 0 1 0 .986-.591l-2.928-4.88h4.735A1.15 1.15 0 0 0 34 27.52v-9.198a1.15 1.15 0 0 0-1.15-1.15z"/><path d="M31.102 20.463a.57.57 0 0 0-.71-.393l-7.096 2.027a1.146 1.146 0 0 0-.282-.204l-4.6-2.3a1.153 1.153 0 0 0-.514-.121h-4.6a1.15 1.15 0 0 0-1.132.944l-1.15 6.325a1.15 1.15 0 0 0 1.132 1.355h.735l.419 5.266a1.15 1.15 0 0 0 1.146 1.059h2.3a1.15 1.15 0 0 0 1.143-1.023l1.005-9.042 3.323.831a1.148 1.148 0 0 0 .986-.21 1.15 1.15 0 0 0 .443-.906v-.88l7.058-2.017a.574.574 0 0 0 .394-.71zM22.5 24.072l-4.6-1.15-1.15 10.35h-2.3l-.503-6.326H12.15l1.15-6.324h1.725v3.498a.575.575 0 1 0 1.15 0v-3.498H17.9l4.6 2.3v1.15z"/></g><defs><clipPath id="bia"><path fill="#fff" transform="translate(11 11.422)" d="M0 0h23v23H0z"/></clipPath></defs></svg><svg viewBox="0 0 45 46" id="prices-icon-18" xmlns="http://www.w3.org/2000/svg"><rect y=".422" width="45" height="45" rx="5"/><g clip-path="url(#bja)" fill="#fff"><path d="M31.545 13.842h-18.09c-.802 0-1.455.652-1.455 1.454V27.57c0 .802.653 1.455 1.455 1.455h10.549l-.319 1.942c-.06.366.061.697.324.886.262.189.614.2.942.026l2.276-1.198a.479.479 0 0 1 .302 0l2.276 1.198c.156.082.317.123.472.123.17 0 .333-.05.471-.15.262-.188.383-.52.324-.885l-.319-1.942h.793c.801 0 1.454-.653 1.454-1.455V15.296c0-.802-.653-1.454-1.455-1.454zm-4.167 12.69a2.538 2.538 0 0 1-2.535-2.536 2.538 2.538 0 0 1 2.535-2.535 2.538 2.538 0 0 1 2.535 2.535 2.538 2.538 0 0 1-2.535 2.535zm.732 3.046a1.683 1.683 0 0 0-1.463 0l-1.61.847.512-3.12a3.758 3.758 0 0 0 1.83.473 3.76 3.76 0 0 0 1.829-.473l.2 1.216v.006l.311 1.898-1.609-.847zm3.643-2.008a.21.21 0 0 1-.208.208h-.996l-.228-1.39a.042.042 0 0 0-.004-.015c.527-.65.843-1.477.843-2.377a3.786 3.786 0 0 0-3.782-3.782 3.786 3.786 0 0 0-3.782 3.782c0 .9.317 1.727.843 2.377l-.003.016-.228 1.39-.02-.001H13.454a.21.21 0 0 1-.208-.208V15.296a.21.21 0 0 1 .208-.207h18.09a.21.21 0 0 1 .208.207V27.57z"/><path d="M29.34 17.43H15.21a.623.623 0 0 0 0 1.246h14.13a.623.623 0 1 0 0-1.247zm-8.145 3.38H15.21a.623.623 0 1 0 0 1.247h5.985a.623.623 0 1 0 0-1.247z"/></g><defs><clipPath id="bja"><path fill="#fff" transform="translate(12 12.422)" d="M0 0h21v21H0z"/></clipPath></defs></svg><svg viewBox="0 0 45 46" id="prices-icon-2" xmlns="http://www.w3.org/2000/svg"><rect y=".422" width="45" height="45" rx="5"/><g clip-path="url(#bka)" fill="#fff"><path d="M34.768 8.284h-3.181a.527.527 0 0 0-.527.528v4.43a6.988 6.988 0 0 0-2.764-.565H17.51a7 7 0 0 0-7 7.1c.053 3.81 3.19 6.897 7 6.897h.038a7.005 7.005 0 0 0 5.23-2.39.167.167 0 0 1 .25 0 7.004 7.004 0 0 0 5.229 2.39h.038a6.95 6.95 0 0 0 2.764-.572v1.878a2.124 2.124 0 0 1-2.124 2.12h-2.531a2.11 2.11 0 0 0-1.886-1.166h-3.197a2.11 2.11 0 0 0-1.885 1.165h-2.93a.527.527 0 0 0-.527.528v3.177c0 .291.236.527.527.527h3.05a2.11 2.11 0 0 0 1.765.953h3.199a2.11 2.11 0 0 0 1.763-.953h3.184a5.831 5.831 0 0 0 5.83-5.822V8.812a.527.527 0 0 0-.527-.528h-.002zM32.114 9.34h2.127v6.636a7.11 7.11 0 0 0-2.127-2.17V9.34zm-3.85 16.28a5.95 5.95 0 0 1-4.44-2.03 1.222 1.222 0 0 0-1.839 0 5.948 5.948 0 0 1-4.44 2.03h-.033c-3.236 0-5.9-2.622-5.947-5.858a5.945 5.945 0 0 1 5.945-6.03h10.786a5.945 5.945 0 0 1 5.945 6.03c-.046 3.237-2.71 5.859-5.945 5.859h-.031zm5.977-2.26v4.093h-2.127v-1.92a7.083 7.083 0 0 0 2.127-2.173zm-4.551 7.706c.372-.09.724-.248 1.04-.464l1.67 1.668a4.757 4.757 0 0 1-2.711 1.002v-2.207zM17.034 33.28v-2.126h2.178v2.123l-2.178.003zm8.539-.105c0 .582-.472 1.055-1.055 1.055h-3.197a1.055 1.055 0 0 1-1.055-1.055v-2.131c0-.583.473-1.055 1.055-1.055h3.199c.582 0 1.055.472 1.055 1.055l-.002 2.13zm1.055 0v-2.021h2.007v2.123h-2.01l.003-.102zm6.528-1.644-1.666-1.664a3.16 3.16 0 0 0 .58-1.36h2.17a4.74 4.74 0 0 1-1.084 3.024z"/><path d="M23.98 31.582h-2.122a.527.527 0 0 0 0 1.055h2.121a.527.527 0 0 0 0-1.055zm4.42-16.361H17.407a4.453 4.453 0 0 0 0 8.907c1.259 0 2.597-.995 3.574-1.723l.374-.276a2.602 2.602 0 0 1 3.101-.005c.144.103.299.217.465.34.998.742 2.242 1.664 3.48 1.664a4.453 4.453 0 1 0 0-8.907H28.4zm0 7.853c-.888 0-2.023-.844-2.85-1.456-.167-.124-.325-.24-.473-.346a3.652 3.652 0 0 0-4.347.008c-.118.085-.245.18-.379.28-.858.638-2.035 1.514-2.944 1.514a3.399 3.399 0 0 1 0-6.798H28.4a3.399 3.399 0 0 1 0 6.798z"/></g><defs><clipPath id="bka"><path fill="#fff" transform="translate(9.403 8.284)" d="M0 0h27v27H0z"/></clipPath></defs></svg><svg viewBox="0 0 45 46" id="prices-icon-3" xmlns="http://www.w3.org/2000/svg"><rect y=".422" width="45" height="45" rx="5"/><g clip-path="url(#bla)" fill="#fff"><path d="M35.509 24.544v-8.455a4.063 4.063 0 0 0-4.059-4.058h-1.88a1.683 1.683 0 0 0-1.651-1.376c-.823 0-1.508.594-1.653 1.376h-.654a.527.527 0 0 0 0 1.054h.803c.199.397.55.705.976.846v.68a4.138 4.138 0 0 0-3.568 3.568H22.5a4.138 4.138 0 0 0-3.568-3.569v-.679a1.69 1.69 0 0 0 .976-.846h.803a.527.527 0 1 0 0-1.055h-.654a1.683 1.683 0 0 0-1.652-1.375c-.823 0-1.509.594-1.653 1.376h-1.88a4.063 4.063 0 0 0-4.058 4.058v8.454a1.683 1.683 0 0 0-1.153 1.596c0 .926.754 1.68 1.68 1.68.927 0 1.681-.754 1.681-1.68 0-.743-.484-1.374-1.153-1.595v-8.455a3.008 3.008 0 0 1 3.004-3.004h2.028c.198.397.55.705.976.846v.679a4.08 4.08 0 0 0-.93.232.527.527 0 0 0 .375.986c.346-.131.71-.198 1.082-.198a3.08 3.08 0 0 1 3.077 3.076v5.752h-6.153v-5.752c0-.207.021-.415.063-.618a.527.527 0 1 0-1.033-.213 4.123 4.123 0 0 0-.084.831v14.739c0 .81.658 1.468 1.468 1.468h5.325a1.47 1.47 0 0 0 1.468-1.468v-.712h1.252v.712c0 .81.659 1.468 1.468 1.468h5.325a1.47 1.47 0 0 0 1.469-1.468V18.706a4.136 4.136 0 0 0-3.604-4.096v-.679a1.69 1.69 0 0 0 .976-.846h2.028a3.008 3.008 0 0 1 3.004 3.004v8.455a1.683 1.683 0 0 0-1.153 1.595c0 .926.754 1.68 1.68 1.68.927 0 1.681-.754 1.681-1.68 0-.743-.484-1.374-1.153-1.595zm-24.166 2.22a.627.627 0 0 1 0-1.251.627.627 0 0 1 0 1.252zm7.063-15.054a.627.627 0 0 1 0 1.252h-.001a.626.626 0 0 1 0-1.252zm9.513 0a.626.626 0 0 1 0 1.252.626.626 0 0 1 0-1.252zm3.076 15.055h-6.152v-1.252h6.152v1.252zm-8.459-5.225h1.252v7.832h-1.252V21.54zm1.252-1.055h-1.252v-1.251h1.252v1.251zm-2.306 5.028v1.252h-6.153v-1.252h6.153zm0 7.932a.414.414 0 0 1-.414.413h-5.325a.414.414 0 0 1-.414-.413v-5.626h6.153v5.626zm1.054-1.767v-1.251h1.252v1.251h-1.252zm8.045 2.18h-5.325a.414.414 0 0 1-.413-.413v-5.626h6.152v5.626a.414.414 0 0 1-.414.413zm.414-15.152v5.752h-6.152v-5.752a3.08 3.08 0 0 1 3.076-3.076 3.08 3.08 0 0 1 3.076 3.076zm3.986 8.059a.627.627 0 0 1 0-1.252.626.626 0 0 1 0 1.252z"/><path d="M15.127 17.124a.525.525 0 0 0 .733-.139l.013-.02a.527.527 0 1 0-.867-.6l-.018.027a.527.527 0 0 0 .14.732zM29.94 32.276h-2.164a.527.527 0 0 0 0 1.055h2.164a.527.527 0 0 0 0-1.055zm-3.679 0h-.012a.527.527 0 1 0 0 1.055h.012a.527.527 0 1 0 0-1.055z"/></g><defs><clipPath id="bla"><path fill="#fff" transform="translate(9.662 9.284)" d="M0 0h27v27H0z"/></clipPath></defs></svg><svg viewBox="0 0 45 46" id="prices-icon-4" xmlns="http://www.w3.org/2000/svg"><rect y=".422" width="45" height="45" rx="5"/><g clip-path="url(#bma)"><path d="M30.067 11.284H17.683a2.787 2.787 0 0 0-2.78 2.768v16.464a2.787 2.787 0 0 0 2.78 2.768h12.391c.34.005.669-.126.912-.364.232-.238.361-.558.361-.89V12.564a1.283 1.283 0 0 0-1.28-1.28zm-5.495 1.048h3.077v4.913l-1.092-1.742a.523.523 0 0 0-.898 0l-1.087 1.734v-4.905zm-8.609 1.72a1.728 1.728 0 0 1 1.72-1.72h5.841v5.343a.945.945 0 0 0 .652.942c.461.14.875-.16 1.121-.552l.815-1.31.814 1.31c.244.387.658.686 1.132.552a.945.945 0 0 0 .652-.937v-5.335h1.364a.222.222 0 0 1 .22.22v15.19a1.277 1.277 0 0 0-.22-.018h-12.39a2.76 2.76 0 0 0-1.72.6V14.053zm14.331 15.945-12.076.013a.524.524 0 0 0 0 1.048l12.076-.013v.974a.222.222 0 0 1-.063.157.223.223 0 0 1-.157.063h-12.39a1.722 1.722 0 1 1 0-3.444h12.39c.121.002.219.1.22.22v.982z" fill="#fff"/></g><defs><clipPath id="bma"><path fill="#fff" transform="translate(12.125 11.284)" d="M0 0h22v22H0z"/></clipPath></defs></svg><svg viewBox="0 0 45 46" id="prices-icon-5" xmlns="http://www.w3.org/2000/svg"><rect y=".422" width="45" height="45" rx="5"/><g clip-path="url(#bna)"><path d="M33.5 22.91a10.897 10.897 0 0 0-3.213-7.771 10.905 10.905 0 0 0-7.762-3.212h-.013a10.955 10.955 0 0 0-7.782 3.229l-.03.031-.007.007-.012.013a10.944 10.944 0 0 0-3.181 7.727 10.896 10.896 0 0 0 3.19 7.748l.005.006.004.004.014.014a10.905 10.905 0 0 0 7.762 3.212h.013a10.953 10.953 0 0 0 7.73-3.18c.005-.004.01-.007.013-.011l.007-.008.032-.03a10.946 10.946 0 0 0 3.23-7.778zm-3.737 6.439-2.625-2.625a6.035 6.035 0 0 0 .016-7.543l2.662-2.662a9.612 9.612 0 0 1 2.396 6.39 9.657 9.657 0 0 1-2.449 6.44zm-10.671-3.055a4.743 4.743 0 0 1 0-6.702 4.728 4.728 0 0 1 3.352-1.386 4.73 4.73 0 0 1 3.353 1.386 4.743 4.743 0 0 1 0 6.702 4.748 4.748 0 0 1-6.705 0zm3.421-13.08h.012a9.62 9.62 0 0 1 6.38 2.395l-2.658 2.657a5.984 5.984 0 0 0-3.803-1.35 5.98 5.98 0 0 0-3.783 1.335l-2.59-2.59a9.665 9.665 0 0 1 6.442-2.447zm-7.348 3.363 2.585 2.584a6.035 6.035 0 0 0 0 7.563l-2.583 2.583a9.612 9.612 0 0 1-2.38-6.372 9.657 9.657 0 0 1 2.378-6.358zm7.322 16.054h-.012a9.62 9.62 0 0 1-6.4-2.412l2.586-2.584a5.983 5.983 0 0 0 3.783 1.334c1.394 0 2.715-.47 3.784-1.334l2.62 2.62a9.664 9.664 0 0 1-6.361 2.376z" fill="#fff"/></g><defs><clipPath id="bna"><path fill="#fff" transform="translate(11.5 11.922)" d="M0 0h22v22H0z"/></clipPath></defs></svg><svg viewBox="0 0 45 46" id="prices-icon-6" xmlns="http://www.w3.org/2000/svg"><rect y=".422" width="45" height="45" rx="5"/><path d="M14.414 23.596h16.172a.674.674 0 0 0 .674-.674v-1.348c0-4.854-3.955-8.76-8.76-8.76-4.798 0-8.76 3.9-8.76 8.76v1.348c0 .372.302.674.674.674zm15.498-2.021v.673h-5.39v-7.805c3.107.882 5.39 3.745 5.39 7.132zm-6.738-7.382v8.055h-1.348v-8.055a7.468 7.468 0 0 1 1.348 0zm-8.086 7.382c0-3.387 2.283-6.25 5.39-7.132v7.805h-5.39v-.674zm18.238 3.369H11.674a.674.674 0 0 0-.674.673v2.696c0 .372.302.674.674.674h2.147c.384 2.145 2.135 3.918 4.383 4.036a4.705 4.705 0 0 0 3.755-1.55.728.728 0 0 1 .541-.252c.202 0 .395.09.541.252a4.705 4.705 0 0 0 3.755 1.55c2.248-.118 3.999-1.891 4.383-4.037h2.147a.674.674 0 0 0 .674-.673v-2.696a.674.674 0 0 0-.674-.673zM12.348 26.29h1.392v1.348h-1.392V26.29zm14.377 5.386c-1.021.054-2-.35-2.684-1.107a2.086 2.086 0 0 0-1.541-.697c-.58 0-1.142.254-1.541.697a3.362 3.362 0 0 1-2.684 1.107c-1.758-.092-3.187-1.704-3.187-3.593V26.29h14.824v1.793c0 1.89-1.43 3.501-3.187 3.593zm5.927-4.038H31.26V26.29h1.392v1.348z" fill="#fff"/></svg><svg viewBox="0 0 45 46" id="prices-icon-7" xmlns="http://www.w3.org/2000/svg"><rect y=".422" width="45" height="45" rx="5"/><g clip-path="url(#bpa)" fill="#fff"><path d="m25.674 31.999-1.795-8.967a68.424 68.424 0 0 1-.243-5.702v-2.511a5.392 5.392 0 0 0-5.19-5.397c-.006 0-.011.003-.018.003-.006 0-.01-.003-.016-.003a5.38 5.38 0 0 0-5.19 5.396v2.512c0 1.862-.082 3.78-.243 5.702l-1.795 8.967a.515.515 0 0 0-.008.051 4.033 4.033 0 0 0 4.013 4.372c.009 0 .016-.004.024-.005a.437.437 0 0 0 .13-.026c.01-.003.019-.005.028-.009a.443.443 0 0 0 .13-.087c.008-.008.013-.017.02-.026a.462.462 0 0 0 .055-.066l.735-1.232c.258-.44 1.12-.745 2.122-.732.995-.015 1.856.293 2.115.735l.733 1.229c.018.029.04.055.063.08l.007.008a.44.44 0 0 0 .126.086l.035.014c.05.02.102.03.155.031a3.99 3.99 0 0 0 2.356-.759.443.443 0 0 0 .045-.038 4.032 4.032 0 0 0 1.076-1.203.47.47 0 0 0 .034-.053 4.037 4.037 0 0 0 .496-2.37zm-7.241 1.34c-1.05-.012-2.381.295-2.897 1.174l-.135.225a8.365 8.365 0 0 1-.059-1.016 7.265 7.265 0 0 1 1.779-4.418 1.74 1.74 0 0 1 1.308-.581 1.74 1.74 0 0 1 1.308.58 7.268 7.268 0 0 1 1.779 4.42c0 .338-.02.676-.061 1.013l-.132-.22c-.517-.882-1.825-1.184-2.89-1.177zm3.817 2.125a9.06 9.06 0 0 0 .166-1.742 8.132 8.132 0 0 0-2.005-5.015 2.64 2.64 0 0 0-1.98-.884 2.642 2.642 0 0 0-1.98.884 8.133 8.133 0 0 0-2.009 5.015c0 .586.055 1.17.167 1.745a3.132 3.132 0 0 1-2.538-3.316l1.795-8.967a.514.514 0 0 0 .007-.05c.166-1.956.25-3.908.25-5.805v-2.51a4.48 4.48 0 0 1 4.305-4.497 4.49 4.49 0 0 1 4.307 4.495v2.512c0 1.894.084 3.847.25 5.805a.595.595 0 0 0 .007.05l1.794 8.967c.047.6-.08 1.202-.366 1.732a.49.49 0 0 0-.03.045 3.124 3.124 0 0 1-.892.999.363.363 0 0 0-.039.032 3.063 3.063 0 0 1-1.21.505z"/><path d="M21.578 16.169c0-2.482-1.413-4.5-3.15-4.5-1.737 0-3.15 2.019-3.15 4.5 0 2.48 1.414 4.5 3.15 4.5 1.737 0 3.15-2.019 3.15-4.5zm-3.15 3.6c-1.22 0-2.25-1.65-2.25-3.6 0-1.952 1.03-3.6 2.25-3.6s2.25 1.648 2.25 3.6c0 1.95-1.03 3.6-2.25 3.6zM33.842 32l-1.797-8.968a68.501 68.501 0 0 1-.243-5.702v-2.511a5.379 5.379 0 0 0-5.19-5.397c-.006 0-.01.003-.016.003s-.011-.003-.017-.003a5.345 5.345 0 0 0-3.114 1.14.45.45 0 1 0 .556.708 4.441 4.441 0 0 1 2.576-.948 4.48 4.48 0 0 1 4.307 4.495v2.512c0 1.897.084 3.849.25 5.805a.367.367 0 0 0 .007.05l1.794 8.967a3.132 3.132 0 0 1-2.536 3.316c.11-.575.165-1.16.164-1.745a8.063 8.063 0 0 0-2.006-5.015 2.63 2.63 0 0 0-2.333-.86.45.45 0 1 0 .12.893 1.731 1.731 0 0 1 1.538.564 7.254 7.254 0 0 1 1.781 4.418c0 .339-.02.677-.06 1.014l-.132-.22c-.401-.682-1.379-1.12-2.615-1.17a.442.442 0 0 0-.469.43.45.45 0 0 0 .431.469c.889.037 1.642.33 1.878.73l.734 1.23a.413.413 0 0 0 .058.074c.005.004.008.01.013.015a.444.444 0 0 0 .123.084l.037.015c.05.019.103.029.156.03a4.033 4.033 0 0 0 4.005-4.424z"/><path d="M26.597 11.668a2.733 2.733 0 0 0-2.182 1.242.45.45 0 0 0 .726.532 1.864 1.864 0 0 1 1.456-.874c1.22 0 2.25 1.649 2.25 3.6s-1.03 3.6-2.25 3.6a1.732 1.732 0 0 1-1.24-.616.45.45 0 0 0-.661.61 2.61 2.61 0 0 0 1.9.907c1.738 0 3.15-2.019 3.15-4.5 0-2.48-1.413-4.5-3.15-4.5zm-9.934 9.913a.453.453 0 0 0-.54.338l-1.35 5.85a.451.451 0 0 0 .877.204l1.35-5.85a.45.45 0 0 0-.337-.542zm3.937.338a.45.45 0 0 0-.877.202l1.35 5.85a.45.45 0 1 0 .878-.2l-1.35-5.852zm8.01-.338a.45.45 0 0 0-.337.54l1.35 5.85a.45.45 0 1 0 .878-.2l-1.35-5.85a.453.453 0 0 0-.54-.34z"/></g><defs><clipPath id="bpa"><path fill="#fff" transform="translate(9 9.422)" d="M0 0h27v27H0z"/></clipPath></defs></svg><svg viewBox="0 0 45 46" id="prices-icon-8" xmlns="http://www.w3.org/2000/svg"><rect y=".422" width="45" height="45" rx="5"/><g clip-path="url(#bqa)" fill="#fff"><path d="M24.434 30.33h-1.29v1.338h1.29v-1.339z"/><path d="M31.745 16.538c-.907-2.194-3.043-3.656-5.378-3.656h-5.156c-2.334 0-4.471 1.462-5.378 3.656a4.6 4.6 0 0 0-.466.431V11.5H11.5v14.145c0 4.06 3.18 7.363 7.09 7.363h2.623c.588.812 1.524 1.338 2.576 1.338 1.777 0 3.223-1.501 3.223-3.346 0-1.846-1.446-3.347-3.223-3.347-1.052 0-1.988.526-2.576 1.339H18.59c-1.777 0-3.223-1.502-3.223-3.347V23.52c.82.87 1.961 1.41 3.223 1.41h1.289c.42 0 .829-.06 1.216-.17a3.186 3.186 0 0 0 2.694 1.509c1.099 0 2.1-.573 2.69-1.501.375.105.77.162 1.177.162h1.332c2.488 0 4.512-2.102 4.512-4.685a4.745 4.745 0 0 0-1.755-3.707zm-7.956 12.453c1.066 0 1.934.9 1.934 2.008 0 1.107-.868 2.008-1.934 2.008-1.066 0-1.934-.901-1.934-2.008 0-1.108.868-2.008 1.934-2.008zm-11-16.153h1.29v6.738h-1.29v-6.738zm0 8.076h1.335c.066.473.2.922.39 1.339h-1.725v-1.339zm5.8 9.415h2.042a3.477 3.477 0 0 0 0 1.339H18.59c-3.199 0-5.8-2.702-5.8-6.024v-2.053h1.288v2.053c0 2.583 2.024 4.685 4.512 4.685zm2.622-16.108h5.156c1.23 0 2.39.519 3.23 1.381a4.376 4.376 0 0 0-.609-.042H18.59c-.207 0-.41.014-.61.042.841-.862 2-1.381 3.23-1.381zm-1.332 9.37h-1.29c-1.776 0-3.222-1.5-3.222-3.346s1.446-3.347 3.223-3.347h4.555v3.347c0 1.845-1.465 3.346-3.266 3.346zm3.91 1.34a1.902 1.902 0 0 1-1.485-.722 4.664 4.664 0 0 0 1.482-1.559 4.642 4.642 0 0 0 1.481 1.568 1.901 1.901 0 0 1-1.478.712zm5.2-1.34h-1.333c-1.777 0-3.222-1.5-3.222-3.346v-3.347h4.554c1.777 0 3.223 1.502 3.223 3.347s-1.446 3.346-3.223 3.346z"/></g><defs><clipPath id="bqa"><path fill="#fff" transform="translate(11.5 11.499)" d="M0 0h22v22.846H0z"/></clipPath></defs></svg><svg viewBox="0 0 45 46" id="prices-icon-9" xmlns="http://www.w3.org/2000/svg"><rect y=".422" width="45" height="45" rx="5"/><path d="M32.011 14.89h-3.22l-.375-1.171a2.843 2.843 0 0 0-.996-1.415 2.66 2.66 0 0 0-1.603-.538h-4.634a2.66 2.66 0 0 0-1.602.539c-.466.35-.815.845-.996 1.414l-.376 1.172h-3.22c-.726 0-1.422.302-1.936.836a2.918 2.918 0 0 0-.803 2.017v11.484c.002.756.29 1.48.804 2.015.514.534 1.21.835 1.935.835h17.025a2.688 2.688 0 0 0 1.934-.837 2.92 2.92 0 0 0 .802-2.016V17.741a2.918 2.918 0 0 0-.804-2.015 2.687 2.687 0 0 0-1.935-.835zm1.239 14.335c0 .342-.131.67-.363.912a1.216 1.216 0 0 1-.876.379H14.989c-.329 0-.643-.137-.876-.379a1.32 1.32 0 0 1-.363-.912V17.741a1.32 1.32 0 0 1 .364-.91c.233-.241.547-.377.875-.378h3.761a.73.73 0 0 0 .439-.147.78.78 0 0 0 .272-.387l.547-1.709c.082-.257.24-.48.45-.638.212-.159.465-.244.725-.244h4.634c.26 0 .514.085.724.244.212.158.37.382.451.64l.547 1.707a.78.78 0 0 0 .272.387.73.73 0 0 0 .439.147h3.761c.328 0 .643.137.876.379.232.242.363.57.363.912v11.481z" fill="#fff"/><path d="M23.5 17.235c-1.113 0-2.2.343-3.125.987a5.814 5.814 0 0 0-2.072 2.63 6.086 6.086 0 0 0-.32 3.385 5.94 5.94 0 0 0 1.54 3 5.56 5.56 0 0 0 2.88 1.604 5.417 5.417 0 0 0 3.25-.334 5.681 5.681 0 0 0 2.524-2.158 6.034 6.034 0 0 0 .948-3.255 5.992 5.992 0 0 0-1.65-4.141 5.52 5.52 0 0 0-3.975-1.718zm0 10.156a4.008 4.008 0 0 1-2.292-.724 4.263 4.263 0 0 1-1.519-1.929 4.463 4.463 0 0 1-.235-2.482c.16-.834.552-1.6 1.13-2.2a4.077 4.077 0 0 1 2.111-1.176c.8-.166 1.63-.081 2.384.244a4.166 4.166 0 0 1 1.85 1.583c.454.706.696 1.537.696 2.387a4.394 4.394 0 0 1-1.21 3.037 4.048 4.048 0 0 1-2.915 1.26zm7.5-7.813c.414 0 .75-.35.75-.78 0-.432-.336-.782-.75-.782s-.75.35-.75.781c0 .432.336.781.75.781z" fill="#fff"/></svg><svg fill="none" viewBox="0 0 18 19" id="schedule-calendar" xmlns="http://www.w3.org/2000/svg"><g clip-path="url(#bsa)" fill="#CACACA"><path d="M4.557 4.565H4.8c.37 0 .67-.317.67-.709V1.17c0-.39-.3-.708-.67-.708h-.243c-.37 0-.67.317-.67.708v2.687c0 .392.3.709.67.709zm8.583-.018h.243c.37 0 .67-.317.67-.708V1.152c0-.391-.3-.709-.67-.709h-.243c-.37 0-.67.318-.67.709v2.687c0 .391.3.708.67.708z"/><path d="M16.314 1.9h-1.717v2.124c0 .709-.544 1.1-1.213 1.1h-.244c-.668 0-1.213-.577-1.213-1.285V1.9H6.013v1.955c0 .709-.544 1.285-1.213 1.285h-.243c-.67 0-1.214-.576-1.214-1.285V1.901H1.49c-.6 0-1.088.517-1.088 1.152v13.92c0 .635.488 1.152 1.088 1.152h14.824c.6 0 1.088-.517 1.088-1.152V3.053c0-.635-.488-1.152-1.088-1.152zm0 15.073H1.49V6.46h14.825v10.512z"/><path d="M9.464 9.987h1.954c.077 0 .14-.067.14-.149v-1.79a.145.145 0 0 0-.14-.15H9.464a.145.145 0 0 0-.14.15v1.79c0 .082.063.149.14.149zm3.188 0h1.954c.077 0 .14-.067.14-.149v-1.79a.145.145 0 0 0-.14-.15h-1.954a.145.145 0 0 0-.14.15v1.79c0 .082.063.149.14.149zM3.087 12.92h1.954c.077 0 .14-.067.14-.15v-1.79a.145.145 0 0 0-.14-.149H3.087a.145.145 0 0 0-.14.149v1.79c0 .083.063.15.14.15zm3.189 0h1.953c.078 0 .14-.067.14-.15v-1.79a.145.145 0 0 0-.14-.149H6.276a.145.145 0 0 0-.14.149v1.79c0 .083.063.15.14.15zm3.188 0h1.954c.077 0 .14-.067.14-.15v-1.79a.144.144 0 0 0-.14-.149H9.464a.145.145 0 0 0-.14.149v1.79c0 .083.063.15.14.15zm3.188 0h1.954c.077 0 .14-.067.14-.15v-1.79a.145.145 0 0 0-.14-.149h-1.954a.145.145 0 0 0-.14.149v1.79c0 .083.063.15.14.15zm-7.61.843H3.088a.145.145 0 0 0-.14.149v1.791c0 .082.063.149.14.149h1.954c.077 0 .14-.067.14-.149v-1.791a.145.145 0 0 0-.14-.149zm3.188 0H6.275a.145.145 0 0 0-.14.149v1.791c0 .082.063.149.14.149h1.953c.078 0 .14-.067.14-.149v-1.791a.145.145 0 0 0-.14-.149zm3.188 0H9.464a.145.145 0 0 0-.14.149v1.791c0 .082.063.149.14.149h1.954c.077 0 .14-.067.14-.149v-1.791a.145.145 0 0 0-.14-.149zm3.187 0h-1.953a.145.145 0 0 0-.14.149v1.791c0 .082.063.149.14.149h1.954c.077 0 .14-.067.14-.149v-1.791a.145.145 0 0 0-.14-.149z"/></g><defs><clipPath id="bsa"><path fill="#fff" transform="translate(.402 .284)" d="M0 0h17v18H0z"/></clipPath></defs></svg><svg fill="none" viewBox="0 0 18 18" id="smartphone" xmlns="http://www.w3.org/2000/svg"><g clip-path="url(#bta)"><path d="M12.174.636h-5.97A2.119 2.119 0 0 0 4.08 2.761v12.75a2.13 2.13 0 0 0 2.125 2.125h5.97a2.119 2.119 0 0 0 2.124-2.125V2.761A2.119 2.119 0 0 0 12.174.636zM9.2 16.265a.957.957 0 0 1-.966-.966c0-.541.425-.966.966-.966.541 0 .966.425.966.966 0 .54-.425.966-.966.966zm4.134-2.956H5.046V3.476h8.287v9.833z" fill="#fff"/></g><defs><clipPath id="bta"><path fill="#fff" transform="translate(.69 .636)" d="M0 0h17v17H0z"/></clipPath></defs></svg><svg fill="none" viewBox="0 0 20 20" id="subscribe-telegram" xmlns="http://www.w3.org/2000/svg"><path d="m18.848 4.617-2.576 12.148c-.194.858-.7 1.071-1.421.667l-3.925-2.892-1.894 1.821c-.21.21-.385.385-.789.385l.282-3.997L15.8 6.175c.316-.282-.069-.438-.492-.156l-8.993 5.663-3.872-1.212c-.842-.263-.857-.842.176-1.246L17.762 3.39c.701-.263 1.315.156 1.086 1.227z" fill="#20A0E1"/></svg><svg fill="none" viewBox="0 0 22 22" id="subscribe-vk" xmlns="http://www.w3.org/2000/svg"><g clip-path="url(#bva)"><path d="M2.174 5.533h2.33c.295 0 .525.197.623.46.296.852.952 2.723 1.707 4.002 1.017 1.674 1.673 2.297 2.1 2.232.426-.099.295-1.215.295-2.1 0-.886.098-2.396-.328-3.085l-.657-.951a.328.328 0 0 1 .263-.525h3.74c.361 0 .657.295.657.656v4.758s.164.853 1.083-.033c.918-.886 1.903-2.527 2.723-4.2l.328-.788a.648.648 0 0 1 .59-.393h2.429c.46 0 .788.459.623.885l-.262.69s-.886 1.771-1.805 3.018c-.918 1.28-1.115 1.575-.984 1.903.131.329 2.494 2.527 3.084 3.577.164.295.296.558.427.788.23.426-.099.984-.59.984h-2.757a.635.635 0 0 1-.558-.328l-.262-.427s-1.674-1.969-2.691-2.592c-1.05-.59-1.017.262-1.017.262v1.74c0 .721-.59 1.312-1.313 1.312h-.656s-3.61 0-6.497-4.298C2.535 9.733 1.78 7.567 1.518 6.32a.674.674 0 0 1 .656-.787z" fill="#5181B8"/></g><defs><clipPath id="bva"><path fill="#fff" transform="translate(.862 .972)" d="M0 0h21v21H0z"/></clipPath></defs></svg><svg viewBox="0 0 23 22" id="sun" xmlns="http://www.w3.org/2000/svg"><g clip-path="url(#bwa)"><path d="M15.4 7.1a5.548 5.548 0 0 0-3.9-1.63c-1.513 0-2.91.612-3.9 1.63A5.548 5.548 0 0 0 5.97 11c0 1.513.64 2.91 1.63 3.9.99.989 2.387 1.63 3.9 1.63s2.91-.612 3.9-1.63a5.548 5.548 0 0 0 1.629-3.9c0-1.513-.611-2.91-1.63-3.9zm-3.9-3.346a.77.77 0 0 0 .756-.757V.757A.77.77 0 0 0 11.5 0a.77.77 0 0 0-.757.757v2.24c0 .408.35.757.757.757zm6.198 2.124 1.601-1.6a.738.738 0 0 0 0-1.048.738.738 0 0 0-1.048 0l-1.6 1.6a.738.738 0 0 0 0 1.048c.262.291.727.291 1.047 0zm4.045 4.365h-2.24a.77.77 0 0 0-.757.757c0 .407.35.757.757.757h2.24A.77.77 0 0 0 22.5 11a.77.77 0 0 0-.757-.757zm-4.073 5.879a.738.738 0 0 0-1.048 0 .738.738 0 0 0 0 1.047l1.6 1.6a.738.738 0 0 0 1.048 0 .738.738 0 0 0 0-1.047l-1.6-1.6zm-6.17 2.124a.77.77 0 0 0-.757.757v2.24c0 .408.35.757.757.757a.77.77 0 0 0 .756-.757v-2.24a.77.77 0 0 0-.756-.757zm-6.198-2.124-1.6 1.6a.738.738 0 0 0 0 1.048.738.738 0 0 0 1.047 0l1.6-1.6a.738.738 0 0 0 0-1.048c-.262-.291-.727-.291-1.047 0zM4.254 11a.77.77 0 0 0-.757-.757h-2.24A.77.77 0 0 0 .5 11c0 .407.35.757.757.757h2.24A.77.77 0 0 0 4.254 11zm1.048-5.122a.738.738 0 0 0 1.047 0 .738.738 0 0 0 0-1.047l-1.6-1.6a.738.738 0 0 0-1.048 0 .738.738 0 0 0 0 1.047l1.6 1.6z"/></g><defs><clipPath id="bwa"><path fill="#fff" transform="translate(.5)" d="M0 0h22v22H0z"/></clipPath></defs></svg><svg fill="none" viewBox="0 0 16 16" id="telegram" xmlns="http://www.w3.org/2000/svg"><g clip-path="url(#bxa)"><path d="m6.736 9.779-.248 3.49c.355 0 .508-.153.693-.336l1.664-1.59 3.449 2.525c.633.353 1.078.167 1.249-.582L15.807 2.68c.2-.936-.338-1.301-.954-1.072L1.546 6.701c-.908.353-.894.86-.154 1.089l3.402 1.058 7.902-4.945c.372-.246.71-.11.432.137L6.736 9.779z" fill="#fff"/></g><defs><clipPath id="bxa"><path fill="#fff" transform="translate(.85 .291)" d="M0 0h15v15H0z"/></clipPath></defs></svg><svg fill="none" viewBox="0 0 15 16" id="time" xmlns="http://www.w3.org/2000/svg"><g clip-path="url(#bya)"><path d="M7.5 15.5c4.141 0 7.5-3.359 7.5-7.5S11.641.5 7.5.5A7.501 7.501 0 0 0 0 8c0 4.141 3.359 7.5 7.5 7.5zM6.964 3.714a.537.537 0 0 1 1.072 0v4.029l2.477 1.982a.536.536 0 0 1-.67.836L7.166 8.418a.538.538 0 0 1-.2-.418V3.714z" fill="#fff"/></g><defs><clipPath id="bya"><path fill="#fff" transform="translate(0 .5)" d="M0 0h15v15H0z"/></clipPath></defs></svg><svg fill="none" viewBox="0 0 19 19" id="tour-guide" xmlns="http://www.w3.org/2000/svg"><path d="M6.16 0c-.894 0-3.48.041-3.848 2.264h7.697C9.639.04 7.054 0 6.16 0zm7.236 18.443v-4.146l4.146-2.072a.557.557 0 0 0 0-.996l-4.453-2.227a.555.555 0 0 0-.806.498v8.943a.556.556 0 1 0 1.114 0zM10.4 3.377H1.92l-.71 1.42a.555.555 0 0 0 .497.807h8.906a.557.557 0 0 0 .498-.806l-.71-1.421zm-.343 5.01v-1.67H2.264v1.67c0 1.344.957 2.468 2.226 2.727v1.17h-.259l1.93 2.892 1.928-2.893H7.83v-1.17a2.788 2.788 0 0 0 2.227-2.726zm-5.01 8.349h2.226V19H5.047v-2.264zm-3.897-1.67v3.377c0 .308.25.557.557.557h2.227v-2.82c0-.308.249-.557.556-.557h.63l-2.113-3.17a2.779 2.779 0 0 0-1.857 2.613zm8.163-2.612L7.2 15.623h.63c.308 0 .557.249.557.557V19h2.226a.556.556 0 0 0 .557-.557v-3.377a2.779 2.779 0 0 0-1.857-2.612z" fill="#CACACA"/></svg><svg viewBox="0 0 16 16" id="user" xmlns="http://www.w3.org/2000/svg"><g clip-path="url(#caa)"><path d="M13.303 10.664a7.472 7.472 0 0 0-2.85-1.788A4.334 4.334 0 0 0 8 .966a4.334 4.334 0 0 0-2.453 7.909 7.471 7.471 0 0 0-2.85 1.789A7.451 7.451 0 0 0 .5 15.967h1.172A6.335 6.335 0 0 1 8 9.639a6.335 6.335 0 0 1 6.328 6.328H15.5a7.45 7.45 0 0 0-2.197-5.303zM8 8.467a3.168 3.168 0 0 1-3.164-3.164A3.168 3.168 0 0 1 8 2.139a3.168 3.168 0 0 1 3.164 3.164A3.168 3.168 0 0 1 8 8.467z"/></g><defs><clipPath id="caa"><path fill="#fff" transform="translate(.5 .967)" d="M0 0h15v15H0z"/></clipPath></defs></svg><svg fill="none" viewBox="0 0 16 16" id="vk" xmlns="http://www.w3.org/2000/svg"><g clip-path="url(#cba)"><path d="M15.77 11.24a1.034 1.034 0 0 0-.05-.097c-.26-.469-.758-1.044-1.492-1.726l-.015-.016-.008-.007-.008-.008h-.008a9.028 9.028 0 0 1-.633-.64c-.161-.209-.197-.42-.109-.633.062-.162.297-.503.703-1.023.213-.276.383-.498.508-.664.9-1.198 1.29-1.963 1.171-2.296l-.046-.078c-.032-.047-.112-.09-.242-.129a1.23 1.23 0 0 0-.5-.02l-2.25.016a.292.292 0 0 0-.156.004l-.101.023-.04.02-.03.024a.346.346 0 0 0-.087.081.536.536 0 0 0-.078.137c-.244.63-.523 1.216-.835 1.757-.193.323-.37.603-.532.84a4.03 4.03 0 0 1-.405.523 2.83 2.83 0 0 1-.297.27c-.089.067-.156.096-.203.085a5.679 5.679 0 0 1-.133-.03.52.52 0 0 1-.176-.192.857.857 0 0 1-.09-.305 3.359 3.359 0 0 1-.023-.691c.005-.162.008-.27.008-.328 0-.198.004-.413.011-.644l.02-.55c.005-.136.008-.28.008-.43 0-.151-.01-.27-.028-.356a1.215 1.215 0 0 0-.081-.25.42.42 0 0 0-.16-.187.903.903 0 0 0-.262-.106 5.197 5.197 0 0 0-1.055-.101c-.968-.01-1.59.052-1.866.187-.11.058-.208.136-.297.235-.094.114-.107.177-.039.187.312.047.534.159.664.336l.047.094c.036.067.073.187.11.359.036.172.06.362.07.57.025.38.025.705 0 .976-.027.27-.051.482-.075.633a1.267 1.267 0 0 1-.199.538.134.134 0 0 1-.039.04.585.585 0 0 1-.21.039c-.074 0-.162-.037-.266-.11a1.873 1.873 0 0 1-.324-.3 4.02 4.02 0 0 1-.38-.535c-.14-.23-.286-.5-.437-.813L4.7 5.723a19.483 19.483 0 0 1-.32-.637 12.28 12.28 0 0 1-.359-.808.515.515 0 0 0-.187-.25l-.04-.023a.829.829 0 0 0-.305-.117l-2.139.015c-.219 0-.367.05-.445.149l-.031.046a.253.253 0 0 0-.024.125c0 .058.016.128.047.211.312.734.652 1.442 1.02 2.124.366.683.685 1.232.956 1.648.27.417.546.81.828 1.18.28.37.467.606.558.71.091.104.163.182.215.235l.195.187c.125.125.309.275.55.449.243.174.511.346.805.516.294.169.637.307 1.027.413.39.107.77.15 1.14.13h.899c.182-.016.32-.074.414-.172l.03-.04a.52.52 0 0 0 .06-.144.794.794 0 0 0 .026-.215 2.574 2.574 0 0 1 .051-.605 1.59 1.59 0 0 1 .133-.406.998.998 0 0 1 .3-.344.503.503 0 0 1 .063-.027c.125-.042.272-.001.441.121.17.123.329.274.477.453.148.18.327.382.535.605.208.224.39.39.547.5l.156.094c.104.063.24.12.406.172a.876.876 0 0 0 .437.039l2-.031c.197 0 .351-.033.46-.098.11-.065.175-.137.196-.215a.604.604 0 0 0 .004-.265.983.983 0 0 0-.055-.207z" fill="#fff"/></g><defs><clipPath id="cba"><path fill="#fff" transform="translate(.85 .291)" d="M0 0h15v15H0z"/></clipPath></defs></svg><svg fill="none" viewBox="0 0 19 19" id="wallet" xmlns="http://www.w3.org/2000/svg"><path d="M16.776 5.842H3.986a.594.594 0 1 1 0-1.188H14.42V2.428c0-.317-.142-.612-.39-.81a1.034 1.034 0 0 0-.875-.201L1.996 3.922a1.031 1.031 0 0 0-.808 1.011v11.64c0 .57.464 1.036 1.036 1.036h14.552c.572 0 1.037-.465 1.037-1.036V6.878c0-.571-.465-1.036-1.037-1.036zm-1.87 6.942a1.008 1.008 0 0 1 0-2.014 1.008 1.008 0 0 1 0 2.014z" fill="#fff"/></svg><svg fill="none" viewBox="0 0 16 16" id="whatsapp" xmlns="http://www.w3.org/2000/svg"><g clip-path="url(#cda)"><path d="M8.352.291h-.004C4.213.291.85 3.655.85 7.791c0 1.64.529 3.161 1.428 4.396l-.935 2.786 2.883-.921a7.435 7.435 0 0 0 4.126 1.239c4.135 0 7.498-3.365 7.498-7.5s-3.363-7.5-7.498-7.5zm4.364 10.591c-.18.51-.899.935-1.472 1.058-.392.084-.904.15-2.627-.564-2.204-.913-3.623-3.153-3.734-3.298-.106-.145-.89-1.186-.89-2.262 0-1.077.546-1.6.766-1.826.181-.184.48-.269.767-.269.093 0 .177.005.252.009.22.01.33.022.476.37.18.436.621 1.512.674 1.623.053.11.107.26.032.406-.07.15-.132.216-.243.344-.11.127-.216.225-.326.362-.102.119-.216.246-.088.467.127.215.568.934 1.216 1.512.838.745 1.516.983 1.76 1.085.18.075.396.057.528-.084.168-.18.375-.48.586-.776.15-.212.34-.238.538-.163.203.07 1.274.6 1.494.71.22.11.366.163.42.255.052.093.052.53-.129 1.041z" fill="#fff"/></g><defs><clipPath id="cda"><path fill="#fff" transform="translate(.85 .291)" d="M0 0h15v15H0z"/></clipPath></defs></svg></svg>